/* XPM */
static char *result[] = {
/* columns rows colors chars-per-pixel */
"64 64 95 2 ",
"   c #34111C",
".  c #37211E",
"X  c #39201C",
"o  c #391520",
"O  c #3C1E21",
"+  c #3C2522",
"@  c #3E2823",
"#  c #5B3E35",
"$  c #3E7E23",
"%  c #5D4037",
"&  c #5E4139",
"*  c #62443B",
"=  c #775346",
"-  c #7A5547",
";  c #7A5648",
":  c #7D594A",
">  c #676C6B",
",  c #805B4C",
"<  c #917266",
"1  c #957669",
"2  c #3F8123",
"3  c #448526",
"4  c #468926",
"5  c #498B27",
"6  c #458628",
"7  c #478928",
"8  c #4A8D28",
"9  c #469425",
"0  c #499627",
"q  c #4D9B27",
"w  c #479628",
"e  c #4B9629",
"r  c #4D9A29",
"t  c #509E27",
"y  c #519D2A",
"u  c #4E8C32",
"i  c #518F33",
"p  c #529233",
"a  c #549D34",
"s  c #589E35",
"d  c #56A42C",
"f  c #58A62D",
"g  c #57A92D",
"h  c #5CAB2E",
"j  c #57A035",
"k  c #5BA436",
"l  c #5EAD31",
"z  c #5FA938",
"x  c #5FB234",
"c  c #67A537",
"v  c #60AE32",
"b  c #60AA38",
"n  c #61B334",
"m  c #68B636",
"M  c #64B836",
"N  c #6ABA36",
"B  c #65B53A",
"V  c #68B53B",
"C  c #64B939",
"Z  c #6ABA3B",
"A  c #70BF3A",
"S  c #6FC039",
"D  c #76C33E",
"F  c #78C53F",
"G  c #67AD42",
"H  c #6CB743",
"J  c #6CBA43",
"K  c #71BD45",
"L  c #76BE4E",
"P  c #76C441",
"I  c #7AC641",
"U  c #7DCA43",
"Y  c #82CD45",
"T  c #81C74B",
"R  c #84CA4C",
"E  c #88CF4E",
"W  c #84D146",
"Q  c #85D248",
"!  c #88D04E",
"~  c #96D754",
"^  c #97D955",
"/  c #9ADB56",
"(  c #9EDE5A",
")  c #A1DF5B",
"_  c #9FE05A",
"`  c #A4E35D",
"'  c #A8E65F",
"]  c #A1DE61",
"[  c #A5E262",
"{  c #A9E562",
"}  c #AEEA64",
"|  c #ADE668",
" . c #AFE869",
".. c #B1EE66",
"X. c #B2F166",
/* pixels */
"G z z z m B B V V V V V z z z z J P J J j a a j J J J J B B b V : : : : # # # # < < < < < < 1 1 & & & & # # # # # # & # & & # & ",
"d d d d h v v h v l l l d d d d x C x x r w r r x C C x n h v v : : : : # # # # < < < < 1 1 1 1 & & # & & # # # # # # # # & # & ",
"b f f g h v l l v l v l d d d d C C C M r w w r x x x C n x h x : : : : # # # # < < < < 1 1 1 1 & & & & # # # # # # # # & & & & ",
"z d d d h v v l l l v l d d d d x x M n r r e r C C C C h h x x : : : : # % # # < < < < 1 1 1 1 % # & # # # # # # & # # # # & # ",
"p 5 4 5 h n v h d g d g n n C x d d d d n V m V Z C J V % # # # & % % & X . . . % % % % % % % % % # # # = = ; ; , , , , & & & # ",
"i 3 4 3 h v n v d d y d n C J C d d d d C Z Z Z V Z C B # # # # & & % % . . . . % % % % % % % % # # # @ ; ; ; = , , , , & # # & ",
"u 3 3 4 h n n v d d d d x x x x d t q d Z Z Z C Z B J Z # # # # % & & & . . . . % % % % % % % % # # # # = ; = ; , , : : & # & & ",
"i 4 4 5 h n v h g d g g x P x x g d d d V Z V m B Z Z n % # # % % & % % . . . . % % % % % % % % # # # # ; ; ; ; , , : > & & & # ",
"A N N n d d g d g l h l F Y F I / ( ` / g d d d n Z V Z # # * # - - - - : : : : % % % # # # # # = = = = ; ; : : O + . . = - - - ",
"K S S D d d d d l x h l I Y I Y ` ..} ` g q d d V Z V Z # # # # - - - - : : : : % % # % % # # % = = = = : : ; : O O . . = = - - ",
"K A Z N g d d d g z g l I Y I U ' ' ..` h t d d V Z m Z # # % # ; = ; ; : : : ; # # # # # # # # = = = = ; , : : . . . . - ; - - ",
"K N N N d d d d l x l v I Y I U / ` ` / f y f f n Z m N # # * * = ; - ; : : : = # % # # # # % # = = = = ; ; : : . . . . - ; - - ",
"K m Z V 8 4 3 5 D U I I I I Y I d q d r h h h z # & # # 1 1 1 1 ; ; ; ; % % # # = ; : : % % # # 1 1 1 < 1 1 1 1 # # # # 1 1 1 < ",
"K m J m 8 3 3 5 I W U W I U Y I q 2 9 9 h n h x # # # # 1 1 1 1 ; = = - % % # # : : : : # # % @ 1 1 < 1 1 1 1 1 # # # # 1 < < 1 ",
"J V Z C 8 3 3 5 I Q Y U U U Y I r 0 r q v v l l # # # # 1 1 1 1 = - = - % # # % : : : : # # # # < 1 1 < 1 1 < < # # # # < 1 1 < ",
"J V Z V 8 3 3 5 F U I F U I Y I d 9 e q h v l l # # & # 1 1 1 1 ; - - - % # # # : : : : # # # # 1 < 1 1 < < < < # # # # 1 < 1 1 ",
"V l v h q e e e r t r d I U Y I r 0 e r l x l l # # # # 1 1 1 1 1 1 1 1 * * * % # # # # % * % *   X X X & & & & = # * * @ @ @ @ ",
"B l v h t r r t e e 9 e I U Y I r 0 r r h x l x % # # # 1 1 1 1 1 1 1 1 % % * * # # # # * % * % X X X X * & * & = # * * @ @ @ @ ",
"b v v v e e e r r e 0 q I Q Y U y 0 e e h n v v # # # # 1 1 1 1 1 1 1 1 * * * % # # # # % * * * X X X X & & & & # * = & @ @ O @ ",
"V v h h r r r r q q 0 t P U U I t 0 e r h l l l # # # # 1 1 1 1 1 1 1 < * % * * # # # # * % # * X X X X * & & # # & # # @ @ @ @ ",
"V l l l V m V V h h h h l x n x d d d d g g g d 5 5 3 0 1 1 1 1 * * % * X X @ X , , , , # # # # > > > > O O O O @ @ @ @ o o O O ",
"V l l l C Z Z Z n v v v h h h l d d d f d d f d 4 3 $ 5 1 1 1 1 * * * % @ X X @ , , , , # # # # > > > > O O O O @ @ @ @ O O O o ",
"V l x x n Z Z Z h h h h n l v l d d d d d d f d 5 4 2 5 1 1 1 1 * % % * O @ X X , , , , # # * * > > > > O O O O @ @ @ @ O O O o ",
"b l l l C J V B l v v v l x x l d d f f d d f d 5 5 3 p 1 1 1 1 % % * % O X @ X , , , , # % % * > > > > O O O O @ @ + + O O O O ",
"p 8 7 5 h n h l F I U F l l l l n x n n x x C x x x C x f f h f * * * * @ @ O O O O O O * * * *         c c c c o     o G J J P ",
"i 6 3 4 h n h v I Y W U n h l n m C C C x P C C C C C C d q d q * * * * O O O O O @ O @ * * * *         c c c c   o o   b C x H ",
"i 8 3 4 l n l n I Y Y I n l n n x x C x S x C C C x C x d d d d * * * * O O O @ O O O X * * * *         c c c c   o   o B P H J ",
"u 8 3 4 h x l l I U U I v h h h C J x C x x x x C C C C g d d f * * * * O O O O O O O X * * * *         c c c c o   o   x C C J ",
"a e e r d g d d N Z Z V j d d d x C C x 2 w 6 8 P P U I P I I I o o o o A A A m 2 2 2 2         N F U F h d d g ^ ` ` ^ k d d b ",
"k r r r d d d d V Z Z B d d d d x C C x w 2 3 7 U U U U U Y R U o o o o N A A m 2 $ $ 2         D U W U d q q d ` ....` g r d l ",
"a e e e d f d f n Z Z V g d d d C P C C 8 6 2 7 U Q U U U U Y U o o o o m m A m 2 $ 2 2         U U Y U d d y h ` ....` g r j b ",
"s r r r d d d d V Z Z n g d d d x x C x 8 7 6 w P U P U U I U I o o o   N A A m 2 $ 2 2         F U U F d d d f / ` ` / h d d b ",
"J x x x t e e r I U U I l l x l 8 6 8 8 d g r d N N N N C J Z m h d d d F Y U F r 9 e e x n n l v v n l d d d d g f f g v v h V ",
"P x S C r e w r I Y Y U n l x x 5 3 3 4 d g g g N D N N V n V V d d d f F W Y U d 0 e r h x l l h l l h d d d d d d r d l n v V ",
"J C C x r e w e I W Y U x l x g 3 3 3 3 t g a g N S Z N Z C Z Z f d d f F Y Y U r e e r l n h l l v n l d d d d d f d d x n v V ",
"H C C C t e e r I U U I l l x x 8 3 7 4 d g g g N N N N V V C m f d y f F U Y F r e r e h n x v x l n h d d g h d d d f h b l b ",
"G g x z n V V n d d d g x x S x m N n n x x x x g d d g d d g d q q 0 t v v v v d d d d x C n C l l h x F F F F d d f d r r r j ",
"C x l x Z Z Z Z d d d d x x C C Z D S S S x P x d d d d d d f d e e e q f h v h g d d d x C C n l l h x F W Q F f d f d r e r a ",
"B l l x V C C V d d d d C J Z m N S A N x C C n d d d d f d f d 0 9 9 9 h v v h d d d d C C C C l l h x F W W W f d g f e 9 9 a ",
"B x l l V V Z V d d d d x n n n N N N N C x C m d d d f d f d d t q t t h v v v d g j g x C n n n l h x F W F F f y d d r r r j ",
"H V V n x l x l h h v h 8 5 8 8 f g d f h v h v n Z Z n j d q f ~ ) ) / Z n Z V C V Z n 5 4 4 e F Y Y F e 3 e 5 q q 9 y ~ ` / ] ",
"J Z J Z l l l l l l n h 4 3 $ 3 d f d d h v h v Z Z J V g d d g ) ....{ Z V Z V Z Z J C 4 3 2 4 I Y Y F 4 $ 3 3 e r 9 y ` ..{  .",
"K V J Z x l l l l x x x 5 3 3 4 d g d f v v v v Z Z J m d d q d ) ..{ ` J n C N Z V Z n 5 3 3 4 I Y W Y 5 $ 3 7 e r 9 y ` } [ { ",
"K V C n l l x l l l l l 5 5 7 8 t f f d h v h h n V V B d d d g / ` ` ) Z n m N C Z Z V 5 3 3 5 F Y Y F 8 3 5 5 r r 9 y / [ ` [ ",
"m n l n l v v h r w r r x x x x f f f f 0 5 5 5 8 8 4 e F U I I A Z D N v h h v C Z N N N m N N f f f f N N N m d d d d I W I ! ",
"B l l h l l v h r w w r C x P Z f y f f 5 3 4 4 7 3 2 4 I Q W U m m N n h v h v N Z S N S S D Z d y d d N S S N d d d g I I I R ",
"V l n v n v n v r r w r x C C n d y f y 5 $ 3 4 4 7 3 5 I Q W U N N A N v v v v m N N N N Z S N d d d d N D Z Z d d d d U Q U ! ",
"V h h v h h v h r r r a x C n n f f f f 8 4 5 5 5 5 3 8 F U I I N N Z N v h h v N Z N Z N N N N f d d d N N N N d d d g I U I R ",
"j r r q d f d d l l h l x h v x V V V m l g h h d d d y t r r t x C C C y 0 9 y ^ _ _ _ S x x M m B V B v l v v g d f d 5 5 5 p ",
"a e e q d f d d l v n v h n v h Z Z C Z n v n n f f g f w e 9 e x C C x r e 9 q _ X.} [ x x x M Z Z Z V l h h h d f f d 4 3 3 u ",
"a e r r d f d f l n n n l v v l V C Z Z l x n l d d d d e e 0 0 x P C x r 0 9 q _ X.} _ S x M M Z Z Z Z v v n v f f g d 3 3 3 u ",
"s r r r d f y d h l h l l n h l V C Z N l l l l d f f d r r e r x x M M r e 0 t ^ ' ] _ C x n M B V Z V v h h h d d f d 8 8 8 p ",
"z d d d 5 4 7 8 5 5 5 5 d d d f N N S N d d d d D F F F Z m n C x g x l l l l h x n n v v h v h j g d d q q q r h l h l F I I T ",
"z d f f 4 3 4 4 4 3 4 5 d g d d N Z N N d d d g Y W Y U Z Z J Z x x l x v n x x h h g g h v v v d d d d 0 e e e l n l l Y Y W ! ",
"b d d d 5 3 8 7 4 3 3 3 q d t d N S Z N d d r d F Y Y Y Z Z Z Z n x x x h h h h v v n v h g h h d d d d 0 e e e h n l x I W U E ",
"b d g f 5 4 8 3 5 8 3 5 f h f g N N Z N d d d l F Y I F V n Z B h l l l v n v m h h h v n v v h d d g f t r r r l n l x I I I R ",
"B h v h d d d y h l g v ^ ` ` / Z V C V F F I I C n C C r r r q 5 4 3 5 / ` ` ( p 3 3 5 ^ ' ` ) Z x m V I I I P l l l l N Z m K ",
"B n n n f d f f x n h n ` } ..` Z n V Z U W Y U n x C n r 0 r e 4 6 $ 8 ( ....` 8 $ 2 5 ` ..' ' Z V C Z U Y W U x l l l M C V J ",
"V l v h d d f f h v h n ` } } ` Z V V Z I W Y Y C x C n r e r e 4 6 2 8 ` X...` 8 $ 3 8 ) ..' ' Z C C Z U Y Y U h g h h V V Z J ",
"b l n h d d f y h n h l ^ ` ` / Z n V m F I I I C x C n r 0 q q 8 7 3 8 ~ ` ` / e 2 3 8 ~ ` ` / m B V Z I I U I n l v n Z Z Z J ",
"V n n h 8 4 4 8 d f d d v v n v d f f f v n x l Z C Z B d d d d h h l g y r y d h l l g g f f g f j f d C Z V Z ( _ ` ( Z B V K ",
"V b n h 8 6 4 4 y f d d g h h h d d d y h l g l Z J Z V j f g f n n n x 9 9 9 w n n n n d q d d d d d d n H n Z ` } } ` Z n B K ",
"v v n v 5 3 3 8 d f d d v v v h d y d d h v z l B Z Z B d d d d h n x l e e e r l n v l d d d f d d d f C Z n Z ( [ [ _ J n J C ",
"H B B B p u i i z b l z c V m m b b b b V B B V H K K H b z b c B B H B j a a k b V V B b b z z b z z b J K J K [ | | [ K H J L "
};
