/* XPM */
static char *result[] = {
/* columns rows colors chars-per-pixel */
"64 64 90 1 ",
"  c #34111C",
". c #37211E",
"X c #39201C",
"o c #391520",
"O c #3C1E21",
"+ c #3C2522",
"@ c #3E2823",
"# c #5B3E35",
"$ c #3E7E23",
"% c #5D4037",
"& c #5E4139",
"* c #62443B",
"= c #775346",
"- c #7A5547",
"; c #7A5648",
": c #7D594A",
"> c #676C6B",
", c #805B4C",
"< c #917266",
"1 c #957669",
"2 c #3F8123",
"3 c #448526",
"4 c #468926",
"5 c #498B27",
"6 c #468628",
"7 c #478928",
"8 c #4A8C28",
"9 c #459325",
"0 c #499627",
"q c #4D9B27",
"w c #4B9529",
"e c #4D9A29",
"r c #519D2A",
"t c #4E8C32",
"y c #518F33",
"u c #4F9931",
"i c #529233",
"p c #559D34",
"a c #589E35",
"s c #56A42C",
"d c #59A62D",
"f c #57A92D",
"g c #5CAB2E",
"h c #57A035",
"j c #5BA436",
"k c #5EAD31",
"l c #5FAA38",
"z c #5FB234",
"x c #67A537",
"c c #60AE32",
"v c #60AA38",
"b c #61B334",
"n c #68B635",
"m c #64B836",
"M c #6ABA36",
"N c #65B53A",
"B c #68B63B",
"V c #64B939",
"C c #6ABA3B",
"Z c #70BF3A",
"A c #6FC139",
"S c #75C33D",
"D c #78C53F",
"F c #67AD42",
"G c #6BB742",
"H c #6DBA43",
"J c #71BD45",
"K c #76BE4E",
"L c #77C341",
"P c #7AC641",
"I c #7DCA43",
"U c #82CD45",
"Y c #81C74B",
"T c #84CB4C",
"R c #84D147",
"E c #87D14B",
"W c #88D04E",
"Q c #97D854",
"! c #9ADB56",
"~ c #9DDE59",
"^ c #A1DF5B",
"/ c #A4E35D",
"( c #A8E75F",
") c #A1DE61",
"_ c #A6E162",
"` c #ADEA64",
"' c #ACE668",
"] c #AFE869",
"[ c #B1EE65",
"{ c #B2F066",
/* pixels */
"%%%%&&#&;;;-111<@@@@OO+OJGHHvvvvBBBNapua)]'_WYWYiytyYWTTHHHJJHHK",
"%%%%#&&#;;=;1<<1@+@@ O OCNCBdssskczkew0e!`/^UPUPw338PUIICVBCBBBC",
"%%%%#&&%;;;=<11<@@+ OO OCVCCrrqsccbkew9e^[`(UIRI8337PRUICVCVNNNG",
"%%%%&%&%;;=;1<11+@@#OOOOCbBNgfffkckkew0rQ/^~PPID8678DIIDBNBBBCHJ",
"####,,,,....####****@@@@ooo Q)/!ssssfsssrrrrssddsrsscbcbbgfb!/~_",
"###%,,,,....####****@@@@ o  _]`/frddffds0999sssssgddfkgggcfz/`('",
"#%##,,,,....####****@@@@ o o_{`/grssssrsqewrssfsdssscbbbkkfz^`_'",
"####,,,,..  ####****@@@@ oo !_/!ssjsssgseww0sfdssdssgcgccbkz!(~_",
"####=====-,-1111%*%*XXOOxxxxdsdfssssDIDD0335bMMMggcgewerDIPPCCCJ",
"####====:--:1111%%*%XXOOxxxxsqsrssssIRRIw335MAZCccbkww0qDRUINbNH",
"####;;==--::1111%%%%X# .xxxxsssssdssIRRD5$33MSCMgckgew0qIUUICBCJ",
"####;;==:::-1111%%%#OX  xxxxdsffsssdDIDS8458nAMngcbzqq0qDUIDNNNH",
"&&&#####====1111XXXX>>>>    DDDDcggccczzDUIDdssdnCCNssssBCCNdsfv",
"&##&####====1111XXXX>>>>    URRRbccbkkggIURIfrssBCCVhsssmBCNdssj",
"&#&&####====<111XXXX>>>>    DRRRcgbckkfzURRUdrsdBVCBfsssbBNNssdl",
"&&&#####====1<1<XXX >>>>    DIDDcgzkkzkcSPPDfsssNHCCfssfBACBdssl",
"1111*&#&#%#######%&&&###****    kkzzzzVb8558bMMMNVVzgcdc!/(!gqsk",
"1111*##&########%%&&%%##****    zzfkHzAz5233MSSMbzVzgcfb/`(/gssc",
"1111&#&&%##%#@%#%&&&####****    zkzzzVVm3334MMCMzzzzccdn([[(dqsx",
"1111#&&#######%#&&&&####****    kgzzzVmz8558MAMMzHVVcggcQ/^Qfssl",
"<<<<&&&###%#::::####,,,,   O2322eeeessssNVNNMZMA~//!zfcc8588kcgB",
"<<<<&#&&####::::####,,,,#O@O$$$$wewessssBCCVMMMM/``(bfbd3$33gNcB",
"<<<<&##&%#%%::::####,,,,OOOO$$$$9ww0shsfBCVCMCMZ/{`(bfbc32$3kbbN",
"<<<<&&#&%%%%::==#*##,,,,OO+O3$23ereesssfBCBVMMbM!)~!cfccw88wgbcv",
"####....;:::#%##***#+.+.+OO+MnMMPPIDzggcNCBBkzcgqqrrgbfb!//!r0qp",
"####....::::####*#**+..+OOOOAACAIIRIzfccBBVBcgbg0590kbgb/[[/r9ep",
"####....::::%#%%%*%*.+XXOoOOACVAIIRIcgccBbBNgccgew00kbgb([[(r9wp",
"%##%...+::::%%%%*%*%++XXO #OMmmVIIILcfggCCCCcgbgqeeqgbgbQ^/Qr0ep",
"::::%%%%==;=;==;1111**%*&&*=  oossdsrq0q!(/!CmVmzzzVckbg8888kkgN",
"::::%%%%=;;;=;;;1111***%****oooossssq09q/(`/AnAAVVVVckbg3223kbcN",
"::::&&%&:;;=;;;=1111%*%**%&*oooossssew9r/[[(CmAzzLVVkkbk5368kbcG",
"::::%&&&=;;;=;=;1111*%*%*=&&oooofddsee0qQ/^~MmVLzzzzckbg5535gbbv",
"Bgbz%##%####111111111111sqssDIILNNBmfssssdsfDIIDr0qqnBVBqeeesssl",
"Bgbg######%#111111111111dssfIUIICBCCfsdssqqsDURDr900BCCVqeeesfsl",
"Nkkg####%#%%111111111111dsssPUIICNCBssssssssURRIqw0eNBCNee0esssl",
"Bvbz###%##%%111111111111dsssDUIICNBNdsdsfssdDDUDr00eCCCBewwesddl",
"GzmzNBNNnBCB####*%##w888cnzmIIIIMMZMdssfNVCN8488ssssLIIPVzzzNNNJ",
"HNzVCCCCBVVn#%#%*%#%2$$6bmzVPIIIMMAMdsssVAHN5333sfsdPUUIVVVVCCCJ",
"LVVVBVVBVCCC########9667zzzVIEEIZCCMdrssBCCB5377sdrdIUUIVzzzCCNJ",
"GzzNBBCCNNNN##%%##%#866wzAzVLPPPMMMndsssNCVN8377sdsfPIIDVNVNBNBH",
"peeeBCCVsssskbckzkccsssszVVV2288sssdzVzVkkzk5368ggbgfssdLIIPzkkB",
"pewwBVCCssssdccgkzccffsszVVzu226ssssVVVVkkkk8638cbbzssrsIRIIkkkv",
"pe9wBCHVsqqsccccbbccssssVVVV2427ddsdzVVbcczg5335gcgcssssPRIIbkcB",
"peeemCBNgdffggcgggggsssszVVzu2w8sdssbVmmcgbg8835gbccsssfLIIIcgcv",
"Lzzzfsss!//~q9eeeeqqsssdzVVzzzVz5445nMMMssssssssnBBmMMMMMCMNsssv",
"HzAmssqs/``/r9eewewesfsdVVVVLzAz4334nAZMssssdgsdBCVCMSAMBNNNsssv",
"Hzmmssss~``/r4000ww0sssdVVVVzVVm4334nZMMfsfsssssBVCCMMCCbNNNsssv",
"Hzbbssss!(/!s0rrqeqqsdsszVzVzznb5545nZMMssssddsdnBBBMMMMCCCCsssv",
"zfffzVzzIIIIIIPIDPIDcgkkkkkcssssgkkkzVVN8668zVVzzkzksssd!(/~cdcN",
"lprrVVzHLIPIIIIIUUUUbkbckzbgssssbbzzVzVb6368zVVVckzgssqf^[(/cgcB",
"lrfrVVVBIIIIIIIIUUUIbfbkggggsssfgkkkVVVV4228NAVVkcccsfsf/``/cgcN",
"lsffzzzbLIIIPIIIDPPDkkkcbcbbsssdcbzzzzbbw478zzbbzgzkssqs!//!cfgx",
"VzkkfssscckcPIIIrweegcgkDIIDBNNBPIIPgssskkggqeeegzzk9355kmbcfssv",
"FkzkssssggfkPIIIe9w0gbgkIUUICBVCIUUIsrsskzbkwwweccbk5335fkgfsssv",
"NzkzsrsscckcIRWIrweegckkIUUICVCCUURUdsssgcbgqw0qczbc5435gbccssgv",
"NkkkfsfsggfkSPIDeweegckkDIIDBVNNLDPPdssdgccgeeerkkzf5455gccgsssx",
"Bgcgzgbgdsfs5455wrweNCBBzzzzssfseq0qNCBBkkkkggkgssds8468sdds544i",
"vbgcbcbkssds3333weeeNCCVgggkssss0w00NCCBzkkzcbccfsss5768sfss434t",
"Bccccbbcssss33330e0qNCCBzzzzfsfsew00BCVCkkkkggbcssfd3337sdss444t",
"vcggggggdsss8888qrerNCBNggkfssffeeeeBVBBkkbccccgsssr8858ssfs545i",
"vsfs8535bAMMBNBNggkdgkzk8355seeezVzzzcgzNCBNzkzkeqwqssssgkkkccgN",
"vsss3335MSMACCCCckccgkbg53332e0eVzAVzggzBHCVckkkewweddsdkbzccccB",
"ssgs5535nAMCCCCBckkkkbbk8787euwuzVNzcckzBVBBkkkkeeeesdsskbcbkkcc",
"FlvxiytyJLJJHHJHBvBBvBBNittiphphGLHHBBvBJJJHBNNNapaajvvvNBvNBBBH"
};
