/* XPM */
static char *_33a826a6f844ac7ac5e98d007fcd6f3ko2EyE0Lj51RNcuG[] = {
/* columns rows colors chars-per-pixel */
"64 64 4 1 ",
"  c #2A2A2A",
". c gray17",
"X c #D9CFD3",
"o c white",
/* pixels */
"oooooooooooooooooooooooooooooooooooooooooooooooooooooooooooooooo",
"oooooooooooooooooooooooooooooooooooooooooooooooooooooooooooooooo",
"oooooooooooooooooooooooooooooooooooooooooooooooooooooooooooooooo",
"oooooooooooooooooooooooooooooooooooooooooooooooooooooooooooooooo",
"oooooooooooooooooooooooooooooooooooooooooooooooooooooooooooooooo",
"oooooooooooooooooooooooooooooooooooooooooooooooooooooooooooooooo",
"oooooooooooooooooooooooooooooooooooooooooooooooooooooooooooooooo",
"oooooooooooooooooooooooooooooooooooooooooooooooooooooooooooooooo",
"oooooooooooooooooooooooooooooooooooooooooooooooooooooooooooooooo",
"oooooooooooooooooooooooooooooooooooooooooooooooooooooooooooooooo",
"oooooooooooooooooooooooooooooooooooooooooooooooooooooooooooooooo",
"oooooooooooooooooooooooooooooooooooooooooooooooooooooooooooooooo",
"oooooooooooooooooooooooooooooooooooooooooooooooooooooooooooooooo",
"oooooooooooooooooooooooooooooooooooooooooooooooooooooooooooooooo",
"oooooooooooooooooooooooooooooooooooooooooooooooooooooooooooooooo",
"oooooooooooooooooooooooooooooooooooooooooooooooooooooooooooooooo",
"oooooooooooooooooooooooooooooooooooooooooooooooooooooooooooooooo",
"oooooooooooooooooooooooooooooooooooooooooooooooooooooooooooooooo",
"oooooooooooooooooooooooooooooooooooooooooooooooooooooooooooooooo",
"oooooooooooooooooooooooooooo        oooooooooooooooooooooooooooo",
"oooooooooooooooooooooooooooo...     oooooooooooooooooooooooooooo",
"oooooooooooooooooooooooooooo...     oooooooooooooooooooooooooooo",
"ooooooooooooooooooooooooo   .XXXX     oooooooooooooooooooooooooo",
"oooooooooooooooooooooooo  XXXooooooo  oooooooooooooooooooooooooo",
"oooooooooooooooooooooooo XXXooXXX ooo   oooooooooooooooooooooooo",
"oooooooooooooooooooooooo XXXooXXX ooo   oooooooooooooooooooooooo",
"oooooooooooooooooooooo   XooooXXX ooo   oooooooooooooooooooooooo",
"oooooooooooooooooooooo  XXooooXXX oooo    oooooooooooooooooooooo",
"oooooooooooooooooooooo  XoooooXXX oooo    oooooooooooooooooooooo",
"oooooooooooooooooooooo  XoooooXXX oooo    oooooooooooooooooooooo",
"oooooooooooooooooooooo  XoooooXXX oooo    oooooooooooooooooooooo",
"oooooooooooooooooooooo  XoooooXXX oooo    oooooooooooooooooooooo",
"oooooooooooooooooooooo  XoooooXXX oooo    oooooooooooooooooooooo",
"oooooooooooooooooooooo  XXooooXXX oooo    oooooooooooooooooooooo",
"oooooooooooooooooooooo  XXooooXXX oooo    oooooooooooooooooooooo",
"oooooooooooooooooooooo   XooooXXX ooo   oooooooooooooooooooooooo",
"oooooooooooooooooooooooo Xooo     ooo   oooooooooooooooooooooooo",
"oooooooooooooooooooooooo  oooooooooo  oooooooooooooooooooooooooo",
"oooooooooooooooooooooooo  oooooooooo  oooooooooooooooooooooooooo",
"ooooooooooooooooooooooooo    oooo     oooooooooooooooooooooooooo",
"oooooooooooooooooooooooooooo        oooooooooooooooooooooooooooo",
"oooooooooooooooooooooooooooo        oooooooooooooooooooooooooooo",
"oooooooooooooooooooooooooooooooooooooooooooooooooooooooooooooooo",
"oooooooooooooooooooooooooooooooooooooooooooooooooooooooooooooooo",
"oooooooooooooooooooooooooooooooooooooooooooooooooooooooooooooooo",
"oooooooooooooooooooooooooooooooooooooooooooooooooooooooooooooooo",
"oooooooooooooooooooooooooooooooooooooooooooooooooooooooooooooooo",
"oooooooooooooooooooooooooooooooooooooooooooooooooooooooooooooooo",
"oooooooooooooooooooooooooooooooooooooooooooooooooooooooooooooooo",
"oooooooooooooooooooooooooooooooooooooooooooooooooooooooooooooooo",
"oooooooooooooooooooooooooooooooooooooooooooooooooooooooooooooooo",
"oooooooooooooooooooooooooooooooooooooooooooooooooooooooooooooooo",
"oooooooooooooooooooooooooooooooooooooooooooooooooooooooooooooooo",
"oooooooooooooooooooooooooooooooooooooooooooooooooooooooooooooooo",
"oooooooooooooooooooooooooooooooooooooooooooooooooooooooooooooooo",
"oooooooooooooooooooooooooooooooooooooooooooooooooooooooooooooooo",
"oooooooooooooooooooooooooooooooooooooooooooooooooooooooooooooooo",
"oooooooooooooooooooooooooooooooooooooooooooooooooooooooooooooooo",
"oooooooooooooooooooooooooooooooooooooooooooooooooooooooooooooooo",
"oooooooooooooooooooooooooooooooooooooooooooooooooooooooooooooooo",
"oooooooooooooooooooooooooooooooooooooooooooooooooooooooooooooooo",
"oooooooooooooooooooooooooooooooooooooooooooooooooooooooooooooooo",
"oooooooooooooooooooooooooooooooooooooooooooooooooooooooooooooooo",
"oooooooooooooooooooooooooooooooooooooooooooooooooooooooooooooooo"
};
