/* XPM */
static char *result[] = {
/* columns rows colors chars-per-pixel */
"64 64 212 2 ",
"   c #000905",
".  c #00140E",
"X  c #001B15",
"o  c #041B17",
"O  c #02241E",
"+  c #0A2E1A",
"@  c #0C301C",
"#  c #012922",
"$  c #092B26",
"%  c #0A2D28",
"&  c #072B25",
"*  c #0B332C",
"=  c #093728",
"-  c #123928",
";  c #0C3730",
":  c #113D30",
">  c #13432C",
",  c #1D4E2C",
"<  c #154225",
"1  c #1F542C",
"2  c #07483C",
"3  c #16413A",
"4  c #1A423C",
"5  c #1C4C35",
"6  c #255A2E",
"7  c #295F30",
"8  c #255934",
"9  c #2A632D",
"0  c #306B2D",
"q  c #3D7F22",
"w  c #3B7C2D",
"e  c #2A6131",
"r  c #37643A",
"t  c #377334",
"y  c #144B42",
"u  c #0A5C4E",
"i  c #115B4E",
"p  c #275145",
"a  c #166B5C",
"s  c #176659",
"d  c #0E6C5B",
"f  c #077965",
"g  c #1A7C6B",
"h  c #187565",
"j  c #237567",
"k  c #3F8023",
"l  c #3F8E22",
"z  c #448526",
"x  c #468926",
"c  c #498B27",
"v  c #458629",
"b  c #468929",
"n  c #4A8C29",
"m  c #459325",
"M  c #499627",
"N  c #4D9A27",
"B  c #4B9529",
"V  c #4D9A29",
"C  c #519D2B",
"Z  c #50922B",
"A  c #468D32",
"S  c #4E8C32",
"D  c #418335",
"F  c #4E9534",
"G  c #529233",
"H  c #549D33",
"J  c #579E37",
"K  c #518F33",
"L  c #55A32C",
"P  c #58A62D",
"I  c #5CAB2E",
"U  c #57A92D",
"Y  c #56A134",
"T  c #5CA535",
"R  c #5EAD31",
"E  c #5FAA38",
"W  c #58AA36",
"Q  c #5EB234",
"!  c #60AE32",
"~  c #61AB38",
"^  c #61B334",
"/  c #68B735",
"(  c #64B836",
")  c #6ABA36",
"_  c #65B53A",
"`  c #68B53B",
"'  c #64B939",
"]  c #6ABA3B",
"[  c #68B735",
"{  c #6FC13A",
"}  c #75C33E",
"|  c #78C53F",
" . c #0B826E",
".. c #0E8571",
"X. c #1A8774",
"o. c #1A8C78",
"O. c #188975",
"+. c #1E927E",
"@. c #11987F",
"#. c #11806D",
"$. c #218372",
"%. c #68AE42",
"&. c #6BB742",
"*. c #6DBA43",
"=. c #71BD45",
"-. c #76BE4E",
";. c #76C441",
":. c #7AC641",
">. c #7DCA43",
",. c #7EC648",
"<. c #81CD45",
"1. c #84CB4C",
"2. c #81C74B",
"3. c #84D147",
"4. c #86D14B",
"5. c #88D14E",
"6. c #97D955",
"7. c #9ADB56",
"8. c #9DDD59",
"9. c #A1DF5B",
"0. c #A4E35D",
"q. c #A8E85F",
"w. c #A2DF61",
"e. c #A6E262",
"r. c #AAE564",
"t. c #AEEA64",
"y. c #ACE668",
"u. c #AFE869",
"i. c #B1ED65",
"p. c #B2F066",
"a. c #199883",
"s. c #219682",
"d. c #369485",
"f. c #00B794",
"g. c #28A28B",
"h. c #24AB94",
"j. c #27B39A",
"k. c #2DB39C",
"l. c #35A793",
"z. c #28BBA1",
"x. c #4F988B",
"c. c #4F9D90",
"v. c #4DA697",
"b. c #72A79E",
"n. c #49B7A5",
"m. c #6CB4A7",
"M. c #19C5A7",
"N. c #2AC2A8",
"B. c #27C6AA",
"V. c #2CCDB1",
"C. c #2DD4B7",
"Z. c #2ED6B9",
"A. c #2FDABC",
"S. c #34D7BB",
"D. c #34CBB1",
"F. c #00E4BB",
"G. c #46D4BB",
"H. c #4FC8B4",
"J. c #66CDBC",
"K. c #31DFC1",
"L. c #1CE9C6",
"P. c #30E1C2",
"I. c #35E8C9",
"U. c #38F9D9",
"Y. c #2FE4C4",
"T. c #2DFFE8",
"R. c #4DDBC2",
"E. c #66D3C1",
"W. c #6DDBC8",
"Q. c #78D9C8",
"!. c #48F6D8",
"~. c #4BEDD2",
"^. c #7CECD8",
"/. c #78F2DD",
"(. c #65E0CB",
"). c #47FFE9",
"_. c #91A6A2",
"`. c #83EDDA",
"'. c #86E6D6",
"]. c #83F2DF",
"[. c #9DE8DA",
"{. c #A6EBDF",
"}. c #85F3E0",
"|. c #8CF4E2",
" X c #8DFAE8",
".X c #94F5E4",
"XX c #9AF5E5",
"oX c #95FCEA",
"OX c #96FFF3",
"+X c #9DFFF2",
"@X c #82FFF5",
"#X c #A5F6E8",
"$X c #B1F7EB",
"%X c #B5F8EC",
"&X c #BBF9EE",
"*X c #A9FFF8",
"=X c #B3FDFD",
"-X c #B7FEF6",
";X c #B3EFE5",
":X c #90D9CC",
">X c #CDD4D3",
",X c #D3D3D3",
"<X c #C5F2EA",
"1X c #CBFAF2",
"2X c #C6FAF2",
"3X c #D3FAF3",
"4X c #D7FDF9",
"5X c #EBFEFD",
"6X c #E4FCF8",
"7X c #F4FEFD",
"8X c #FFFFFF",
"9X c #E6E5E5",
/* pixels */
"%.E T E 2.5.5.2.H S S G ,.5.1.1.~ T T ~ 0.y.y.e.=.&.*.*.! T ~ ~ ` ` ` _ H H F Y 9.u.r.e.1.2.5.1.G S S G 2.5.1.1.=.*.*.=.*.*.;.-.",
"P P L P :.<.>.:.n v v c | <.<.>.L L L L 8.r.q.8.] / ] ` P L L L ! R ^ R V V m C 8.r.e.9.<.:.>.:.B z v c | <.>.:.` ' ` ` ` ` *.' ",
"E L L L :.<.>.:.n z z c :.<.<.>.L L L P 0.i.t.0.] _ ] ` L C C L ! ! ~ R V B m C 0.i.t.q.<.>.3.>.n z z b >.3.3.>.] ' ` ' _ _ _ &.",
"E P L P ;.<.3.:.n v z n | <.>.:.U L C U 6.0.0.8.] Q ] ] P P P P R R ^ I V V m C 7.0.9.8.>.:.>.| n v v n | <.| | ] ` ] ` ] ] ` *.",
"*.( ' ` >.>.<.>.L L L L / ] ] ` / ) ) / I U U P n x z B 6.0.0.6.L L P L L L L L C C C C L P P P L L L L ! ! ^ I R ! U ! 8.0.8.e.",
"*.] ] ` >.>.>.:.U L L L _ ` ` ` ) { } ) L N L V x v q n 0.i.i.0.P C L L P P U L m m m m C L L L P P P P I I I I R ! U ^ 0.t.e.y.",
"=.` ] ] ;.>.>.:.U L P P ' ] ] ] ] { } ) L C P L z z q z 0.i.i.0.I C P L L L L L N V V V L L P P L P L L ! ^ ^ ^ R R U Q 0.t.0.y.",
"*.` ' ` >.>.<.>.P L L P _ ` / ' / ) / / P L P L n n z B 6.0.0.7.P L P L L P P L V B B N L P P U P L L L I R I ^ R ^ U ( 6.0.9.e.",
"^ ^ U R 8.0.e.8.B z c c c n c n L P L L ( ` _ ( | | | | U P U P L L L L | >.>.| B z z x ( ) ) ) ! I ! I V B V V | >.>.:.] ] ] =.",
"~ ^ U R 8.t.t.0.n q v c z z z x L P L L ] ] ] ] <.3.3.>.L N L C L L L P :.3.3.>.n z z c ) { ] ) ^ I ^ R V B m V >.3.<.>.` ^ ^ *.",
"` ! U Q 0.p.p.0.Z q z z b z v x C L L L _ ] _ ( <.<.<.>.L C L L L L L L :.3.3.>.c q z z / } { / I I R I V B M V :.<.<.>.` ' ` =.",
"` ! U Q 6.0.0.8.Z z v c c c c c P P P U ` ] _ ] | | >.| U L P U P L L L | >.>.| Z z c n / ) ] / ! ! Q Q V V M V :.>.>.:.] ` ` *.",
"~ ! ! I H V C C Q Q ^ ( I I I I ;.>.:.:.:.>.>.:.^ ! I ^ | >.:.:.I I I I ^ ^ I ^ } | >.:.P L L P ( ] ` ` L L L L ] ] ` ` P L P E ",
"` ! ! ! V m l M Q ] ' ( ^ ! ! ^ :.<.<.>.>.<.<.>.! U U ! >.3.<.>.^ R Q ^ I I I I <.3.3.>.P C L L / ] ` ] P L L P ` ' ] ^ P L L T ",
"~ I I I M l m V ' { ] ( I I U I >.<.>.<.<.<.<.>.^ R I ^ >.<.<.>.^ I ^ ! Q I I ^ >.<.3.>.U C L L ` ` ] ` P L L P Q ] ] ( P L P E ",
"` ! ^ ! C V V C Q Q ^ ^ ! ! ! ! :.>.:.:.:.:.>.| ! I I ^ | >.>.| R I ^ R I ^ I ^ | >.>.| U L L P ] ' ] ] P L L L ] ] ` ` P L L E ",
"1.| >.:.:.:.:.| C M M C 6.e.9.8.] ( ] ] B z c n I Q R Q ] ) ) ] Q I Q Q Q Q ' Q n c c n ( ) ) / ( ' ' Q I I P ^ 7.0.0.7.I L P I ",
"5.<.>.<.<.<.4.>.V m m V 9.p.t.0.] _ ` _ z z z z I ^ R V > > > > > > > 1 ;.Q { Q c q z z / } { ) ' Q ' Q ! ! I ! 0.t.q.0.I C L ~ ",
"1.<.<.<.<.<.<.>.M l l M 9.p.t.0.] _ ] ` c z z z I / Q b # # O # O # # = Q ' { Q c z z x / { { ) Q Q Q Q ! ! U [ 0.i.i.0.P C L ~ ",
"2.| | :.| | >.| Y V V C 6.0.0.8.] ^ ] ( n z c n U Y + p >X>X>X>X>X>X>X_.= e ( ^ n z x n ( { ) ) &.' ' ' ! I I ! 7.0.0.6.P C L ~ ",
"W C V F ( ] Q ' 6.0.0.8.{ Q ' _ P L P L L L L L V m   p 8X8X8X8X8X8X8X,X  < L U ` ' ` ` ) ) / ] 8.0.0.8.Q U ! ! n n c n ! ! I _ ",
"F M M M R ' Q Q 0.t.p.0.Q W Q Q L L L L P P P e - 5 >X,X%X%X%X&X$X2X8X{.M.O.- > A ] ' ] ) ) ) { 0.t.t.0.^ U ! I z q z z ! ^ ! ` ",
"H M m V Q ' Q Q 0.p.t.r.{ Q ' ( L L L L L L L , O 4 8X8X.X].XX]./.$X8X%XT.h.O ; D ] ` ' ) { / } 0.p.p.q.^ U ! I z q q z R ^ ! ` ",
"Y V V V Q { Q ' 6.0.8.8.Q Q ( ^ P L P L P P P 1 O 3 {.-X#X#XXX$X2X&X#X].U.l.o ; D ] ` ` ( / / / 6.8.8.6.! I ! ! Z n n B I R R _ ",
"*.Q &.' ] ` ] ` B b c n L P L P ^ _ Q Q R I I 6 . * '.+XXXXX].1X8X%XF.L.).l.. $ K &.` ` R R ! I C V C C I ^ I ^ 7.0.0.7.L m N H ",
";.&.' &.` ' { ' v q z v L P L L ( ' ' ' R A A 8 ; y $X4X2X%X%X1X6X2X`.XX@Xk.% : t G J ` R R ^ I m m m m R ^ I ^ 0.t.i.0.C m V H ",
"=.' ' ` ` ] ` ( z q q z P I P P Q ' ' Q F * o b.=X^.3X8X8X3X6X3X1X4X7X8X-XU.!.I.i o 5 / R R ! I N B M N R ^ U ^ 0.i.p.0.C m V H ",
"*.*.' ] ` ' ] _ Z n n n C L C L Q ' Q ' H ; o m.4X%X4X8X5X2X3X3X3X3X3X5X{.z.S.).s o 8 / R R ! R V V V V I ! I ^ 7.0.0.6.C m V H ",
"=.` ' ` ] ` _ ] 7.0.0.8.B z x c Q ( ! ! T * X v.7X8X6X}..X.X.X.XXXXX.X*XJ.f X.~.j . r 9.) / ) ( ( Q Q Q ! R ^ I n c n n R Q I _ ",
"=.` ] ` ' ] _ ] 0.t.i.0.n q z c U Q I R _ .   c.8X8X6X/.}.}.}.}.].].].OXE...+.!.s   r 0.} ( { ( _ ' ' ' ! ! ^ I z q z z R ^ ~ ` ",
"=.` ` ] *.` ] ] 0.t.t.0.Z q z v I ! 7 1 8 b._.:X1X7X2X}.|.|.|.|.].|.|.+XE...+.~.D.h.g.r 7 ( ] ] ' ' ' ' Q R ^ R c z z c ! ^ ^ _ ",
"*.' ` ] ] _ Q ] 7.e.0.8.Z z v c ! ! * O 3 5X8X-X&X7X2X}.|.|.|.|.|.|.|.*XE...+.R.).T.A.= $ / { { Q Q Q _ ! I ^ I c c v c I ^ ! ~ ",
"` R ^ R V M M V :.<.>.>.! U R R / ` : # 3 <X5X<XR.G.(.|.|.|.|.|.|.|.|.+XE...+.R.I.K.z.% - 2.<.| C B M N _ ] ] _ V m V V L L L E ",
"_ I ^ I N V m M ;.>.>.| ^ R R R ] ` : # 3 <X5X3XB.f.C.*X+XoXoXoXoXoXoX*XW...+.g h X.s $ : <.<.| N B M M ] ] ' ] V B V V L P L E ",
"_ R Q I V m M V :.<.<.>.! I R R _ ' : # 3 <X5X2XD.M.G.|.`.`.`.`.`.`.`.oXJ.f o.d d g i % : 3.3.>.V B M V ` ] ' / V V m V L P L T ",
"_ ! ^ Q V V M V } <.>.>.! I R R ` ` : O 4 8X8XXX^.OXW.O.+.s.s.a.s.s.s.o.g.^.^.^.n.a.h & : <.<.| V M M V ] ] ` ] V V V V L P P ~ ",
"&.Q _ ( ] ` _ ` ] ' ] ` ' Q ' ' ' ( ; # 3 9X9X]. X*XW. .o.o.o.o.o.o.o.f d.+X+X=XJ. .a % * z n n L L C P | :.>.:.' Q ' Q ` ` _ *.",
"*._ Q _ ` ' ] ] ` ` ] ` ' ' ' Q ( _ A k 1 & % ^. Xj o.V.B.z.N.N.z.B.B.V.j.d l.=Xc.. ; w 0 z z z L U L P :.3.<.>.' Q ' ' ] ] ] =.",
"*.{ ' ' ` ] ` ] ] ` ] ] ' Q ( ( Q ;.&.Q 0 O O '. Xu g P.C.C.C.C.Z.Z.C.Y.z.y d.=Xx.  * ` n x v x L P L P >.<.<.>.' Q Q Q ` ' ] *.",
"&.Q Q Q ' _ ] ` _ ( ` _ Q ( ( ^ ' Q ' Q 9 & % '. Xa O.C.V.V.V.V.V.V.V.Z.z.u d.-Xx.. ; Y n z b n L P L P | >.>.:.] ' _ ( ] ` ` *.",
"Y V V V ] ] ] ] P L L P I ! ! ! W Q ^ I 0 & = |.OXa X.Z.V.V.V.V.V.V.V.A.z.s X.H.h o ; H n z x b I R ^ I L L L U ;.>.>.:.Q R ! _ ",
"Y M m V _ ` ] ] L L L L I I I ! W Q ^ I 0 % = Q.}.a O.C.V.V.V.V.V.V.V.A.z.a h @.u & * G n x z n I ^ ^ ^ L L L L >.<.<.>.R I ! ~ ",
"H V m V ] ] ' ' L N N L ! ^ ^ ! Q Q ^ Q C F w % y a.j.Y.P.P.K.P.K.P.K.I.D.g.o.* > Y Y I x z v x I ^ I I L L L L :.3.<.:.^ ! ! ` ",
"Y V F V ( ] ` ` I P P P I I I I Q U I I L L b # * g a.z.j.j.h.j.h.j.h.z.g.o.h $ - I ^ I n x x x I ^ ^ I P L L U ;.>.>.:.! I ! ~ ",
";.Q Q Q P L N P 7.0.0.8.V m V V V V N N L L C D t ; * % % % % % % % % $ = * * G b P P L L L L L / ] ] / ) ) ) / ( ` ] ` L L L ~ ",
"*.Q { ( L L N P 9.i.t.0.L m V V B V B N L P L P Q e 8 e e e e e , , , , 7 e t ) P L L L P P L U ] ` ] ] ) ) } ) ` _ ] ` L L L E ",
"*.Q ( ( L L L L 8.t.t.0.V m M M M B B M L L L L ' ' { Q Q ' ] Q b z z z / } ) ) P L U P L L L L ] ' _ ] ) } ] ] ( ( ` ^ L L L ~ ",
"*.Q ^ Q L L L P 7.q.0.7.L m V C V N N C L L L P Q Q Q ' Q Q ( Q n b z n / ) ) ) L L L L P L L Y _ ] _ _ / ) / / ] ] ] ) L L L ~ ",
"W U Y U Q ' Q ' >.>.>.>.>.:.:.>.:.>.>.| ! I R R R R ! R L L L L R I R R ' Q ( ' x z v B Q Q Q Q R Q Q I L L L U 7.0.0.7.! P ! ~ ",
"W W L L ' ' Q ' ;.>.:.:.>.<.>.<.<.<.<.>.! R ^ R R Q ^ I L L L L ^ ^ Q Q ( ' ' Q c v v b Q { ' _ I R ^ I L L N U 0.i.t.0.^ I ! ) ",
"W L L L ' ' Q _ >.<.>.>.:.>.>.>.<.<.<.>.! R R ! I I I I L L L L I R R R Q ' ] Q b z k b &.{ ' ' I R R R P P L U 0.i.q.0.! I ! ` ",
"E L L L Q ' Q ( ;.>.:.>.>.:.>.>.| :.>.| Q R R R ^ ^ ^ ^ P L L P ! ^ Q _ Q Q ( ^ n z b m Q Q ( Q Q R ^ R L L N P 6.0.0.7.! P ! ~ ",
"' R ! I P L L L ! ! R ! >.<.<.:.C B V V I ! I R | >.>.:.] ` _ ( :.>.>.:.P L L L R I I I V V V V R ^ ^ I c x x n ! [ ! ! P L L ~ ",
"_ R ^ Q L L L L I I P R :.>.<.:.V m M M I ^ I ! >.<.<.>.] ` ] ] >.<.<.>.L L L L R ^ ( ! B B B V I ^ ^ R x z z x U I I U L L L ~ ",
"_ R ^ R P L L L ! ! I ! >.<.<.>.C M B V I ! U ! >.<.<.>.] ` ` ] <.<.4.<.P C L L I ^ ! I N B N N ! ^ ^ I n x x n I ^ ^ ! P P P ~ ",
"%.R R R L L L L I I I ! | :.>.| C B V N I ^ R Q | >.:.| ] ( _ ` | | | | P L L P I ! ! I V V V C I ^ ! I x x z n I ^ ! I L C L ~ ",
"_ ! ! I R I ^ I L L P L c x c c N V V V ` ] ` ] Q Q ^ Q P L P L V V N V / ' ] ` R I ^ R I I I I L L P L n v b c L P L L c c x Z ",
"~ ! I ! ^ ! ^ ! L L L L z z z z B V B V ] ` ` ` I I I I L L L L M B m M ` ] ' ] R R R R ^ ^ ! ! L L L L c v b c L P P L c z x S ",
"` ! ! ! ^ ^ ^ ^ L C P L z z z z N B N N ` ` ] ' ^ ^ Q Q P L U L V B m N ] ` ` ` R R R R ! ! ^ ! P L P P v z z b C P L L x z x S ",
"~ ! I I I I I I P P P P n c c n V C B N ( ` ' ` I I I R L L U L V V V V _ ] ] ] Q R Q ^ I ! I I L L P L n v c n L P U L n c c K ",
"~ L P L c z x c / { ) / ` ] ` _ I I I I I R ^ I n z c c V F M V Q ' ' Q R R R Q ` ` ] ` Q R ^ R N N N N L L L L I R R R ! I ! ^ ",
"~ L P L x z z x / } ) { ] ] ] ] ! ! ^ ! R ! ^ ! x z z z m V M V Q ' ' ' R R R R ` ` ] ' ! I ^ R N N B M P P L P ^ ! Q R ^ ! ^ ` ",
"L L P L n x z x / { ] / ` ' ] _ ! ! I ! R Q ~ I n v c c V V V V ' ' Q Q R E R R ` ' ` ` R R ~ I V V V V L L L L R Q R ! R ! ! ! ",
"~ ~ ~ ~ G K S G *.;.=.;.=.=.*.*.` ~ ` ~ _ ` _ _ G S K G H J H Y &.;.*.*._ _ _ ` =.=.=.*.` _ ` ` Y H H H T ~ ~ ~ _ ` &.~ ` ` ` &."
};
