/* XPM */
static char *d21b5bf456b84de18f7ee1b6d1c5f75em4Zp2k2v5KbBAEX7[] = {
/* columns rows colors chars-per-pixel */
"64 64 4 1 ",
"  c black",
". c gray8",
"X c #2A2A2A",
"o c white",
/* pixels */
"oooooooooooooooooooooooooooooooooooooooooooooooooooooooooooooooo",
"oooooooooooooooooooooooooo    oooooooooooooooooooooooooooooooooo",
"oooooooooooooooooooooooooo         Xoooooooooooooooooooooooooooo",
"oooooooooooooooooooooooooo               ooooooooooooooooooooooo",
"oooooooooooooooooooooooooo                    oooooooooooooooooo",
"oooooooooooo                                        oooooooooooo",
"oooooooooooo                                        oooooooooooo",
"oooooooooooo                                        oooooooooooo",
"oooooooooooo                                        oooooooooooo",
"oooooooooooo    oooooooooo                          oooooooooooo",
"oooooooooooo    oooooooooo                          oooooooooooo",
"oooooooooooo    oooooooooo                          oooooooooooo",
"oooooooooooo    oooooooooo                          oooooooooooo",
"oooooooooooo    oooooooooo                          oooooooooooo",
"oooooooooooo    oooooooooo                          oooooooooooo",
"oooooooooooo    oooooooooo                          oooooooooooo",
"oooooooooooo    oooooooooo                          oooooooooooo",
"oooooooooooo    oooooooooo                          oooooooooooo",
"oooooooooooo    oooooooooo                          oooooooooooo",
"oooooooooooo    oooooooooo                          oooooooooooo",
"oooooooooooo    oooooooooo                          oooooooooooo",
"oooooooooooo    oooooooooo                          oooooooooooo",
"oooooooooooo    oooooooooo                          oooooooooooo",
"oooooooooooo    oooooooooo                          oooooooooooo",
"oooooooooooo    oooooooooo                          oooooooooooo",
"oooooooooooo    oooooooooo                          oooooooooooo",
"oooooooooooo    oooooooooo                          oooooooooooo",
"oooooooooooo    oooooooooo                          oooooooooooo",
"oooooooooooo    oooooooooo                          oooooooooooo",
"oooooooooooo    oooooooooo                          oooooooooooo",
"oooooooooooo    oooooooooo   oo                     oooooooooooo",
"oooooooooooo    oooooooooo   ooo                    oooooooooooo",
"oooooooooooo    oooooooooo   ooo                    oooooooooooo",
"oooooooooooo    oooooooooo   oo                     oooooooooooo",
"oooooooooooo    oooooooooo                          oooooooooooo",
"oooooooooooo    oooooooooo                          oooooooooooo",
"oooooooooooo    oooooooooo                          oooooooooooo",
"oooooooooooo    oooooooooo                          oooooooooooo",
"oooooooooooo    oooooooooo                          oooooooooooo",
"oooooooooooo    oooooooooo                          oooooooooooo",
"oooooooooooo    oooooooooo                          oooooooooooo",
"oooooooooooo    oooooooooo                          oooooooooooo",
"oooooooooooo    oooooooooo                          oooooooooooo",
"oooooooooooo    oooooooooo                          oooooooooooo",
"oooooooooooo    oooooooooo                          oooooooooooo",
"oooooooooooo    oooooooooo                          oooooooooooo",
"oooooooooooo    oooooooooo                          oooooooooooo",
"oooooooooooo    oooooooooo                          oooooooooooo",
"oooooooooooo    oooooooooo                          oooooooooooo",
"oooooooooooo    oooooooooo                          oooooooooooo",
"oooooooooooo    oooooooooo                          oooooooooooo",
"oooooooooooo    oooooooooo                          oooooooooooo",
"oooooooooooo    oooooooooo                          oooooooooooo",
"oooooooooooo    oooooooooo                          oooooooooooo",
"oooooooooooo                                        oooooooooooo",
"oooooooooooo                                        oooooooooooo",
"oooooooooooo                                        oooooooooooo",
"oooooooooooo                                        oooooooooooo",
"oooooooooooooooooooooooooo                         ooooooooooooo",
"oooooooooooooooooooooooooo                   ooooooooooooooooooo",
"oooooooooooooooooooooooooo             .oooooooooooooooooooooooo",
"oooooooooooooooooooooooooo       ooooooooooooooooooooooooooooooo",
"oooooooooooooooooooooooooo   ooooooooooooooooooooooooooooooooooo",
"oooooooooooooooooooooooooooooooooooooooooooooooooooooooooooooooo"
};
