/* XPM */
static char *d7b9bc25dfee44419e321068169ac6d6hLOQoH9ZyjnMolgO[] = {
/* columns rows colors chars-per-pixel */
"64 64 2 1 ",
"  c black",
". c white",
/* pixels */
"................................................................",
"................................................................",
"................................................................",
"................................................................",
"................................................................",
"............                                        ............",
"............                                        ............",
"............                                        ............",
"............                                        ............",
"............                                        ............",
"............                                        ............",
"............                                        ............",
"............                                        ............",
"............                                        ............",
"............                                        ............",
"............                                        ............",
"............                                        ............",
"............                                        ............",
"............                                        ............",
"............                                        ............",
"............                                        ............",
"............                                        ............",
"............                                        ............",
"............                                        ............",
"............                                        ............",
"............                                        ............",
"............                                        ............",
"............                                        ............",
"............                                        ............",
"............                                        ............",
"............       ..                               ............",
"............       ...                              ............",
"............       ...                              ............",
"............       ..                               ............",
"............                                        ............",
"............                                        ............",
"............                                        ............",
"............                                        ............",
"............                                        ............",
"............                                        ............",
"............                                        ............",
"............                                        ............",
"............                                        ............",
"............                                        ............",
"............                                        ............",
"............                                        ............",
"............                                        ............",
"............                                        ............",
"............                                        ............",
"............                                        ............",
"............                                        ............",
"............                                        ............",
"............                                        ............",
"............                                        ............",
"............                                        ............",
"............                                        ............",
"............                                        ............",
"............                                        ............",
"................................................................",
"................................................................",
"................................................................",
"................................................................",
"................................................................",
"................................................................"
};
