/* XPM */
static char *result[] = {
/* columns rows colors chars-per-pixel */
"64 64 113 2 ",
"   c #0C0C0E",
".  c #0E0E12",
"X  c #100F14",
"o  c #111115",
"O  c #14131B",
"+  c #18151F",
"@  c #19181B",
"#  c #161621",
"$  c #1A1621",
"%  c #1C1824",
"&  c #1E1A29",
"*  c #211C2C",
"=  c #241E31",
"-  c #222426",
";  c #262033",
":  c #292236",
">  c #2A2339",
",  c #2F283E",
"<  c #30293D",
"1  c #2E3430",
"2  c #303535",
"3  c #384138",
"4  c #3D7F22",
"5  c #404D3C",
"6  c #42503D",
"7  c #2D2441",
"8  c #2F2841",
"9  c #332B46",
"0  c #352C4A",
"q  c #382D4E",
"w  c #3A295E",
"e  c #3E2A64",
"r  c #412B66",
"t  c #442B6A",
"y  c #492D6C",
"u  c #463565",
"i  c #483367",
"p  c #473864",
"a  c #473169",
"s  c #4B326B",
"d  c #51336F",
"f  c #472A71",
"g  c #492B72",
"h  c #502F72",
"j  c #513274",
"k  c #485540",
"l  c #3F8023",
"z  c #3F8E22",
"x  c #448526",
"c  c #468926",
"v  c #498B27",
"b  c #468628",
"n  c #478928",
"m  c #4A8C29",
"M  c #459325",
"N  c #499627",
"B  c #4D9A27",
"V  c #469428",
"C  c #4B9529",
"Z  c #4D9A2A",
"A  c #50922B",
"S  c #519D2B",
"D  c #56A42C",
"F  c #59A62D",
"G  c #57A92D",
"H  c #5BAB2E",
"J  c #5BA731",
"K  c #56AF33",
"L  c #5EAE31",
"P  c #5EB234",
"I  c #60AF2F",
"U  c #60AF32",
"Y  c #61B234",
"T  c #68B737",
"R  c #63B837",
"E  c #69B936",
"W  c #65B639",
"Q  c #68B73A",
"!  c #64B93A",
"~  c #6ABA3B",
"^  c #75C33E",
"/  c #78C43F",
"(  c #668158",
")  c #688759",
"_  c #6F945C",
"`  c #739B5D",
"'  c #76BD4F",
"]  c #73A957",
"[  c #7DB162",
"{  c #77C440",
"}  c #7AC641",
"|  c #7DC943",
" . c #81CD45",
".. c #82CB48",
"X. c #84D147",
"o. c #84D148",
"O. c #88CC55",
"+. c #97D855",
"@. c #9ADB56",
"#. c #91D25D",
"$. c #9DDD59",
"%. c #A1DF5B",
"&. c #A4E35D",
"*. c #A8E65F",
"=. c #A8E85E",
"-. c #92C36A",
";. c #A7E560",
":. c #A9E660",
">. c #AEEA64",
",. c #ABE16F",
"<. c #B1ED65",
"1. c #B2EA6A",
"2. c #B2F066",
/* pixels */
"F D D F } | ..} C x x v ^ X.| | G S S G @.:.;.$.~ Y ~ W F F J D U U Y P Z Z C Z @.>.&.$. ./  .} m c x v } | | } ~ ~ W W ~ Y ! W ",
"F F D D | | | | m b b v /  . .} J D D G $.:.:.%.~ ! ~ W F D D D U U U L Z C V S @.>.&.&.| }  .} m b b m } X.| | W ! ~ ~ W ' Q W ",
"D D D D | | | } m x x n } o. .| F S D G O 8 1.;.~ ~ ' R D S Z D U Y Y P C Z V Z &.<.>.*. .| o.| v b x b } X. .| ~ W ~ W W W W Y ",
"F D D D } X.| } m b b m /  .| } G ] ; # @ # O % # P ~ Y H G G G L U L L Z C C S +.&.%.$.| }  ./ m b b v /  .} / Q W W ~ ~ ~ ~ ~ ",
"! W W W } | X.| F B D D T ~ Q Q O @ # * O O % & O 3 c N @.;.&.@.J D D J G G D D S S S S F F F F F D D D H Y I Y U U G Y @.;.@.%.",
"~ ~ ~ ~ } | | } H D F F W ~ O O ; & o q ; # O O @ O O # ,.2.1.&.J S D G G J J D V M M M B D D D F F F F H H H P L U G U %.>.;.;.",
"~ ~ ~ ~ } | | } G F F F ~ ~ o o @ O . % O @ O o ; O # O , # >.&.J D D D D D S D Z Z Z Z D F F D F D D D L Y Y Y L L G P &.>.;.:.",
"W W W W | | ..| F D D D W W o > O o o o 9 & % O O o ; O O . : O - S F D D F F F Z Z Z N D F F F F F D D H I H H Y L J Y @.;.$.%.",
"H P H I $.&.&.$.m x v v v v o + o . o + # O # o @ o O O , X * O & ) D F { | | | C x b n T E E R U J I H Z Z N S ^ | | } ~ ~ ~ ~ ",
"H I G I $.>.>.&.m 4 b c b n o o o O o . = o O O - % & ; ; O 0 & & @ o & O.| | | C x b n T ^ ^ E U U Y I Z C N Z | X. .| W Y T Q ",
"I Y G P &.2.2.;.A 4 x c b n o + & : . % o o O o o o # O O . O O O O O & @ O #.} v 4 x x E ^ ~ ~ H L L H Z N N Z }  . .| ' ~ ~ ~ ",
"H H G P +.%.&.+.A x n n v v o O # + : o o X : o o o o q - O @ @ O * # O . 8 # - C n n m E E E T H U Y H Z Z N Z /  .} } Y Y W W ",
"U I U H D S S D P P Y Y H H o o o % o = O o . o ; O O X O O q O @ 8 & # O # o @ + 2 | } G D D J Q ~ ~ W D D D D W ~ ~ W F D D F ",
"H Y Y I Z z z V P ! ^ ! Y I o $ o o X O O o . ; . X . O o . O @ X % O # O o % @ O % O O _ S D D Q ~ ~ ~ D D D F ! ~ ~ T D D D D ",
"H H H H V V V V P { ! R F F o O o o $ . % o o % O % O o o : o o o . 0 & # @ @ O * O O o 0 O 1 G W ~ ~ ~ F D D F P W ! Y D D D D ",
"U I Y U S Z Z S P P Y T Y Y o . o o $ o o o o o $ o . X . + o O ; O @ O @ o O O O O & o $ % > O ~ ~ ~ W F D D F ~ ~ ~ T F D F D ",
"} } } } } } | / Z Z V Z @.*.o * o o o O o O % o o o # + o . X $ O . ; o O O O X ; ; ; O 9 % * O . W P P H I F U @.&.&.+.F D D D ",
"|  . .|  . .o.| Z M V Z %.<.o . . 9 O o O o # + O * o o o & % o X # o o O o @ X O @ O O O O . . X ! ' P U U G Y %.<.<.&.F D F D ",
" . . . . .|  .| N c z N $.>.o o > % o X o . o % X O o o O o o o . . X o # X O : o @ O o   % o . . P K K J I H U *.<.2.&.F D D D ",
"} / / } / /  ./ D Z Z D @.*.o + $ * . $ X   X s t o + o o o o o X ; . X O X > # O o .     # O o . ! ! R U I H U +.%.&.+.F S D F ",
"S S Z S Y ! P ! @.&.&.@.' P o o o $ O * . . . r w r w o o # o . % O O X . ; X X . O   O . . . X o &.&.@.I H Y I A v v A F I H L ",
"V V V V P ~ P R &.>.>.=.P K O % o o X + O . X t e y w e d o o   ;   o o O O X . o o   . # .   . . >.>.&.Y H U I x 4 l l I T I P ",
"Z V V Z P ! P P =.<.<.=.! P o # $ o + . o . . y e y t t t r h o O O o o . o o o = X     . .     . 2.>.*.I G Y I l l 4 c P Y Y P ",
"Z Z Z S P ! P ! +.$.$.@.R P o o o o + o $ X O y t y d y t e g e 7 O X O ; o o X O O . O . . . . . $.&.@.I H Y F A m m C H I H H ",
"~ ~ ! ! W ~ ' Y C m m m D F X > o o o + o X + u s e t y a e h r e e w o O .   : o o . . .   O O . S Z S L I G Y @.&.&.@.D M B B ",
"~ ~ ~ ~ ~ W R T b 4 4 x D J o o o * o O . . . e y t s a e t t r g e e o   o . + o X % O     X . X M M V L Y H Y &.<.<.&.S M N Z ",
"W ~ ~ W W ~ ~ W b 4 4 x D J o . . ; o o = . o e e e y i a h y e y t t o : o o O O X X o . . . . X N N B L P J T =.<.2.&.S M Z N ",
"W ~ W ~ ~ ~ ~ W A m m m S D o o : : . + o . X d j t t e f d u t e y t o + o > * O O . .   & O X . Z Z Z H Y G Y +.%.&.+.S V Z Z ",
"' Y W ~ ~ W W ~ @.&.*.@.C x X o $ + * . X   . t e e r d e y e h i r t o o   o +   O . &     . . o P P P U L Y H m m v m J P H H ",
"~ W ~ W Y ' Y ~ &.<.>.*.m 4 O + o O o # % X o y e e w r y e t t e s s o ; + o X # X   .   .   . . ~ ! ! U L Y H c l l x L T Y P ",
"W ~ ~ ~ ~ ~ ~ ~ %.>.>.&.A 4 o % o o o + o X X r e y e e d e t t e g s o o o o . X O     & X . . . ! ! ! L L Y H n b b m L Y U L ",
"W ~ W W Y W P ~ @.*.*.@.A x o o O o $ . O   . y e y t t t e y t e y r o $ o o o & o . . . .   . . P P ! U I Y H v c v v H I P H ",
"L L Y I Z Z N Z } X. .} I G o   o X $ o o . o a s r y y s t y r e e y o O .   : o o X . .   & X . N N Z ! W ~ W Z N Z N F F D D ",
"H H Y H Z N N N ^ | } / Y P o % o . o O o . . t g i a r r e r r s e e o X o o $ o O X O     X . + M N Z W ~ ~ ~ Z N Z Z D F D F ",
"Y L P H N N V Z } X. .| I U o o o : o O . .   t y t s a r y t r y r e o X o o O o o & o   . . . X C N Z T ~ ~ T Z N C Z D D D D ",
"L Y Y L Z Z Z A } | | } U H o X O . o . % . O t t e r g u s r r t j t X + o . ; o o . . . + O   . N N Z ~ ~ ! ~ Z Z Z Z D F F D ",
"Y Y ! Y W W W W ~ ~ ~ W ! P o # $ + = o o   . s t t t e t j p h e r y o o o + $ X o X . X X   X . F D D } } | } P K P P T W W W ",
"! ! P ! ~ ~ ~ ~ W W W W ! P O X o % o = X X . r e e e y r r e h t i t o * & o o $ o . X .     O . F D G }  . .| ^ P ' ~ ~ ~ ~ ~ ",
"~ ! ! ! W ~ W ~ ~ ~ ~ ~ ! ! O + o o o # $ . O r e t e e t r t y e s i o + + o   o X   . X X   . . F D F |  .X.| P P P P ~ ~ W ~ ",
"P P P ! ~ W ~ ~ W W W W W Y o + % o o o o . . t e y e r t t r y r t t o . o o o = X   . X .   . . J D D } | } } ! P Y ! W W ~ W ",
"Z Z N Z W ~ ~ W F D F F H I o o o o $ o X . + y s r h t y e y r r e d o $ o . @ + o   o .   % X   I L I F F F F | | | | P L P H ",
"Z Z C Z T ~ ~ Q D D D D H H o $ o o # O o . O a d r y t s t t r e e t o o   . : o o X . .   # o . Y Y Y D D B F | | | | P L L H ",
"N C Z Z ~ ~ ' Y S B B S I Y o o X . o O o . O > q s a r r r t e s e e o o o o + o o + O     X . O Y H H D D S F | | | | Y U P H ",
"Z Z Z Z T R ~ Y H H F H H H o o . o o . ; o O O & & q s i y y r y t r o ; o o o + o o o . . %   . Y P H F D D H } | | | I H U H ",
"R P R P G D S D @.&.&.$.S M X # % : . # o o O o o O O O + s u r e y t o o o > + O o       + o X . ~ ~ W E E E E Q ~ ~ Q D D D F ",
"! R R R F D D D %.<.<.&.S M X + $ + : o o o : o o o X 0 - O p s e t y o o o $ + X O o o X o   .   ~ ~ ~ E E ^ E Q W Q W D D D D ",
"! ! R R D D B D %.>.=.&.S M o o o $ o = $ o X o < O o o O + , O $ i t X ; % o o $ o   X       O . ~ W ~ E ^ E ~ Y ! W Y D D D D ",
"R P R I D D D G @.&.=.$.S N o % o . o O o o X : X o . o o o O O % # + O o o o   . o   X o X   X o ~ W W E E E E ~ ~ ~ T F D D F ",
"G F D F P ! P P | | | | } } } O o o % X % o O $ + = o o . : o X o o q O * o o . + O X o . . X . . L L L D D D G @.=.&.%.I H I H ",
"D D D D P ! ! ! } | } | | X.| | k o $ X o o o o $ + . X X + X % % O O o $ o . & + o   . X   & X . L L L D D B G &.>.=.&.U H I U ",
"D D S D ! ! ! R | | | | | | | | | ..-.O o O % o o X # o o o . $ O . & o o o . ; . o X X     X X . L P L D G D G &.<.=.&.U H I U ",
"D D D F Y Y P Y } | | | | | | | } { } } P 5 # $ o $ o o . $ % o . $ o o $ o o O O X X X X .   . X U P L D D B F +.&.&.@.I H H H ",
"H P H H G F D D I U U U } ....} D C Z S H I J 5 o $ O X o o o o o . X o + o & ; + o . . X % O   . U Y H v n c v L T Y U D S F F ",
"H P Y Y D D D D H H H H } | ..} C V C C U Y L U ..o O o % o X . o = X o o o = $ o X . . . O O X   Y Y H v b b n G H H G F F S F ",
"P Y U L D D D D U U H Y | o.o.| S C Z Z H I G U | ....o O # o + O + o o   : o X . o   o . .   O . Y Y L v n x v H Y U I F D F F ",
"L H Y H F D D D H H J U ^ } } } S C Z Z L U L P } } | } ! [ o o % o O o o O O . . X . . & .   o . Y L H v n n n H Y I H D D D D ",
"L H I J H L U H F D F D v n v c N Z Z Z W ~ Y Y P L Y P G D 6 X $ o o O o o O . . o . . o . . . o D F D v v n n D F F D c c c c ",
"H U L U Y U Y U F S D D b x c b Z Z N Z Y ' ' W L L L J D D D S Z o X # % o . . $ O . o . . & .   F D D v b b v D F D D c c c c ",
"U U U U Y Y I U D D D D b x x x Z Z N Z W ~ ~ ~ P Y P Y G D K D N Z Z o O . . : o o . . .   o O . F G F n x b n S F F D b x c x ",
"H I I H H H I H F F F D v m m v Z S Z S Y ~ W ~ L G L J J D D K Z Z Z S Y ( . # o o & O   . . L D D D D v b n v D F F D v v v v ",
"F D F D c c c v I ^ E E W ~ W ~ U H H H H P Y L m b b v Z Z Z Z P ! ' P U L O O o . . o . ` L L N N Z B D D D D H L H H I I H I ",
"D D F D c c x c T ^ E ^ ~ ~ ~ ~ Y I U I L L Y H m x b b Z Z z S ! P P ! L U L L ' o . ' U L Y L Z Z N Z F F D F I Y Y P Y Y U Y ",
"D D F D v b c v T ^ E ~ Y ' ~ W U H L L L L Y L m b v n Z Z Z Z P { ! W L U P L W ~ ! ' L Y Y L Z N Z Z D D D D L Y L U L Y U L ",
"D D F D b c c z P ^ E ~ Y ~ ~ ~ J U L U U Y Y L m b m n Z Z Z S P P Y ! Y L L Y W ~ W W Y L Y Y Z Z Z Z D F D F L Y L P L L L L "
};
