/* XPM */
static char *f38668dc0e1e4019e8f895084166106fUIFDsH8O6rhjAnaf[] = {
/* columns rows colors chars-per-pixel */
"64 64 6 1 ",
"  c #736357",
". c #756559",
"X c #74685F",
"o c #7D6F66",
"O c #817267",
"+ c #88776B",
/* pixels */
"     .XXXXoooooOO++++++++++++++++++++++++++++++++++++OOOOoXX.   ",
"     .XXXXXoooooOOO++++++++++++++++++++++++++++++++OOOOOoXXX.   ",
"      .XXXXXoooooOOOO++++++++++++++++++++++++++++OOOOOOoXXX.    ",
"      .XXXXXXoooooOOOOO++++++++++++++++++++++++OOOOOOOoXXXX.    ",
"       .XXXXXXooooooOOOOO++++++++++++++++++++OOOOOOOooXXXX.     ",
"       ..XXXXXXoooooooOOOOOOO++++++++++++OOOOOOOOOoooXXXX..     ",
"        ..XXXXXXooooooooOOOOOOOOOOOOOOOOOOOOOOOOooooXXXX..      ",
"         ..XXXXXXXooooooooOOOOOOOOOOOOOOOOOOOOooooXXXXX..       ",
"          ..XXXXXXXXooooooooooOOOOOOOOOOOOooooooXXXXXX..        ",
"           ..XXXXXXXXXooooooooooooooooooooooooXXXXXXX..         ",
"            ..XXXXXXXXXXooooooooooooooooooooXXXXXXXX..          ",
"             ..XXXXXXXXXXXXXooooooooooooXXXXXXXXXXX..           ",
"              ...XXXXXXXXXXXXXXXXXXXXXXXXXXXXXXXX...            ",
"               ....XXXXXXXXXXXXXXXXXXXXXXXXXXXX....             ",
"                 ....XXXXXXXXXXXXXXXXXXXXXXXX....               ",
"                   ....XXXXXXXXXXXXXXXXXXXX....                 ",
"                     ......XXXXXXXXXXXX......                   ",
"                       ....................                     ",
"                           ............                         ",
"                                                                ",
"                                                                ",
"                                                                ",
"                                                                ",
"                                                                ",
"                                                                ",
"                                                                ",
"                                                                ",
"                                                                ",
"                                                                ",
"                                                                ",
"                                                                ",
"                                                                ",
"                                                                ",
"                                                                ",
"                                                                ",
"                                                                ",
"                                                                ",
"                                                                ",
"                                                                ",
"                                                                ",
"                                                                ",
"                                                                ",
"                                                                ",
"                                                                ",
"                                                                ",
"                          ............                          ",
"                      ....XXXXXXXXXXXX....                      ",
"                    ..XXXXXXXXXXXXXXXXXXXX..                    ",
"                  ..XXXXXXXXXXXXXXXXXXXXXXXX..                  ",
"                ..XXXXXXXXXXXXXXXXXXXXXXXXXXXX..                ",
"              ..XXXXXXXXXXXooooooooooooXXXXXXXXX..              ",
"             .XXXXXXXXXooooooooooooooooooooXXXXXXX.             ",
"            .XXXXXXXXooooooooooooooooooooooooXXXXXX.            ",
"           .XXXXXXXooooooooooooooooooooooooooooXXXXX.           ",
"          .XXXXXXoooooooooooOOOOOOOOOOOOoooooooooXXXX.          ",
"         .XXXXXoooooooooOOOOOOOOOOOOOOOOOOOOoooooooXXX.         ",
"        .XXXXXooooooooOOOOOOOOOOOOOOOOOOOOOOOOooooooXXX.        ",
"       .XXXXXoooooooOOOOOOOOOOOOOOOOOOOOOOOOOOOOoooooXXX.       ",
"      .XXXXXooooooOOOOOOOOOOO++++++++++++OOOOOOOOOooooXXX.      ",
"      XXXXXoooooOOOOOOOOO++++++++++++++++++++OOOOOOOoooXXX      ",
"     .XXXXoooooOOOOOOOO++++++++++++++++++++++++OOOOOOoooXX.     ",
"     XXXXoooooOOOOOOO++++++++++++++++++++++++++++OOOOOoooXX     ",
"    .XXXoooooOOOOOO++++++++++++++++++++++++++++++++OOOOoooX.    ",
"    XXXoooooOOOOO++++++++++++++++++++++++++++++++++++OOOoooX    "
};
