/* XPM */
static char *_72114bf582e43c4c615d3cbd1854f2677fBAcPOw1Jz1JMC[] = {
/* columns rows colors chars-per-pixel */
"64 64 6 1 ",
"  c #736357",
". c #756559",
"X c #74685F",
"o c #7D6F66",
"O c #817267",
"+ c #88776B",
/* pixels */
"                                                                ",
"                                                                ",
"                                                                ",
"..                                                              ",
"XX..                                                          .X",
"XXXX..                                                      .XXo",
"oXXXX..                                                   .XXXoo",
"OoXXXX..                                                 .XXXooo",
"OOoXXXX..                                               .XXXoooO",
"OOOoXXXX..                                             .XXXoooOO",
"OOOOoXXXX..                                           .XXXoooOOO",
"+OOOooXXXX..                                         .XXXoooOOO+",
"+OOOOooXXXX..                                       .XXXoooOOOO+",
"++OOOooXXXXX..                                     .XXXooooOOO++",
"++OOOOooXXXX..                                    .XXXXoooOOOO++",
"+++OOOooXXXXX..                                   .XXXooooOOO+++",
"+++OOOOooXXXX..                                  .XXXXoooOOOO+++",
"++++OOOooXXXXX..                                 .XXXooooOOO++++",
"++++OOOOooXXXX..                                .XXXXoooOOOO++++",
"+++++OOOooXXXXX..                               .XXXooooOOO+++++",
"+++++OOOoooXXXX..                              .XXXXoooOOOO+++++",
"+++++OOOoooXXXXX..                             .XXXooooOOOO+++++",
"+++++OOOOooXXXXX..                            .XXXXooooOOOO+++++",
"++++++OOOooXXXXX..                            .XXXXooooOOO++++++",
"++++++OOOoooXXXX..                            .XXXXoooOOOO++++++",
"++++++OOOoooXXXXX..                           .XXXooooOOOO++++++",
"++++++OOOoooXXXXX..                          .XXXXooooOOOO++++++",
"++++++OOOoooXXXXX..                          .XXXXooooOOOO++++++",
"++++++OOOoooXXXXX..                          .XXXXooooOOOO++++++",
"++++++OOOoooXXXXX..                          .XXXXooooOOOO++++++",
"++++++OOOoooXXXXX..                          .XXXXooooOOOO++++++",
"++++++OOOoooXXXXX..                          .XXXXooooOOOO++++++",
"++++++OOOoooXXXXX..                          .XXXXooooOOOO++++++",
"++++++OOOoooXXXXX..                          .XXXXooooOOOO++++++",
"++++++OOooooXXXXX..                          .XXXXooooOOOO++++++",
"+++++OOOooooXXXXX..                          .XXXXooooOOOOO+++++",
"+++++OOOoooXXXXXX..                          .XXXXoooooOOOO+++++",
"+++++OOOoooXXXXX..                           .XXXXXooooOOOO+++++",
"+++++OOooooXXXXX..                            .XXXXooooOOOO+++++",
"++++OOOooooXXXXX..                            .XXXXooooOOOOO++++",
"++++OOooooXXXXXX..                            .XXXXoooooOOOO++++",
"+++OOOooooXXXXX..                             .XXXXXooooOOOOO+++",
"+++OOooooXXXXXX..                              .XXXXoooooOOOO+++",
"++OOOooooXXXXX..                               .XXXXXooooOOOOO++",
"++OOooooXXXXXX..                                .XXXXoooooOOOO++",
"+OOOooooXXXXX..                                 .XXXXXooooOOOOO+",
"+OOooooXXXXXX..                                  .XXXXoooooOOOO+",
"OOoooooXXXXX..                                   .XXXXXooooOOOOO",
"OoooooXXXXXX..                                    .XXXXoooooOOOO",
"oooooXXXXXX..                                     .XXXXXoooooOOO",
"ooooXXXXXX..                                       .XXXXXoooooOO",
"oooXXXXXX..                                         .XXXXXoooooO",
"ooXXXXXX..                                           .XXXXXooooo",
"oXXXXXX..                                             .XXXXXoooo",
"XXXXXX..                                               .XXXXXooo",
"XXXXX..                                                 .XXXXXoo",
"XXXX..                                                   .XXXXXo",
"XX..                                                      .XXXXX",
"..                                                          .XXX",
"                                                              .X",
"                                                                ",
"                                                                ",
"                                                                ",
"                                                                "
};
