/* XPM */
static char *result[] = {
/* columns rows colors chars-per-pixel */
"64 64 78 1 ",
"  c #3D7F22",
". c #3F8023",
"X c #3F8E22",
"o c #448526",
"O c #468926",
"+ c #498B27",
"@ c #468628",
"# c #478928",
"$ c #4A8C28",
"% c #469325",
"& c #499627",
"* c #4D9A27",
"= c #4B9529",
"- c #4D9A29",
"; c #50922B",
": c #519D2A",
"> c #4E8C32",
", c #518F33",
"< c #4F9931",
"1 c #529233",
"2 c #559D34",
"3 c #589E35",
"4 c #56A42C",
"5 c #58A62D",
"6 c #57A92D",
"7 c #5CAB2E",
"8 c #57A035",
"9 c #5CA535",
"0 c #56AF33",
"q c #5EAD31",
"w c #5FAA38",
"e c #5EB234",
"r c #60AF2F",
"t c #60AE32",
"y c #60AB38",
"u c #61B334",
"i c #68B735",
"p c #64B836",
"a c #6ABA36",
"s c #65B539",
"d c #68B63B",
"f c #64B939",
"g c #6ABA3B",
"h c #70BF3A",
"j c #6FC03A",
"k c #75C33E",
"l c #78C53F",
"z c #67AD42",
"x c #68AE42",
"c c #6BB742",
"v c #6DBA43",
"b c #71BD45",
"n c #76BE4E",
"m c #76C341",
"M c #7AC641",
"N c #7DCA43",
"B c #7EC648",
"V c #81CD45",
"C c #81C74B",
"Z c #84CB4C",
"A c #84D147",
"S c #86D14B",
"D c #88D14E",
"F c #97D855",
"G c #9ADB56",
"H c #9DDD59",
"J c #A1DF5B",
"K c #A4E35D",
"L c #A8E75F",
"P c #A8E85E",
"I c #A2DF61",
"U c #A6E261",
"Y c #A9E563",
"T c #ADEA64",
"R c #ACE668",
"E c #AFE869",
"W c #B1ED65",
"Q c #B2F066",
/* pixels */
"xw9wBDDZ1>>1BDZZy99wURRUbcvvyyyyddfd2218IEYUZZSC1>>1CSDZvvvbvvvn",
"5545MVNN$@o$kVNN4444HKKKgsgi5444ttre-=&-HYUJBMAl=@o$MVBMgddgdgdg",
"9444MNNM$oo#lAVB54*5KWTKgsgg:*::rttw-%&-KWTLANAN+oo#MAVNgdgdssdc",
"w545MAAM=@o$kANM6445GKKHdsdf77677ttq-**-FKJHllVl$@@$kVNlffdffgvv",
"vffdMBNM54:4iggdaaaa7575$#o$FKKF44445444::::54554444tt7uqq7uGKJU",
"bgggMNAM6455sffdajka4*4-O@ +KQWK7:558664%%%%444455550q7qqq7tKTKR",
"bgdgMNNM6545gggggaka4:44@o +KQTK5:444444*---44444444rutuqq6eKTUR",
"vdfdNNVM5:44sddfiaaa5454+$o=FKKG54544554-=*&445755447r7teq7uGKJU",
"f76rHKPH;o++++++4444idiflllk74654444kNNM=o@+iagaq7t7-*&:kNMMgdgb",
"yr7rHTTK$ OO@@@@4544fgggVAAV4*4:4445MAAN+oo+ajgatttr--%-NAVVfsic",
"dt7eHQQU; o@@O@O:544fgsdlVAN4:444444NAANO..@ajga7qe7-==-MVVNddgb",
"dt6eFKKH;oO+++O+4740dgfdlNll64564444kNNk;O+$ijai7tqq-*&*kVMMdsfv",
"yttq2:::eeiu7777MMMMMNBMr7uulNNlr77rerreklMl7445dggf4444dggd545w",
"dttq&%X%fgffrurrMANNNNVNu777NVVBuqut7q77VAAV5:44dagd5444igdf5449",
"y777-X%-ejff7767NVNNAAANtq7uNVVNrqueqq7qVVVV5:44fvgd9445effu545w",
"dqut:--<eeuutrrulNNMllMMt77ulNNNe7qqeqqehVMl6445fggd4445gggd5459",
"ZMNlMMMl:==-FUKGgfgd$@++7uq7aaaaeqeqfefe+@++paaasffeq75tGKKG544q",
"ZVNVVVSN-%&*KWTKgugsOoo@7uqeagaaqqqeeejfOoo@akgjuefe7t7uJWWK7:59",
"DVVBNVAl&XX%HWTKgsgdOoo@7ueejjjauweemefeOooOaagaeeeeqt7tPWWK5:4y",
"CMlMNlVl8--4FKKHgsgs+OO+7e7qpaair7e0eefe+O++ajaacffftr5tFJKF7:4y",
"8:-:ufefGKKHgsff74454444---*++++*---4444idffagajHKKHe6ur$+++qq7s",
"<=%&efepKTTPe0ee:4445674---=OooO&-=-4444fgggaaaaJTTKu7trO.o.7std",
"2=&&efeePTWPjefp5::54444*%&&ooOo%%%=4445dgddagahKTQPu5u7o ooqutd",
"8-*2efefFJHHf0uu75555474----++++::::4445fgddaaiaFKHGr7r7=+$$qqqd",
"vecfdggs=##$4544rufuqqqqlNMMaiiamNNMe777fdgdqqr7:--:7e7tGKKH:&-2",
"mcgvgdjf@ .@4544ipffttqeNVVVjjajNNSNe7eqdddfqquq&%%&qe7uKWWK:%*2",
"vdfdddgi@ ..4755efefqqqtNAVVjagaNNNNu7rtssus7tt7&=&&qu7uKWQK-%*2",
"bfgddggd;$$=:444effetqqtkMMlaaaaNMNNr777ghggt7t7----7u7uGJKF:%*2",
"bddgdgsdGIKH;oOOeetrsddf$OO+44444454**%:FLKHgiapuepettu7$$+$we7d",
"vgdddffgKWWK$ @@7u7rddgf@oo@45444444*=%*KTYKkpjjfffftquqO..oquwd",
"mfcdvgfgKTTK$ @+7u7qisfsO@@O:4444444-=%:KTTLaigfefffqqtqOO@$ruef",
"vcfffsefGKKH;@O+7trtgggg+OO+47555554-&=-FKKHapjjeeseqttr$oO+7uty",
"seu7-&&-MANN7777fdsfGKKH5*44kVNMisff44445546lNVl:&&*fdgf-==*454w",
"y7uq*=&*kNNlu7uqfdsgKTTK7445lVVNgfgg54554-*:lAAl*&&*fggd:=-*454w",
"dtu7*%==MVVNrrqedgsgKWWK7*:5MVNNgfdd544444-5NAAN-%=*idgf-=**444w",
"dtuq--=-MNNMt7eeddsgGKKG7:47lVNNdfdd44455555llVl-%**gggf-=*-494w",
"csesfisffggfeeffusfe=++$rpuuMNNMaaaa9444sdgi=O+$86:5kNMMfeeeiffb",
"vfefggggdddfffcefsfeo .oufpflBVMaaja5445gggdO.oo4745MVANgfffdgdb",
"vfffddgdgddgfeffmeje$@@#efefNASNhaja4444dggf$@##4545NSANeeeedddb",
"cfeefgddssfdesuu0fee+@@=efefMMMMaaai5444fdgf+o#+4445MMllfffidfgv",
"8*--fgdd44457rtqeerq4444efff%##+5545eefeeee7$O@#7re75545MNNMeqqs",
"2*=-dggd44447rqreeu75645effeX.@@4544ejffewqq+O@+7uuu4:44NSANq7qy",
"2=%-gggd4**47urteeee5444ffff>o.#5555peputru7O@@o7u7q4444MNSMuqtd",
"8---igff75597r7777774444effe###$45:4ffepr7u7+##O7uu74447MMNMr7ty",
"veee5444GKKG-%***-**4445effeeefe+oOOihaa54444444iddgaaaagdgd444y",
"mejp4:*5KWTK2%-*=-==4544ffffjejpOooOihha44445545fgfghjaaddfd444y",
"cefp4444HTPK-%&&%==&4444ffffeffuOOoOijha54754444dgdgaghguuft444y",
"meue4445GKPH4%-4--::4445efefeepu+OOOiaai44445545fdfiaaaagggg444y",
"0840efefNBNNMMMMMMMku7qqqquq4445q7qqpefs+oo+eefeqtu74446GPKHr77d",
"024:ffefMMMMANVVVVVVututqqu74444uuueeffe#@@#ejffq7qq44*6JWTKu7rd",
"w444ffffNANNNNMNVVVNt7qqq77744447qeqffff+.@#cffeqquq4647JWTKt7ry",
"w444ueeuMMMMMBNNMMMMtqetuuru5444tuueeeuu=##%efseeqqq44*4FKKFt57d",
"sqt754457tttMNAl----qt7qkNNlgffdMMNM544407t7--*-quu7+OO+qiur444y",
"d0uq44447777MNAM*&%=7t7tNVVNgddgBVAN5444rtur-===7uurO@OO5777444y",
"dqqe4444tt7uNAAN:==-7rqqNVVNgddgVAAV5:44qtt7-==-quu7+O@#7utt577y",
"dwqq4444q77tklMl-=--7tqtlNMMfsfdlllk544577tt-*-:7ur7+O@$7urr:::y",
"d77q7qt75454+@++--*-fddfeere4464-*&-fdddr7qq777q4454$o@$4544OO+,",
"stttutur4454oooo=-=-dggd77q74446&=&&fgggequqrurt4454OO#$4454+OO,",
"dtttuuuu4444@oOo&-==fggduueu656:*==&fggf7qqwrttq4574Ooo#:544Oo@$",
"yq7777774554++++:-=:sddf77774466--*-sgddu7uqqqr7445:$#++4564$$$1",
"y454+@@+aaaaffds77r77qtq+@O+&-&-eefeqqqqfdgfeqeq**=*44447qqqq7ry",
"y45:+ooOajhjggggqrtrequ7Oo@O&<&<ffcetqqqfvgdqqqq-==-4555eteqtuug",
"4454$O@+ikaagdddtqqt7uuq+@OO&<&<ejesutqqddddtqtq-*--4444quqtqqtt",
"zyyy1>>,gmbbvbbvddydysds1>,12828fmvvdyddvbbvdddd22229yyysdcydcdc"
};
