/* XPM */
static char *b373615fb66e460c9cb965aabdf7c2fdSORjszwhuR8mne4h[] = {
/* columns rows colors chars-per-pixel */
"64 64 208 2 ",
"   c #040202",
".  c #0A0404",
"X  c #0B0A0C",
"o  c #120907",
"O  c #140D0B",
"+  c #180F0F",
"@  c #1F120E",
"#  c #121315",
"$  c #1C1514",
"%  c #22150E",
"&  c #2F1A0D",
"*  c #241713",
"=  c #251A14",
"-  c #2A1C15",
";  c #241C1A",
":  c #2B1F18",
">  c #321C15",
",  c #24211F",
"<  c #2C211B",
"1  c #352114",
"2  c #392315",
"3  c #33231B",
"4  c #3B251A",
"5  c #3D2A1D",
"6  c #2A1C21",
"7  c #242325",
"8  c #2B2125",
"9  c #292824",
"0  c #2D2C2D",
"q  c #332623",
"w  c #342923",
"e  c #3B2D24",
"r  c #352D2A",
"t  c #382829",
"y  c #35312D",
"u  c #3C3628",
"i  c #3C342C",
"p  c #363433",
"a  c #4C1D00",
"s  c #4A2717",
"d  c #442B1B",
"f  c #4B2C1B",
"g  c #552E10",
"h  c #522F1B",
"j  c #46331D",
"k  c #4D321D",
"l  c #5C3315",
"z  c #54331E",
"x  c #5B321F",
"c  c #663A16",
"v  c #6C3E1A",
"b  c #442D22",
"n  c #4B2F22",
"m  c #433125",
"M  c #4A3223",
"N  c #43342C",
"B  c #48382C",
"V  c #4C3A2F",
"C  c #533424",
"Z  c #5A3723",
"A  c #543921",
"S  c #543A2A",
"D  c #593A29",
"F  c #5B3D2C",
"G  c #433C33",
"H  c #423B35",
"J  c #553E32",
"K  c #5C3D31",
"L  c #633D25",
"P  c #6B3D24",
"I  c #623F2D",
"U  c #704319",
"Y  c #55442F",
"T  c #5E422B",
"R  c #4A4335",
"E  c #4B4438",
"W  c #48473C",
"Q  c #544134",
"!  c #5D4432",
"~  c #5A4539",
"^  c #59473B",
"/  c #534C3E",
"(  c #664126",
")  c #6C4424",
"_  c #64422B",
"`  c #6B462B",
"'  c #614C2B",
"]  c #6C4A2C",
"[  c #754826",
"{  c #784B20",
"}  c #724D2E",
"|  c #7B4D2B",
" . c #76512F",
".. c #7A522C",
"X. c #644532",
"o. c #664836",
"O. c #6D4C33",
"+. c #624E3E",
"@. c #6B4C3B",
"#. c #744E33",
"$. c #7B4F33",
"%. c #714E3A",
"&. c #765135",
"*. c #7B5434",
"=. c #7D5837",
"-. c #77543A",
";. c #7C553B",
":. c #7C5A3C",
">. c #4D4340",
",. c #514943",
"<. c #5B4C40",
"1. c #4C5042",
"2. c #5A5646",
"3. c #495652",
"4. c #535C58",
"5. c #645244",
"6. c #615746",
"7. c #745C43",
"8. c #5B665C",
"9. c #6C6645",
"0. c #70624E",
"q. c #6F6953",
"w. c #686758",
"e. c #736357",
"r. c #756559",
"t. c #78675A",
"y. c #74685F",
"u. c #7A6A5C",
"i. c #73735D",
"p. c #5B6963",
"a. c #646B64",
"s. c #6C6E63",
"d. c #666F68",
"f. c #7D6F66",
"g. c #6C7667",
"h. c #697069",
"j. c #767B63",
"k. c #7B7C69",
"l. c #813F24",
"z. c #924E2C",
"x. c #85542A",
"c. c #80532C",
"v. c #93532F",
"b. c #825533",
"n. c #845934",
"m. c #845C3D",
"M. c #895D38",
"N. c #9A5A31",
"B. c #86633B",
"V. c #8D633D",
"C. c #8D683C",
"Z. c #91693D",
"A. c #996C3F",
"S. c #A36235",
"D. c #BF7B3F",
"F. c #835E41",
"G. c #866144",
"H. c #8B6444",
"J. c #8E6A44",
"K. c #87674B",
"L. c #8C6B4B",
"P. c #936A44",
"I. c #966D48",
"U. c #9D7443",
"Y. c #98744B",
"T. c #986D50",
"R. c #957452",
"E. c #9B7451",
"W. c #957258",
"Q. c #A27848",
"!. c #B3774B",
"~. c #A47A55",
"^. c #A17C5B",
"/. c #B27E5E",
"(. c #817267",
"). c #88776B",
"_. c #807E6C",
"`. c #7F816A",
"'. c #928958",
"]. c #A3814F",
"[. c #A58254",
"{. c #A88051",
"}. c #A58259",
"|. c #AA8358",
" X c #B68551",
".X c #B28C5B",
"XX c #878566",
"oX c #908D6E",
"OX c #848974",
"+X c #969473",
"@X c #AE8A63",
"#X c #B68D66",
"$X c #A2966B",
"%X c #B99466",
"&X c #BD976B",
"*X c #D68946",
"=X c #CA8C54",
"-X c #CA9057",
";X c #D59C57",
":X c #EE8A46",
">X c #C28C60",
",X c #C39C71",
"<X c #C4B16D",
"1X c #E8AF64",
"2X c #FBD67C",
"3X c #A5A381",
"4X c #FFEA86",
"5X c #FFEB8F",
/* pixels */
"e.e.e.e.e.e.e.e.e.e.e.e.e.e.e.e.e.e.e.e.e.e.e.e.e.e.e.e.e.e.e.e.e.e.e.e.e.e.e.e.e.e.e.e.e.e.e.e.e.e.e.e.e.e.e.e.e.e.e.e.e.e.e.e.",
"e.e.e.e.e.e.e.e.e.e.e.e.e.e.e.e.e.e.e.e.e.e.e.e.e.e.e.e.e.e.e.e.e.e.e.e.e.e.e.e.e.e.e.e.e.e.e.e.e.e.e.e.e.e.e.e.e.e.e.e.e.e.e.e.",
"e.e.e.e.e.e.e.e.e.e.e.e.e.e.e.e.e.e.e.e.e.e.e.e.e.e.e.e.e.e.e.e.e.e.e.e.e.e.e.e.e.e.e.e.e.e.e.e.e.e.e.e.e.e.e.e.e.e.e.e.e.e.e.e.",
"r.r.e.e.e.e.e.e.e.e.e.e.e.e.e.e.e.e.e.e.e.e.e.e.e.e.e.e.e.e.e.e.e.e.e.e.e.e.e.e.e.e.e.e.e.e.e.e.e.e.e.e.e.e.e.e.e.e.e.e.e.e.e.e.",
"y.y.r.r.e.e.e.e.e.e.e.e.e.e.e.e.e.e.e.e.e.e.e.e.e.e.e.e.e.e.e.e.e.e.e.e.e.e.e.e.e.e.e.e.e.e.e.e.e.e.e.e.e.e.e.e.e.e.e.e.e.e.r.t.",
"y.y.y.y.r.r.e.e.e.e.e.e.e.e.e.e.e.e.e.e.e.e.e.e.e.e.e.e.e.e.e.e.e.e.e.e.e.e.e.e.e.e.e.e.e.e.e.e.e.e.e.e.e.e.e.e.e.e.e.e.r.s.s.f.",
"f.y.y.y.y.r.r.e.e.e.e.e.e.e.e.e.e.e.e.e.e.e.e.e.e.e.e.e.e.e.e.e.e.e.e.e.e.e.e.e.e.e.e.e.e.e.e.e.e.e.e.e.e.e.e.e.e.e.e.f.s.e.(.(.",
"(.f.y.y.y.y.r.r.e.e.e.e.e.e.e.e.e.e.e.e.e.e.e.e.e.e.e.e.e.e.e.e.e.e.e.e.e.e.e.e.e.e.e.e.e.e.e.e.e.e.e.e.e.e.e.e.e.e.e.f.r.f.f.f.",
"(.(.f.y.y.y.s.e.r.e.e.e.e.e.e.e.e.e.e.e.e.e.e.e.e.e.e.e.e.e.e.e.e.e.e.e.e.e.e.e.e.e.e.e.e.e.e.e.e.e.e.e.e.e.e.e.e.r.y.y.f.f.f.(.",
"(.(.(.f.y.y.y.y.r.r.e.e.e.e.e.e.e.e.e.e.e.e.e.e.e.e.e.e.e.e.e.e.e.e.e.e.e.e.e.e.e.e.e.e.e.e.e.e.e.e.e.e.e.e.e.r.y.s.y.f.f.f.(.(.",
"(.(.(.(.(.r.y.y.y.r.r.e.e.e.e.e.e.e.e.e.e.e.e.e.e.e.e.e.e.e.e.e.e.e.e.e.e.e.e.e.e.e.e.e.e.e.e.e.e.e.e.e.e.e.r.y.y.r.f.f.f.(.(.(.",
").(.(.(.f.f.y.y.y.y.r.r.e.e.e.e.e.e.e.e.e.e.e.e.e.e.e.e.e.e.e.e.e.e.e.e.e.e.e.e.e.e.e.e.e.e.e.e.e.e.e.e.e.r.y.y.y.(.f.f.(.(.(.).",
").(.(.(.(.f.f.y.f.t.s.r.r.e.e.e.e.e.e.e.e.e.e.e.e.e.e.e.e.e.e.e.e.e.e.e.e.e.e.e.e.e.e.e.e.e.e.e.e.e.e.e.r.y.y.y.f.f.f.(.(.(.(.).",
").).(.(.(.f.f.y.e.s.t.y.r.r.e.e.e.e.e.e.e.e.e.e.e.e.e.e.e.e.e.e.e.e.e.e.e.e.e.e.e.e.e.e.e.e.e.e.e.e.e.r.y.y.y.f.f.f.f.(.(.(.).).",
").).(.(.(.(.f.f.s.r.y.y.r.r.e.e.e.e.e.e.e.e.e.e.e.e.e.e.e.e.e.e.e.e.e.e.e.e.e.e.e.e.e.e.e.e.e.e.e.e.r.y.y.y.y.f.f.f.(.(.(.(.).).",
").).).(.(.(.f.f.e.f.y.y.y.r.r.e.e.e.e.e.e.e.e.e.e.e.e.e.e.e.e.r.e.e.e.e.e.e.e.e.e.e.e.e.e.e.e.e.e.e.r.y.y.y.f.f.f.f.(.(.(.).).).",
").).).(.(.(.(.f.f.y.y.y.y.e.r.e.e.e.e.e.e.f.e.r.r.r.r.r.t.r.u.t.e.r.r.r.t.t.u.r.t.t.e.e.e.e.e.e.e.r.y.y.y.y.f.f.f.(.(.(.(.).).).",
").).).).(.(.(.f.f.y.y.y.y.y.r.r.e.e.e.e.P F.#.L Z ` b.L x L #.M.c.[ ) ..| [ l l c P a e.e.e.e.e.e.r.y.y.y.f.f.f.f.(.(.(.).).).).",
").).).).(.(.(.(.f.f.y.y.y.y.r.r.e.e.e.e.;.T.5.$.J.J.G.7.Z.m.:.P.H.V.V.V.P.P.A.V.-.;.c e.e.e.e.e.r.y.y.y.y.f.f.f.(.(.(.(.).).).).",
").).).).).(.(.(.f.f.y.y.y.y.y.r.r.e.e.e.7.K.~ D &.o.M J O.O.C f f _ ` z d Z ( k o.G.P e.e.e.e.e.r.y.y.y.f.f.f.f.(.(.(.).).).).).",
").).).).).(.(.(.f.f.f.y.y.y.y.e.r.e.e.e.K T.R.r 7 0 p p r i y 9 y i w y w y 7 + :.Y.l r.e.e.e.r.y.y.y.y.f.f.f.(.(.(.(.).).).).).",
").).).).).(.(.(.f.f.f.y.y.y.y.y.e.r.e.e.o.~.}.,.3.4.p.4.3.4.8.p.d.d.a.8.a.h.8.E M.H.c e.e.e.e.r.y.y.y.f.f.f.f.(.(.(.(.).).).).).",
").).).).).(.(.(.(.f.(.y.y.y.y.y.r.r.e.e.:.}.R.6.p.w.h.h.i.i.W >.0.OX_.s.k.k.g./ #.H.v e.e.e.e.r.y.y.y.f.f.f.f.(.(.(.(.).).).).).",
").).).).).).(.(.(.f.f.y.y.y.y.y.r.r.e.e.J.I.$.e.g.`.k.k.OXq.V.@.8 5.+XOXoX'.XX2.n V.{ e.e.e.r.f.y.y.y.f.f.f.f.(.(.(.).).).).).).",
").).).).).).(.(.(.f.f.f.y.y.y.y.r.r.e.e.:.U.Q.9.j.oX+X3Xk.J.4X1XK 8 q.oX+X$X'.9.I V.v e.e.e.e.s.y.y.y.f.f.f.(.(.(.(.).).).).).).",
").).).).).).(.(.(.f.f.f.y.y.y.y.s.t.r.e.&.]..XV / q.y.3Xu.$.;X XF.t H 1.(.<X'.R ;.F.l e.e.e.e.r.y.y.f.f.f.f.(.(.(.(.).).).).).).",
").).).).).).(.(.(.f.f.f.y.y.y.y.y.r.r.e.#.[.|.V R / R / r I.-X-XP.t H H 2.'.9.u ;.K.g e.e.r.t.e.y.y.f.f.f.f.(.(.(.(.).).).).).).",
").).).).).).(.(.(.f.f.f.y.y.y.y.y.r.r.e.B.Y.F.S y W W u 7 :.=X!.@.r N G R W u e K %.c e.e.e.s.f.y.y.f.f.f.f.(.(.(.(.).).).).).).",
").).).).).).(.(.(.f.f.f.y.y.y.y.y.r.r.e.m.I.G.N 9 G G / R t m.o.r i u G R G y 3 I b.[ r.e.r.y.y.y.y.f.f.f.f.(.(.(.(.).).).).).).",
").).).).).).(.(.(.f.f.f.y.y.y.y.y.r.r.e.#.Q.~.B 0 G E 2.<.7 6 _ X.S y u R Y u < m.U.U r.e.r.y.y.y.y.f.f.f.f.(.(.(.(.).).).).).).",
").).).).).).(.(.(.f.f.f.y.y.y.y.y.r.r.e.#.{..XF i Y Y m r t Q.1X;X*.w < ' B.j % F.!.P e.e.r.y.y.y.y.f.f.f.f.(.(.(.(.).).).).).).",
").).).).).).(.(.(.f.f.f.y.y.y.y.y.r.r.e.} E.L.A 5 T ] j 6  X4X2X1Xx.! j j ] ' j I H.c e.e.r.y.y.y.y.f.f.f.f.(.(.(.(.).).).).).).",
").).).).).).(.(.(.f.f.f.y.y.y.y.y.r.r.e._ #.` k f L ) e b ;X2X5X1X) S e = > z T Z b.x.e.e.e.s.y.y.y.(.(.f.f.(.(.(.(.).).).).).).",
").).).).).).(.(.(.f.f.f.y.y.y.y.y.r.r.e._ J.Z.3 s l.n ; m M #.J.X.< < 3 < 3 s > #.V.;.e.e.r.r.e.y.y.f.f.f.f.(.(.(.(.).).).).).).",
").).).).).).(.(.f.f.f.f.y.y.y.y.y.r.r.e.&.A.P.3 d [ 5 7 q < < = $ < d M : : 2 > *.V.-.e.e.r.s.f.y.r.f.f.f.f.(.(.(.(.).).).).).).",
").).).).).(.(.(.f.f.f.f.y.y.y.y.y.r.r.e.] C.P.b d C < < < = < w , < 3 < = - : 2 -.I.x.e.e.r.t.s.y.r.f.f.f.f.(.(.(.(.(.).).).).).",
").).).).).(.(.(.f.f.f.y.y.y.y.y.y.r.r.e.&.=.n.k * ; < 3 ; ; : < : : = - - - - > I m.| e.e.e.y.y.y.y.f.f.f.f.f.(.(.(.(.).).).).).",
").).).).).(.(.(.f.f.f.y.y.y.y.y.r.r.e.e.] *.B.k + 4 z 5 5 = X $ : = = - = = = - _ #.L e.e.e.y.y.y.y.y.f.f.f.f.(.(.(.(.).).).).).",
").).).).).(.(.f.f.f.f.y.y.y.y.y.r.r.e.e.o.B.A.5 X 4 h ( =XD.P ; # $ $ - - = % @ L ` Z e.e.e.e.y.y.y.y.f.f.f.f.(.(.(.(.).).).).).",
").).).).(.(.(.f.f.f.f.y.y.y.y.y.r.r.e.e._ P.U.4 + = * 5 z.*X:Xv.f k h 1 = - % % #.-.) e.e.e.e.f.y.y.y.f.f.f.f.(.(.(.(.(.).).).).",
").).).).(.(.f.f.f.f.y.y.y.y.y.y.r.r.e.e...Z.:.2 O * + z S.| v.z.P z s 1 & = % & F %.| e.e.e.r.t.y.y.y.f.f.f.f.f.(.(.(.(.).).).).",
").).).(.(.(.f.f.f.f.y.y.y.y.y.r.r.e.e.e.*... .5 X : $ h N.d 3 C 2 = = - % % * & S _ | e.e.e.r.s.y.y.y.y.f.f.f.f.(.(.(.(.(.).).).",
").).).(.(.f.f.f.f.y.y.y.y.y.y.r.r.e.e.e.T  .V.2 O 2 - : > - : $ = = = = * % * = O.b.L r.e.e.e.r.y.y.y.y.f.f.f.f.f.(.(.(.(.).).).",
").).(.(.(.f.f.f.f.y.y.y.y.y.r.r.e.e.e.e.D &.M.&   o o o X O O .   .   . .   .   _ M.D e.e.e.e.r.y.y.y.y.y.f.f.f.f.(.(.(.(.(.).).",
").).(.(.f.f.f.f.y.y.y.y.y.y.r.e.e.e.e.e.( =.' J 5.5.5.<.~ ~ J >.~ +.^ Q ^ +.! Q S #._ r.e.e.e.e.r.y.y.y.y.f.f.f.f.f.(.(.(.(.).).",
").(.(.(.f.f.f.f.y.y.y.y.y.r.r.e.e.e.e.e.} ] ! R.&X#XW.~.&X/.#X/.~.&X,X%XW.^.^.@XL.F _ e.e.e.e.e.r.y.y.y.y.y.f.f.f.f.(.(.(.(.(.).",
").(.(.f.f.f.f.y.y.y.y.y.y.r.e.e.e.e.e.e.] Y.T.E.W.@X%X~.#XW.T.-X|.^.&X}.E.@XE.E.G.G.&.e.e.e.e.e.e.r.y.y.y.y.f.f.f.f.f.(.(.(.(.).",
"(.(.f.f.f.f.f.y.y.y.y.y.r.r.e.e.e.e.e.e.e.e.e.e.e.e.e.e.e.f.e.e.e.e.e.e.e.e.e.e.e.e.e.e.e.e.e.e.e.r.y.y.y.y.y.f.f.f.f.(.(.(.(.(.",
"(.f.f.f.f.f.y.y.y.y.y.y.r.r.e.e.e.e.e.e.e.e.e.e.e.e.e.e.e.e.e.e.e.e.e.e.e.e.e.e.e.e.e.e.e.e.e.e.e.e.r.y.y.y.y.f.f.f.f.f.(.(.(.(.",
"f.f.f.f.f.y.y.y.y.y.y.r.r.e.e.e.e.e.e.e.e.e.e.e.e.e.e.e.e.e.e.e.e.e.e.e.e.e.e.e.e.e.e.e.e.e.e.e.e.e.r.y.y.y.y.y.f.f.f.f.f.(.(.(.",
"f.f.f.f.y.y.y.y.y.y.r.r.e.e.e.e.e.e.e.e.e.e.e.e.e.e.e.e.e.e.e.e.e.e.e.e.e.e.e.e.e.e.e.e.e.e.e.e.e.e.e.r.y.y.y.y.y.f.f.f.f.f.(.(.",
"f.f.f.y.y.y.y.y.y.r.r.e.e.e.e.e.e.e.e.e.e.e.e.e.e.e.e.e.e.e.e.e.e.e.e.e.e.e.e.e.e.e.e.e.e.e.e.e.e.e.e.e.r.y.y.y.y.y.f.f.f.f.f.(.",
"f.f.y.y.y.y.y.y.r.r.e.e.e.e.e.e.e.e.e.e.e.e.e.e.e.e.e.e.e.e.e.e.e.e.e.e.e.e.e.e.e.e.e.e.e.e.e.e.e.e.e.e.e.r.y.y.y.y.y.f.f.f.f.f.",
"f.y.y.y.y.y.y.r.r.e.e.e.e.e.e.e.e.e.e.e.e.e.e.e.e.e.e.e.e.e.e.e.e.e.e.e.e.e.e.e.e.e.e.e.e.e.e.e.e.e.e.e.e.e.r.y.y.y.y.y.f.f.f.f.",
"y.y.y.y.y.y.r.r.e.e.e.e.e.e.e.e.e.e.e.e.e.e.e.e.e.e.e.e.e.e.e.e.e.e.e.e.e.e.e.e.e.e.e.e.e.e.e.e.e.e.e.e.e.e.e.r.y.y.y.y.y.f.f.f.",
"y.y.y.y.y.r.r.e.e.e.e.e.e.e.e.e.e.e.e.e.e.e.e.e.e.e.e.e.e.e.e.e.e.e.e.e.e.e.e.e.e.e.e.e.e.e.e.e.e.e.e.e.e.e.e.e.r.y.y.y.y.y.f.f.",
"y.y.y.y.r.r.e.e.e.e.e.e.e.e.e.e.e.e.e.e.e.e.e.e.e.e.e.e.e.e.e.e.e.e.e.e.e.e.e.e.e.e.e.e.e.e.e.e.e.e.e.e.e.e.e.e.e.r.y.y.y.y.y.f.",
"y.y.r.r.e.e.e.e.e.e.e.e.e.e.e.e.e.e.e.e.e.e.e.e.e.e.e.e.e.e.e.e.e.e.e.e.e.e.e.e.e.e.e.e.e.e.e.e.e.e.e.e.e.e.e.e.e.e.r.y.y.y.y.y.",
"r.r.e.e.e.e.e.e.e.e.e.e.e.e.e.e.e.e.e.e.e.e.e.e.e.e.e.e.e.e.e.e.e.e.e.e.e.e.e.e.e.e.e.e.e.e.e.e.e.e.e.e.e.e.e.e.e.e.e.e.r.y.y.y.",
"e.e.e.e.e.e.e.e.e.e.e.e.e.e.e.e.e.e.e.e.e.e.e.e.e.e.e.e.e.e.e.e.e.e.e.e.e.e.e.e.e.e.e.e.e.e.e.e.e.e.e.e.e.e.e.e.e.e.e.e.e.e.r.y.",
"e.e.e.e.e.e.e.e.e.e.e.e.e.e.e.e.e.e.e.e.e.e.e.e.e.e.e.e.e.e.e.e.e.e.e.e.e.e.e.e.e.e.e.e.e.e.e.e.e.e.e.e.e.e.e.e.e.e.e.e.e.e.e.e.",
"e.e.e.e.e.e.e.e.e.e.e.e.e.e.e.e.e.e.e.e.e.e.e.e.e.e.e.e.e.e.e.e.e.e.e.e.e.e.e.e.e.e.e.e.e.e.e.e.e.e.e.e.e.e.e.e.e.e.e.e.e.e.e.e.",
"e.e.e.e.e.e.e.e.e.e.e.e.e.e.e.e.e.e.e.e.e.e.e.e.e.e.e.e.e.e.e.e.e.e.e.e.e.e.e.e.e.e.e.e.e.e.e.e.e.e.e.e.e.e.e.e.e.e.e.e.e.e.e.e.",
"e.e.e.e.e.e.e.e.e.e.e.e.e.e.e.e.e.e.e.e.e.e.e.e.e.e.e.e.e.e.e.e.e.e.e.e.e.e.e.e.e.e.e.e.e.e.e.e.e.e.e.e.e.e.e.e.e.e.e.e.e.e.e.e."
};
