/* XPM */
static char *monalisa1643121707[] = {
/* columns rows colors chars-per-pixel */
"64 64 228 2 ",
"   c #050202",
".  c #0C0504",
"X  c #0A080A",
"o  c #0D0C0C",
"O  c #140B07",
"+  c #130D0A",
"@  c #17100D",
"#  c #1C120E",
"$  c #120F11",
"%  c #151314",
"&  c #1C1513",
"*  c #1D1817",
"=  c #23150D",
"-  c #2B180D",
";  c #241712",
":  c #2B1512",
">  c #251A15",
",  c #2A1C15",
"<  c #231C19",
"1  c #2B1E1A",
"2  c #331E16",
"3  c #2F2016",
"4  c #2D221B",
"5  c #342116",
"6  c #3B2315",
"7  c #33241C",
"8  c #3B251B",
"9  c #3B2B1C",
"0  c #2B1E22",
"q  c #1F2021",
"w  c #2A2124",
"e  c #2C2925",
"r  c #2D2E2D",
"t  c #312323",
"y  c #342B23",
"u  c #3B2B24",
"i  c #322C2A",
"p  c #3B2C29",
"a  c #33322E",
"s  c #3E352A",
"d  c #3B332D",
"f  c #353434",
"g  c #3A3630",
"h  c #3D3B33",
"j  c #393A38",
"k  c #5B2F0D",
"l  c #452717",
"z  c #432B1C",
"x  c #4A2C1C",
"c  c #44331B",
"v  c #4D321E",
"b  c #54321C",
"n  c #59361D",
"m  c #62361F",
"M  c #432E23",
"N  c #422D28",
"B  c #502F20",
"V  c #443223",
"C  c #4B3224",
"Z  c #44342D",
"A  c #4B332A",
"S  c #4A3B2C",
"D  c #533423",
"F  c #563A25",
"G  c #593925",
"H  c #543629",
"J  c #533B2C",
"K  c #5C3B2A",
"L  c #433C33",
"P  c #5B3F30",
"I  c #643E21",
"U  c #6A3A23",
"Y  c #703F24",
"T  c #6B411E",
"R  c #5D4225",
"E  c #58462B",
"W  c #5C422C",
"Q  c #454134",
"!  c #4A4234",
"~  c #434339",
"^  c #4C433A",
"/  c #4C493F",
"(  c #5C4231",
")  c #5A4738",
"_  c #534B3D",
"`  c #59533D",
"'  c #674321",
"]  c #6D4224",
"[  c #64422C",
"{  c #6B462D",
"}  c #6E4A2D",
"|  c #774827",
" . c #734C2C",
".. c #794C2D",
"X. c #78522A",
"o. c #7B522C",
"O. c #634532",
"+. c #674733",
"@. c #664935",
"#. c #6B4B34",
"$. c #6C4D39",
"%. c #724D32",
"&. c #724F3B",
"*. c #66513B",
"=. c #6E513B",
"-. c #745135",
";. c #7A5334",
":. c #7B5C37",
">. c #74533B",
",. c #7A543B",
"<. c #7D5B3B",
"1. c #7E6034",
"2. c #494742",
"3. c #524E41",
"4. c #48514D",
"5. c #5A5344",
"6. c #5B5747",
"7. c #4C5654",
"8. c #565B57",
"9. c #535D55",
"0. c #674E42",
"q. c #655E49",
"w. c #6F5B4D",
"e. c #725644",
"r. c #7A5740",
"t. c #745A44",
"y. c #7C5C43",
"u. c #735D4C",
"i. c #795E48",
"p. c #5B6255",
"a. c #5C655C",
"s. c #6A634A",
"d. c #7B614C",
"f. c #66675A",
"g. c #736357",
"h. c #7A6453",
"j. c #786955",
"k. c #766659",
"l. c #7C6A5C",
"z. c #69715B",
"x. c #7C7759",
"c. c #5B6862",
"v. c #626B64",
"b. c #6C6E63",
"n. c #687363",
"m. c #737664",
"M. c #787966",
"N. c #757B6A",
"B. c #803E24",
"V. c #834629",
"C. c #87572F",
"Z. c #97562F",
"A. c #815633",
"S. c #845A34",
"D. c #8A5D34",
"F. c #835C3B",
"G. c #895E3A",
"H. c #8C6236",
"J. c #87613B",
"K. c #8D643C",
"L. c #936635",
"P. c #92653C",
"I. c #A66335",
"U. c #A1703C",
"Y. c #C6733C",
"T. c #825E41",
"R. c #846245",
"E. c #8B6443",
"W. c #8D6944",
"Q. c #876549",
"!. c #8D694A",
"~. c #926B44",
"^. c #956946",
"/. c #9D7446",
"(. c #95734D",
"). c #987348",
"_. c #9C754D",
"`. c #836A54",
"'. c #8D6E51",
"]. c #826D59",
"[. c #957552",
"{. c #9B7454",
"}. c #9C7A53",
"|. c #997358",
" X c #A26C46",
".X c #A37749",
"XX c #A47A4C",
"oX c #A37E56",
"OX c #A87D5C",
"+X c #7F816E",
"@X c #7C8370",
"#X c #858154",
"$X c #978D5B",
"%X c #B5844E",
"&X c #A5805C",
"*X c #AB845C",
"=X c #AC895D",
"-X c #B68857",
";X c #BA965A",
":X c #858264",
">X c #878567",
",X c #958C63",
"<X c #989268",
"1X c #858973",
"2X c #918F74",
"3X c #939273",
"4X c #9B9A77",
"5X c #AB8862",
"6X c #B78C66",
"7X c #A59B6E",
"8X c #B99264",
"9X c #BD976C",
"0X c #ADA06D",
"qX c #A6A37F",
"wX c #CB8445",
"eX c #C58953",
"rX c #CD9254",
"tX c #D49856",
"yX c #E88C46",
"uX c #DFA558",
"iX c #C29B6D",
"pX c #C4A76C",
"aX c #EDB464",
"sX c #EBCF78",
"dX c #FFD97B",
"fX c #A1A182",
"gX c #FEE886",
"hX c #FFFC97",
/* pixels */
"g.g.g.g.g.g.g.g.g.g.g.g.g.g.g.g.g.g.g.g.g.g.g.g.g.g.g.g.g.g.g.g.g.g.g.g.g.g.g.g.g.g.g.g.g.g.g.g.g.g.g.g.g.g.g.g.g.g.g.g.g.g.g.g.",
"g.g.g.g.g.g.g.g.g.g.g.g.g.g.g.g.g.g.g.g.g.g.g.g.g.g.g.g.g.g.g.g.g.g.g.g.g.g.g.g.g.g.g.g.g.g.g.g.g.g.g.g.g.g.g.g.g.g.g.g.g.g.g.g.",
"g.g.g.g.g.g.g.g.g.g.g.g.g.g.g.g.g.g.g.g.g.g.g.g.g.g.g.g.g.g.g.g.g.g.g.g.g.g.g.g.g.g.g.g.g.g.g.g.g.g.g.g.g.g.g.g.g.g.g.g.g.g.g.g.",
"g.g.g.g.g.g.g.g.g.g.g.g.g.g.g.g.g.g.g.g.g.g.g.g.g.g.g.g.g.g.g.g.g.g.g.g.g.g.g.g.g.g.g.g.g.g.g.g.g.g.g.g.g.g.g.g.g.g.g.g.g.g.g.g.",
"g.g.g.g.g.g.g.g.g.g.g.g.g.g.g.g.g.g.g.g.g.g.g.g.g.g.g.g.g.g.g.g.g.g.g.g.g.g.g.g.g.g.g.g.g.g.g.g.g.g.g.g.g.g.g.g.g.g.g.g.g.g.g.g.",
"g.g.g.g.g.g.g.g.g.g.g.g.g.g.g.g.g.g.g.g.g.g.g.g.g.g.g.g.g.g.g.g.g.g.g.g.g.g.g.g.g.g.g.g.g.g.g.g.g.g.g.g.g.g.g.g.g.g.g.g.g.g.g.g.",
"g.g.g.g.g.g.g.g.g.g.g.g.g.g.g.g.g.g.g.g.g.g.g.g.g.g.g.g.g.g.g.g.g.g.g.g.g.g.g.g.g.g.g.g.g.g.g.g.g.g.g.g.g.g.g.g.g.g.g.g.g.g.g.g.",
"g.g.g.g.g.g.g.g.g.g.g.g.g.g.g.g.g.g.g.g.g.g.g.g.g.g.g.g.g.g.g.g.g.g.g.g.g.g.g.g.g.g.g.g.g.g.g.g.g.g.g.g.g.g.g.g.g.g.g.g.g.g.g.g.",
"g.g.g.g.g.g.g.g.g.g.g.g.g.g.g.g.g.g.g.g.g.g.g.g.g.g.g.g.g.g.g.g.g.g.g.g.g.g.g.g.g.g.g.g.g.g.g.g.g.g.g.g.g.g.g.g.g.g.g.g.g.g.g.g.",
"g.g.g.g.g.g.g.g.g.g.g.g.g.g.g.g.g.g.g.g.g.g.g.g.g.g.g.g.g.g.g.g.g.g.g.g.g.g.g.g.g.g.g.g.g.g.g.g.g.g.g.g.g.g.g.g.g.g.g.g.g.g.g.g.",
"g.g.g.g.g.g.g.g.g.g.g.g.g.g.g.g.g.g.g.g.g.g.g.g.g.g.g.g.g.g.g.g.g.g.g.g.g.g.g.g.g.g.g.g.g.g.g.g.g.g.g.g.g.g.g.g.g.g.g.g.g.g.g.g.",
"g.g.g.g.g.g.g.g.g.g.g.g.g.g.g.g.g.g.g.g.g.g.g.g.g.g.g.g.g.g.g.g.g.g.g.g.g.g.g.g.g.g.g.g.g.g.g.g.g.g.g.g.g.g.g.g.g.g.g.g.g.g.g.g.",
"g.g.g.g.g.g.g.g.g.g.g.g.g.g.g.g.g.g.g.g.g.g.g.g.g.g.g.g.g.g.g.g.g.g.g.g.g.g.g.g.g.g.g.g.g.g.g.g.g.g.g.g.g.g.g.g.g.g.g.g.g.g.g.g.",
"g.g.g.g.g.g.g.g.g.g.g.g.g.g.g.g.g.g.g.g.g.k.k.k.k.k.k.k.l.k.l.l.k.g.k.h.k.k.k.k.l.k.k.j.k.k.g.g.g.g.g.g.g.g.g.g.g.g.g.g.g.g.g.g.",
"g.g.g.g.g.g.g.g.g.g.g.g.g.g.g.g.g.g.e.y.R.r.=.$.>.T.y.&.$.$.y.!.!.R.T.y.R.R.E.r.$.%.>.t.#.=.g.g.g.g.g.g.g.g.g.g.g.g.g.g.g.g.g.g.",
"g.g.g.g.g.g.g.g.g.g.g.g.g.g.g.g.g.g.%.K.T.+.} %.<.G.<.%... .%.F.P.D.;...A.G.D.C.V.o.] { k ' g.g.g.g.g.g.g.g.g.g.g.g.g.g.g.g.g.g.",
"g.g.g.g.g.g.g.g.g.g.g.g.g.g.g.g.g.g.t.!.y.) &.E.E.,.$.<.W.F.%.%.;.;.F.F.<.-.,.D.K.S.-.y. .;.g.g.g.g.g.g.g.g.g.g.g.g.g.g.g.g.g.g.",
"g.g.g.g.g.g.g.g.g.g.g.g.g.g.g.g.g.g.e.R.Q.) N ( P Z N S ( O.H 8 2 z F F x 6 6 v v 5 E W.S.} g.g.g.g.g.g.g.g.g.g.g.g.g.g.g.g.g.g.",
"g.g.g.g.g.g.g.g.g.g.g.g.g.g.g.g.g.g.0.y.$Xh.i q r f j f r i g i i h g i a a g f q + @._.S.n g.g.g.g.g.g.g.g.g.g.g.g.g.g.g.g.g.g.",
"g.g.g.g.g.g.g.g.g.g.g.g.g.g.g.g.g.g.) Q.-X|.2.4.7.8.8.7.4.8.p.a.c.v.v.a.f.a.v.v.9.~ ,.^.;.n g.g.g.g.g.g.g.g.g.g.g.g.g.g.g.g.g.g.",
"g.g.g.g.g.g.g.g.g.g.g.g.g.g.g.g.g.g.*.(.*X'.5.9.a.v.v.v.z.n.4.2.8.M.1XM.z.b.N.M.n./ #.E.;.' k.g.g.g.g.g.g.g.g.g.g.g.g.g.g.g.g.g.",
"g.g.g.g.g.g.g.g.g.g.g.g.g.g.g.g.g.g.Q.).^.r.f.v.m.M.m.N.@Xm.*.P A ^ ].2X+X@X>X:XM.6.H ,.D.X.g.g.g.g.g.g.g.g.g.g.g.g.g.g.g.g.g.g.",
"g.g.g.g.g.g.g.g.g.g.g.g.g.g.g.g.g.g.R.).~.<.j.N.1X3X3X1X1Xj.-XeX,.0 ^ >X3X4X<X,X,Xq.A %.H.X.g.g.g.g.g.g.g.g.g.g.g.g.g.g.g.g.g.g.",
"g.g.g.g.g.g.g.g.g.g.g.g.g.g.g.g.g.g.>.W.%X).*.z.>X3XqXfXM.T.sXgXOXA w 5.x.2X7X0X$X5.O.F.;.' g.g.g.g.g.g.g.g.g.g.g.g.g.g.g.g.g.g.",
"g.g.g.g.g.g.g.g.g.g.g.g.g.g.g.g.g.g.*.~.;X{.Z ~ q.q.:X4Xg.%.%XrX.X;.i Z j 6.<XpX#XQ @.W.;.n g.g.g.g.g.g.g.g.g.g.g.g.g.g.g.g.g.g.",
"g.g.g.g.g.g.g.g.g.g.g.g.g.g.g.g.g.g.*.~.;X(.V L 3._ _ 3.L E.eXtXeX,.r Z L 2.].$Xs.h #.W.;.n g.g.g.g.g.g.g.g.g.g.g.g.g.g.g.g.g.g.",
"g.g.g.g.g.g.g.g.g.g.g.g.g.g.g.g.g.g.1.(._.y.J g ! ^ L i 0 T.eXrX XO.r Z L Q ` ` ! u J e.{ I g.g.g.g.g.g.g.g.g.g.g.g.g.g.g.g.g.g.",
"g.g.g.g.g.g.g.g.g.g.g.g.g.g.g.g.g.g.R.W.W.>.Z e L ! Q L d H ^. X$.p d Z Q Q Q h i y H #. .} g.g.g.g.g.g.g.g.g.g.g.g.g.g.g.g.g.g.",
"g.g.g.g.g.g.g.g.g.g.g.g.g.g.g.g.g.g.t.K..Xd.p e d L / 5._ w N J A d Z p s Q Q s y 4 E J.D. .g.g.g.g.g.g.g.g.g.g.g.g.g.g.g.g.g.g.",
"g.g.g.g.g.g.g.g.g.g.g.g.g.g.g.g.g.g.=.K.-X/.Z a L ! _ 5.^ 0 0 ( G.,.J u 7 Q *.E 9 3 -.XXL.] g.g.g.g.g.g.g.g.g.g.g.g.g.g.g.g.g.g.",
"g.g.g.g.g.g.g.g.g.g.g.g.g.g.g.g.g.g.=.~.;XXXA d E E E u i p ^.aXaXtX%.p 4 V 1.1.c ; +..XH.] g.g.g.g.g.g.g.g.g.k.g.g.g.g.g.g.g.g.",
"g.g.g.g.g.g.g.g.g.g.g.g.g.g.g.g.g.g.-.W.oXT.C 9 D } E 7 t /.sXgXdXuX..W c c E } R v P R.S.T g.g.g.g.g.g.g.g.g.g.g.g.g.g.g.g.g.g.",
"g.g.g.g.g.g.g.g.g.g.g.g.g.g.g.g.g.g.@.-.,.{ B x n  .R w V tXdXhXgXtX' K A 4 , z I K H %.C...g.g.g.g.g.g.g.g.g.g.g.g.g.g.g.g.g.g.",
"g.g.g.g.g.g.g.g.g.g.g.g.g.g.g.g.g.g.@.-.D. .8 l U ] u w C S..XpX;XS.8 u y 4 , 2 x x K A.F.,.g.g.g.g.g.g.g.g.g.g.g.g.g.g.g.g.g.g.",
"g.g.g.g.g.g.g.g.g.g.g.g.g.g.g.g.g.g.@.J..X:.1 2 B.U 4 w u 4 x H D w q 7 u 7 4 2 2 : [ K.J.r.g.g.g.g.g.g.g.g.g.g.g.g.g.g.g.g.g.g.",
"g.g.g.g.g.g.g.g.g.g.g.g.g.g.g.g.g.g.-.K..X<.7 l ] b 1 4 4 4 < ; & & 4 9 C 8 > 1 8 2 { P.K.,.g.g.g.g.g.g.g.g.g.g.g.g.g.g.g.g.g.g.",
"g.g.g.g.g.g.g.g.g.g.g.g.g.g.g.g.g.g.@.:.~.F.z z v 9 1 4 1 < 4 y 4 > 4 7 3 > > , 2 2 [ W.P.F.g.g.g.g.g.g.g.g.g.g.g.g.g.g.g.g.g.g.",
"g.g.g.g.g.g.g.g.g.g.g.g.g.g.g.g.g.g.-.:.D.-.V > < 4 7 w < < 7 7 4 , 4 , > , 4 , , 2 H ,.A.F.g.g.g.g.g.g.g.g.g.g.g.g.g.g.g.g.g.g.",
"g.g.g.g.g.g.g.g.g.g.g.g.g.g.g.g.g.g.*.X.H.;.z % , z v 7 > % X $ 4 4 > > , , ; > , : G %.} %.g.g.g.g.g.g.g.g.g.g.g.g.g.g.g.g.g.g.",
"g.g.g.g.g.g.g.g.g.g.g.g.g.g.g.g.g.g.$.;.K.D.8 o 2 b n { U.A.M $ o % % * , > ; > ; # D  .{ P g.g.g.g.g.g.g.g.g.g.g.g.g.g.g.g.g.g.",
"g.g.g.g.g.g.g.g.g.g.g.g.g.g.g.g.g.g.O.:./.K.5 o > 6 z  .wXyXY.| 7 * 3 5 3 > > , # @ n X.{ K k.g.g.g.g.g.g.g.g.g.g.g.g.g.g.g.g.g.",
"g.g.g.g.g.g.g.g.g.g.g.g.g.g.g.g.g.g.O.1._.J.5 @ & # ; C C.Y.yXY.| b n b l , , > = = F ,.-.%.k.g.g.g.g.g.g.g.g.g.g.g.g.g.g.g.g.g.",
"g.g.g.g.g.g.g.g.g.g.g.g.g.g.g.g.g.g.%.H.K.#.5 + ; + ; ] I.| V.Z.V.m v l 6 - > > = - D $.-.;.g.g.g.g.g.g.g.g.g.g.g.g.g.g.g.g.g.g.",
"g.g.g.g.g.g.g.g.g.g.g.g.g.g.g.g.g.g.>.S.X.{ 7 + > & , Y Z.H z B b 6 > - , ; = > = ; A I } ;.g.g.g.g.g.g.g.g.g.g.g.g.g.g.g.g.g.g.",
"g.g.g.g.g.g.g.g.g.g.g.g.g.g.g.g.g.g.@. .D...6 @ 2 1 , z D 7 t 1 4 > > > , , = = > ; K ;. .#.g.g.g.g.g.g.g.g.g.g.g.g.g.g.g.g.g.g.",
"g.g.g.g.g.g.g.g.g.g.g.g.g.g.g.g.g.g.( +.J.A.#   O O O O X + + X X   .   X .     .   H J.;.W g.g.g.g.g.g.g.g.g.g.g.g.g.g.g.g.g.g.",
"g.g.g.g.g.g.g.g.g.g.g.g.g.g.g.g.g.g.( #.F. .1 , , 1 4 < & > > * * > > & # > > > : @ V ;.;.O.g.g.g.g.g.g.g.g.g.g.g.g.g.g.g.g.g.g.",
"g.g.g.g.g.g.g.g.g.g.g.g.g.g.g.g.g.g.O.X.%.( 0.`.`.g.u.u.i.e.e.e.e.s.`.d.t.u.u.i.t.t.O.O.{ +.g.g.g.g.g.g.g.g.g.g.g.g.g.g.g.g.g.g.",
"g.g.g.g.g.g.g.g.g.g.g.g.g.g.g.g.g.g.&. .[ $.oX9X9X5X|.*XiX6X6X6XOXOXiXpX9XOX|.OX*X6X}.&.K +.g.g.g.g.g.g.g.g.g.g.g.g.g.g.g.g.g.g.",
"g.g.g.g.g.g.g.g.g.g.g.g.g.g.g.g.g.g.{ J.(.[.}.[.=X8X=X&X6X5X|.*XeXOX&X9X5X}.oX*X{.}.Q.T.y.>.g.g.g.g.g.g.g.g.g.g.g.g.g.g.g.g.g.g.",
"g.g.g.g.g.g.g.g.g.g.g.g.g.g.g.g.g.g.w.u.h.h.u.k.].].].`.].u.h.h.l.].l.].].k.d.].h.g.w.u.h.w.g.g.g.g.g.g.g.g.g.g.g.g.g.g.g.g.g.g.",
"g.g.g.g.g.g.g.g.g.g.g.g.g.g.g.g.g.g.g.g.g.g.g.g.g.g.g.g.g.g.g.g.g.g.g.g.g.k.g.g.g.g.g.g.g.g.g.g.g.g.g.g.g.g.g.g.g.g.g.g.g.g.g.g.",
"g.g.g.g.g.g.g.g.g.g.g.g.g.g.g.g.g.g.g.g.g.g.g.g.g.g.g.g.g.g.g.g.g.g.g.g.g.g.g.g.g.g.g.g.g.g.g.g.g.g.g.g.g.g.g.g.g.g.g.g.g.g.g.g.",
"g.g.g.g.g.g.g.g.g.g.g.g.g.g.g.g.g.g.g.g.g.g.g.g.g.g.g.g.g.g.g.g.g.g.g.g.g.g.g.g.g.g.g.g.g.g.g.g.g.g.g.g.g.g.g.g.g.g.g.g.g.g.g.g.",
"g.g.g.g.g.g.g.g.g.g.g.g.g.g.g.g.g.g.g.g.g.g.g.g.g.g.g.g.g.g.g.g.g.g.g.g.g.g.g.g.g.g.g.g.g.g.g.g.g.g.g.g.g.g.g.g.g.g.g.g.g.g.g.g.",
"g.g.g.g.g.g.g.g.g.g.g.g.g.g.g.g.g.g.g.g.g.g.g.g.g.g.g.g.g.g.g.g.g.g.g.g.g.g.g.g.g.g.g.g.g.g.g.g.g.g.g.g.g.g.g.g.g.g.g.g.g.g.g.g.",
"g.g.g.g.g.g.g.g.g.g.g.g.g.g.g.g.g.g.g.g.g.g.g.g.g.g.g.g.g.g.g.g.g.g.g.g.g.g.g.g.g.g.g.g.g.g.g.g.g.g.g.g.g.g.g.g.g.g.g.g.g.g.g.g.",
"g.g.g.g.g.g.g.g.g.g.g.g.g.g.g.g.g.g.g.g.g.g.g.g.g.g.g.g.g.g.g.g.g.g.g.g.g.g.g.g.g.g.g.g.g.g.g.g.g.g.g.g.g.g.g.g.g.g.g.g.g.g.g.g.",
"g.g.g.g.g.g.g.g.g.g.g.g.g.g.g.g.g.g.g.g.g.g.g.g.g.g.g.g.g.g.g.g.g.g.g.g.g.g.g.g.g.g.g.g.g.g.g.g.g.g.g.g.g.g.g.g.g.g.g.g.g.g.g.g.",
"g.g.g.g.g.g.g.g.g.g.g.g.g.g.g.g.g.g.g.g.g.g.g.g.g.g.g.g.g.g.g.g.g.g.g.g.g.g.g.g.g.g.g.g.g.g.g.g.g.g.g.g.g.g.g.g.g.g.g.g.g.g.g.g.",
"g.g.g.g.g.g.g.g.g.g.g.g.g.g.g.g.g.g.g.g.g.g.g.g.g.g.g.g.g.g.g.g.g.g.g.g.g.g.g.g.g.g.g.g.g.g.g.g.g.g.g.g.g.g.g.g.g.g.g.g.g.g.g.g.",
"g.g.g.g.g.g.g.g.g.g.g.g.g.g.g.g.g.g.g.g.g.g.g.g.g.g.g.g.g.g.g.g.g.g.g.g.g.g.g.g.g.g.g.g.g.g.g.g.g.g.g.g.g.g.g.g.g.g.g.g.g.g.g.g.",
"g.g.g.g.g.g.g.g.g.g.g.g.g.g.g.g.g.g.g.g.g.g.g.g.g.g.g.g.g.g.g.g.g.g.g.g.g.g.g.g.g.g.g.g.g.g.g.g.g.g.g.g.g.g.g.g.g.g.g.g.g.g.g.g.",
"g.g.g.g.g.g.g.g.g.g.g.g.g.g.g.g.g.g.g.g.g.g.g.g.g.g.g.g.g.g.g.g.g.g.g.g.g.g.g.g.g.g.g.g.g.g.g.g.g.g.g.g.g.g.g.g.g.g.g.g.g.g.g.g."
};
