/* XPM */
static char *result[] = {
/* columns rows colors chars-per-pixel */
"64 64 228 2 ",
"   c #050202",
".  c #0C0504",
"X  c #0A080A",
"o  c #0D0C0C",
"O  c #140B07",
"+  c #130D0A",
"@  c #17100D",
"#  c #1C120E",
"$  c #120F11",
"%  c #151314",
"&  c #1C1513",
"*  c #1D1817",
"=  c #23150D",
"-  c #2B180D",
";  c #241712",
":  c #2B1512",
">  c #251A15",
",  c #2A1C15",
"<  c #231C19",
"1  c #2B1E1A",
"2  c #331E16",
"3  c #2F2016",
"4  c #2D221B",
"5  c #342116",
"6  c #3B2315",
"7  c #33241C",
"8  c #3B251B",
"9  c #3B2B1C",
"0  c #2B1E22",
"q  c #1F2021",
"w  c #2A2124",
"e  c #2C2925",
"r  c #252628",
"t  c #2D2E2D",
"y  c #312323",
"u  c #342B23",
"i  c #3B2B24",
"p  c #322C2A",
"a  c #3B2C29",
"s  c #33322E",
"d  c #3E352A",
"f  c #3B332D",
"g  c #353434",
"h  c #3A3630",
"j  c #3D3B33",
"k  c #393A38",
"l  c #5B2F0D",
"z  c #452717",
"x  c #432B1C",
"c  c #4A2C1C",
"v  c #44331B",
"b  c #4D321E",
"n  c #54321C",
"m  c #59361D",
"M  c #62361F",
"N  c #432E23",
"B  c #502F20",
"V  c #443223",
"C  c #4B3224",
"Z  c #44342D",
"A  c #4B332A",
"S  c #4A3B2C",
"D  c #533423",
"F  c #563A25",
"G  c #593925",
"H  c #543629",
"J  c #533B2C",
"K  c #5C3B2A",
"L  c #433C33",
"P  c #483931",
"I  c #5B3F30",
"U  c #643E21",
"Y  c #6A3A23",
"T  c #703F24",
"R  c #6B411E",
"E  c #5D4225",
"W  c #58462B",
"Q  c #5C422C",
"!  c #454134",
"~  c #4A4234",
"^  c #434339",
"/  c #4C433A",
"(  c #5C4231",
")  c #5A4738",
"_  c #534B3D",
"`  c #59533D",
"'  c #674321",
"]  c #6D4224",
"[  c #64422C",
"{  c #6B462D",
"}  c #6E4A2D",
"|  c #774827",
" . c #734C2C",
".. c #794C2D",
"X. c #78522A",
"o. c #7B522C",
"O. c #634532",
"+. c #674733",
"@. c #664935",
"#. c #6B4B34",
"$. c #6C4D39",
"%. c #724D32",
"&. c #724F3B",
"*. c #66513B",
"=. c #6E513B",
"-. c #745135",
";. c #7A5334",
":. c #7B5C37",
">. c #74533B",
",. c #7A543B",
"<. c #7D5B3B",
"1. c #7E6034",
"2. c #494742",
"3. c #504945",
"4. c #48514D",
"5. c #5A5344",
"6. c #4C5654",
"7. c #565B57",
"8. c #535D55",
"9. c #674E42",
"0. c #655741",
"q. c #655E49",
"w. c #6F5B4D",
"e. c #725644",
"r. c #7A5740",
"t. c #745A44",
"y. c #7C5C43",
"u. c #735D4C",
"i. c #795E48",
"p. c #5B6255",
"a. c #5C655C",
"s. c #6A634A",
"d. c #7B614C",
"f. c #66675A",
"g. c #736357",
"h. c #7A6453",
"j. c #786955",
"k. c #766659",
"l. c #7C6A5C",
"z. c #69715B",
"x. c #7C7759",
"c. c #5B6862",
"v. c #6C6561",
"b. c #626B64",
"n. c #6C6E63",
"m. c #687363",
"M. c #737664",
"N. c #787966",
"B. c #757B6A",
"V. c #834629",
"C. c #87572F",
"Z. c #97562F",
"A. c #815633",
"S. c #845A34",
"D. c #8A5D34",
"F. c #835C3B",
"G. c #895E3A",
"H. c #8C6236",
"J. c #87613B",
"K. c #8D643C",
"L. c #936635",
"P. c #92653C",
"I. c #A66335",
"U. c #A1703C",
"Y. c #C6733C",
"T. c #825E41",
"R. c #846245",
"E. c #8B6443",
"W. c #8D6944",
"Q. c #876549",
"!. c #8D694A",
"~. c #926B44",
"^. c #956946",
"/. c #9D7446",
"(. c #95734D",
"). c #987348",
"_. c #9C754D",
"`. c #836A54",
"'. c #8D6E51",
"]. c #826D59",
"[. c #957552",
"{. c #9B7454",
"}. c #9C7A53",
"|. c #997358",
" X c #A26C46",
".X c #A37749",
"XX c #A47A4C",
"oX c #A37E56",
"OX c #A87D5C",
"+X c #7F816E",
"@X c #7C8370",
"#X c #858154",
"$X c #978D5B",
"%X c #B5844E",
"&X c #A5805C",
"*X c #AB845C",
"=X c #AC895D",
"-X c #B68857",
";X c #BA965A",
":X c #858264",
">X c #878567",
",X c #958C63",
"<X c #989268",
"1X c #858973",
"2X c #918F74",
"3X c #939273",
"4X c #9B9A77",
"5X c #AB8862",
"6X c #B78C66",
"7X c #A59B6E",
"8X c #B99264",
"9X c #BD976C",
"0X c #ADA06D",
"qX c #A6A37F",
"wX c #CB8445",
"eX c #C58953",
"rX c #CD9254",
"tX c #D49856",
"yX c #E88C46",
"uX c #DFA558",
"iX c #C29B6D",
"pX c #C4A76C",
"aX c #EDB464",
"sX c #EBCF78",
"dX c #FFD97B",
"fX c #A1A182",
"gX c #FEE886",
"hX c #FFFC97",
/* pixels */
"g.g.g.g.g.g.g.g.g.g.g.g.g.g.g.g.g.g.g.g.g.g.g.g.g.g.g.g.g.g.g.g.g.g.g.g.g.g.g.g.g.g.g.g.g.g.g.g.g.g.g.g.g.g.g.g.g.g.g.g.g.g.g.g.",
"g.g.g.g.g.g.g.g.g.g.g.g.g.g.g.g.g.g.g.g.g.g.g.g.g.g.g.g.g.g.g.g.g.g.g.g.g.g.g.g.g.g.g.g.g.g.g.g.g.g.g.g.g.g.g.g.g.g.g.g.g.g.g.g.",
"g.g.g.g.g.g.g.g.g.g.g.g.g.g.g.g.g.g.g.g.g.g.g.g.g.g.g.g.g.g.g.g.g.g.g.g.g.g.g.g.g.g.g.g.g.g.g.g.g.g.g.g.g.g.g.g.g.g.g.g.g.g.g.g.",
"g.g.g.g.g.g.g.g.g.g.g.g.g.g.g.g.g.g.g.g.g.g.g.g.g.g.g.g.g.g.g.g.g.g.g.g.g.g.g.g.g.g.g.g.g.g.g.g.g.g.g.g.g.g.g.g.g.g.g.g.g.g.g.g.",
"g.g.g.g.g.g.g.g.g.g.g.g.g.g.g.g.g.g.g.g.g.g.g.g.g.g.g.g.g.g.g.g.g.g.g.g.g.g.g.g.g.g.g.g.g.g.g.g.g.g.g.g.g.g.g.g.g.g.g.g.g.g.g.g.",
"g.g.g.g.g.g.g.g.g.g.g.g.g.g.g.g.g.g.g.g.g.g.g.g.g.g.g.g.g.g.g.g.g.g.g.g.g.g.g.g.g.g.g.g.g.g.g.g.g.g.g.g.g.g.g.g.g.g.g.g.g.g.g.g.",
"g.g.g.g.g.g.g.g.g.g.g.g.g.g.g.g.g.g.g.g.g.g.g.g.g.g.g.g.g.g.g.g.g.g.g.g.g.g.g.g.g.g.g.g.g.g.g.g.g.g.g.g.g.g.g.g.g.g.g.g.g.g.g.g.",
"g.g.g.g.g.g.g.g.g.g.g.g.g.g.g.g.g.g.g.g.g.g.g.g.g.g.g.g.g.g.g.g.g.g.g.g.g.g.g.g.g.g.g.g.g.g.g.g.g.g.g.g.g.g.g.g.g.g.g.g.g.g.g.g.",
"g.g.g.g.g.g.g.g.g.g.g.g.g.g.g.g.g.g.g.g.g.g.g.g.g.g.g.g.g.g.g.g.g.g.g.g.g.g.g.g.g.g.g.g.g.g.g.g.g.g.g.g.g.g.g.g.g.g.g.g.g.g.g.g.",
"g.g.g.g.g.g.g.g.g.g.g.g.g.g.g.g.g.g.g.g.g.g.g.g.g.g.g.g.g.g.g.g.g.g.g.g.g.g.g.g.g.g.g.g.g.g.g.g.g.g.g.g.g.g.g.g.g.g.g.g.g.g.g.g.",
"g.g.g.g.g.g.g.g.g.g.g.g.g.g.g.g.g.g.g.g.g.g.g.g.g.g.g.g.g.g.g.g.g.g.g.g.g.g.g.g.g.g.g.g.g.g.g.g.g.g.g.g.g.g.g.g.g.g.g.g.g.g.g.g.",
"g.g.g.g.g.g.g.g.g.g.g.g.g.g.g.g.g.g.g.g.g.g.g.g.g.g.g.g.g.g.g.g.g.g.g.g.g.g.g.g.g.g.g.g.g.g.g.g.g.g.g.g.g.g.g.g.g.g.g.g.g.g.g.g.",
"g.g.g.g.g.g.g.g.g.g.g.g.g.g.g.g.g.g.g.g.g.g.g.g.g.g.g.g.g.g.g.g.g.g.g.g.g.g.k.g.g.g.k.g.g.g.g.g.g.g.g.g.g.g.g.g.g.g.g.g.g.g.g.g.",
"g.g.g.g.g.g.g.g.g.g.g.g.g.g.g.g.g.g.g.g.k.k.g.g.k.k.k.k.k.k.l.l.k.g.k.g.k.k.k.k.l.k.k.k.k.k.g.g.g.g.g.g.g.g.g.g.g.g.g.g.g.g.g.g.",
"g.g.g.g.g.g.g.g.g.g.g.g.g.g.g.g.g.g.e.T.Q.e.>.$.>.T.T.$.$.&.y.!.!.Q.T.r.T.E.T.r.&.%.>.<.#.>.g.g.g.g.g.g.g.g.g.g.g.g.g.g.g.g.g.g.",
"g.g.g.g.g.g.g.g.g.g.g.g.g.g.g.g.g.g.%.K.T.+.} -.;.G.<.%... .%.G.E.C.o.A.S.G.G.C.o.| ] { l U g.g.g.g.g.g.g.g.g.g.g.g.g.g.g.g.g.g.",
"g.g.g.g.g.g.g.g.g.g.g.g.g.g.g.g.g.g.t.!.y.) &.E.E.,.=.<.K.F.#.%.;.;.S.F.A.-.,.S.H.S.>.t. .;.g.g.g.g.g.g.g.g.g.g.g.g.g.g.g.g.g.g.",
"g.g.g.g.g.g.g.g.g.g.g.g.g.g.g.g.g.g.e.R.Q.) Z I I Z a J ( ( H 6 2 c J J b 6 8 b b 5 W W.A.#.g.g.g.g.g.g.g.g.g.g.g.g.g.g.g.g.g.g.",
"g.g.g.g.g.g.g.g.g.g.g.g.g.g.g.g.g.g.9.y.oX`.p q t g k g t g d t e j h p s s h h w o +.XXS.m g.g.g.g.g.g.g.g.g.g.g.g.g.g.g.g.g.g.",
"g.g.g.g.g.g.g.g.g.g.g.g.g.g.g.g.g.g.) Q.=X'.2.4.6.7.7.6.6.8.p.a.c.b.b.f.a.a.b.b.8.^ ,.^.;.m g.g.g.g.g.g.g.g.g.g.g.g.g.g.g.g.g.g.",
"g.g.g.g.g.g.g.g.g.g.g.g.g.g.g.g.g.g.=.(.=X'.5.8.a.b.b.b.f.m.4.2.7.N.1XN.z.n.B.N.z.3.#.R.;.' j.g.g.g.g.g.g.g.g.g.g.g.g.g.g.g.g.g.",
"g.g.g.g.g.g.g.g.g.g.g.g.g.g.g.g.g.j.d.(.^.y.f.b.M.N.M.B.@XM.$.K A / ].2X+X@X>X:XN.5.J ,.D.X.g.g.g.g.g.g.g.g.g.g.g.g.g.g.g.g.g.g.",
"g.g.g.g.g.g.g.g.g.g.g.g.g.g.g.g.g.g.R.~.~.F.s.@X1X3X2X2X1Xj.;X-X-.0 3.:X3X4X<X,X>Xq.C %.H.X.g.g.g.g.g.g.g.g.g.g.g.g.g.g.g.g.g.g.",
"g.g.g.g.g.g.g.g.g.g.g.g.g.g.g.g.g.g.>.W.%X).*.z.:X3XqXfXN.T.sXgX-XA 0 5.x.3X7X0X$X0.O.F.A.U g.g.g.g.g.g.g.g.g.g.g.g.g.g.g.g.g.g.",
"g.g.g.g.g.g.g.g.g.g.g.g.g.g.g.g.g.g.=.W.;X}.Z ^ s.q.:X4Xg.%.%XrX.X&.p f ^ q.,XpX#X! @.W.o.F g.g.g.g.g.g.g.g.g.g.g.g.g.g.g.g.g.g.",
"g.g.g.g.g.g.g.g.g.g.g.g.g.g.g.g.g.g.*.).;X(.N L 3._ _ _ L E.eXtX-X,.p P k 2.`.$Xs.j #.W.;.m g.g.g.g.g.g.g.g.g.g.g.g.g.g.g.g.g.g.",
"g.g.g.g.g.g.g.g.g.g.g.g.g.g.g.g.g.g.<.)._.y.J f ~ / ! p w y.eXrX X@.p Z L ! ` ` ! i J e.{ G j.g.g.g.g.g.g.g.g.g.g.g.g.g.g.g.g.g.",
"g.g.g.g.g.g.g.g.g.g.g.g.g.g.g.g.g.g.R.W.W.>.Z e j ~ ! j a H  X X%.a a h ! ! ! h p u H #. . .g.g.g.g.g.g.g.g.g.g.g.g.g.g.g.g.g.g.",
"g.g.g.g.g.g.g.g.g.g.g.g.g.g.g.g.g.g.t.K..X<.f r d L / 5._ w a J A a Z a d ! ~ d u 4 W K.D. .g.g.g.g.g.g.g.g.g.g.g.g.g.g.g.g.g.g.",
"g.g.g.g.g.g.g.g.g.g.g.g.g.g.g.g.g.g.=.K.%X}.A t L ~ _ 5./ w 0 ( G.<.J i e S *.W 9 3 %.XXL.] g.g.g.g.g.g.g.g.g.g.g.g.g.g.g.g.g.g.",
"g.g.g.g.g.g.g.g.g.g.g.g.g.g.g.g.g.g.=.W.;X_.J f W W S d p a ^.aXaXtX%.a 4 V 1.1.v ; +._.H.] g.g.g.g.g.g.g.g.g.g.g.g.g.g.g.g.g.g.",
"g.g.g.g.g.g.g.g.g.g.g.g.g.g.g.g.g.g.-.W.&XR.b 9 F } E 9 y /.sXgXdXuX..W V v W } [ v K E.S.R g.g.g.g.g.g.g.g.g.g.g.g.g.g.g.g.g.g.",
"g.g.g.g.g.g.g.g.g.g.g.g.g.g.g.g.g.g.@.-.,.{ B c m  .E w V tXdXhXgXtXU U Z 7 1 x U K G %.A...g.g.g.g.g.g.g.g.g.g.g.g.g.g.g.g.g.g.",
"g.g.g.g.g.g.g.g.g.g.g.g.g.g.g.g.g.g.@.} D.%.2 z Y ] N w A S.XXpX;XS.9 i u 1 , 2 c z G A.G.r.g.g.g.g.g.g.g.g.g.g.g.g.g.g.g.g.g.g.",
"g.g.g.g.g.g.g.g.g.g.g.g.g.g.g.g.g.g.*.J..XF., 6 T Y 4 w i 1 x D A 4 < 7 i 8 1 2 8 : [ K.G.e.k.g.g.g.g.g.g.g.g.g.g.g.g.g.g.g.g.g.",
"g.g.g.g.g.g.g.g.g.g.g.g.g.g.g.g.g.g.-.H..X<.7 x | n < 4 7 4 > > & & 4 i C 7 < 1 7 2 { K.K.,.g.g.g.g.g.g.g.g.g.g.g.g.g.g.g.g.g.g.",
"g.g.g.g.g.g.g.g.g.g.g.g.g.g.g.g.g.g.@.:.~.F.x 9 b i 1 4 1 < 4 u 4 > 4 7 3 > > , , 5 [ ^.P.F.g.g.g.g.g.g.g.g.g.g.g.g.g.g.g.g.g.g.",
"g.g.g.g.g.g.g.g.g.g.g.g.g.g.g.g.g.g.-.:.G.o.N , < , y 7 < < 7 7 4 , 4 , > , 4 , , 2 G ,.A.F.g.g.g.g.g.g.g.g.g.g.g.g.g.g.g.g.g.g.",
"g.g.g.g.g.g.g.g.g.g.g.g.g.g.g.g.g.g.=.X.H.;.x & , c x 7 < $ X $ 4 4 > > , , ; > > , G -.{ %.g.g.g.g.g.g.g.g.g.g.g.g.g.g.g.g.g.g.",
"g.g.g.g.g.g.g.g.g.g.g.g.g.g.g.g.g.g.=.-.P.S.7 o 2 n n } U.A.N & $ % % * , > > ; = = D #.Y O.g.g.g.g.g.g.g.g.g.g.g.g.g.g.g.g.g.g.",
"g.g.g.g.g.g.g.g.g.g.g.g.g.g.g.g.g.g.O.:./.K.5 o > 6 z  .wXyXY.| 4 > 3 5 3 > > ; = @ m -.{ O.g.g.g.g.g.g.g.g.g.g.g.g.g.g.g.g.g.g.",
"g.g.g.g.g.g.g.g.g.g.g.g.g.g.g.g.g.g.O.1._.J.5 @ & & > C C.Y.yXY.| n n n z , > , = = G ;.%.%.g.g.g.g.g.g.g.g.g.g.g.g.g.g.g.g.g.g.",
"g.g.g.g.g.g.g.g.g.g.g.g.g.g.g.g.g.g.-.H.P.#.5 + # + ; ] I...V.Z.V.M n z 6 - > * = - D $.;.;.g.g.g.g.g.g.g.g.g.g.g.g.g.g.g.g.g.g.",
"g.g.g.g.g.g.g.g.g.g.g.g.g.g.g.g.g.g.>.A.o.[ 7 + > ; , T Z.D 8 B n 5 > - , > = ; - - C Q { ;.g.g.g.g.g.g.g.g.g.g.g.g.g.g.g.g.g.g.",
"g.g.g.g.g.g.g.g.g.g.g.g.g.g.g.g.g.g.@.%.S...5 @ 2 1 , x D 7 y 1 4 4 < > < , - - ; ; K ;. .#.g.g.g.g.g.g.g.g.g.g.g.g.g.g.g.g.g.g.",
"g.g.g.g.g.g.g.g.g.g.g.g.g.g.g.g.g.g.( { K.A.=   O O O O X + + X     .   . .     .   D J.;.Q g.g.g.g.g.g.g.g.g.g.g.g.g.g.g.g.g.g.",
"g.g.g.g.g.g.g.g.g.g.g.g.g.g.g.g.g.g.Q #.F.} , < < 1 4 < & > > * * > > ; ; > > * > @ x ,.;.O.k.g.g.g.g.g.g.g.g.g.g.g.g.g.g.g.g.g.",
"g.g.g.g.g.g.g.g.g.g.g.g.g.g.g.g.g.g.@.-. .O.9.`.`.h.u.u.i.e.e.e.0.i.j.d.u.e.u.d.t.t.@.O.{ +.g.g.g.g.g.g.g.g.g.g.g.g.g.g.g.g.g.g.",
"g.g.g.g.g.g.g.g.g.g.g.g.g.g.g.g.g.g.$. .[ $.}.9X9X5X|.*XiX6X6X6XOXOXiXpX9XOX|.OX*X6X}.$.K +.g.g.g.g.g.g.g.g.g.g.g.g.g.g.g.g.g.g.",
"g.g.g.g.g.g.g.g.g.g.g.g.g.g.g.g.g.g.#.G.(.[.}.[.5X8X=X&X6X5X|.*XeXOXOX9X5X}.oX5X{.|.!.R.F.&.g.g.g.g.g.g.g.g.g.g.g.g.g.g.g.g.g.g.",
"g.g.g.g.g.g.g.g.g.g.g.g.g.g.g.g.g.g.w.u.h.h.u.h.].].].`.].u.h.h.l.].l.].].j.h.].j.u.w.u.u.w.g.g.g.g.g.g.g.g.g.g.g.g.g.g.g.g.g.g.",
"g.g.g.g.g.g.g.g.g.g.g.g.g.g.g.g.g.g.g.g.k.g.g.g.g.g.g.g.g.g.g.g.g.g.g.g.g.g.g.g.g.g.g.g.g.k.g.g.g.g.g.g.g.g.g.g.g.g.g.g.g.g.g.g.",
"g.g.g.g.g.g.g.g.g.g.g.g.g.g.g.g.g.g.g.g.g.g.g.g.g.g.g.g.g.g.g.g.g.g.g.g.g.g.g.g.g.g.g.g.g.g.g.g.g.g.g.g.g.g.g.g.g.g.g.g.g.g.g.g.",
"g.g.g.g.g.g.g.g.g.g.g.g.g.g.g.g.g.g.g.g.g.g.g.g.g.g.g.g.g.g.g.g.g.g.g.g.g.g.g.g.g.g.g.g.g.g.g.g.g.g.g.g.g.g.g.g.g.g.g.g.g.g.g.g.",
"g.g.g.g.g.g.g.g.g.g.g.g.g.g.g.g.g.g.g.g.g.g.g.g.g.g.g.g.g.g.g.g.g.g.g.g.g.g.g.g.g.g.g.g.g.g.g.g.g.g.g.g.g.g.g.g.g.g.g.g.g.g.g.g.",
"g.g.g.g.g.g.g.g.g.g.g.g.g.g.g.g.g.g.g.g.g.g.g.g.g.g.g.g.g.g.g.g.g.g.g.g.g.g.g.g.g.g.g.g.g.g.g.g.g.g.g.g.g.g.g.g.g.g.g.g.g.g.g.g.",
"g.g.g.g.g.g.g.g.g.g.g.g.g.g.g.g.g.g.g.g.g.g.g.g.g.g.g.g.g.g.g.g.g.g.g.g.g.g.g.g.g.g.g.g.g.g.g.g.g.g.g.g.g.g.g.g.g.g.g.g.g.g.g.g.",
"g.g.g.g.g.g.g.g.g.g.g.g.g.g.g.g.g.g.g.g.g.g.g.g.g.g.g.g.g.g.g.g.g.g.g.g.g.g.g.g.g.g.g.g.g.g.g.g.g.g.g.g.g.g.g.g.g.g.g.g.g.g.g.g.",
"g.g.g.g.g.g.g.g.g.g.g.g.g.g.g.g.g.g.g.g.g.g.g.g.g.g.g.g.g.g.g.g.g.g.g.g.g.g.g.g.g.g.g.g.g.g.g.g.g.g.g.g.g.g.g.g.g.g.g.g.g.g.g.g.",
"g.g.g.g.g.g.g.g.g.g.g.g.g.g.g.g.g.g.g.g.g.g.g.g.g.g.g.g.g.g.g.g.g.g.g.g.g.g.g.g.g.g.g.g.g.g.g.g.g.g.g.g.g.g.g.g.g.g.g.g.g.g.g.g.",
"g.g.g.g.g.g.g.g.g.g.g.g.g.g.g.g.g.g.g.g.g.g.g.g.g.g.g.g.g.g.g.g.g.g.g.g.g.g.g.g.g.g.g.g.g.g.g.g.g.g.g.g.g.g.g.g.g.g.g.g.g.g.g.g.",
"v.v.v.v.v.v.v.v.v.v.v.v.v.v.v.v.v.v.v.v.v.v.v.v.v.v.v.v.v.v.v.v.v.v.v.v.v.v.v.v.v.v.v.v.v.v.v.v.v.v.v.v.v.v.v.v.v.v.v.v.v.v.v.v.",
"3.3.3.3.3.3.3.3.3.3.3.3.3.3.3.3.3.3.3.3.3.3.3.3.3.3.3.3.3.3.3.3.3.3.3.3.3.3.3.3.3.3.3.3.3.3.3.3.3.3.3.3.3.3.3.3.3.3.3.3.3.3.3.3.",
"3.3.3.3.3.3.3.3.3.3.3.3.3.3.3.3.3.3.3.3.3.3.3.3.3.3.3.3.3.3.3.3.3.3.3.3.3.3.3.3.3.3.3.3.3.3.3.3.3.3.3.3.3.3.3.3.3.3.3.3.3.3.3.3."
};
