/* XPM */
static char *result[] = {
/* columns rows colors chars-per-pixel */
"64 64 253 2 ",
"   c #000002",
".  c #06070C",
"X  c #150605",
"o  c #040519",
"O  c #150C1A",
"+  c #121615",
"@  c #271110",
"#  c #2D221B",
"$  c #38271E",
"%  c #030625",
"&  c #120F26",
"*  c #07172B",
"=  c #161925",
"-  c #041935",
";  c #2C1E25",
":  c #1B252A",
">  c #092739",
",  c #152537",
"<  c #28262C",
"1  c #382B22",
"2  c #3A342B",
"3  c #262C35",
"4  c #322E31",
"5  c #29383B",
"6  c #373936",
"7  c #481C17",
"8  c #492316",
"9  c #562516",
"0  c #503413",
"q  c #563817",
"w  c #753013",
"e  c #443429",
"r  c #563826",
"t  c #503634",
"y  c #733124",
"u  c #3C473D",
"i  c #33633B",
"p  c #4E4537",
"a  c #544838",
"s  c #794525",
"d  c #724F2E",
"f  c #674B35",
"g  c #695439",
"h  c #785737",
"j  c #6F7039",
"k  c #000643",
"l  c #00114E",
"z  c #001F57",
"x  c #042947",
"c  c #142B4D",
"v  c #1B3746",
"b  c #00275A",
"n  c #063D58",
"m  c #193C5D",
"M  c #263746",
"N  c #353A45",
"B  c #063463",
"V  c #443A46",
"C  c #134951",
"Z  c #11485A",
"A  c #36444B",
"S  c #27415B",
"D  c #3A4851",
"F  c #36585B",
"G  c #3F7F49",
"H  c #094868",
"J  c #114F77",
"K  c #24496B",
"L  c #375360",
"P  c #295873",
"I  c #166575",
"U  c #33746F",
"Y  c #4C4947",
"T  c #504945",
"R  c #584E4A",
"E  c #4B5849",
"W  c #585645",
"Q  c #4A5158",
"!  c #565757",
"~  c #775B47",
"^  c #655B55",
"/  c #4D685A",
"(  c #5A6559",
")  c #6A664A",
"_  c #706E4B",
"`  c #736357",
"'  c #786956",
"]  c #7B785A",
"[  c #4A576F",
"{  c #655967",
"}  c #4F6D6D",
"|  c #556667",
" . c #576673",
".. c #517873",
"X. c #6C6561",
"o. c #636769",
"O. c #6C736D",
"+. c #6A7478",
"@. c #7A7B78",
"#. c #902E10",
"$. c #A22901",
"%. c #AA3906",
"&. c #AB372D",
"*. c #DD100A",
"=. c #E71609",
"-. c #CF3018",
";. c #EA2903",
":. c #F42902",
">. c #F73801",
",. c #E82612",
"<. c #ED3611",
"1. c #D23528",
"2. c #E53A24",
"3. c #8A4612",
"4. c #9A4114",
"5. c #A64B19",
"6. c #B8451C",
"7. c #AA6509",
"8. c #8F4F29",
"9. c #845529",
"0. c #875634",
"q. c #B05433",
"w. c #896733",
"e. c #98663A",
"r. c #A8662A",
"t. c #B96C28",
"y. c #AA6F3E",
"u. c #B56C38",
"i. c #B5763B",
"p. c #D54E13",
"a. c #F84606",
"s. c #FA5602",
"d. c #EA4518",
"f. c #F05211",
"g. c #DD6407",
"h. c #CB6D18",
"j. c #FA6706",
"k. c #FD7601",
"l. c #F7681B",
"z. c #E97114",
"x. c #F97C19",
"c. c #CE552E",
"v. c #E84F2C",
"b. c #CD7331",
"n. c #F4702B",
"m. c #EB7739",
"M. c #BE5C53",
"N. c #996848",
"B. c #8C6E50",
"V. c #97765B",
"C. c #A76B43",
"Z. c #A97649",
"A. c #B67D47",
"S. c #A46758",
"D. c #B96F53",
"F. c #A57E59",
"G. c #8C7268",
"H. c #AD7965",
"J. c #C75247",
"K. c #D3594C",
"L. c #CA674B",
"P. c #D9694B",
"I. c #DD734A",
"U. c #DD7A4B",
"Y. c #CB7353",
"T. c #D97856",
"R. c #EE6F49",
"E. c #C77162",
"W. c #45855A",
"Q. c #538478",
"!. c #748B74",
"~. c #BE923A",
"^. c #D78716",
"/. c #FF8303",
"(. c #FF9306",
"). c #EE8D14",
"_. c #FB8818",
"`. c #FEA817",
"'. c #D29031",
"]. c #EA882A",
"[. c #F68729",
"{. c #FA992C",
"}. c #E48C30",
"|. c #F88A38",
" X c #F49436",
".X c #DEAC3D",
"XX c #F3AD34",
"oX c #F8BA38",
"OX c #FED13A",
"+X c #8E9050",
"@X c #B98448",
"#X c #B88254",
"$X c #AB9151",
"%X c #B19854",
"&X c #A9A057",
"*X c #978869",
"=X c #8F9066",
"-X c #A98766",
";X c #B68F6C",
":X c #8FA576",
">X c #AEAD6D",
",X c #C7874C",
"<X c #D9854A",
"1X c #C88956",
"2X c #C7975B",
"3X c #D99152",
"4X c #D99755",
"5X c #F7914D",
"6X c #E99754",
"7X c #F49855",
"8X c #CEAB52",
"9X c #F2BC49",
"0X c #E7A758",
"qX c #F1AF54",
"wX c #FAA55B",
"eX c #FBB956",
"rX c #D69A65",
"tX c #CB9673",
"yX c #F18C65",
"uX c #D7A675",
"iX c #D9B372",
"pX c #F4B96E",
"aX c #B5D475",
"sX c #DAC754",
"dX c #FCCD4C",
"fX c #FDD74B",
"gX c #F7C654",
"hX c #FCE74F",
"jX c #D9CE72",
"kX c #F3D56F",
"lX c #F8DE78",
"zX c #DBE675",
"xX c #F8EC6E",
"cX c #2B738A",
"vX c #646A81",
"bX c #8B7B89",
"nX c #389FA1",
"mX c #598083",
"MX c #7EAB98",
"NX c #479BAB",
"BX c #A49293",
"VX c #86BC80",
"CX c #B3B88E",
"ZX c #CDA58B",
"AX c #A6CF9F",
"SX c #BBF986",
"DX c #DCDE81",
"FX c #CAE38B",
"GX c #FAF986",
"HX c #F0F28C",
"JX c #E2EC95",
"KX c #FBF999",
"LX c #F6F1A2",
/* pixels */
"` ` ` ` ` ` ` ` ` ` ` ` ` ` ` ` ` ` ` ` ` ` ` ` ` ` ` ` ` ` ` ` ` ` ` ` ` ` ` ` ` ` ` ` ` ` ` ` ` ` ` ` ` ` ` ` ` ` ` ` ` ` ` ` ",
"` ` ` ` ` ` ` ` ` ` ` ` ` ` ` ` ` ` ` ` ` ` ` ` ` ` ` ` ` ` ` ` ` ` ` ` ` ` ` ` ` ` ` ` ` ` ` ` ` ` ` ` ` ` ` ` ` ` ` ` ` ` ` ` ",
"` ` ` ` ` ` ` ` ` ` ` ` ` ` ` ` ` ` ` ` ` ` ` ` ` ` ` ` ` ` ` ` ` ` ` ` ` ` ` ` ` ` ` ` ` ` ` ` ` ` ` ` ` ` ` ` ` ` ` ` ` ` ` ` ",
"` ` ` ` ` ` ` ` ` ` ` ` ` ` ` ` ` ` ` ` ` ` ` ` ` ` ` ` ` ` ` ` ` ` ` ` ` ` ` ` ` ` ` ` ` ` ` ` ` ` ` ` ` ` ` ` ` ` ` ` ` ` ` ` ",
"` ` ` ` ` ` ` ` ` ` ` ` ` ` ` ` ` ` ` ` ` ` ` ` ` ` ` ` ` ` ` ` ` ` ` ` ` ` ` ` ` ` ` ` ` ` ` ` ` ` ` ` ` ` ` ` ` ` ` ` ` ` ` ` ",
"` ` ` ` ` ` ` ` ` ` ` ` ` ` ` ` ` ` ` ` ` ` ` ` ` ` ` ` ` ` ` ` ` ` ` ` ` ` ` ` ` ` ` ` ` ` ` ` ` ` ` ` ` ` ` ` ` ` ` ` ` ` ` ` ",
"` ` ` ` ` ` ` ` ` ` ` ` ` ` ` ` ` ` ` ` ` ` ` ` ` ` ` ` ` ` ` ` ` ` ` ` ` ` ` ` ` ` ` ` ` ` ` ` ` ` ` ` ` ` ` ` ` ` ` ` ` ` ` ` ",
"` ` ` ` ` ` ` ` ` ` ` ` ` ` ` ` ` ` ` ` ` ` ` ` ` ` ` ` ` ` ` ` ` ` ` ` ` ` ` ` ` ` ` ` ` ` ` ` ` ` ` ` ` ` ` ` ` ` ` ` ` ` ` ` ",
"` ` ` ` ` ` ` ` ` ` ` ` ` ` ` ` ` ` ` ` ` ` ` ` ` ` ` ` ` ` ` ` ` ` ` ` ` ` ` ` ` ` ` ` ` ` ` ` ` ` ` ` ` ` ` ` ` ` ` ` ` ` ` ` ",
"` ` ` ` ` ` ` ` ` ` ` ` ` ` ` ` ` ` ` ` ` ` ` ` ` ` ` ` ` ` ` ` ` ` ` ` ` ` ` ` ` ` ` ` ` ` ` ` ` ` ` ` ` ` ` ` ` ` ` ` ` ` ` ` ",
"` ` ` ` ` ` ` ` ` ` ` ` ` ` ` ` ` ` ` ` ` ` ` ` ` ` ` ` ` ` ` ` ` ` ` ` ` ` ` ` ` ` ` ` ` ` ` ` ` ` ` ` ` ` ` ` ` ` ` ` ` ` ` ` ",
"` ` ` ` ` ` ` ` ` ` ` ` ` ` ` ` ` ` ` ` ` ` ` ` ` ` ` ` ` ` ` ` ` ` ` ` ` ` ` ` ` ` ` ` ` ` ` ` ` ` ` ` ` ` ` ` ` ` ` ` ` ` ` ` ",
"` ` ` ` ` ` ` ` ` ` ` ` ` ` ` ` ` ` ` ` ` ` ` ` ` ` ` ` ` ` ` ` ` ` ` ` ` ` ` ` ` ` ` ` ` ` ` ` ` ` ` ` ` ` ` ` ` ` ` ` ` ` ` ` ",
"` ` ` ` ` ` ` ` ` ` ` ` ` ` ` ` ` ` ` ` ` ` ` ^ ` ` ` ` ` ` ` ` ` ` ` ` ` ` ` ` ` ` ` ` ` ` ` ` ` ` ` ` ` ` ` ` ` ` ` ` ` ` ` ` ",
"` ` ` ` ` ` ` ` ` ` ` ` ` ` ` ` ` ` ;XT.iXDX2X$X+XY.'.4X<XE.G.V.S.M.F.H.H.1X$X1XT.4XiXuXp.D.` ` ` ` ` ` ` ` ` ` ` ` ` ` ` ` ` ` ",
"` ` ` ` ` ` ` ` ` ` ` ` ` ` ` ` ` ` T.,.2.2.c.6.6.q.q.b.,Xc.m.].l.z.dXqX}.f.f.].z.].l.z.f.I.` ` ` ` ` ` ` ` ` ` ` ` ` ` ` ` ` ` ",
"` ` ` ` ` ` ` ` ` ` ` ` ` ` ` ` ` ` rXn.l.r.=X>X8X8X8XsXzXaXzXxXFXSXzXhX9X{.fXfXoXoXfX9Xf.P.` ` ` ` ` ` ` ` ` ` ` ` ` ` ` ` ` ` ",
"` ` ` ` ` ` ` ` ` ` ` ` ` ` ` ` ` ` T.m.5X7XqX5X|.x.s.a.j.[.[.n.P.v.R.n.[. XwX6XR.l.qXdXl.P.` ` ` ` ` ` ` ` ` ` ` ` ` ` ` ` ` ` ",
"` ` ` ` ` ` ` ` ` ` ` ` ` ` ` ` ` ` J.*.,.:.a.a.<.f.-.,.d.=.*.*.=.<.:.;.>.a.s.s.j.j.:.v.n.P.` ` ` ` ` ` ` ` ` ` ` ` ` ` ` ` ` ` ",
"` ` ` ` ` ` ` ` ` ` ` ` ` ` ` ` ` ` rXm.E.L.c.1.p.,.*.=.,.2.v.5XwX{.k.).oXOXoX`.`.k.l.yXv.I.` ` ` ` ` ` ` ` ` ` ` ` ` ` ` ` ` ` ",
"` ` ` ` ` ` ` ` ` ` ` ` ` ` ` ` ` ` uXwXLXGXGXJXzXqXx._.[.[.XXqX X{.fXxXkX Xz.j.j.j.[.qX<.P.` ` ` ` ` ` ` ` ` ` ` ` ` ` ` ` ` ` ",
"` ` ` ` ` ` ` ` ` ` ` ` ` ` ` ` ` ` T.v.2.,.d.l. XoXOXhXgXeXHXLXxXeX|.f.>.s.k.k.k./.s.[.n.P.` ` ` ` ` ` ` ` ` ` ` ` ` ` ` ` ` ` ",
"` ` ` ` ` ` ` ` ` ` ` ` ` ` ` ` ` ` K.=.>.>.>.:.:.:.<.m.yX7XyXv.;.:.>.k./.(._.}.h.'.}.|.l.P.` ` ` ` ` ` ` ` ` ` ` ` ` ` ` ` ` ` ",
"` ` ` ` ` ` ` ` ` ` ` ` ` ` ` ` ` ` b.s.).'.}.{.{.{.j.a.a.a.>.s.x.`.).@X^ V m B b l c R f.U.` ` ` ` ` ` ` ` ` ` ` ` ` ` ` ` ` ` ",
"` ` ` ` ` ` ` ` ` ` ` ` ` ` ` ` ` ` uXB.> - N V 6 f A.t.^.g.n.b.9.t c k k b b b B b z B 6.U.` ` ` ` ` ` ` ` ` ` ` ` ` ` ` ` ` ` ",
"` ` ` ` ` ` ` ` ` ` ` ` ` ` ` ` ` ` BXvX| D , & c K P Z c { BX[ M E ] !.+.m H J B cXnXcX-.I.` ` ` ` ` ` ` ` ` ` ` ` ` ` ` ` ` ` ",
"` ` ` ` ` ` ` ` ` ` ` ` ` ` ` ` ` ` ] *XiXpX8X%X8X0XCXAXVXFXaX:X+.T E :X@.Y Q { L I cXNXc.P.' ` ` ` ` ` ` ` ` ` ` ` ` ` ` ` ` ` ",
"` ` ` ` ` ` ` ` ` ` ` ` ` ` ` ` ` ` W 2 3 VXJXDXkXlXgXgXgXfXaXMX! ) a x = # A t A b l n 5.I.` ` ` ` ` ` ` ` ` ` ` ` ` ` ` ` ` ` ",
"` ` ` ` ` ` ` ` ` ` ` ` ` ` ` ` ` ` { t 4 =XzXkXjXGXGXGXKXjXjXKXGXCXvXU # v H H x k { a #.I.` ` ` ` ` ` ` ` ` ` ` ` ` ` ` ` ` ` ",
"` ` ` ` ` ` ` ` ` ` ` ` ` ` ` ` ` ` ^ t r i.w.v a } cXMX*XC U / F P I H # Z Z x N F.lX=X$.I.` ` ` ` ` ` ` ` ` ` ` ` ` ` ` ` ` ` ",
"` ` ` ` ` ` ` ` ` ` ` ` ` ` ` ` ` ` ] V 6 g q g B H cXn o H [ S - M L 5 = 5 E U >XxX>XY h.<X` ` ` ` ` ` ` ` ` ` ` ` ` ` ` ` ` ` ",
"` ` ` ` ` ` ` ` ` ` ` ` ` ` ` ` ` ` H.q.M i.d w.e.cXH 5 6 ! S a @X~ > = 4 :XQ.Q.H.2XmX- 4.<X` ` ` ` ` ` ` ` ` ` ` ` ` ` ` ` ` ` ",
"` ` ` ` ` ` ` ` ` ` ` ` ` ` ` ` ` ` -X9.G.3.3.6 q r.!.S M n R wXeXeX) x / !.U S.!.( ^ A 9.U.` ` ` ` ` ` ` ` ` ` ` ` ` ` ` ` ` ` ",
"` ` ` ` ` ` ` ` ` ` ` ` ` ` ` ` ` ` V.s 7XN.  w g # r.:XH D 4X6X6X6Xu.E mXU =Xm.W.&X;X_ w <X` ` ` ` ` ` ` ` ` ` ` ` ` ` ` ` ` ` ",
"` ` ` ` ` ` ` ` ` ` ` ` ` ` ` ` ` ` B.y.5X3X= @ 8 g 2 w @Xe $XiX'.0X#X) =X| 3XB.+X2X2X+Xw I.` ` ` ` ` ` ` ` ` ` ` ` ` ` ` ` ` ` ",
"` ` ` ` ` ` ` ` ` ` ` ` ` ` ` ` ` ` S.i.3XyXg X 8 @ h N 0 7.e.2XZ.0Xg F ! | 3X` ] 3X4X.X#.L.` ` ` ` ` ` ` ` ` ` ` ` ` ` ` ` ` ` ",
"` ` ` ` ` ` ` ` ` ` ` ` ` ` ` ` ` ` V.e.1XA.A.+ 9 8 . %Xo.t h s @X3X1 | ..P -X9.) $XuX.X%.L.` ` ` ` ` ` ` ` ` ` ` ` ` ` ` ` ` ` ",
"` ` ` ` ` ` ` ` ` ` ` ` ` ` ` ` ` ` V.h @XZ.F.A.@ w 0 = %XA # r Z.h r t Q.} ( ~ ) &XuX~.6.T.` ` ` ` ` ` ` ` ` ` ` ` ` ` ` ` ` ` ",
"` ` ` ` ` ` ` ` ` ` ` ` ` ` ` ` ` ` F.e.8.C.f wXy.X #.m ! e < < e % ; 7.r (  .R j &XtX$X%.U.` ` ` ` ` ` ` ` ` ` ` ` ` ` ` ` ` ` ",
"` ` ` ` ` ` ` ` ` ` ` ` ` ` ` ` ` ` -XA.e.B.p N.7Xr   C.+.1 , = , o % 4./.q m bXj _ BX%X$.L.` ` ` ` ` ` ` ` ` ` ` ` ` ` ` ` ` ` ",
"` ` ` ` ` ` ` ` ` ` ` ` ` ` ` ` ` ` -Xi.y.Z.W f ;X1X# w b.5 N 3 3 O : - 9 j.#. .!.G BX@X$.L.X.` ` ` ` ` ` ` ` ` ` ` ` ` ` ` ` ` ",
"` ` ` ` ` ` ` ` ` ` ` ` ` ` ` ` ` ` V.i.f y.1Xr d ^ u.@ q A M & < = & 5 * @ g.^.-X] ;Xi.$.P.` ` ` ` ` ` ` ` ` ` ` ` ` ` ` ` ` ` ",
"` ` ` ` ` ` ` ` ` ` ` ` ` ` ` ` ` ` ' y.h f pXB.2 ! B.d o , o < 6 o O S.C   * 5./.^.V.-X$.L.` ` ` ` ` ` ` ` ` ` ` ` ` ` ` ` ` ` ",
"` ` ` ` ` ` ` ` ` ` ` ` ` ` ` ` ` ` ^ 0.e.1 7X#Xp R +.Y.p o & 5 3 @ X t.iX> + o e z.).h w M.` ` ` ` ` ` ` ` ` ` ` ` ` ` ` ` ` ` ",
"` ` ` ` ` ` ` ` ` ` ` ` ` ` ` ` ` ` ! 8 e.e y.<X^ u !.ZXh % = 5 O M Q   t.U., + . & h./.%.S.` ` ` ` ` ` ` ` ` ` ` ` ` ` ` ` ` ` ",
"` ` ` ` ` ` ` ` ` ` ` ` ` ` ` ` ` ` ` $ 1X2 r @XA.E B.O.Y o = * O : L p   p.h.* . . - w.1.L.` ` ` ` ` ` ` ` ` ` ` ` ` ` ` ` ` ` ",
"` ` ` ` ` ` ` ` ` ` ` ` ` ` ` ` ` ` V.e Z.2 # A.B.) i _ Q o & = o #.e ! D   g.'.# s : H &.K.` ` ` ` ` ` ` ` ` ` ` ` ` ` ` ` ` ` ",
"` ` ` ` ` ` ` ` ` ` ` ` ` ` ` ` ` ` ;X# h @Xo q.+X=X` $XW o = : o 9 v.>  .5   p.3.0.8.6 &.E.` ` ` ` ` ` ` ` ` ` ` ` ` ` ` ` ` ` ",
"` ` ` ` ` ` ` ` ` ` ` ` ` ` ` ` ` ` tXr < A.2 h ,X_ / Z.,X+ 3 ! < * 6.6.D  .: X 7 9.N.m y K.` ` ` ` ` ` ` ` ` ` ` ` ` ` ` ` ` ` ",
"` ` ` ` ` ` ` ` ` ` ` ` ` ` ` ` ` ` ` ` ` ` ` ` ` ` ` ` ` ` ` ` ` ` ` ` ` ` ` ` ` ` ` ` ` ` ` ` ` ` ` ` ` ` ` ` ` ` ` ` ` ` ` ` ",
"` ` ` ` ` ` ` ` ` ` ` ` ` ` ` ` ` ` ` ` ` ` ` ` ` ` ` ` ` ` ` ` ` ` ` ` ` ` ` ` ` ` ` ` ` ` ` ` ` ` ` ` ` ` ` ` ` ` ` ` ` ` ` ` ",
"` ` ` ` ` ` ` ` ` ` ` ` ` ` ` ` ` ` ` ` ` ` ` ` ` ` ` ` ` ` ` ` ` ` ` ` ` ` ` ` ` ` ` ` ` ` ` ` ` ` ` ` ` ` ` ` ` ` ` ` ` ` ` ` ",
"` ` ` ` ` ` ` ` ` ` ` ` ` ` ` ` ` ` ` ` ` ` ` ` ` ` ` ` ` ` ` ` ` ` ` ` ` ` ` ` ` ` ` ` ` ` ` ` ` ` ` ` ` ` ` ` ` ` ` ` ` ` ` ` ",
"` ` ` ` ` ` ` ` ` ` ` ` ` ` ` ` ` ` ` ` ` ` ` ` ` ` ` ` ` ` ` ` ` ` ` ` ` ` ` ` ` ` ` ` ` ` ` ` ` ` ` ` ` ` ` ` ` ` ` ` ` ` ` ` ",
"` ` ` ` ` ` ` ` ` ` ` ` ` ` ` ` ` ` ` ` ` ` ` ` ` ` ` ` ` ` ` ` ` ` ` ` ` ` ` ` ` ` ` ` ` ` ` ` ` ` ` ` ` ` ` ` ` ` ` ` ` ` ` ` ",
"` ` ` ` ` ` ` ` ` ` ` ` ` ` ` ` ` ` ` ` ` ` ` ` ` ` ` ` ` ` ` ` ` ` ` ` ` ` ` ` ` ` ` ` ` ` ` ` ` ` ` ` ` ` ` ` ` ` ` ` ` ` ` ` ",
"` ` ` ` ` ` ` ` ` ` ` ` ` ` ` ` ` ` ` ` ` ` ` ` ` ` ` ` ` ` ` ` ` ` ` ` ` ` ` ` ` ` ` ` ` ` ` ` ` ` ` ` ` ` ` ` ` ` ` ` ` ` ` ` ",
"` ` ` ` ` ` ` ` ` ` ` ` ` ` ` ` ` ` ` ` ` ` ` ` ` ` ` ` ` ` ` ` ` ` ` ` ` ` ` ` ` ` ` ` ` ` ` ` ` ` ` ` ` ` ` ` ` ` ` ` ` ` ` ` ",
"` ` ` ` ` ` ` ` ` ` ` ` ` ` ` ` ` ` ` ` ` ` ` ` ` ` ` ` ` ` ` ` ` ` ` ` ` ` ` ` ` ` ` ` ` ` ` ` ` ` ` ` ` ` ` ` ` ` ` ` ` ` ` ` ",
"` ` ` ` ` ` ` ` ` ` ` ` ` ` ` ` ` ` ` ` ` ` ` ` ` ` ` ` ` ` ` ` ` ` ` ` ` ` ` ` ` ` ` ` ` ` ` ` ` ` ` ` ` ` ` ` ` ` ` ` ` ` ` ` ",
"` ` ` ` ` ` ` ` ` ` ` ` ` ` ` ` ` ` ` ` ` ` ` ` ` ` ` ` ` ` ` ` ` ` ` ` ` ` ` ` ` ` ` ` ` ` ` ` ` ` ` ` ` ` ` ` ` ` ` ` ` ` ` ` ",
"X.X.X.X.X.X.X.X.X.X.X.X.X.X.X.X.X.X.X.X.X.X.X.X.X.X.X.X.X.X.X.X.X.X.X.X.X.X.X.X.X.X.X.X.X.X.X.X.X.X.X.X.X.X.X.X.X.X.X.X.X.X.X.X.",
"T T T T T T T T T T T T T T T T T T T T T T T T T T T T T T T T T T T T T T Y T T T T T T T T T T T T T T T T T T T T T T T Y T ",
"T T T T T T T T T T T T T T T T T T T T T T T T T T T T T T T T T T T T T T T T T T T T T T T T T T T T Y T T T T T T T T T T T "
};
