/* XPM */
static char *munch1643121707[] = {
/* columns rows colors chars-per-pixel */
"64 64 252 2 ",
"   c #000002",
".  c #06070C",
"X  c #150605",
"o  c #040519",
"O  c #150C1A",
"+  c #121615",
"@  c #271110",
"#  c #2D221B",
"$  c #38271E",
"%  c #030625",
"&  c #120F26",
"*  c #07172B",
"=  c #161925",
"-  c #041935",
";  c #2C1E25",
":  c #1B252A",
">  c #092739",
",  c #152537",
"<  c #28262C",
"1  c #382B22",
"2  c #3A342B",
"3  c #262C35",
"4  c #322E31",
"5  c #29383B",
"6  c #373936",
"7  c #481C17",
"8  c #492316",
"9  c #562516",
"0  c #503413",
"q  c #563817",
"w  c #753013",
"e  c #443429",
"r  c #563826",
"t  c #503634",
"y  c #733124",
"u  c #3C473D",
"i  c #33633B",
"p  c #4E4537",
"a  c #544838",
"s  c #794525",
"d  c #724F2E",
"f  c #674B35",
"g  c #695439",
"h  c #785737",
"j  c #6F7039",
"k  c #000643",
"l  c #00114E",
"z  c #001F57",
"x  c #042947",
"c  c #142B4D",
"v  c #1B3746",
"b  c #00275A",
"n  c #063D58",
"m  c #193C5D",
"M  c #263746",
"N  c #353A45",
"B  c #233151",
"V  c #063463",
"C  c #443A46",
"Z  c #134951",
"A  c #11485A",
"S  c #36444B",
"D  c #3A4851",
"F  c #36585B",
"G  c #3F7F49",
"H  c #094868",
"J  c #24496B",
"K  c #375360",
"L  c #295873",
"P  c #166575",
"I  c #33746F",
"U  c #4C4947",
"Y  c #4B5849",
"T  c #585645",
"R  c #504F50",
"E  c #565757",
"W  c #775B47",
"Q  c #655B55",
"!  c #4D685A",
"~  c #5A6559",
"^  c #6A664A",
"/  c #706E4B",
"(  c #736357",
")  c #786956",
"_  c #7B785A",
"`  c #4A576F",
"'  c #655967",
"]  c #4F6D6D",
"[  c #556667",
"{  c #576673",
"}  c #517873",
"|  c #6A6B69",
" . c #6A7478",
".. c #7A7B78",
"X. c #902E10",
"o. c #A22901",
"O. c #AA3906",
"+. c #AB372D",
"@. c #DD100A",
"#. c #E71609",
"$. c #CF3018",
"%. c #EA2903",
"&. c #F42902",
"*. c #F73801",
"=. c #E82612",
"-. c #ED3611",
";. c #D23528",
":. c #E53A24",
">. c #8A4612",
",. c #9A4114",
"<. c #A64B19",
"1. c #B8451C",
"2. c #9F6804",
"3. c #B5620E",
"4. c #8F4F29",
"5. c #845529",
"6. c #875634",
"7. c #B05433",
"8. c #826331",
"9. c #98663A",
"0. c #977036",
"q. c #A8662A",
"w. c #B96C28",
"e. c #AA6F3E",
"r. c #B56C38",
"t. c #AA783B",
"y. c #B5763B",
"u. c #D54E13",
"i. c #F84606",
"p. c #FA5602",
"a. c #EA4518",
"s. c #F05211",
"d. c #DD6407",
"f. c #CB6D18",
"g. c #FA6706",
"h. c #FD7601",
"j. c #F7681B",
"k. c #E97114",
"l. c #F97C19",
"z. c #CE552E",
"x. c #E84F2C",
"c. c #CD7331",
"v. c #F4702B",
"b. c #EB7739",
"n. c #BE5C53",
"m. c #996848",
"M. c #8C6E50",
"N. c #97765B",
"B. c #A76B43",
"V. c #A97649",
"C. c #B67D47",
"Z. c #A46758",
"A. c #B96F53",
"S. c #A57E59",
"D. c #8C7268",
"F. c #AD7965",
"G. c #C75247",
"H. c #D3594C",
"J. c #CA674B",
"K. c #D9694B",
"L. c #DD734A",
"P. c #DD7A4B",
"I. c #D97856",
"U. c #EE6F49",
"Y. c #C77162",
"T. c #45855A",
"R. c #538478",
"E. c #748B74",
"W. c #BE923A",
"Q. c #D78716",
"!. c #FF8303",
"~. c #FF9306",
"^. c #EE8D14",
"/. c #FB8818",
"(. c #FEA817",
"). c #D29031",
"_. c #EA882A",
"`. c #F68729",
"'. c #FA992C",
"]. c #E48C30",
"[. c #F88A38",
"{. c #F49436",
"}. c #DEAC3D",
"|. c #F3AD34",
" X c #F8BA38",
".X c #FED13A",
"XX c #8E9050",
"oX c #B98448",
"OX c #B28F48",
"+X c #A78F59",
"@X c #B88254",
"#X c #A2975A",
"$X c #B19854",
"%X c #A9A057",
"&X c #978869",
"*X c #8F9066",
"=X c #A98766",
"-X c #B68F6C",
";X c #8FA576",
":X c #AEAD6D",
">X c #C7874C",
",X c #D9854A",
"<X c #C88956",
"1X c #C7975B",
"2X c #D99152",
"3X c #D99755",
"4X c #F7914D",
"5X c #E99754",
"6X c #F49855",
"7X c #CEAB52",
"8X c #F2BC49",
"9X c #E7A758",
"0X c #F1AF54",
"qX c #FAA55B",
"wX c #FBB956",
"eX c #D69A65",
"rX c #CB9673",
"tX c #F18C65",
"yX c #D7A675",
"uX c #D9B372",
"iX c #F4B96E",
"pX c #B5D475",
"aX c #DAC754",
"sX c #FCCD4C",
"dX c #FDD74B",
"fX c #F7C654",
"gX c #FCE74F",
"hX c #D9CE72",
"jX c #F3D56F",
"kX c #F8DE78",
"lX c #DBE675",
"zX c #F8EC6E",
"xX c #2B738A",
"cX c #8B7B89",
"vX c #37868B",
"bX c #389FA1",
"nX c #598083",
"mX c #7EAB98",
"MX c #479BAB",
"NX c #A49293",
"BX c #86BC80",
"VX c #B3B88E",
"CX c #CDA58B",
"ZX c #A6CF9F",
"AX c #BBF986",
"SX c #DCDE81",
"DX c #CAE38B",
"FX c #FAF986",
"GX c #F0F28C",
"HX c #E2EC95",
"JX c #FBF999",
"KX c #F6F1A2",
/* pixels */
"( ( ( ( ( ( ( ( ( ( ( ( ( ( ( ( ( ( ( ( ( ( ( ( ( ( ( ( ( ( ( ( ( ( ( ( ( ( ( ( ( ( ( ( ( ( ( ( ( ( ( ( ( ( ( ( ( ( ( ( ( ( ( ( ",
"( ( ( ( ( ( ( ( ( ( ( ( ( ( ( ( ( ( ( ( ( ( ( ( ( ( ( ( ( ( ( ( ( ( ( ( ( ( ( ( ( ( ( ( ( ( ( ( ( ( ( ( ( ( ( ( ( ( ( ( ( ( ( ( ",
"( ( ( ( ( ( ( ( ( ( ( ( ( ( ( ( ( ( ( ( ( ( ( ( ( ( ( ( ( ( ( ( ( ( ( ( ( ( ( ( ( ( ( ( ( ( ( ( ( ( ( ( ( ( ( ( ( ( ( ( ( ( ( ( ",
"( ( ( ( ( ( ( ( ( ( ( ( ( ( ( ( ( ( ( ( ( ( ( ( ( ( ( ( ( ( ( ( ( ( ( ( ( ( ( ( ( ( ( ( ( ( ( ( ( ( ( ( ( ( ( ( ( ( ( ( ( ( ( ( ",
"( ( ( ( ( ( ( ( ( ( ( ( ( ( ( ( ( ( ( ( ( ( ( ( ( ( ( ( ( ( ( ( ( ( ( ( ( ( ( ( ( ( ( ( ( ( ( ( ( ( ( ( ( ( ( ( ( ( ( ( ( ( ( ( ",
"( ( ( ( ( ( ( ( ( ( ( ( ( ( ( ( ( ( ( ( ( ( ( ( ( ( ( ( ( ( ( ( ( ( ( ( ( ( ( ( ( ( ( ( ( ( ( ( ( ( ( ( ( ( ( ( ( ( ( ( ( ( ( ( ",
"( ( ( ( ( ( ( ( ( ( ( ( ( ( ( ( ( ( ( ( ( ( ( ( ( ( ( ( ( ( ( ( ( ( ( ( ( ( ( ( ( ( ( ( ( ( ( ( ( ( ( ( ( ( ( ( ( ( ( ( ( ( ( ( ",
"( ( ( ( ( ( ( ( ( ( ( ( ( ( ( ( ( ( ( ( ( ( ( ( ( ( ( ( ( ( ( ( ( ( ( ( ( ( ( ( ( ( ( ( ( ( ( ( ( ( ( ( ( ( ( ( ( ( ( ( ( ( ( ( ",
"( ( ( ( ( ( ( ( ( ( ( ( ( ( ( ( ( ( ( ( ( ( ( ( ( ( ( ( ( ( ( ( ( ( ( ( ( ( ( ( ( ( ( ( ( ( ( ( ( ( ( ( ( ( ( ( ( ( ( ( ( ( ( ( ",
"( ( ( ( ( ( ( ( ( ( ( ( ( ( ( ( ( ( ( ( ( ( ( ( ( ( ( ( ( ( ( ( ( ( ( ( ( ( ( ( ( ( ( ( ( ( ( ( ( ( ( ( ( ( ( ( ( ( ( ( ( ( ( ( ",
"( ( ( ( ( ( ( ( ( ( ( ( ( ( ( ( ( ( ( ( ( ( ( ( ( ( ( ( ( ( ( ( ( ( ( ( ( ( ( ( ( ( ( ( ( ( ( ( ( ( ( ( ( ( ( ( ( ( ( ( ( ( ( ( ",
"( ( ( ( ( ( ( ( ( ( ( ( ( ( ( ( ( ( ( ( ( ( ( ( ( ( ( ( ( ( ( ( ( ( ( ( ( ( ( ( ( ( ( ( ( ( ( ( ( ( ( ( ( ( ( ( ( ( ( ( ( ( ( ( ",
"( ( ( ( ( ( ( ( ( ( ( ( ( ( ( ( ( ( ( ( ( ( ( ( ( ( ( ( ( ( ( ( ( ( ( ( ( ( ( ( ( ( ( ( ( ( ( ( ( ( ( ( ( ( ( ( ( ( ( ( ( ( ( ( ",
"( ( ( ( ( ( ( ( ( ( ( ( ( ( ( ( ( ( ( ( ( ( ( ( ( ( ( ( ( ( ( ( ( ( ( ( ( ( ( ( ( ( ( ( ( ( ( ( ( ( ( ( ( ( ( ( ( ( ( ( ( ( ( ( ",
"( ( ( ( ( ( ( ( ( ( ( ( ( ( ( ( ( ( F.I.uXhX1X+XM.>X).5X,XY.D.D.Z.n.S.F.F.<X+X<XI.3XuXeXf.A.( ( ( ( ( ( ( ( ( ( ( ( ( ( ( ( ( ( ",
"( ( ( ( ( ( ( ( ( ( ( ( ( ( ( ( ( ( I.=.:.x.z.1.7.7.7.c.>Xz.b.^.j.k.sX8X].s.s._.k.`.j.k.a.U.( ( ( ( ( ( ( ( ( ( ( ( ( ( ( ( ( ( ",
"( ( ( ( ( ( ( ( ( ( ( ( ( ( ( ( ( ( eXv.j.q.*X:X7X7X7XaXlXpXlXzXDXAXlXgX8X'.dXdX X8XdXfXs.K.( ( ( ( ( ( ( ( ( ( ( ( ( ( ( ( ( ( ",
"( ( ( ( ( ( ( ( ( ( ( ( ( ( ( ( ( ( I.b.4X6X0X4X`.l.g.*.g.`.`.v.K.x.U.b.`.{.0X5XU.j.|.fXj.K.( ( ( ( ( ( ( ( ( ( ( ( ( ( ( ( ( ( ",
"( ( ( ( ( ( ( ( ( ( ( ( ( ( ( ( ( ( G.@.=.&.i.i.i.a.$.=.s.#.@.@.%.-.&.&.%.i.p.p.g.g.&.x.v.K.( ( ( ( ( ( ( ( ( ( ( ( ( ( ( ( ( ( ",
"( ( ( ( ( ( ( ( ( ( ( ( ( ( ( ( ( ( eXb.Y.J.z.;.;.=.@.=.#.:.b.U.qX/.h./. X.X X(.(.h.j.tXx.L.( ( ( ( ( ( ( ( ( ( ( ( ( ( ( ( ( ( ",
"( ( ( ( ( ( ( ( ( ( ( ( ( ( ( ( ( ( yXwXKXFXFXHXSX|././.`.`.|.0X{.'.gXzXjX{.l.g.g.g.`.qXa.K.( ( ( ( ( ( ( ( ( ( ( ( ( ( ( ( ( ( ",
"( ( ( ( ( ( ( ( ( ( ( ( ( ( ( ( ( ( Y.x.:.=.a.j.[.|.dXgXfXwXGXKXzXwX`.a.*.p.g.h.h.!.p./.v.H.( ( ( ( ( ( ( ( ( ( ( ( ( ( ( ( ( ( ",
"( ( ( ( ( ( ( ( ( ( ( ( ( ( ( ( ( ( J.#.*.*.*.&.&.&.-.b.6XtXtXx.%.%.*.h.!.~./.].f.).].4Xj.K.( ( ( ( ( ( ( ( ( ( ( ( ( ( ( ( ( ( ",
"( ( ( ( ( ( ( ( ( ( ( ( ( ( ( ( ( ( b.p.k.).].'.'.(.j.*.p.i.*.p.l.(.'.oXQ N B V V l c a s.P.( ( ( ( ( ( ( ( ( ( ( ( ( ( ( ( ( ( ",
"( ( ( ( ( ( ( ( ( ( ( ( ( ( ( ( ( ( yXM.> - N N 6 f V.w.Q.d.v.c.>.C c - k b z b H z z V 1.L.( ( ( ( ( ( ( ( ( ( ( ( ( ( ( ( ( ( ",
"( ( ( ( ( ( ( ( ( ( ( ( ( ( ( ( ( ( NX .[ D , & B J L A v { NX` M Y E.E. .m H J V xXbXxX+.L.( ( ( ( ( ( ( ( ( ( ( ( ( ( ( ( ( ( ",
"( ( ( ( ( ( ( ( ( ( ( ( ( ( ( ( ( ( ) &XuXiX7X$X1X9XVXZX;XDX:X;X..a Y E.D.C R ' K P xXMXj.K.( ( ( ( ( ( ( ( ( ( ( ( ( ( ( ( ( ( ",
"( ( ( ( ( ( ( ( ( ( ( ( ( ( ( ( ( ( T 2 3 BXHXSXjXzXfXfXwXsXAXmXE ^ a x , $ N S D b l b O.L.( ( ( ( ( ( ( ( ( ( ( ( ( ( ( ( ( ( ",
"( ( ( ( ( ( ( ( ( ( ( ( ( ( ( ( ( ( ' t < &XlXjXhXFXGXzXJXSXhXJXFXVXnXI # 5 H H x - ' p X.L.( ( ( ( ( ( ( ( ( ( ( ( ( ( ( ( ( ( ",
"( ( ( ( ( ( ( ( ( ( ( ( ( ( ( ( ( ( Q t r y.h u a ] vXNX*XZ I ! R J P H < A A x N +XkX*Xo.K.( ( ( ( ( ( ( ( ( ( ( ( ( ( ( ( ( ( ",
"( ( ( ( ( ( ( ( ( ( ( ( ( ( ( ( ( ( _ C e g q g V H xXn o H ` m - B K 5 = 5 Y I &XzXVXU f.2X( ( ( ( ( ( ( ( ( ( ( ( ( ( ( ( ( ( ",
"( ( ( ( ( ( ( ( ( ( ( ( ( ( ( ( ( ( =X7.M oXf 8.0.xXH 5 5 E S T oX/ > = 5 #XvXR.F.%X..- O.,X( ( ( ( ( ( ( ( ( ( ( ( ( ( ( ( ( ( ",
"( ( ( ( ( ( ( ( ( ( ( ( ( ( ( ( ( ( S.5.D.>.,.6 q q.E.S M n R qXwXwXj x ] E.I B._ } ( u s P.( ( ( ( ( ( ( ( ( ( ( ( ( ( ( ( ( ( ",
"( ( ( ( ( ( ( ( ( ( ( ( ( ( ( ( ( ( N.s 6Xm.  w g < q.;XH D 3X3X5X5Xy.D E.P #XP.T.#X-X/ y ,X( ( ( ( ( ( ( ( ( ( ( ( ( ( ( ( ( ( ",
"( ( ( ( ( ( ( ( ( ( ( ( ( ( ( ( ( ( M.e.6X2X= @ 8 g 1 w OXe S.iXc.9XoX/ D.] >XM.XX1XeXXXw L.( ( ( ( ( ( ( ( ( ( ( ( ( ( ( ( ( ( ",
"( ( ( ( ( ( ( ( ( ( ( ( ( ( ( ( ( ( Z.C.2X4XT X 8 @ h C 0 2.9.1XV.9XW F ! [ 5X( XX<X3X}.X.J.( ( ( ( ( ( ( ( ( ( ( ( ( ( ( ( ( ( ",
"( ( ( ( ( ( ( ( ( ( ( ( ( ( ( ( ( ( N.9.3XV.C.+ 8 8 + OX[ t 8.s @X2X1 ! } L =X6./ $XeX}.O.J.( ( ( ( ( ( ( ( ( ( ( ( ( ( ( ( ( ( ",
"( ( ( ( ( ( ( ( ( ( ( ( ( ( ( ( ( ( D.h A.V.V.C.@ w 8 = +XD ; r V.d r p R.[ [ 6.^ $XyXW.1.I.( ( ( ( ( ( ( ( ( ( ( ( ( ( ( ( ( ( ",
"( ( ( ( ( ( ( ( ( ( ( ( ( ( ( ( ( ( =X9.6.e.g qXe.X X.A E 0 < < e % ; 3.r ~ { E j OXrXOXo.,X( ( ( ( ( ( ( ( ( ( ( ( ( ( ( ( ( ( ",
"( ( ( ( ( ( ( ( ( ( ( ( ( ( ( ( ( ( =Xy.9.m.p m.6Xr   B. .1 3 * , o % ,.!.0 m cXT./ NX$Xo.J.( ( ( ( ( ( ( ( ( ( ( ( ( ( ( ( ( ( ",
"( ( ( ( ( ( ( ( ( ( ( ( ( ( ( ( ( ( =Xy.B.V.T s -X,X# w c.5 N 3 3 O < - 9 p.>.{ E.G NXoXo.J.( ( ( ( ( ( ( ( ( ( ( ( ( ( ( ( ( ( ",
"( ( ( ( ( ( ( ( ( ( ( ( ( ( ( ( ( ( N.y.f e.C.a d Q e.@ q S M & < = & 5 * @ d.Q.F._ -Xy.o.K.( ( ( ( ( ( ( ( ( ( ( ( ( ( ( ( ( ( ",
"( ( ( ( ( ( ( ( ( ( ( ( ( ( ( ( ( ( ) e.h f iXM.e E W 5.o , o < 6 o O Z.Z   * <.~.f.N.+XX.J.( ( ( ( ( ( ( ( ( ( ( ( ( ( ( ( ( ( ",
"( ( ( ( ( ( ( ( ( ( ( ( ( ( ( ( ( ( Q 6.m.1 5X<XU E  .>Xp o & 5 4 O X w.uX> + o r k.Q.8.X.n.( ( ( ( ( ( ( ( ( ( ( ( ( ( ( ( ( ( ",
"( ( ( ( ( ( ( ( ( ( ( ( ( ( ( ( ( ( R e 9.e r.,XQ u E.CXh % : 5 O M E   w.P., + o & f.~.O.Z.( ( ( ( ( ( ( ( ( ( ( ( ( ( ( ( ( ( ",
"( ( ( ( ( ( ( ( ( ( ( ( ( ( ( ( ( ( ( $ >X4 r oX@Xa M.| U o = * O : F C   u.f.* . . - 5.;.J.( ( ( ( ( ( ( ( ( ( ( ( ( ( ( ( ( ( ",
"( ( ( ( ( ( ( ( ( ( ( ( ( ( ( ( ( ( N.r V.2 # @XM.~ i _ F O O & o X.r T D   d.).# s : H +.H.( ( ( ( ( ( ( ( ( ( ( ( ( ( ( ( ( ( ",
"( ( ( ( ( ( ( ( ( ( ( ( ( ( ( ( ( ( =X# h C.o q.XX*X^ t.T o = : o 9 z.> { 5   u.>.6.4.6 +.Y.( ( ( ( ( ( ( ( ( ( ( ( ( ( ( ( ( ( ",
"( ( ( ( ( ( ( ( ( ( ( ( ( ( ( ( ( ( rXr < C.2 d >X/ ! V.>X= 3 E < - 1.1.R { : . 7 5.m.m y H.( ( ( ( ( ( ( ( ( ( ( ( ( ( ( ( ( ( ",
"( ( ( ( ( ( ( ( ( ( ( ( ( ( ( ( ( ( ( ( ( ( ( ( ( ( ( ) ( ( ( ( ( ( ( ( Q ( ( ( ( ( ( ( ( ( ( ( ( ( ( ( ( ( ( ( ( ( ( ( ( ( ( ( ",
"( ( ( ( ( ( ( ( ( ( ( ( ( ( ( ( ( ( ( ( ( ( ( ( ( ( ( ( ( ( ( ( ( ( ( ( ( ( ( ( ( ( ( ( ( ( ( ( ( ( ( ( ( ( ( ( ( ( ( ( ( ( ( ( ",
"( ( ( ( ( ( ( ( ( ( ( ( ( ( ( ( ( ( ( ( ( ( ( ( ( ( ( ( ( ( ( ( ( ( ( ( ( ( ( ( ( ( ( ( ( ( ( ( ( ( ( ( ( ( ( ( ( ( ( ( ( ( ( ( ",
"( ( ( ( ( ( ( ( ( ( ( ( ( ( ( ( ( ( ( ( ( ( ( ( ( ( ( ( ( ( ( ( ( ( ( ( ( ( ( ( ( ( ( ( ( ( ( ( ( ( ( ( ( ( ( ( ( ( ( ( ( ( ( ( ",
"( ( ( ( ( ( ( ( ( ( ( ( ( ( ( ( ( ( ( ( ( ( ( ( ( ( ( ( ( ( ( ( ( ( ( ( ( ( ( ( ( ( ( ( ( ( ( ( ( ( ( ( ( ( ( ( ( ( ( ( ( ( ( ( ",
"( ( ( ( ( ( ( ( ( ( ( ( ( ( ( ( ( ( ( ( ( ( ( ( ( ( ( ( ( ( ( ( ( ( ( ( ( ( ( ( ( ( ( ( ( ( ( ( ( ( ( ( ( ( ( ( ( ( ( ( ( ( ( ( ",
"( ( ( ( ( ( ( ( ( ( ( ( ( ( ( ( ( ( ( ( ( ( ( ( ( ( ( ( ( ( ( ( ( ( ( ( ( ( ( ( ( ( ( ( ( ( ( ( ( ( ( ( ( ( ( ( ( ( ( ( ( ( ( ( ",
"( ( ( ( ( ( ( ( ( ( ( ( ( ( ( ( ( ( ( ( ( ( ( ( ( ( ( ( ( ( ( ( ( ( ( ( ( ( ( ( ( ( ( ( ( ( ( ( ( ( ( ( ( ( ( ( ( ( ( ( ( ( ( ( ",
"( ( ( ( ( ( ( ( ( ( ( ( ( ( ( ( ( ( ( ( ( ( ( ( ( ( ( ( ( ( ( ( ( ( ( ( ( ( ( ( ( ( ( ( ( ( ( ( ( ( ( ( ( ( ( ( ( ( ( ( ( ( ( ( ",
"( ( ( ( ( ( ( ( ( ( ( ( ( ( ( ( ( ( ( ( ( ( ( ( ( ( ( ( ( ( ( ( ( ( ( ( ( ( ( ( ( ( ( ( ( ( ( ( ( ( ( ( ( ( ( ( ( ( ( ( ( ( ( ( ",
"( ( ( ( ( ( ( ( ( ( ( ( ( ( ( ( ( ( ( ( ( ( ( ( ( ( ( ( ( ( ( ( ( ( ( ( ( ( ( ( ( ( ( ( ( ( ( ( ( ( ( ( ( ( ( ( ( ( ( ( ( ( ( ( ",
"( ( ( ( ( ( ( ( ( ( ( ( ( ( ( ( ( ( ( ( ( ( ( ( ( ( ( ( ( ( ( ( ( ( ( ( ( ( ( ( ( ( ( ( ( ( ( ( ( ( ( ( ( ( ( ( ( ( ( ( ( ( ( ( ",
"( ( ( ( ( ( ( ( ( ( ( ( ( ( ( ( ( ( ( ( ( ( ( ( ( ( ( ( ( ( ( ( ( ( ( ( ( ( ( ( ( ( ( ( ( ( ( ( ( ( ( ( ( ( ( ( ( ( ( ( ( ( ( ( ",
"( ( ( ( ( ( ( ( ( ( ( ( ( ( ( ( ( ( ( ( ( ( ( ( ( ( ( ( ( ( ( ( ( ( ( ( ( ( ( ( ( ( ( ( ( ( ( ( ( ( ( ( ( ( ( ( ( ( ( ( ( ( ( ( ",
"( ( ( ( ( ( ( ( ( ( ( ( ( ( ( ( ( ( ( ( ( ( ( ( ( ( ( ( ( ( ( ( ( ( ( ( ( ( ( ( ( ( ( ( ( ( ( ( ( ( ( ( ( ( ( ( ( ( ( ( ( ( ( ( "
};
