/* XPM */
static char *a67c8201bf15486bf8dc05f9f6e14ebeQeRMfVORp9QG9UEH[] = {
/* columns rows colors chars-per-pixel */
"64 64 249 2 ",
"   c #000002",
".  c #06070C",
"X  c #150605",
"o  c #040519",
"O  c #150C1A",
"+  c #121615",
"@  c #271110",
"#  c #2D221B",
"$  c #38271E",
"%  c #030625",
"&  c #120F26",
"*  c #07172B",
"=  c #161925",
"-  c #041935",
";  c #2C1E25",
":  c #1B252A",
">  c #092739",
",  c #152537",
"<  c #28262C",
"1  c #382B22",
"2  c #3A342B",
"3  c #262C35",
"4  c #322E31",
"5  c #29383B",
"6  c #373936",
"7  c #492316",
"8  c #562516",
"9  c #503413",
"0  c #563817",
"q  c #753013",
"w  c #443429",
"e  c #563826",
"r  c #503634",
"t  c #733124",
"y  c #3C473D",
"u  c #33633B",
"i  c #4E4537",
"p  c #544838",
"a  c #794525",
"s  c #724F2E",
"d  c #674B35",
"f  c #695439",
"g  c #785737",
"h  c #000643",
"j  c #001852",
"k  c #042947",
"l  c #142B4D",
"z  c #1B3746",
"x  c #00275A",
"c  c #063D58",
"v  c #193C5D",
"b  c #263746",
"n  c #353A45",
"m  c #063463",
"M  c #443A46",
"N  c #134951",
"B  c #11485A",
"V  c #36444B",
"C  c #27415B",
"Z  c #3A4851",
"A  c #36585B",
"S  c #3F7F49",
"D  c #094868",
"F  c #114F77",
"G  c #24496B",
"H  c #375360",
"J  c #295873",
"K  c #166575",
"L  c #33746F",
"P  c #4C4947",
"I  c #4B5849",
"U  c #585645",
"Y  c #504F50",
"T  c #565857",
"R  c #775B47",
"E  c #665B55",
"W  c #4D685A",
"Q  c #5A6559",
"!  c #6A664A",
"~  c #706E4B",
"^  c #736357",
"/  c #786956",
"(  c #756559",
")  c #74685F",
"_  c #7B785A",
"`  c #4A576F",
"'  c #655967",
"]  c #4F6D6D",
"[  c #556667",
"{  c #576673",
"}  c #517873",
"|  c #6A6B69",
" . c #7D6F66",
".. c #6A7478",
"X. c #7A7B78",
"o. c #902E10",
"O. c #A22901",
"+. c #AA3906",
"@. c #AB372D",
"#. c #DD100A",
"$. c #E71609",
"%. c #CF3018",
"&. c #EA2903",
"*. c #F42902",
"=. c #F73801",
"-. c #E82612",
";. c #ED3611",
":. c #D23528",
">. c #E53A24",
",. c #8A4612",
"<. c #A64B19",
"1. c #B8451C",
"2. c #AA6509",
"3. c #8F4F29",
"4. c #845529",
"5. c #875634",
"6. c #B05433",
"7. c #896733",
"8. c #98663A",
"9. c #A8662A",
"0. c #B96C28",
"q. c #AA6F3E",
"w. c #B56C38",
"e. c #B5763B",
"r. c #D54E13",
"t. c #F84606",
"y. c #FA5602",
"u. c #F05211",
"i. c #DD6407",
"p. c #CB6D18",
"a. c #FA6706",
"s. c #FD7601",
"d. c #F7681B",
"f. c #E97114",
"g. c #F97C19",
"h. c #CE552E",
"j. c #E84F2C",
"k. c #CD7331",
"l. c #F4702B",
"z. c #EB7739",
"x. c #BE5C53",
"c. c #996848",
"v. c #8C6F50",
"b. c #97765C",
"n. c #A76B43",
"m. c #A97649",
"M. c #B67D47",
"N. c #A46758",
"B. c #B96F53",
"V. c #A57F5A",
"C. c #817267",
"Z. c #817368",
"A. c #8F7268",
"S. c #88776B",
"D. c #AD7965",
"F. c #C75247",
"G. c #D3594C",
"H. c #CA674C",
"J. c #D9694B",
"K. c #D97B47",
"L. c #DD734B",
"P. c #DE794C",
"I. c #D97856",
"U. c #EE6F49",
"Y. c #C77162",
"T. c #45855A",
"R. c #538478",
"E. c #748B74",
"W. c #BE923A",
"Q. c #D78716",
"!. c #FF8303",
"~. c #FF9306",
"^. c #EE8D14",
"/. c #FB8818",
"(. c #FEA817",
"). c #D29031",
"_. c #EA882A",
"`. c #F68729",
"'. c #FA992C",
"]. c #E48C30",
"[. c #F88A38",
"{. c #F49436",
"}. c #DEAC3D",
"|. c #F3AD34",
" X c #F8BA38",
".X c #FED13A",
"XX c #8E9050",
"oX c #B98448",
"OX c #AE8E51",
"+X c #B19854",
"@X c #A9A057",
"#X c #978869",
"$X c #8F9066",
"%X c #A98766",
"&X c #B68F6C",
"*X c #8FA576",
"=X c #AEAD6D",
"-X c #C7874C",
";X c #D9854A",
":X c #C88956",
">X c #C7975B",
",X c #D99153",
"<X c #D99755",
"1X c #F7914D",
"2X c #E99754",
"3X c #F49855",
"4X c #CEAB52",
"5X c #F2BC49",
"6X c #EBAA56",
"7X c #FAA55B",
"8X c #FBB956",
"9X c #D69A65",
"0X c #CB9673",
"qX c #F18C65",
"wX c #D7A675",
"eX c #D9B372",
"rX c #F4B96E",
"tX c #B5D475",
"yX c #DAC754",
"uX c #FCCD4C",
"iX c #FDD74B",
"pX c #F7C654",
"aX c #FCE74F",
"sX c #D9CE72",
"dX c #F3D56F",
"fX c #F8DE78",
"gX c #DBE675",
"hX c #F8EC6E",
"jX c #2B738A",
"kX c #646A81",
"lX c #8B7B89",
"zX c #37868B",
"xX c #389FA1",
"cX c #598083",
"vX c #7EAB98",
"bX c #479BAB",
"nX c #A49293",
"mX c #86BC80",
"MX c #B3B88E",
"NX c #CDA58B",
"BX c #A6CF9F",
"VX c #BBF986",
"CX c #DCDE81",
"ZX c #CAE38B",
"AX c #FAF986",
"SX c #F0F28C",
"DX c #E2EC95",
"FX c #FBF999",
"GX c #F6F1A2",
/* pixels */
"^ ^ ^ ^ ^ ^ ^ ^ ^ ^ ^ ^ ^ ^ ^ ^ ^ ^ ^ ^ ^ ^ ^ ^ ^ ^ ^ ^ ^ ^ ^ ^ ^ ^ ^ ^ ^ ^ ^ ^ ^ ^ ^ ^ ^ ^ ^ ^ ^ ^ ^ ^ ^ ^ ^ ^ ^ ^ ^ ^ ^ ^ ^ ^ ",
"^ ^ ^ ^ ^ ^ ^ ^ ^ ^ ^ ^ ^ ^ ^ ^ ^ ^ ^ ^ ^ ^ ^ ^ ^ ^ ^ ^ ^ ^ ^ ^ ^ ^ ^ ^ ^ ^ ^ ^ ^ ^ ^ ^ ^ ^ ^ ^ ^ ^ ^ ^ ^ ^ ^ ^ ^ ^ ^ ^ ^ ^ ^ ^ ",
"^ ^ ^ ^ ^ ^ ^ ^ ^ ^ ^ ^ ^ ^ ^ ^ ^ ^ ^ ^ ^ ^ ^ ^ ^ ^ ^ ^ ^ ^ ^ ^ ^ ^ ^ ^ ^ ^ ^ ^ ^ ^ ^ ^ ^ ^ ^ ^ ^ ^ ^ ^ ^ ^ ^ ^ ^ ^ ^ ^ ^ ^ ^ ^ ",
"( ( ^ ^ ^ ^ ^ ^ ^ ^ ^ ^ ^ ^ ^ ^ ^ ^ ^ ^ ^ ^ ^ ^ ^ ^ ^ ^ ^ ^ ^ ^ ^ ^ ^ ^ ^ ^ ^ ^ ^ ^ ^ ^ ^ ^ ^ ^ ^ ^ ^ ^ ^ ^ ^ ^ ^ ^ ^ ^ ^ ^ ^ ^ ",
") ) ( ( ^ ^ ^ ^ ^ ^ ^ ^ ^ ^ ^ ^ ^ ^ ^ ^ ^ ^ ^ ^ ^ ^ ^ ^ ^ ^ ^ ^ ^ ^ ^ ^ ^ ^ ^ ^ ^ ^ ^ ^ ^ ^ ^ ^ ^ ^ ^ ^ ^ ^ ^ ^ ^ ^ ^ ^ ^ ^ ^ ) ",
") ) ) ) ( ( ^ ^ ^ ^ ^ ^ ^ ^ ^ ^ ^ ^ ^ ^ ^ ^ ^ ^ ^ ^ ^ ^ ^ ^ ^ ^ ^ ^ ^ ^ ^ ^ ^ ^ ^ ^ ^ ^ ^ ^ ^ ^ ^ ^ ^ ^ ^ ^ ^ ^ ^ ^ ^ ^ ^  .)  .",
" .) ) ) ) ( ( ^ ^ ^ ^ ^ ^ ^ ^ ^ ^ ^ ^ ^ ^ ^ ^ ^ ^ ^ ^ ^ ^ ^ ^ ^ ^ ^ ^ ^ ^ ^ ^ ^ ^ ^ ^ ^ ^ ^ ^ ^ ^ ^ ^ ^ ^ ^ ^ ^ ^ ^ ^ ) ) )  . .",
"C. .) ) ) ) ( ( ^ ^ ^ ^ ^ ^ ^ ^ ^ ^ ^ ^ ^ ^ ^ ^ ^ ^ ^ ^ ^ ^ ^ ^ ^ ^ ^ ^ ^ ^ ^ ^ ^ ^ ^ ^ ^ ^ ^ ^ ^ ^ ^ ^ ^ ^ ^ ^ ^ ^ ) ) )  . . .",
"C.C. .) ) ) ) ( ( ^ ^ ^ ^ ^ ^ ^ ^ ^ ^ ^ ^ ^ ^ ^ ^ ^ ^ ^ ^ ^ ^ ^ ^ ^ ^ ^ ^ ^ ^ ^ ^ ^ ^ ^ ^ ^ ^ ^ ^ ^ ^ ^ ^ ^ ^ ^ ^  .) )  . . . .",
"C.C.C. .) ) ) ) ( ( ^ ^ ^ ^ ^ ^ ^ ^ ^ ^ ^ ^ ^ ^ ^ ^ ^ ^ ^ ^ ^ ^ ^ ^ ^ ^ ^ ^ ^ ^ ^ ^ ^ ^ ^ ^ ^ ^ ^ ^ ^ ^ ^ ^ ^ ^ ) ) )  . . .C.C.",
"C.C.C.C. .) ) ) ) ( ( ^ ^ ^ ^ ^ ^ ^ ^ ^ ^ ^ ^ ^ ^ ^ ^ ^ ^ ^ ^ ^ ^ ^ ^ ^ ^ ^ ^ ^ ^ ^ ^ ^ ^ ^ ^ ^ ^ ^ ^ ^ ^ ^ ^  .) )  . . .C.C.C.",
"S.C.C.C. . .) ) ) ) ( ( ^ ^ ^ ^ ^ ^ ^ ^ ^ ^ ^ ^ ^ ^ ^ ^ ^ ^ ^ ^ ^ ^ ^ ^ ^ ^ ^ ^ ^ ^ ^ ^ ^ ^ ^ ^ ^ ^ ^ ^ ^ ^ ) ) )  . . .C.C.C.S.",
"S.C.C.C.C. . .) ) ) ) ( ( ^ ^ ^ ^ ^ ^ ^ ^ ^ ^ ^ ^ ^ ^ ^ ^ ^ ^ ^ ^ ^ ^ ^ ^ ^ ^ ^ ^ ^ ^ ^ ^ ^ ^ ^ ^ ^ ^ ^ ^ ) ) )  . . .C.C.C.C.S.",
"S.S.C.C.C. . .) ) ) ) ) ( ( ^ ^ ^ ^ ^ ^ ^ ^ ^ ^ ^ ^ ^ ^ ^ ^ ^ ^ ^ ^ ^ E ^ ^ E  .^ ^ ^ ) ^ ^ ^ ^ ^ ^ ^ ^ ) ) )  . . . .C.C.C.S.S.",
"S.S.C.C.C.C. . .) ) ) ) ( ( ^ ^ ^ ^ &XI.eXsX&XOXXXK.).<X;XY.A.b.N.x.V.D.D.:XOXoXI.<XeX9Xr.B.^ ^ ^ ^ ^  .) ) )  . . .C.C.C.C.S.S.",
"S.S.S.C.C.C. . .) ) ) ) ) ( ( ^ ^ ^ L.-.>.j.:.6.1.6.6.k.-Xh.z._.f.f.uX5X].u.u.{.d._.d.f.u.L.^ ^ ^ ^ ^ ) ) )  . . . .C.C.C.S.S.S.",
"S.S.S.C.C.C.C. . .) ) ) ) ( ( ^ ^ ^ 9Xl.d.9.$X=X4X4X4XyXgXtXgXhXVXVXhXaX5X'.iXiX X5XiXpXu.J.^ ^ ^ ^ | ( ) )  . . .C.C.C.C.S.S.S.",
"S.S.S.S.C.C.C. . .) ) ) ) ) ( ( ^ ^ I.z.1X3X7X1X`.g.u.t.a.`._.l.G.j.U.z._.{.7X2XU.d.|.pXd.J.^ ^ ^ ^ ) ) )  . . . .C.C.C.S.S.S.S.",
"S.S.S.S.C.C.C.C. . .) ) ) ) ( ( ^ ^ F.#.-.;.y.t.t.u.%.-.t.$.#.#.$.;.*.&.=.t.y.y.a.a.*.j.l.J.^ ^ ( ) ) ) )  . . .C.C.C.C.S.S.S.S.",
"S.S.S.S.S.C.C.C. . .) ) ) ) ) ( ( ^ 9Xz.I.H.:.:.:.-.#.-.-.>.j.1X7X'.s./. X.X X(.(.s.d.qXj.L.^ ^ ( ) ) )  . . . .C.C.C.S.S.S.S.S.",
"S.S.S.S.S.C.C.C. . . .) ) ) ) ( ( ^ wX7XGXSXhXDXCX5Xg./._.`.{.8X{.'.iXhXdX{.f.a.a.a.`.7X;.J.^ ( ) ) ) )  . . .C.C.C.C.S.S.S.S.S.",
"S.S.S.S.S.C.C.C. . . .) ) ) ) ) ( ^ I.j.>.-.u.l.[. X.XaXpX8XSXGXhX8X`.u.=.y.a.s.s.!.y./.l.J.^ ^ ) ) )  . . . .C.C.C.C.S.S.S.S.S.",
"S.S.S.S.S.C.C.C.C. . .) ) ) ) ) ( ( G.-.*.=.=.*.*.&.>.l.3XqXqXj.&.&.=.s.!.~./.].p.).].1Xd.J.^ ) ) ) )  . . . .C.C.C.C.S.S.S.S.S.",
"S.S.S.S.S.S.C.C.C. . .) ) ) ) ) ( ( k.y.^.).].'.'.(.y.t.y.t.=.y.g.(.`.oXE M v m x j l p u.L.^ ) ) ) ) C. . . .C.C.C.S.S.S.S.S.S.",
"S.S.S.S.S.S.C.C.C. . . .) ) ) ) ( ^ wXv.> - n M n d M.0.Q.i.l.k.4.r l h - x j m m x j m 1.P.^  .) ) )  . . .C.C.C.C.S.S.S.S.S.S.",
"S.S.S.S.S.S.C.C.C. . . .) ) ) )  .^ nX{ [ A , & l G J B l ' nX` b I E.E...v m F m zXxXjX@.L.^ ) ) )  . . . .C.C.C.C.S.S.S.S.S.S.",
"S.S.S.S.S.S.C.C.C. . . .) ) ) ) | ( _ #XsX6X4X@X4X<XMXBXmXZX=X*X..p I E.X.M Y ' H K jXbXj.z.^ ) ) )  . . . .C.C.C.C.S.S.S.S.S.S.",
"S.S.S.S.S.S.C.C.C. . . .) ) ) ) / ( U 2 5 *XDXCXfXhXpX8X8XpXVXmXQ ! p > : $ n P Z j j c <.L.) ) ) )  . . . .C.C.C.C.S.S.S.S.S.S.",
"S.S.S.S.S.S.C.C.C. . . .) ) ) ) ) ( ' r 4 #XfXdXsXAXAXfXFXgXsXGXAXMXkXL # z D D k h ' p o.L.) ) ) )  . . . .C.C.C.C.S.S.S.S.S.S.",
"S.S.S.S.S.S.C.C.C. . . .) ) ) ) ) ( E e e e.g z U [ zXvX#XN L W A J K D # B c k 6 V.fX$XO.L.) ) ) )  . . . .C.C.C.C.S.S.S.S.S.S.",
"S.S.S.S.S.S.C.C.C. . . .) ) ) ) ) ( Z.M 6 f 0 f m m jXc o D ` v - b H 5 = 5 I L &XhX=XP p.,X) ) ) )  . . . .C.C.C.C.S.S.S.S.S.S.",
"S.S.S.S.S.S.C.C.C. . . .) ) ) ) ) ( %X6.b e.s 7.8.L F b 5 T V U oXR > = 6 *XR.R.D.=XcX- +.;X) ) ) )  . . . .C.C.C.C.S.S.S.S.S.S.",
"S.S.S.S.S.S.C.C.C. . . .) ) ) ) ) ( V.4.C.,.,.6 0 9.E.V b c U 7X8X8X! k W E.L m._ } E y a K.) ) ) )  . . . .C.C.C.C.S.S.S.S.S.S.",
"S.S.S.S.S.S.C.C.C. . . .) ) ) ) ) ) b.a 3Xc.  q g = 9.*XD V <X2X2X2Xw.Z E.K $XP.T.@X&X~ t ;X) ) ) )  . . . .C.C.C.C.S.S.S.S.S.S.",
"S.S.S.S.S.S.C.C. . . . .) ) ) ) ) ( v.e.1XqX= @ 7 f 2 q oXw OXeX).6XoX! #X] ;Xv.XX>X9XXXt L.) ) ) )  . . . .C.C.C.C.S.S.S.S.S.S.",
"S.S.S.S.S.C.C.C. . . . .) ) ) ) ) ( N.M.<X;Xf X 7 @ g n 9 2.8.>Xn.6XR A T [ ,X/ XX:X<X}.o.H.) ) ) )  . . . .C.C.C.C.C.S.S.S.S.S.",
"S.S.S.S.S.C.C.C. . . .) ) ) ) ) ) ( b.8.:XM.M.+ 7 7 . oX| r g a oX,Xw T } J %X4.~ +X9X}.+.H.) ) ) )  . . . . .C.C.C.C.S.S.S.S.S.",
"S.S.S.S.S.C.C.C. . . .) ) ) ) ) ( ( b.g M.m.V.M.# q 7 : OXV < e M.s e p R.] Q R ! @XwXW.+.L.) ) ) ) )  . . . .C.C.C.C.S.S.S.S.S.",
"S.S.S.S.S.C.C. . . . .) ) ) ) ) ( ( b.8.3.q.f 7Xq.X o.B T w < < 2 o < 2.i E { T 7.OX0XOX+.P.( | ) ) )  . . . .C.C.C.C.S.S.S.S.S.",
"S.S.S.S.C.C.C. . . . .) ) ) ) ) ( ( &XM.8.v.i c.3Xe   n...1 3 * , o % o.!.9 v lXT.~ nX+XO.H.( ( ) ) )  . . . .C.C.C.C.C.S.S.S.S.",
"S.S.S.S.C.C. . . . .) ) ) ) ) ) ( ( %Xe.q.n.U s >XI.# q k.5 n 3 3 O : - 7 y.,.{ E.S nXoXO.Y.( ( ) ) )  . . . . .C.C.C.C.S.S.S.S.",
"S.S.S.C.C.C. . . . .) ) ) ) ) ( ( ^ b.e.d q.-Xr s E n.+ 0 V b = 3 = & 3 * ; i.Q.D._ &Xe.O.G.(  .) ) ) )  . . . .C.C.C.C.C.S.S.S.",
"S.S.S.C.C. . . . .) ) ) ) ) ) ( ( ^ / q.s d rX/ 2 T v.s . , % = 6 o O N.C   * 2.~.p.b.OXo.H.^ ( ) ) ) )  . . . . .C.C.C.C.S.S.S.",
"S.S.C.C.C. . . . .) ) ) ) ) ( ( ^ ^ E 5.8.w 3X:Xi Y ..:Xp o & 6 3 O X k.4X, * % e f.^.g o.x.^ ^ ) ) ) ) )  . . . .C.C.C.C.C.S.S.",
"S.S.C.C. . . . .) ) ) ) ) ) ( ^ ^ ^ T 1 c.2 e.;XE y E.NXg % : b + b Y . 0.L., . o & p.!.+.N.^ ^ ^ ) ) ) )  . . . . .C.C.C.C.S.S.",
"S.C.C.C. . . . .) ) ) ) ) ( ( ^ ^ ^ ^ $ -X2 e oXoXU R  .Y . & * O = A P   r.p.* . . * 7.r.x.^ ^ ( ) ) ) ) )  . . . .C.C.C.C.C.S.",
"S.C.C. . . . .) ) ) ) ) ) ( / ^ ^ ^ b.e m.2 # M.v.Q u ~ ` . O & O o.w U Z   i.).# a : D @.G.^ ^ ^ ( ) ) ) )  . . . . .C.C.C.C.S.",
"C.C. . . . . .) ) ) ) ) ( ( ^ ^ ^ ^ %X# g oXo 6.XX#X~ OXp o = : o 8 h., { 5   r.,.5.3.6 @.Y.^ ^ ^ ( ) ) ) ) )  . . . .C.C.C.C.C.",
"C. . . . . .) ) ) ) ) ) ( ( ^ ^ ^ ^ 0Xe < oX2 s -X~ W m.-X= 3 T = & h.1.Z { : . 7 3.c.v t G.^ ^ ^ ^ ( ) ) ) ) C. . . . .C.C.C.C.",
" . . . . .) ) ) ) ) ) ( ( ^ ^ ^ ^ ^ ^ ^ ^ ^ ^ ^ ^ ^ ( ~ ^ ^ ^ ^ ^ ^ E ^ ^ ^ ^ ^ ^ ^ ^ ^ ^ ^ ^ ^ ^ ^ ( ) ) ) ) )  . . . . .C.C.C.",
" . . . .) ) ) ) ) ) ( ( ^ ^ ^ ^ ^ ^ ^ ^ ^ ^ ^ ^ ^ ^ ^ ^ ^ ^ ^ ^ ^ ^ ^ ^ ^ ^ ^ ^ ^ ^ ^ ^ ^ ^ ^ ^ ^ ^ ^ ( ) ) ) ) )  . . . . .C.C.",
" . . .) ) ) ) ) ) ( ( ^ ^ ^ ^ ^ ^ ^ ^ ^ ^ ^ ^ ^ ^ ^ ^ ^ ^ ^ ^ ^ ^ ^ ^ ^ ^ ^ ^ ^ ^ ^ ^ ^ ^ ^ ^ ^ ^ ^ ^ ^ ( ) ) ) ) )  . . . . .C.",
" . .) ) ) ) ) ) ( ( ^ ^ ^ ^ ^ ^ ^ ^ ^ ^ ^ ^ ^ ^ ^ ^ ^ ^ ^ ^ ^ ^ ^ ^ ^ ^ ^ ^ ^ ^ ^ ^ ^ ^ ^ ^ ^ ^ ^ ^ ^ ^ ^ ( ) ) ) ) )  . . . . .",
" .) ) ) ) ) ) ( ( ^ ^ ^ ^ ^ ^ ^ ^ ^ ^ ^ ^ ^ ^ ^ ^ ^ ^ ^ ^ ^ ^ ^ ^ ^ ^ ^ ^ ^ ^ ^ ^ ^ ^ ^ ^ ^ ^ ^ ^ ^ ^ ^ ^ ^ ( ) ) ) ) )  . . . .",
") ) ) ) ) ) ( ( ^ ^ ^ ^ ^ ^ ^ ^ ^ ^ ^ ^ ^ ^ ^ ^ ^ ^ ^ ^ ^ ^ ^ ^ ^ ^ ^ ^ ^ ^ ^ ^ ^ ^ ^ ^ ^ ^ ^ ^ ^ ^ ^ ^ ^ ^ ^ ( ) ) ) ) )  . . .",
") ) ) ) ) ( ( ^ ^ ^ ^ ^ ^ ^ ^ ^ ^ ^ ^ ^ ^ ^ ^ ^ ^ ^ ^ ^ ^ ^ ^ ^ ^ ^ ^ ^ ^ ^ ^ ^ ^ ^ ^ ^ ^ ^ ^ ^ ^ ^ ^ ^ ^ ^ ^ ^ ^ ) ) ) ) )  . .",
") ) ) ) ( ( ^ ^ ^ ^ ^ ^ ^ ^ ^ ^ ^ ^ ^ ^ ^ ^ ^ ^ ^ ^ ^ ^ ^ ^ ^ ^ ^ ^ ^ ^ ^ ^ ^ ^ ^ ^ ^ ^ ^ ^ ^ ^ ^ ^ ^ ^ ^ ^ ^ ^ ^ ^ ) ) ) ) )  .",
") ) ( ( ^ ^ ^ ^ ^ ^ ^ ^ ^ ^ ^ ^ ^ ^ ^ ^ ^ ^ ^ ^ ^ ^ ^ ^ ^ ^ ^ ^ ^ ^ ^ ^ ^ ^ ^ ^ ^ ^ ^ ^ ^ ^ ^ ^ ^ ^ ^ ^ ^ ^ ^ ^ ^ ^ ^  .) ) ) ) ",
"( ( ^ ^ ^ ^ ^ ^ ^ ^ ^ ^ ^ ^ ^ ^ ^ ^ ^ ^ ^ ^ ^ ^ ^ ^ ^ ^ ^ ^ ^ ^ ^ ^ ^ ^ ^ ^ ^ ^ ^ ^ ^ ^ ^ ^ ^ ^ ^ ^ ^ ^ ^ ^ ^ ^ ^ ^ ^ ^ ^ ) ) ) ",
"^ ^ ^ ^ ^ ^ ^ ^ ^ ^ ^ ^ ^ ^ ^ ^ ^ ^ ^ ^ ^ ^ ^ ^ ^ ^ ^ ^ ^ ^ ^ ^ ^ ^ ^ ^ ^ ^ ^ ^ ^ ^ ^ ^ ^ ^ ^ ^ ^ ^ ^ ^ ^ ^ ^ ^ ^ ^ ^ ^ ^ ^ ^ ) ",
"^ ^ ^ ^ ^ ^ ^ ^ ^ ^ ^ ^ ^ ^ ^ ^ ^ ^ ^ ^ ^ ^ ^ ^ ^ ^ ^ ^ ^ ^ ^ ^ ^ ^ ^ ^ ^ ^ ^ ^ ^ ^ ^ ^ ^ ^ ^ ^ ^ ^ ^ ^ ^ ^ ^ ^ ^ ^ ^ ^ ^ ^ ^ ^ ",
"^ ^ ^ ^ ^ ^ ^ ^ ^ ^ ^ ^ ^ ^ ^ ^ ^ ^ ^ ^ ^ ^ ^ ^ ^ ^ ^ ^ ^ ^ ^ ^ ^ ^ ^ ^ ^ ^ ^ ^ ^ ^ ^ ^ ^ ^ ^ ^ ^ ^ ^ ^ ^ ^ ^ ^ ^ ^ ^ ^ ^ ^ ^ ^ ",
"^ ^ ^ ^ ^ ^ ^ ^ ^ ^ ^ ^ ^ ^ ^ ^ ^ ^ ^ ^ ^ ^ ^ ^ ^ ^ ^ ^ ^ ^ ^ ^ ^ ^ ^ ^ ^ ^ ^ ^ ^ ^ ^ ^ ^ ^ ^ ^ ^ ^ ^ ^ ^ ^ ^ ^ ^ ^ ^ ^ ^ ^ ^ ^ ",
"^ ^ ^ ^ ^ ^ ^ ^ ^ ^ ^ ^ ^ ^ ^ ^ ^ ^ ^ ^ ^ ^ ^ ^ ^ ^ ^ ^ ^ ^ ^ ^ ^ ^ ^ ^ ^ ^ ^ ^ ^ ^ ^ ^ ^ ^ ^ ^ ^ ^ ^ ^ ^ ^ ^ ^ ^ ^ ^ ^ ^ ^ ^ ^ "
};
