/* XPM */
static char *result[] = {
/* columns rows colors chars-per-pixel */
"64 64 170 2 ",
"   c #1F100B",
".  c #210E00",
"X  c #281100",
"o  c #24160B",
"O  c #251A09",
"+  c #2B1D0D",
"@  c #301F0F",
"#  c #2C220E",
"$  c #2C2C0D",
"%  c #30200F",
"&  c #2F300F",
"*  c #2E2D12",
"=  c #332211",
"-  c #362813",
";  c #2F3012",
":  c #313012",
">  c #4D2612",
",  c #413715",
"<  c #763D25",
"1  c #3D7F22",
"2  c #4B7A24",
"3  c #497A26",
"4  c #567C24",
"5  c #3F427C",
"6  c #7A5B75",
"7  c #6C6D6A",
"8  c #697463",
"9  c #6C7862",
"0  c #706674",
"q  c #89482C",
"w  c #964D2A",
"e  c #896132",
"r  c #936D59",
"t  c #8A7553",
"y  c #8E7856",
"u  c #9A725D",
"i  c #A56E59",
"p  c #A17558",
"a  c #B6785F",
"s  c #A57B63",
"d  c #AB7D65",
"f  c #B57A61",
"g  c #3F8023",
"h  c #3F8E22",
"j  c #448526",
"k  c #468926",
"l  c #498B27",
"z  c #468628",
"x  c #4F832E",
"c  c #478928",
"v  c #4A8C29",
"b  c #57872D",
"n  c #459325",
"m  c #499627",
"M  c #4D9A27",
"N  c #4B9529",
"B  c #4D9A29",
"V  c #50922B",
"C  c #519D2B",
"Z  c #618B31",
"A  c #639637",
"S  c #609E33",
"D  c #56A42C",
"F  c #59A62D",
"G  c #57A92D",
"H  c #5CAB2E",
"J  c #56AF33",
"K  c #5EAE31",
"L  c #5EB234",
"P  c #60AF2F",
"I  c #60AF31",
"U  c #69AB3B",
"Y  c #61B334",
"T  c #68B736",
"R  c #64B836",
"E  c #6ABA36",
"W  c #65B639",
"Q  c #68B73A",
"!  c #64B939",
"~  c #6ABA3B",
"^  c #70BE3A",
"/  c #6FC039",
"(  c #75C33E",
")  c #78C53F",
"_  c #568658",
"`  c #57895D",
"'  c #649746",
"]  c #6B8E59",
"[  c #71B240",
"{  c #79A953",
"}  c #588B61",
"|  c #5C8070",
" . c #6A8D7F",
".. c #77C440",
"X. c #7AC641",
"o. c #7DCA43",
"O. c #9C815C",
"+. c #A3845E",
"@. c #A18660",
"#. c #AB8166",
"$. c #AB8D65",
"%. c #B08264",
"&. c #81CD45",
"*. c #84D147",
"=. c #86D248",
"-. c #97D955",
";. c #9ADB56",
":. c #9DDD59",
">. c #A1DF5B",
",. c #A4E35D",
"<. c #A8E85F",
"1. c #A7E560",
"2. c #A9E660",
"3. c #AEEA64",
"4. c #B1ED65",
"5. c #B2F066",
"6. c #392E84",
"7. c #393087",
"8. c #3C328E",
"9. c #3F3595",
"0. c #3B3895",
"q. c #432D97",
"w. c #43379C",
"e. c #43389E",
"r. c #573E9E",
"t. c #502CA7",
"y. c #4738A4",
"u. c #463AA6",
"i. c #4234AA",
"p. c #4438A8",
"a. c #294D8B",
"s. c #255C96",
"d. c #157D9E",
"f. c #2C55A6",
"g. c #51548C",
"h. c #474990",
"j. c #4E4599",
"k. c #4A4A99",
"l. c #41619F",
"z. c #4043A5",
"x. c #098582",
"c. c #098A87",
"v. c #0D888C",
"b. c #1C908B",
"n. c #009696",
"m. c #04959A",
"M. c #009B9B",
"N. c #1C9990",
"B. c #238880",
"V. c #20928B",
"C. c #15AC8E",
"Z. c #00A29C",
"A. c #14AC91",
"S. c #11A799",
"D. c #0FB09E",
"F. c #18B193",
"G. c #23AE8D",
"H. c #1189A0",
"J. c #00A4A4",
"K. c #00ADAD",
"L. c #0EABA9",
"P. c #16A7A4",
"I. c #16A9A6",
"U. c #19A8A3",
"Y. c #0BB0A3",
"T. c #01B3AE",
"R. c #00AFB0",
"E. c #00B1B2",
"W. c #6C8F81",
"Q. c #6B9081",
/* pixels */
"F D D D X.&.&.X.v z z v ( *.o.o.F D C G ;.<.,.>.~ Y Q Q F D D D K I I K B N n B :.2.,.>.&.X.&.) v j j v X.&.&.o.W W W W W ! ~ ! ",
"F F D F X.o.o.o.v z g v ..o.o.o.D D D D :.2.<.>.~ W Q W F D D F K L L K B B n C :.2.1.>.&.X.*.X.v j j v X.&.o.X.~ W ! ~ W [ ~ W ",
"D D D D X.&.&.X.v j 3 v X.=.*.o.D D D F ,.4.4.<./ ~ [ ~ D M D C I Y I K B N n B ,.4.3.<.&.&.&.X.c j j c X.*.&.o.~ W [ ~ W ! ! W ",
"F D D D X.*.o.X.N z z v ( o.o.X.D D D F ;.,.>.;.W L ! Q F F F F K I K K C N N C -.,.>.:.X.) &.) v c c v ) o.o.) Q W ! ~ ~ ~ [ W ",
"! W W ! ..o.&.X.F B D D Q ~ ~ Q E E E E H G G F v c j N -.,.,.;.G D D F G D D D C C C C D F F F F D C D I Y Y I I K H I -.,.:.:.",
"~ ~ ~ ~ X.o.&.X.H D F F W Q W Q E ^ / E D M D B c z 1 l ,.4.4.,.F B D D F F G D n n n n D D D D F F F F G H G K K I G I ,.3.1.1.",
"~ ~ [ ~ X.o.o...G D F F ! ~ ~ ~ ~ / ( E D D F D j j 1 j ,.4.3.,.F D F D D D D C M B B B D D D D D D F D I Y Y Y K K F I ,.3.1.1.",
"W W ! ! o.o.&.o.F D D D W ~ W Q Y E E T D D F F v v j N ;.,.,.;.F C F D F F G D M B N m D D F F F F D D H P H I Y K J L ;.,.,.:.",
"H Y H I :.,.,.:.N j c c v v c v F F D F Y Q W W ) ) X.( H F F H D D D D ..o.o.) v j j l R E E T K H P H B B N C ..o.X.X.~ ~ ~ ~ ",
"H H G P :.3.3.,.v 1 c c k j j k C F D D Q ~ ~ ~ &.A # # + O # # # O # O * *.*.o.v j j l E / ^ E I K Y P B B m B X.=.&.o.W W W Y ",
"P I G L ,.5.3.1.v 1 j j k k k k C D D D W ~ W Q ) Z + O O + + + O O O   $ *.*.o.k j j j T ( ( ~ H K H H B N n B X.&.&.o.[ Q ~ Q ",
"K K G P -.,.1.:.V j l l k l k l D J D G Q ~ Q Q ) Z + O + = + + O O O O & o.o.( N j l l R E E Y P I L L B N N B X.&.X.X.! W Q Q ",
"H K I H C B C C L ! R L I H H I ..o.X.X.o.X.o.X.P 2 O @ + @ O + O O O O $ H P Y ) ) o.( G F D F W Q Q W D D D F W ~ ~ W G D F D ",
"I I Y K N n n n L ! ! Q I I H P o.&.o.&.o.o.&.o.I 2 O @ + + O + + O + + & H H H &.&.*.o.F C D D Q ~ [ ~ D D D F W ~ W W F D D D ",
"H H H H B n n m ! ! ~ ! H H F H X.&.o.&.&.&.*.o.K 2 O @ + + O + + + % + : I H K &.=.&.&.F D D D W ~ ! ~ D D D F Y W Q ! F D D D ",
"I P Y I B B B C L ! Y Y I I P I X.o.o.X.X.X.X.) K 2 + @ + + O O + + % + : P K L ( X.X.X.F D D D W ~ ~ ~ F D D F ~ ~ ~ W D D F D ",
"X.X.X.X.X.X.X.X.C m m B ;.1.,.;.~ W ~ ~ N j c v K 3 + + + o O + @ = @ @ : L ! ! v j l v R E E E ! ! ! L H K F I ;.,.,.;.F D D D ",
"o.&.&.&.&.&.=.o.B n n B ,.3.3.,.Q W ~ W j j j j K 3 O O + + O + o o + @ ; ! ! L j j j j E ( E ( L L [ L K I F Y ,.3.3.,.H C F D ",
"&.&.&.o.o.&.&.o.m k n N :.5.3.,.~ Q ~ Q l j z j K 4 - % + + + O o   - - , ! ! R l j j j R E E E L L L L I I H I ,.4.4.,.F D D D ",
"X.X.) ) X.) o.X.D B N C -.,.,.:.Q Y ~ W l j l l K A w q > . X X X X < q e L R R N j l l R ( ^ E ! ! ! L I H H I ;.>.,.;.F C D F ",
"B B B B R W L ! ;.,.,.:.~ L W ! D D F F C.A.C.C.A.S.B.b.v.x.c.c.c.m.b.V.N.A.A.A.F.F.G.R E ~ E E :.1.,.:.L J I I v l v n H H I K ",
"N N N m L ! L ! ,.3.4.,.! J L L D D D C K.T.K.R.E.J.J.E.T.E.E.E.E.E.R.K.K.R.R.R.K.K.Y.~ E E E E ,.5.3.,.Y G P H j g j j H R I L ",
"B N N m L ! L L ,.5.3.<.! L ! ! D D F F K.T.E.K.E.K.J.E.T.R.R.K.R.R.J.K.K.T.K.E.R.K.D.E E ~ E ~ ,.5.5.1.Y G Y I g g 3 g K R Y P ",
"B B B C L ! L ! ;.:.:.:.! L R Y F D F F K.K.E.R.K.E.E.K.R.E.R.R.E.R.T.K.J.K.E.K.R.T.D.Q E E T T -.:.:.;.P G P I V N v N G P K H ",
"! L L ! L ! ..! N c v v F F F D Y Y R R T.R.R.E.E.R.R.E.J.J.E.K.J.J.E.K.J.E.E.E.E.E.Y.Q K K I K C B B C H Y H Y ;.>.,.;.C m B B ",
"[ ..! ....! ! L z 1 g z C F D D R R ! R S.U.U.I.U.L.R.E.Z.M.R.K.J.n.K.K.J.I.I.I.I.I.G.Q K K I H m n n m K Y H Y <.4.5.,.C n B N ",
"[ L [ ! [ ! ..[ z g g g F H F H L ! L ! d d d d f W.E.K.J.M.E.J.J.n.K.E.I.f f d d f +.! K K K K m N m m K K G Y ,.4.4.,.B n N N ",
"! [ ! ! ! ! L L N x v N C F C C L ! ! L d d d s f Q.E.M.M.M.E.K.J.n.J.E.I.d d #.d s @.~ I K I K B B B B K Y H Y ;.>.,.-.D m B B ",
"! ..[ ! ! [ ! [ :.1.1.;.N g k k K L I H d s s s f W.E.J.m.M.E.K.J.n.J.R.I.d d s s d $.:.E R E E R L L R I I Y H v c l v H K K K ",
"! L ! ! ! ! ! L ,.3.3.1.v 1 j k G Y I H #.u r r f W.E.R.J.M.J.K.J.n.n.J.I.d u r r s $.,.( R / E ! ! ! ! I K Y H j g j j K R L K ",
"[ ! ! [ ....! / :.2.3.,.N 1 z c H Y H K d d s d f W.E.E.Z.m.J.R.K.n.n.J.I.f s d d d $.,.E R ! ! ! [ ! ! K K Y H l j c c K Y K K ",
"L ..! ! L L J [ :.1.1.:.V j c v I I I I s d #.d f W.E.E.K.J.K.K.K.J.J.R.I.d d d d d $.;./ R / / L L L L K P Y Y l j j l H L K K ",
"L H L H B B m B X.&.&.X.I G H H L ! L ! #.d d d a  .E.K.R.R.R.K.K.R.T.E.P.f #.s d d O.F ..o.o.) C m M B W Q ~ ! N m m B D D D F ",
"H L P P B m m B ( o.o.X.Y H Y L ..[ ! ! #.u u d i | Z.Z.M.Z.E.M.n.n.E.T.S.d u u d r t D o.&.&.o.B n n B Q ~ ~ ~ C N B M D G F D ",
"L P L H m m m N X.*.&.o.P I L L ! ! [ ..#.u u d p 0 f.a.a.s.E.J.M.M.s.f.l.#.u u d u t F o.=.=.o.B N m B Q ~ Q W B N B M F D D D ",
"K I L L B B N B ..o.X.X.I H L L L [ L [ #.u u d p 6 y.q.8.0.H.M.m.d.8.q.r.#.u u d u t F ( X.o.) B m m B Q ~ ~ W B N B B D D F D ",
"R Y W L W W W ~ Q ~ ~ ~ L L [ L L ! ! L #.u u #.u 6 p.u.u.y.6.v.d.t.u.i.j.%.u p d u y W N j k v D F D F ( o.o.X.! L L L ! W W W ",
"! ! L ! ~ ~ [ ! Q W W W ! ! L ! ! ! ! L b 3 3 x U ] p.u.p.e.6.0.z.u.u.0.h.S S S [ [ [ W j g j j D G D F X.&.&.o.! ! ! ! ~ ~ ~ ~ ",
"Q ! ! ! ! W [ Q Q ~ ~ ~ L L ! ! ! ! ! L l j j c L } y.u.u.u.9.y.y.u.y.w.h.C C F W ~ ~ Q N j c v D F C F o.&.&.o.! L L L ~ [ W ~ ",
"L L L ! ~ ~ ! Q W W W W W ! Y Y ! L ! ! l j z N L ` u.u.y.p.u.u.u.u.y.y.h.D D F W ~ ~ W v j c k D F D F X.o.o.X.! ! ! ! ! W Q W ",
"B B B B W ~ ~ W F D F F H Y K I J L Y H D D D D L } p.u.u.u.u.u.u.u.u.u.k.L L L J K L K l c j c H H Y H D F D F ..o.o.X.K K K K ",
"B B N B W ~ ~ Q D D D D H H I P L L I H G F F F W } u.u.u.u.u.u.u.u.y.u.k./ ..L L L K K v j c v P Y Y L D D C D o.&.&.o.K K K K ",
"N B N N ! / [ ~ C M M D P P Y P L L L Y F D D D W ` w.w.w.w.y.e.e.e.e.e.h.L L ! I P L K v j c j H Y H K D D D D X.&.&.o.I K K K ",
"B B B B R Q Q ! H F G H H H H H K H H H D D D D L _ 7.7.7.7.7.7.7.7.7.7.5 ! ! R P H Y G l c c j H Y Y H F D F G X.o.o.X.H H K K ",
"! L L L F D D F ;.,.,.;.D n B B B B M B D F C F ! _ 7.7.7.7.7.7.7.7.7.7.5 / E E F D F D D D D D Y Q Q Q E E E E ~ Q Q Q F D D F ",
"! ! ! R D C M D ,.4.3.,.B n N N N B B N D F D F L ` 0.9.9.9.9.0.9.w.w.0.h./ / E F D D F F F D F Q ~ ~ Q E E / E Q W Q W D D D D ",
"! L ! R D D M F :.3.3.,.B n M m m m n m C D D F R } u.u.u.u.u.u.u.u.u.u.h.( E E F D G F D D D D Q ! ~ Q E ( ~ Q W W W Y D D D D ",
"! L L R D D D G ;.,.,.;.D m B C B B C B F F D D ! } u.u.u.u.u.p.y.y.u.u.h.E E E D C D D F F D D Q Q Q Q E E E E Q ~ ~ Q F D D F ",
"G F F D L ! L L o.o.o.o.X.X.X.o.X.X.X.) I K K K K _ p.p.p.p.p.p.p.p.p.p.k.! ! R c j c v L L ! L L K L H D D C F ;.<.,.;.Y H P H ",
"D D D D ! ! ! ! ..o.X.o.o.&.o.&.&.&.&.&.Y K I I K ` j.j.j.j.j.j.j.j.j.k.g.L ! R c z z z L / ! L P K L K D D M F ,.4.<.,.Y H P P ",
"D D D D L ! ! ! o.&.&.o.o.o.o.o.&.&.*.o.I J I K K ' 7 7 7 7 7 7 7 7 7 7 9 ! ! L c j h z [ ! ! ! K K K K F F D H ,.3.3.,.Y H P I ",
"D D D D R L L L ..o.X.X.X.o.o.o.) X.X.( K K I I I ' 7 7 7 7 7 7 7 7 7 7 8 L R Y v j c n L ! R L K K L K D D M F -.,.,.;.P F H H ",
"L K K K F F D D I I H I X.&.o.X.C N B B K I K K X.{ 7 7 7 7 7 7 7 7 7 7 8 C D D K H H H B B B B K L L H l j l n Y Y Y I F C F F ",
"L K Y K F C D D H H H K X.o.&.o.B n N M H I J K X.{ 7 7 7 7 7 7 7 7 7 7 8 D D D K Y Y Y B N N N H Y Y P l c j j F H H G D F D D ",
"K L K L D D D D K I H Y o.*.=.o.C N N C H P G K o.&.&.o.~ ~ W [ o.=.=.&.F C D D H Y P H B N N B Y Y Y H l j c c P Y Y P F F F F ",
"K K K K F D D D K H H I ( o.o.[ B N B N H I K K X.X.o.X.W W W W ..X.X...F D F F H H I I B N B C H I I H k c c v H I H H D C D D ",
"H K K K K K I H D D F D l j l l M B B B W Q ~ ~ K L L K D D F D B B M B R ~ W W K K K K J H H I D D D D c c c v D F F D l k l l ",
"I I H K K I Y I F C F D j j j j N B N B ~ ~ ! [ K H K H D D D D N N n M ! ~ ~ W K K K L P I P K D D F D l j c c D F D D l j j j ",
"I I I I Y Y I Y F C F D j j j j m B N M W ~ ~ Q Y L Y Y F F G F N N N M L [ ~ Q K K K K I I I I F F G F l j j c C F D D l j l j ",
"H H K H H H I H F D F D N c v l C B N C W W Q W H H K G D D D D B B B M / [ Q W L K K L I K K H D D D D c l l l D F F D c l l l ",
"F D F D l j k l R / E E Q Q W W H H H H H L Y K l j l l N B N B L ! L L J L K K W ~ Q ! Y H L K M m B M D D D D H K H H K H H L ",
"D D F D l j j k E ( E ^ Q ~ ~ Q I P Y P P H Y H j j l j B B N B ! ! ! ! L K K K W ~ [ ~ I H Y P B N N N D F F D Y L Y Y Y Y Y P ",
"D D F D v l j l T E ~ E ~ W ~ ~ I H I H K L Y H v j c c N B B B L ! L ! K K K L Q ~ Q W K K L H B N B B D D D D K I K K K I Y H ",
"D D F D c c j l T / ~ ~ W ~ ~ W Y H H I H K Y K l z c v B C N B ! ! ! R L K K K W ~ ~ Q L K Y L B B N B D F F F H Y K I L I Y H "
};
