/* XPM */
static char *result[] = {
/* columns rows colors chars-per-pixel */
"64 64 192 2 ",
"   c #211608",
".  c #261A0A",
"X  c #2A1C0C",
"o  c #2B220D",
"O  c #2E2411",
"+  c #2F2A12",
"@  c #352613",
"#  c #342913",
"$  c #392914",
"%  c #3F3F3F",
"&  c #432C1B",
"*  c #4A321D",
"=  c #5A3C28",
"-  c #3F403E",
";  c #3D7F22",
":  c #3F7134",
">  c #41433D",
",  c #72492E",
"<  c #674530",
"1  c #7A4E34",
"2  c #7C5738",
"3  c #547D2A",
"4  c #477835",
"5  c #7B6C37",
"6  c #737536",
"7  c #3C3B47",
"8  c #25215A",
"9  c #28205E",
"0  c #222B5F",
"q  c #36305F",
"w  c #272863",
"e  c #2C2569",
"r  c #322C69",
"t  c #2F2774",
"y  c #2F2871",
"u  c #2E2578",
"i  c #322673",
"p  c #302873",
"a  c #2C3574",
"s  c #205D56",
"d  c #27625B",
"f  c #3A6756",
"g  c #287E51",
"h  c #005D61",
"j  c #006464",
"k  c #036C66",
"l  c #006769",
"z  c #016C6C",
"x  c #176B67",
"c  c #07726A",
"v  c #09766A",
"b  c #187B6C",
"n  c #017373",
"m  c #067B74",
"M  c #007D7D",
"N  c #357468",
"B  c #217571",
"V  c #496C46",
"C  c #48754B",
"Z  c #4B6656",
"A  c #576453",
"S  c #4C7751",
"D  c #4D7851",
"F  c #507850",
"G  c #73624B",
"H  c #6B724C",
"J  c #855335",
"K  c #895837",
"L  c #85543B",
"P  c #8C5A3D",
"I  c #925C3E",
"U  c #9C5B3B",
"Y  c #A65E3C",
"T  c #89673D",
"R  c #96623C",
"E  c #84743B",
"W  c #85773D",
"Q  c #897B3F",
"!  c #91713E",
"~  c #A3603E",
"^  c #805C43",
"/  c #935E40",
"(  c #9E5F40",
")  c #8D6542",
"_  c #956241",
"`  c #9A6142",
"'  c #956844",
"]  c #8F7E45",
"[  c #947844",
"{  c #A76747",
"}  c #A76F52",
"|  c #3F8023",
" . c #3F8E22",
".. c #3A8636",
"X. c #448526",
"o. c #468926",
"O. c #498B27",
"+. c #468628",
"@. c #478928",
"#. c #4A8C29",
"$. c #5C802D",
"%. c #568A2A",
"&. c #538D29",
"*. c #459325",
"=. c #499627",
"-. c #4D9A27",
";. c #42922D",
":. c #4B9529",
">. c #4D9A29",
",. c #52932C",
"<. c #519D2B",
"1. c #5C9F2F",
"2. c #4E8C39",
"3. c #52833B",
"4. c #4B9D3A",
"5. c #559637",
"6. c #6B8D32",
"7. c #718836",
"8. c #679B34",
"9. c #75943B",
"0. c #7A9A3B",
"q. c #56A42C",
"w. c #58A62D",
"e. c #57A92D",
"r. c #5CAB2E",
"t. c #56AF33",
"y. c #5EAE31",
"u. c #5EB234",
"i. c #60AF2F",
"p. c #60AF31",
"a. c #6CA43A",
"s. c #69A939",
"d. c #61B334",
"f. c #68B636",
"g. c #64B836",
"h. c #6ABA36",
"j. c #65B639",
"k. c #69B63B",
"l. c #64B939",
"z. c #6ABA3B",
"x. c #74BC3D",
"c. c #6FC039",
"v. c #75C33E",
"b. c #78C53F",
"n. c #25834F",
"m. c #358C47",
"M. c #389442",
"N. c #34924B",
"B. c #258B54",
"V. c #329652",
"C. c #14846C",
"Z. c #188A6A",
"A. c #0C8475",
"S. c #0A8779",
"D. c #158B76",
"F. c #169073",
"G. c #339F6A",
"H. c #599E42",
"J. c #5D8C52",
"K. c #798346",
"L. c #5CA344",
"P. c #4BA559",
"I. c #70AE4C",
"U. c #6ABD4B",
"Y. c #7AB946",
"T. c #77C440",
"R. c #7AC641",
"E. c #7DCA43",
"W. c #84953E",
"Q. c #9D9E4F",
"!. c #A19B50",
"~. c #96AC4F",
"^. c #86B243",
"/. c #9EAB51",
"(. c #81C243",
"). c #88C647",
"_. c #81CD45",
"`. c #84D147",
"'. c #85D148",
"]. c #97D955",
"[. c #9ADB56",
"{. c #9DDD59",
"}. c #A8C85B",
"|. c #A1DF5B",
" X c #A4E35D",
".X c #A8E85F",
"XX c #A7E560",
"oX c #A9E660",
"OX c #AEEA64",
"+X c #B1ED65",
"@X c #B2F066",
"#X c #018282",
/* pixels */
"w.q.q.q.R._.E.R.#.+.X.#.v._._.R.w.q.q.e.{..X X|.z.d.z.f.q.w.w.q.r.p.p.y.>.=.*.>.{.OX X XE.R._.R.#.X.X.#.R._.E.E.j.j.j.f.j.j.z.j.",
"w.w.q.w.R._.`.R.#.X.X.#.T._._.R.q.q.-.w.{.OX X|.z.j.k.j.q.q.q.w.y.d.d.y.>.>.=.<.[.oX X|.E.R._.R.:.X.X.#.R._.E.E.z.j.j.f.k.z.z.k.",
"q.q.q.q.R.E.E.R.#.X.X.@.R.'._.E.w.q.<.q. X+XOX.Xz.j.U.h.q.<.-.q.p.d.d.y.>.:.;.>. X+XOX.X_.E.'.E.O.X.X.@.R.'._.E.z.j.z.U.d.j.l.d.",
"w.q.q.q.E.E.`.R.:.+.X.#.b._.E.R.q.q.q.r.]. X X[.z.d.j.f.w.r.e.q.r.p.i.r.>.:.=.<.]. X X{.E.R.E.b.#.+.+.#.T.E.E.b.k.l.j.k.z.z.f.U.",
"l.j.d.j.R._._.E.q.q.<.q.f.z.k.z.h.h.h.h.e.w.y.w.#.#.X.#.[. X X[.q.q.q.w.q.q.q.q.q.>.>.<.q.q.w.w.q.q.q.q.y.p.i.d.y.p.e.p.{. X{.|.",
"z.z.U.k.R.E.E.R.w.q.w.w.d.z.j.j.h.h.c.h.q.-.q.<.+.+.; O. X+X+X Xw.<.q.q.e.w.w.q.=.*.*.*.q.q.q.q.w.w.w.w.y.y.r.y.y.p.e.d.|.OXXXXX",
"z.z.z.z.R.E.E.b.r.q.q.w.z.z.U.h.z.v.z.h.q.q.w.<.+.X.; O. X@XOX Xr.<.w.q.q.q.q.q.-.>.:.>.q.q.w.w.q.w.q.q.y.d.d.d.y.y.w.y. XOXXXoX",
"j.j.j.j.E.E._.E.q.q.q.q.j.j.j.f.h.h.h.f.w.q.w.q.#.O.X.:.]. X X[.q.q.w.q.w.e.q.q.>.:.:.=.q.w.w.w.q.w.q.q.e.r.r.p.y.d.y.d.].XX{.|.",
"r.p.e.i.[. X.X[.,.X.o.O.#.O.o.#.q.w.q.q.d.h.l.j.b.b.R.T.w.w.r.w.q.q.q.q.b.b._.b.*.X.X.O.f.h.h.h.r.r.i.r.>.>.:.<.T.E.R.R.z.h.z.z.",
"r.p.e.u.{.OXOX X#.; o.o.+.+.X.o.q.w.q.q.j.z.z.z._.'.'.E.+ O @ # o o o o o o o a.&.| o.o.h.c.z.h.p.i.d.i.>.>.=.>.E.'._.E.j.f.j.j.",
"p.p.e.i. X@X@X.X#.; X.o.o.+.+.o.<.w.q.q.j.h.j.f.b._._.E.@ O o o X X . . . . X 8.O.; | o.h.v.c.h.r.p.u.r.>.;.=.>.R._._.E.U.k.k.z.",
"r.y.r.i.]. X X[.,.X.O.O.o.O.o.#.q.e.q.w.j.U.j.h.b.E.E.b.# X X X X X . . . . X 8.&.O.O.O.g.h.h.f.r.p.u.i.>.:.=.:.T._.R.R.f.j.j.j.",
"p.y.p.r.<.>.<.<.u.l.g.d.r.r.r.r.T.E.T.E.R.R.E.R.d.p.y.d.o .   X X X X X . . X &.v.b.b.b.e.q.q.w.f.z.z.j.q.q.q.q.k.h.U.j.q.q.q.w.",
"y.p.d.i.=.;.*.*.l.l.l.l.d.i.i.i.E.`.E._._._._.R.i.e.e.y.+ .     X o X X . . X &._.`.'._.w.<.q.q.k.z.U.j.w.q.q.w.j.f.h.j.w.q.q.q.",
"r.r.r.r.:.=.=.:.u.l.l.g.r.w.e.r.R._.E._._._.'._.d.e.y.d.# * = * X X X X X X . %._.`.`._.w.q.q.q.j.z.h.f.w.q.q.w.d.j.l.d.w.q.q.q.",
"p.r.d.p.<.>.:.>.u.l.f.d.d.p.i.d.b.E.E.R.b.R.R.T.p.y.y.p.$ 1 { R $   . X X . X %.v.b.R.b.w.q.q.q.j.z.z.k.w.q.q.w.z.z.z.f.q.q.w.q.",
"E.R.R.R.R.R.E.v.q.*.*.<.]..X|.{.z.j.z.k.#.+.@.#.r.u.r.d.K T I J @     . X X X &.O. .O.#.f.h.h.h.j.l.u.u.y.y.q.p.[. X X{.q.q.q.q.",
"E._._._._._.'.E.>.;.*.>.|.+XOX Xh.d.z.j.O.X.X.+.r.u.u.r.1 J I I 1 = & . . . X ,.X.3 X.X.h.c.v.h.l.u.l.l.y.p.w.d.|.+XOX Xr.<.q.q.",
"_._._.E._._._.E.=.o. .=.|.+XOXXXz.j.z.j.O.X.X.+.y.g.u.i., 1 K ` } / < & @ @ $ 5.X.| X.o.h.h.c.h.u.t.u.u.p.p.w.p..X+X+X Xq.q.q.q.",
"R.b.b.R.R.b.E.R.q.>.>.q.]..X|.{.z.j.z.j.#.X.+.O.r.i.r.u., J I U { ( J { ) 2 2 5.*.O.o.#.h.c.z.h.l.U.l.l.p.p.w.p.].|. X[.e.q.q.q.",
">.>.>.>.d.l.u.l.[. X X[.z.u.l.l.w.q.w.q.q.q.q.q.>.:.>.>.3 3 3 $.f d s d x b g 4.j.z.j.j.h.z.h.h.[. X X{.i.e.p.i.*.O.O.O.r.p.p.y.",
">.:.=.=.u.l.u.l. XOXOX.Xl.t.u.u.q.q.q.q.q.w.r.q.>.>.>.:...b S.n.g v n l n m g H.z.z.U.z.h.h.h.h. XOXOX Xd.e.p.i.+.| |  .i.d.d.y.",
":.>.;.>.u.l.u.u. X+X+X.Xz.u.l.g.q.q.w.w.q.q.q.q.=.*.*.;.n.m #XA.B.B.#Xn l j M N.j.z.g.l.h.z.h.z. XOX@X.Xd.r.i.i.X.; 3 | i.d.p.p.",
">.>.>.<.u.l.u.l.[.{.{.[.l.u.g.d.w.q.w.q.r.q.w.q.<.>.>.M.A.n n M A.Z.#Xz l l c S.P.z.j.j.h.h.h.h.[.{. X].i.r.p.i.:.O.#.:.r.u.r.y.",
"j.j.j.j.j.z.z.j.:.@.#.#.q.w.w.q.d.g.g.u.y.y.e.p.R.R.U.G.m l h z m A.M n z j k N J.j.z.j.p.y.p.r.<.>.>.<.r.d.e.d.[.|. X].<.=.>.>.",
"U.h.z.z.z.z.z.j.+.; 4 X.<.w.q.q.d.g.l.g.d.y.y.d.E._.P.D.n l l l c z n M n x d G ! 0.k.j.y.y.p.r.=.*.*.=.y.d.e.d. X+X+X.X<.*.:.>.",
"j.k.z.j.z.k.z.j.X.; | | q.r.w.q.u.l.l.u.y.y.y.y._.(.K.A f l n Z.C.z j M N G { Y _ ) s.l.y.y.p.y.=.=.=.=.y.d.e.f..X+X+X X<.;.>.=.",
"j.z.j.z.f.h.U.j.,.#.#.=.q.q.q.q.u.l.u.l.y.y.y.u.x.W.U U ^ Z B v c z h #XZ P ~ ~ R P 9.z.y.y.p.y.<.>.>.>.y.p.r.d.[.|. X].<.=.>.>.",
"U.f.z.j.z.j.j.k.[. X X{.:.; X.o.u.d.p.r.k.f.h.f.3 K I / Y Y H x n n z m Z J I I / P ] ~.h.f.h.h.g.u.u.u.p.y.d.r.#.#.#.#.r.u.r.y.",
"j.h.k.z.j.U.j.z. XOX@X X&.; +.o.e.d.i.r.j.k.x.s.6 T / ` U R J.#X#XM S.j V 5 P I / _ L Q.v.h.c.z.l.l.l.l.p.p.d.r.X.; | X.y.d.d.p.",
"z.U.f.z.h.z.j.z. XOXOX X#.| X.o.r.p.i.y.j.j.j.9.T / / / / 5 2.S.n n n S.J.%./ I I / P [ 9.f.z.h.l.l.l.l.y.r.d.r.O.+.+.O.r.d.p.y.",
"j.j.f.j.j.j.d.f.[. X X{.,.X.o.#.r.d.p.p.z.z.I.Q I P / / L 6.H.S.n n c v 3.,.5 R I P _ R Q f.z.z.u.u.u.l.d.i.d.r.#.+.o.#.r.d.y.y.",
"u.i.u.y.>.:.=.>.E._._.R.p.e.r.r.f.f.d.k.{.XX/.' P L R P 6 ^.U.C.m n n j m.<.6.T P L _ / ' ^._.b.<.=.-.>.f.l.h.g.:.=.:.>.q.w.q.q.",
"r.r.u.i.:.=.=.=.v.E.E.R.p.i.i.d.l.U.j.z. X}.[ I L / ) T ^._.U.h C.A.M M V.w.q.W / L P / / ' ^.b.>.*.=.=.f.U.U.f.>.:.>.-.q.e.w.w.",
"p.y.y.r.>.:.=.>.T.`._.E.p.i.y.y.j.z.j.k. X!.' / P / / 5 Y._.U.C.c v D.n N.q.q.6.W I P _ [ ^.).E.>.:.=.<.j.z.h.j.>.=.:.-.q.q.q.q.",
"y.p.u.u.<.>.=.<.T.E.R.R.p.r.u.u.k.k.j.z.[./.!.[ / / E 8.b._.U.F.k c F.n N.<.1.i.7.T T E W.^.(.b.>.=.=.>.h.z.z.j.<.:.>.>.q.w.w.w.",
"g.l.u.d.j.j.j.j.h.U.f.h.u.u.U.u.l.d.l.u.:.O.%.3 [ W 9.g.R._.U.F.k c F.n N.<.q.e.8.] 0.j.#.o.#.#.q.w.q.q.T.E.E.R.j.u.u.u.g.j.j.j.",
"l.l.l.l.z.z.z.z.j.j.j.j.l.l.u.l.l.l.l.d.X.| ; X.a.9.s.l.R._.I.a 0 w a a V q.q.e.l.Y.z.j.o.; X.X.q.w.q.w.E._._.E.l.l.l.z.z.z.z.k.",
"l.z.l.l.j.f.z.k.k.z.z.z.j.u.l.l.u.l.l.l.O.X.X.O.u.l.u.l._._.I.t 8 8 e y V <.q.q.j.z.z.l.#.o.O.o.q.w.<.w.E._._.E.l.u.u.u.z.z.j.z.",
"u.u.u.u.f.U.j.j.j.j.k.j.d.l.d.d.l.l.l.u.#.+.+.#.u.l.u.l.T.R.I.t w 8 8 t C q.q.q.j.j.z.f.#.+.o.O.q.w.q.w.v.E.E.R.j.j.l.l.j.j.k.j.",
">.>.>.<.j.z.z.j.q.q.q.q.r.d.p.y.y.y.d.r.w.q.q.<.u.l.l.u.;.*.4 y t e 9 y f u.u.u.u.u.u.r.O.+.o.o.r.i.d.r.w.q.q.e.T.E.E.E.y.y.y.y.",
">.:.:.:.j.z.U.f.q.q.q.q.r.i.y.i.y.u.d.r.w.w.w.w.u.u.l.l.+.X.: t t e 8 y J.l.T.u.u.t.u.y.#.+.X.#.r.d.d.y.q.q.<.q.E.E.E.E.u.y.y.y.",
">.>.:.>.f.U.h.j.q.-.-.q.r.d.i.p.y.u.u.i.w.q.q.q.u.T.c.l.+.X.: t p e 8 p S u.u.g.d.p.d.r.o.+.+.o.r.d.r.p.q.q.q.q.E.E.'.E.p.y.y.y.",
">.>.:.>.f.h.f.j.r.w.w.r.r.i.r.r.y.y.r.r.q.w.q.q.u.l.u.u.*.O.4 t p e 8 y S c.l.u.r.r.i.r.#.o.+.#.r.d.d.i.q.q.q.e.R.E.E.R.y.w.y.y.",
"u.u.u.u.q.q.q.q.]. X X].q.*.>.>.>.>.>.-.q.q.q.q.l.l.u.u.u.g.H.p p e 8 y D c.h.h.q.q.q.q.q.w.q.q.f.k.l.f.h.h.h.h.z.k.h.j.q.q.q.w.",
"c.u.c.g.q.q.-.q. X+XOX.X>.*.:.:.=.>.=.:.q.w.q.w.u.u.l.l.l.l.L.p p e 8 p D c.x.h.q.q.q.q.w.q.q.w.l.z.z.z.h.h.c.z.k.j.j.j.q.q.q.q.",
"u.l.g.g.q.q.q.q.{.OXOX X<.*.=.=.=.=.*.=.q.q.q.q.u.U.u.l.l.l.L.y p e 8 p F c.c.h.r.q.w.e.q.q.q.q.j.z.k.z.h.c.x.h.l.d.j.j.q.q.q.q.",
"l.u.u.d.q.q.q.w.[. X X{.q.*.<.<.>.>.<.<.q.w.q.q.l.u.l.l.u.u.H.y p p p p F h.h.h.w.<.q.q.w.w.q.w.j.z.j.j.f.h.h.f.h.U.z.f.w.q.q.w.",
"t.q.q.e.u.l.u.l.R.E.E.E.R.R.R.R.R.R.E.R.u.r.y.y.y.y.u.p.q.q.2.t y u u u S l.l.u.#.X.+.O.u.j.l.u.y.y.u.y.q.q.q.w.[..X.X[.i.w.i.r.",
"q.q.q.q.l.l.u.l.T.E.R.R._._._._._._._.E.d.y.d.y.y.p.y.y.q.q.2.y i r r r D l.l.j.O.X.X.O.u.l.l.l.y.y.y.y.q.q.-.w. XOX.X Xd.r.i.d.",
"q.q.q.<.l.l.u.l.E._._.E.E.R.R.E._._.`.E.p.r.u.y.y.y.y.r.q.q.2.y u q % % 3.l.l.u.O.X.X.+.j.l.l.l.y.y.y.y.e.q.q.r. XOXOX Xd.r.i.r.",
"e.q.q.e.u.l.u.g.R.R.R.R.E.E.E.E.T.b.E.R.y.y.y.p.d.r.d.d.w.w.,.7 7 7 & f 3.u.l.d.#.X.O.#.u.l.l.u.y.y.d.y.q.q.-.q.]. X X[.i.w.p.r.",
"t.y.y.y.w.q.q.q.y.p.r.p.R._._.R.<.:.>.,.y.p.r.y.b.E.E.R.f.j.5.- = 7 7 7 3 q.q.q.y.y.y.e.>.>.>.<.y.u.d.r.#.o.o.O.r.f.f.i.q.q.q.w.",
"y.y.d.u.w.<.q.q.w.y.w.y.R.E._.R.>.*.=.=.r.p.r.p.E._._.E.z.z.a.> s = > > 4 q.q.q.y.y.d.p.>.=.=.:.y.d.d.r.o.+.+.o.e.r.r.w.w.q.q.q.",
"y.y.y.y.q.q.q.q.p.p.r.p.E.'.'.E.<.*.>.>.r.p.e.p.E._._.E.z.k.z.U.E.'.'._.w.<.q.q.r.p.d.y.>.:.=.>.y.d.d.y.O.o.+.o.y.d.d.r.q.w.w.w.",
"u.y.d.y.w.q.q.q.y.y.y.p.T.R.R.T.<.=.>.:.r.p.y.y.v.R.E.R.j.j.j.j.b.b.b.b.w.q.q.w.r.y.p.r.>.:.>.<.y.y.p.r.O.o.+.#.r.u.y.r.q.q.q.q.",
"r.p.p.r.y.r.i.r.q.q.w.q.#.X.O.O.:.>.>.>.j.h.f.f.d.y.d.y.q.q.w.q.>.-.-.>.f.z.l.j.y.y.y.y.y.y.r.p.q.q.w.q.#.O.+.O.q.q.w.q.O.o.o.O.",
"p.p.r.p.d.u.d.u.w.<.w.w.+.X.X.X.>.>.:.>.z.z.U.z.y.r.r.r.q.q.w.q.=.=.=.=.l.z.z.z.u.y.y.y.i.y.i.y.q.q.w.q.o.+.+.#.q.q.q.q.o.o.O.+.",
"y.p.p.p.d.d.f.i.q.<.q.q.X.X.X.X.:.>.=.>.j.U.h.f.d.u.d.d.w.w.w.q.:.:.:.=.f.U.z.k.y.y.y.y.y.y.d.y.w.q.w.w.o.X.+.o.q.q.w.q.o.+.+.X.",
"r.r.r.r.r.r.r.r.w.w.q.q.#.O.#.#.>.>.:.<.j.j.j.j.r.r.y.e.q.q.w.q.>.>.>.-.g.z.j.j.y.y.p.p.y.p.r.i.q.q.q.q.O.O.O.O.q.q.w.q.O.O.O.#.",
"w.q.q.q.#.+.o.o.f.c.h.h.f.l.j.j.r.r.i.r.i.r.d.r.#.+.o.o.;.>.>.>.u.l.l.u.y.y.y.y.j.z.j.j.u.p.u.y.:.-.>.-.q.q.q.q.r.y.r.r.r.r.i.u.",
"q.q.w.w.o.X.X.+.f.v.h.x.z.z.z.h.p.i.p.i.u.p.d.r.o.X.X.+.>.>.=.>.u.l.j.l.y.y.y.y.f.f.U.f.p.r.p.u.:.:.>.:.q.w.w.q.i.d.d.d.i.d.d.d.",
"q.q.w.q.#.o.X.O.f.c.h.h.f.U.z.j.p.r.p.r.r.u.d.r.#.+.O.O.>.>.>.>.j.l.l.u.p.y.y.y.j.U.z.j.y.y.u.r.>.=.>.>.q.q.q.q.y.u.y.y.y.y.r.i.",
"q.q.w.q.*.X.X.o.f.c.z.h.j.j.z.z.d.r.r.p.r.y.d.r.#.+.O.o.:.<.>.>.u.l.l.l.u.p.y.y.j.z.z.h.y.y.u.u.>.=.>.>.q.w.q.w.y.d.y.y.d.y.d.y."
};
