/* XPM */
static char *result[] = {
/* columns rows colors chars-per-pixel */
"64 64 189 2 ",
"   c #261C0A",
".  c #2B1E0B",
"X  c #391B07",
"o  c #2D230E",
"O  c #2D2F0E",
"+  c #31240E",
"@  c #332512",
"#  c #353514",
"$  c #411F0B",
"%  c #45311E",
"&  c #583017",
"*  c #4B3724",
"=  c #593D26",
"-  c #683B2B",
";  c #783E22",
":  c #3D7F22",
">  c #78442A",
",  c #6B4632",
"<  c #7A4937",
"1  c #7B5037",
"2  c #7B5C34",
"3  c #4A7C28",
"4  c #7D6238",
"5  c #4F347C",
"6  c #755D46",
"7  c #50604E",
"8  c #516E5E",
"9  c #6A6A55",
"0  c #7A5C74",
"q  c #577161",
"w  c #5E7D70",
"e  c #636D6D",
"r  c #6C6E69",
"t  c #697562",
"y  c #646276",
"u  c #7E707D",
"i  c #864B34",
"p  c #8C5031",
"a  c #87583A",
"s  c #8D5A3C",
"d  c #96613F",
"f  c #8A5B44",
"g  c #9A6446",
"h  c #986D57",
"j  c #946E5A",
"k  c #8E7855",
"l  c #957051",
"z  c #9B725E",
"x  c #987958",
"c  c #A36949",
"v  c #A56F59",
"b  c #AB7A5A",
"n  c #8F686E",
"m  c #956D7C",
"M  c #A17666",
"N  c #A57A63",
"B  c #AB7D66",
"V  c #B57C63",
"C  c #B47B64",
"Z  c #AD7B71",
"A  c #3F8023",
"S  c #3F8E22",
"D  c #448526",
"F  c #468926",
"G  c #498B27",
"H  c #468628",
"J  c #4D822C",
"K  c #478928",
"L  c #4A8C29",
"P  c #5E892E",
"I  c #459325",
"U  c #499627",
"Y  c #4D9A27",
"T  c #4B9529",
"R  c #4D9A29",
"E  c #50922B",
"W  c #519D2B",
"Q  c #5C9936",
"!  c #628C31",
"~  c #679635",
"^  c #769338",
"/  c #56A42C",
"(  c #59A62D",
")  c #57A92D",
"_  c #5CAB2E",
"`  c #56AF33",
"'  c #5EAE31",
"]  c #5EB234",
"[  c #60AF2F",
"{  c #60AF31",
"}  c #67A93A",
"|  c #61B334",
" . c #68B736",
".. c #64B836",
"X. c #6ABA36",
"o. c #65B639",
"O. c #68B73A",
"+. c #64B939",
"@. c #6ABA3B",
"#. c #70BE3A",
"$. c #6FC039",
"%. c #75C33E",
"&. c #78C53F",
"*. c #1A907C",
"=. c #2B867F",
"-. c #55835C",
";. c #7C9E46",
":. c #669152",
">. c #71B341",
",. c #79A952",
"<. c #588A61",
"1. c #5F8578",
"2. c #6B8778",
"3. c #77C440",
"4. c #7AC641",
"5. c #7DCA43",
"6. c #9B825D",
"7. c #A3845E",
"8. c #A98166",
"9. c #A38861",
"0. c #B88366",
"q. c #B4856B",
"w. c #B68874",
"e. c #C49175",
"r. c #C6937A",
"t. c #81CD45",
"y. c #84D147",
"u. c #86D248",
"i. c #97D955",
"p. c #9ADB56",
"a. c #9DDD59",
"s. c #A1DF5B",
"d. c #A4E35D",
"f. c #A8E85F",
"g. c #A7E560",
"h. c #A9E660",
"j. c #AEEA64",
"k. c #B1ED65",
"l. c #B2F066",
"z. c #3B328B",
"x. c #3E3594",
"c. c #3E3FA4",
"v. c #42278A",
"b. c #46358C",
"n. c #43349B",
"m. c #42379C",
"M. c #432FAB",
"N. c #4A34A6",
"B. c #463AA5",
"V. c #4137AA",
"C. c #4438A8",
"Z. c #27558F",
"A. c #166791",
"S. c #2D57A3",
"D. c #315AA4",
"F. c #4A4A96",
"G. c #494898",
"H. c #475690",
"J. c #1A8D87",
"K. c #0F9E8D",
"L. c #009696",
"P. c #0A9A95",
"I. c #009C9C",
"U. c #169491",
"Y. c #189A95",
"T. c #219486",
"R. c #15A387",
"E. c #14A98D",
"W. c #18AD8F",
"Q. c #01A29C",
"!. c #0DA898",
"~. c #15A898",
"^. c #18B193",
"/. c #24AD81",
"(. c #0E8DA2",
"). c #00A3A3",
"_. c #01A8A6",
"`. c #00ACAC",
"'. c #16A4A1",
"]. c #16A9A6",
"[. c #01B2AC",
"{. c #00B1B1",
"}. c #A68689",
"|. c #BFA090",
" X c #CF9D87",
".X c #D0B2A4",
"XX c #D8C1B4",
"oX c #9A92C5",
"OX c #FEFFFF",
/* pixels */
"( / / / 4.5.5.5.T H D L 3.t.5.5.( / W ) p.f.d.s.@.| O.O.( / / ( ' ' { ' R U I R a.h.d.s.t.3.t.4.L D D L 4.t.t.5.O.o.o.@.o.o.o.o.",
"( ( / ( 4.u.5.5.L H D L 3.t.5.5.( / / / a.f.d.s.@.O.@.O.( / / ( ' ' | ' R R I W a.h.g.s.t.4.y.4.L D D L 4.t.5.4.@.o.+.@.o.@.+.>.",
"/ / / / 4.5.5.4.L H H K 4.y.t.5.) W W ( d.k.k.f.>.o.@.@./ Y Y / ' | | ' R T I R d.k.j.f.t.5.y.4.L D D L 4.y.t.5.@.o.@.>.+.+.+.+.",
"( / / / 4.u.5.5.L H D K &.t.5.4.( / / _ p.d.s.p.@.| o.o.( ( _ _ ' ] ' _ R R U W p.d.s.p.4.4.t.&.L D H L %.5.5.&.o.o.o.O.@.+.>.o.",
"+.o.] +.5.5.5.5./ W W / o.@.@.O.X.X.X.X._ ) _ ( T K A U i.d.d.p.) / / ( ( / / / W W W W / ( / ) / / / / ' | | | ' ' _ { a.d.p.d.",
"@.@.>.@.5.5.5.5._ ) ) ) o.o.o.O.#.$.X.X./ W W R D H 3 G d.k.j.d.( R / / ( ( ( / U I I I W / / / ( ( ( ( ' _ _ ' ' ' ) | s.j.g.g.",
"@.@.>.+.4.5.5.4._ / ( ( +.>.@.@.@.@.#.X./ / ( / D D : F d.l.j.d.( / ( / / / / / Y R W Y / ) / ( ( / / / ' | | | ' ' ( ' d.j.g.g.",
"o.o.] @.5.5.5.5.( W / ( ..O.o.o.X.X.X.| ) / ( / L L D T i.d.d.p.( W / / ( ( ( / Y T T T / / ( ( / ( / / _ _ _ _ ' ] _ | a.d.a.s.",
"' { _ { i.f.f.p.T D F L L L L L / ( / ( | O.+.o.&.&.5.>._ ( ( ( ( / / / 5.5.5.&.L D D G | X.X.X.' ' [ _ R T R W 3.5.4.4.@.@.@.@.",
"_ _ ) ' a.j.j.d.G 3 G F D D D D / ( / / @.@.@.@.t.~ @ o + + o       o o # y.y.5.L D D F  .%.$.X.' { { [ R T T R 5.u.t.5.o.o.O.| ",
"' { _ ' d.k.j.g.L : D D F D D F W ( / / o.>.] @.&.! .       . . . .     O y.y.5.G A D D X.%.@.X._ ' ] _ R R I R 4.t.t.5.>.O.@.O.",
"' ' _ ' i.d.g.a.T D G G G L F L / ) / ( o.@.@.+.&.P . % % * * = - = * @ # 5.5.&.T F F L  .X.X. .' { ] ' R I U R 3.t.4.4...o.o.O.",
"_ ' { _ W W W W ] +.| +._ _ _ _ 3.5.4.4.5.4.5.4.| 3   8.e.r. Xr.e.e.0., # ] [ ] &.&.4.&._ / / ) | @.O.O./ / / / ..@.>.@.) / ( / ",
"{ { | _ I I I I +.+.+...| [ | [ 5.y.5.t.5.t.t.5.[ ^ l B C C w.M 8.e.g s 4 ' _ _ t.t.y.t.) W / / O.@.>.O.( / / ( ..+.+...( / / / ",
"_ ' [ _ R I I U +.+....._ ( ) _ 4.t.5.t.t.t.y.5.{ ;.q..X}.n Z Z M m |.w.x [ _ [ t.t.u.t.( / / W +.>.+.@.( / / ( +.o.+.] ( / / / ",
"{ _ | { R R R R ] +.| o.{ { [ { 4.5.4.4.4.3.5.3.{ ;.q.OXoX5 C r.m b.OXXXx [ _ | %.4.4.&.( / / ) +.@.@.@.( / / ( @.@.>.o./ / ( / ",
"4.5.4.4.4.4.4.3.W U U W i.g.s.a.@.o.@.O.L G H L ' ^ c C w.Z - , f e.b g 2 +.+.+.T F G I  .X.X.X.+.+.] ] _ ' ( { p.d.d.p.( / ) / ",
"t.5.t.t.t.t.u.5.R I I R s.k.j.d.O.| O.o.K D D D ( ^ g v f < < ; < 1 d s 2 +.+.] D A 3 D X.%.@.$.] ] >.+.{ { ( | s.k.j.d._ W / / ",
"t.t.t.5.t.5.t.5.T I S U s.k.j.g.@.o.@.O.G D D D { ^ f f & X i f - X a a 2 +...+.G D D F X.$.X.X.] ] ` ] { ' _ | f.k.k.d.( W / / ",
"&.&.&.4.4.&.t.4.W R R W i.g.s.a.@.o.@.o.L D G L ( ! ; ; & X X X X $ i i 2 ] +.{ L D F L X.X.@.X.+.+.+.+.{ [ ( { i.s.d.p._ W ( / ",
"R R R W | ..] ..i.d.d.a.@.] +.+.( / ( / *.R.E.W.E.K.*.J.7 ; s < > > =.J.J.R.R.E.^.W./.o.X.X.X.$.a.d.d.a.] ) [ [ L L L G _ | _ ' ",
"S R U U ] +.] +.f.j.j.f.+.` ] ] / / / / _._.`.[._.).).`.=.9 c p 6 q )._._.)._.`.[._.!.@.X.@.X.X.d.l.j.d.| ) | _ D A A D _ | [ | ",
"R R U U ] +.] ] d.l.l.h.@.] +.+./ / / ( `.`._.{.I.).`._._.Y.i i 8 {.{.{.{.{._._.{.).K.o.@.X.X.#.d.l.l.g.| _ [ _ D A : D ] | | { ",
"R R R R ] >.] +.i.s.a.p...` +.| ( / ( ( _.`.[.{.`.{.{.{._.).P.P.P._.`.`.{._.{.{.`.[.].o.X.X. .X.i.a.a.p.[ _ | _ E L L T _ [ ' _ ",
"+.+.+.>.+.3.] ] T K L L / ) / / | ....] Q.`.{.{.`._.{.{.`._.I.I.I.{.{.{.{.).{.{.{.`.!.o.{ [ { _ W R R W ' ' _ | p.d.d.p./ I Y Y ",
"3.+.>.+.+.>.3.] S A A H / ( / / | +.+.+.Y.~.].].Y.'.`.`.{.{.).I.I.{.`.`._.U.'.].].Y.T.@.' ' { _ I I I U ' ] _ | d.k.k.d.W I R Y ",
"] >.+.+.+.+.+.3.H : : A / _ ( ( ] +.+.] 8.B C B 0.w I.L.).{.{.I.I.{.I.I.U.C C B B B 7.+.' _ { _ T U I R ' ' _ { d.k.k.d.W I U U ",
"+.+.+.>.>.+.+.] E L L E W / / / ] +.] +.8.M z 8.C 2.I.L._.{.`.I.).{.).I.U.C z M B B 9.@.' ' { ' W R R R ' | _ | p.d.d.i.W I R R ",
"3.+.+.+.3.] +.>.a.g.g.i.T A D G ] | { _ B z z N C u I.I._.{.).I.).{.`.).U.C z z 8.N 9.a.X. .X.X.| ] ] +.{ ' | _ L L L L ' ' ' ' ",
"+.+.+.>.>.+.] ] g.j.j.g.L : D K _ | [ _ 8.z z B v 1.I.{.{.`.L._.`.{._.).U.B z z 8.j x g.%.X.@.X.+.+.+.+.{ { | ' D : A D ' | ] ' ",
">.>.+.+.+.3.] 3.a.g.j.g.L A H H _ | _ ' B N B B v w L.{.{.`.L.).`.{._.I.Y.B N N N z 6.f.X. .+.@.+.+.+.+.' ' | _ G D H L ' | ] ' ",
"] +.+.>.] >.] +.a.g.g.a.E H L L _ { [ { B B B 8.v 1._.`.{.`.L._._.{.`.).U.B B B N j 6.p.$. .$.$.] ] ] ] ' ' | ' L G D G _ | ' ' ",
"] _ | [ R R I R 5.t.t.4.' _ _ _ +.+.] +.8.B B B v 2.{.`.`._.L._.`.{.{._.U.B B B B z k ) &.5.5.&.W U Y R o.@.O.o.R T R R / ( / / ",
"_ ] [ _ R I U R %.5.5.&.{ _ ] ] ..>.+.>.8.B B 8.V 2.Q.I.Q.Q.[.{.[.`.{._.U.B B B B B 6./ 5.t.t.5.Y I U T o.@.@.@.R U R R / / / ( ",
"{ { ] _ R I I R 3.t.t.5.{ _ ] ] @.>.o.@.8.8.N z 8.u S.S.S.D.D.D.S.Z.{._.U.C B N z 8.7./ 5.y.y.5.R U U R o.@...o.R U T R / / / / ",
"' { ] ] R R R R 4.5.t.4.{ _ ] ] +.+.o.@.N B M j N n M.N.N.N.N.N.n.v.(.(.U.N B N j M x ( %.5.5.&.R U U R @.@.@.@.R R R R / ( ( / ",
"| +.| | ..@.o.+...>.+.@.] ] >.] +.+.+.] j N N z h 0 V.C.B.B.B.B.B.B.v.A.P.h N N j j k o.L G L L / ( / / 3.5.5.4.+.] ] +.o.o.o.o.",
"+.+.] +.@.+.@.>.O.o.@...+.+.] +.] +.+.] J 3 3 J } :.C.B.B.B.B.B.B.B.n.c.H.Q Q } >.>.>.o.F : D D / _ / ( 5.5.t.5.+.+.+.+.@.@.@.@.",
"@.+.+.+.O.>.o.o.@.>.@.@.o.] +.+.] +.+.+.L D H K ] <.B.B.B.B.B.B.B.B.B.B.G./ / / @.@.@.o.L F H K / ( W ( 5.y.t.5.+.' ] ] O.o.O.>.",
"] ] ] +.o.o.@.+.+.o.o.o.| +.| | +.+.+.] L D K L | <.B.B.B.B.B.B.B.B.B.n.F./ / / o...@.o.L D L F / ( / ( 3.5.4.4.o.+.+.+.o.+.@.+.",
"R R R R o.@.@.O./ / ( ) _ { { ' ] ] | _ / / / / | <.B.B.B.B.B.B.B.B.B.B.G.] ] ] ` ' ] ' G H D H ' [ ' ' ( ( ) ( 3.5.5.3.{ ' ' ' ",
"R R U R o.@.>.o.) / / / _ _ ' ' ' ' | _ ( ( ( ( +.<.B.B.B.B.B.B.B.B.B.B.G.$.3.] ] ] ' ' L D L L _ | | { / W W / 4.y.y.5.' ' ' ' ",
"T R T T +.>.@.@./ Y Y W [ { { { ] | | [ ( / / / | <.B.B.B.B.B.B.B.B.B.B.F.+.+.] | [ ] _ G D D F _ ] _ { / / / / 4.y.t.4.{ { ' ' ",
"R R R R ....@.+.( ( _ _ _ _ [ _ _ _ _ _ / / / / +.<.B.C.B.B.B.B.B.B.B.B.F.+.] +._ _ ] _ G L H G _ | [ _ ) / ( _ 4.5.5.3.[ ( ' ' ",
"] ] ] ] ) / W ) i.d.d.p./ I R R R R Y R / / / / ] <.B.z.z.z.B.C.n.z.z.n.F.$.X.X.( / ( / / / W / o.@.o.O.X.X.X.X.@.O.O.o./ / / / ",
"+.+.+.../ / Y ) d.k.j.g.R S R R T R U T / ( / ( +.<.B.x.x.n.B.B.n.x.x.m.F.$.$.X.( / / / ( ( ) ( ..@.@.@.#.@.X.X.O.o.O.o./ / / / ",
"+.+...../ / Y ( a.j.j.d.W I R U U U I U / / / / | <.B.B.B.B.B.B.B.B.B.B.F.$.X.X.( ) ) ( / / / / O.@.o.@.X.#.@.X.o.| O.o./ / / / ",
"+.] | | ) / / ( p.f.d.p.W U R W R R W W / / / ( +.<.B.B.B.B.B.B.B.B.B.B.F.$.X.X./ / W / ( / / ( o.O.o.o.X.X.X.@.@.@.@.@./ / / ( ",
") ( / ( ] +.] ] 5.5.5.5.4.4.4.4.4.4.t.4.{ ' ' ' ' -.B.B.B.B.B.B.B.B.B.B.F.] +.+.G D D L ] +.+.] ' ' | ' ( / W _ p.d.d.p.{ _ _ [ ",
"/ / / / +.+.] +.5.5.5.5.5.t.5.y.t.t.t.4.{ ' | { ' -.B.B.B.B.B.B.B.B.B.B.F.+.+.| H D D L ] +.+.+.' ' ' ' / W Y _ d.f.f.d.| _ [ { ",
"/ / W / +.+.+.+.5.5.t.5.5.5.5.5.t.t.t.5.| ' ' ' _ -.C.C.C.C.C.C.C.C.C.C.G.+.+.+.G D D H +.+.+.+.' ' ' ' ) ) / _ d.k.j.d.{ _ [ ' ",
"/ / / ) | ] ] | 4.4.4.4.5.5.5.4.4.4.4.3.' ' ' ' ] :.y y y y y y y y y y e ] | | L D F L ] +.+.] ' { ] ' / / Y ( p.d.d.p.[ ( ' _ ",
"] ' ' ' ( / / / { { { { 4.t.t.4.W T R W ' ' _ ' &.,.r r r r r r r r r r t / / / ' _ _ _ W R R W ' ] ] _ L F D L [ | | | / / / ( ",
"] ' | ] / / / / _ _ ( _ 3.5.t.4.R I U U _ ' _ ' 5.,.r r r r r r r r r r t / / / ' | | { T U U T ' | | [ F D D F _ _ _ _ / / / ( ",
"' ] ' ' / / / / { { ' | 5.y.u.5.W U R R _ ' ' ' &.y.5.5.@.o.O.@.5.t.u.5.( W / / _ { | [ R T U R ' | | _ L F H L _ | | _ ( ( ( ( ",
"' ' ' ' ( / / / ' _ _ | >.4.4.3.R U R T _ | ' ' &.5.5.5.o.+.o.o.3.&.5.5.( / / / _ [ { _ R T R W ' ' { _ F F K L _ { { _ / W / / ",
"' _ ' ' ' ' { _ / / ( / G D G L Y R R R o.@.+.+.| ] ] ' ( / ( / R R U R o.@.@.o.' ' ' ' ' _ [ _ / / ( / L H D L / ( ( / G F G G ",
"_ { ' ' | { | [ / / ( / D D D D T R U R o.@.>.@._ _ _ _ / / / / I R I U o.@.@.O.' ' ' ] | { | _ / W ) / G D L L W ) ( W F H H D ",
"{ { { { | | | | / W / / D D D D T R U Y o.>.+.@.| | ] ] ( / ) / R R I R +.>.@.o.' ' ' ` _ { { { ( ( ( / F D D H / ( ) / H D F F ",
"_ [ _ _ _ _ _ _ ( ) ( / L G G L R W T W o.O.@.o._ _ ' ' / / / / R R R R +.@.O.o.] ' ' ] { ' ' _ / / ) / L H G G / ( / / L G G G ",
"/ / ( / L F D G X.X.X.@.O.@.o.o._ _ _ _ _ | | ' L D F G R R T R ] +.o.] ] ' ' ' o.@.@.o.' ' ] ' Y Y T Y W / / / _ ' ' _ [ _ [ ' ",
"/ / ( / F D D F X.%.@.$.@.X.@.@.{ [ | [ _ _ ] _ F D D D T R T R +.+.+.] ' ' ' ' @.+.>.+.' ' { ' Y T U R ) ( ( ( ] { | ] [ | | | ",
"/ ( ( / L D F F | %.X.X...+.@.o.{ _ { _ ' | { ' L D G L R R R R ] +.+.+.' ' ' ' o.>.@.O.] ' { ' R R R R / / / ) ' | ' ' { ' ' _ ",
"/ / / / L F D L X.X.X.@.@.@.>.o.| _ _ { _ ' ] ' L H L F R R T R o.+.| +.| ' ' ] o.@.@.o.{ ' | ' R U R R / / / ( ' { ' { ] ' | ' "
};
