/* XPM */
static char *result[] = {
/* columns rows colors chars-per-pixel */
"64 64 195 2 ",
"   c #1F1508",
".  c #211608",
"X  c #261A0A",
"o  c #2A1C0C",
"O  c #2A210C",
"+  c #2F2411",
"@  c #342613",
"#  c #392614",
"$  c #342913",
"%  c #3F3F3F",
"&  c #432C1B",
"*  c #4A321D",
"=  c #5A3C28",
"-  c #3F403E",
";  c #3D7F22",
":  c #41433D",
">  c #72482E",
",  c #674530",
"<  c #7A4E34",
"1  c #7C5538",
"2  c #4D7934",
"3  c #5A7C34",
"4  c #62702F",
"5  c #6F6A34",
"6  c #796438",
"7  c #797535",
"8  c #3C3B47",
"9  c #25215A",
"0  c #28205E",
"q  c #222B5F",
"w  c #272863",
"e  c #2C2569",
"r  c #322C69",
"t  c #2F2774",
"y  c #2F2871",
"u  c #322673",
"i  c #302873",
"p  c #2C3574",
"a  c #3C5E47",
"s  c #205D56",
"d  c #3F6249",
"f  c #2A744F",
"g  c #26625C",
"h  c #35665C",
"j  c #005D61",
"k  c #006464",
"l  c #056D66",
"z  c #006769",
"x  c #016B6B",
"c  c #196A66",
"v  c #08776C",
"b  c #19766C",
"n  c #006F70",
"m  c #017473",
"M  c #057A73",
"N  c #017D7D",
"B  c #157A76",
"V  c #237366",
"C  c #367568",
"Z  c #217571",
"A  c #725B40",
"S  c #4A6D47",
"D  c #4F6A4D",
"F  c #4C6656",
"G  c #4B7750",
"H  c #73624B",
"J  c #6F7A41",
"K  c #626B51",
"L  c #855335",
"P  c #895837",
"I  c #85543B",
"U  c #8D593D",
"Y  c #925C3E",
"T  c #985C39",
"R  c #A65E3C",
"E  c #88673D",
"W  c #96623E",
"Q  c #84733B",
"!  c #85793C",
"~  c #B1603B",
"^  c #805C43",
"/  c #935E40",
"(  c #9E5F40",
")  c #8B6043",
"_  c #956241",
"`  c #9A6142",
"'  c #946A42",
"]  c #956847",
"[  c #937340",
"{  c #977945",
"}  c #A76747",
"|  c #A76F52",
" . c #3F8023",
".. c #3F8E22",
"X. c #388538",
"o. c #448526",
"O. c #4B8424",
"+. c #468926",
"@. c #498B27",
"#. c #468628",
"$. c #478928",
"%. c #4A8C29",
"&. c #459325",
"*. c #499627",
"=. c #4D9A27",
"-. c #459329",
";. c #4B9529",
":. c #4D9A29",
">. c #50912C",
",. c #5A922C",
"<. c #519D2B",
"1. c #498C36",
"2. c #55883D",
"3. c #479A37",
"4. c #599F3A",
"5. c #61922E",
"6. c #6B8C33",
"7. c #728835",
"8. c #778C39",
"9. c #669332",
"0. c #659D33",
"q. c #7B9A3E",
"w. c #56A42C",
"e. c #59A62D",
"r. c #57A92D",
"t. c #5CAB2E",
"y. c #4FA235",
"u. c #56AF33",
"i. c #5EAE31",
"p. c #5EB234",
"a. c #60AF2F",
"s. c #60AF31",
"d. c #6CA439",
"f. c #66AE39",
"g. c #74A03C",
"h. c #73AC3B",
"j. c #61B334",
"k. c #68B736",
"l. c #64B836",
"z. c #6AB936",
"x. c #65B639",
"c. c #68B63A",
"v. c #64B939",
"b. c #6ABA3B",
"n. c #75B93D",
"m. c #6FC03A",
"M. c #75C33E",
"N. c #78C53F",
"B. c #2B8244",
"V. c #39964A",
"C. c #2D9052",
"Z. c #16866E",
"A. c #0C8776",
"S. c #04827C",
"D. c #138375",
"F. c #148C75",
"G. c #169073",
"H. c #249161",
"J. c #4D9C4F",
"K. c #599E44",
"L. c #5A8356",
"P. c #449D54",
"I. c #659255",
"U. c #59A844",
"Y. c #46A559",
"T. c #63A443",
"R. c #7CBF41",
"E. c #77C440",
"W. c #7AC641",
"Q. c #7DCA43",
"!. c #968647",
"~. c #8B9341",
"^. c #89A842",
"/. c #9BA24E",
"(. c #84B243",
"). c #9FB152",
"_. c #A6B657",
"`. c #81CD45",
"'. c #84D147",
"]. c #86D248",
"[. c #9DD257",
"{. c #97D955",
"}. c #9ADB56",
"|. c #9DDD59",
" X c #A5C55A",
".X c #A2D55A",
"XX c #A1DE5B",
"oX c #A4E35D",
"OX c #A8E85F",
"+X c #A7E560",
"@X c #A9E660",
"#X c #AEEA64",
"$X c #B1ED65",
"%X c #B2F066",
"&X c #008282",
/* pixels */
"e.w.w.e.W.`.Q.W.;.#.o.%.M.`.`.W.r.w.<.t.}.OXoXXXb.j.b.x.e.w.w.w.s.s.j.i.:.:.&.:.|.@X+X|.`.W.'.W.%.#.o.@.W.`.Q.Q.b.x.m.v.v.v.x.x.",
"e.e.w.w.W.`.`.W.%.o.o.%.N.`.`.W.w.w.w.w.|.@XoXoXb.x.b.c.e.w.w.e.i.s.s.i.:.;.&.:.}.@XoXoXQ.W.Q.W.%.#.o.%.E.'.Q.W.b.x.T.p.b.b.b.b.",
"w.w.w.w.W.`.Q.W.%.o.o.$.W.'.`.Q.w.w.<.e.oX$X$XoXR.x.b.b.w.<.=.w.s.j.j.p.:.*.&.<.oX$X#XoX`.Q.`.Q.@.o.o.%.Q.'.'.Q.b.x.b.R.v.v.v.p.",
"e.w.w.w.W.Q.'.W.%.$.#.%.M.`.Q.W.e.w.w.r.{.oXXX|.v.j.x.x.e.e.r.e.i.i.i.t.:.:.;.<.}.oXoX|.Q.W.`.N.%.#.#.%.E.Q.W.N.x.x.x.x.b.T.v.R.",
"v.v.v.x.W.Q.'.W.w.w.<.w.k.b.c.b.z.z.z.k.t.r.t.e.$.$.o.;.{.oXoX{.r.w.w.e.e.w.w.w.<.<.<.<.w.w.e.e.w.w.w.w.i.i.a.p.s.i.r.s.}.oX|.|.",
"b.c.b.b.W.`.Q.W.r.w.e.e.v.x.x.c.z.M.m.z.w.:.w.:.#.#.; @.oX$X$XoXe.:.w.w.e.e.w.w.&.&.&.&.w.w.w.w.w.e.e.e.i.t.t.i.i.i.t.j.oX#XOX+X",
"b.b.T.b.E.Q.Q.W.r.e.e.e.v.R.b.b.z.z.M.z.w.<.e.w.o.o. .+.oX$X#XoXr.w.e.w.w.w.w.w.=.:.:.:.w.w.e.w.e.e.w.w.i.p.j.j.i.i.r.p.oX#X+X+X",
"x.x.m.v.Q.Q.'.W.w.w.w.w.p.c.x.x.z.z.z.k.e.w.e.w.%.$.o.;.}.oXoX}.e.<.e.w.e.w.e.w.:.;.:.&.w.e.e.e.w.e.e.w.t.i.t.t.s.p.t.j.|.oX|.|.",
"t.j.r.j.}.OXoX|.;.o.+.@.%.@.@.@.w.e.w.w.j.b.x.x.N.N.W.N.t.e.t.t.w.w.w.w.E.Q.Q.N.;.o.o.+.k.z.z.z.i.t.t.t.:.:.:.:.M.Q.W.W.b.b.b.b.",
"t.t.t.t.|.#X#XoX%.; @.#.#.#.o.+.w.e.w.w.b.b.c.b.`.'.'.Q.O.o o o O O O O $ @ $ $ @.o.#.@.b.m.m.z.j.s.j.a.:.;.*.:.Q.`.`.`.x.j.j.c.",
"a.s.t.p.oX%X%XoX>.; o.#.+.+.#.#.:.e.w.w.v.c.v.x.Q.`.'.Q.O.X X X X X o o + o + $ @.; o.o.z.m.m.z.t.t.i.t.:.;.*.:.Q.`.`.Q.b.c.b.b.",
"s.t.r.a.{.oXoX}.>.o.#.@.@.@.+.@.e.e.e.r.x.b.x.b.N.W.Q.N.O.X o X X X o O X o o $ ;.#.@.@.k.z.z.k.a.s.p.t.:.:.*.:.E.`.W.W.c.x.x.c.",
"t.i.j.t.<.<.<.<.p.p.j.j.t.t.t.t.E.Q.W.W.W.Q.Q.W.a.a.a.j.0.o X X X o o o o X X O N.N.W.W.r.w.w.e.k.c.b.x.w.w.<.w.v.m.R.x.e.w.w.e.",
"s.s.j.t.&.-.&.&.p.v.m.v.j.a.p.a.Q.`.Q.`.Q.Q.`.Q.a.t.r.a.d.X X o o o o o . . X $ `.`.'.`.e.<.w.w.x.b.R.c.e.w.e.r.c.U.p.v.w.w.w.w.",
"t.t.a.t.*.-.&.*.v.E.v.c.t.t.e.t.W.`.Q.Q.`.'.].Q.s.i.i.s.d.X X o o o o o * = & $ `.`.].`.e.<.w.w.v.m.v.v.e.w.w.e.l.v.p.p.w.w.w.w.",
"s.a.j.t.<.:.:.y.u.p.j.j.s.s.a.a.W.Q.Q.W.W.W.W.E.i.t.i.j.0.X o o o o . # _ } < $ M.W.W.N.t.w.w.w.x.m.T.x.e.w.w.e.b.b.R.c.e.w.e.w.",
"W.W.W.W.W.W.W.W.w.&.*.:.}.oXXX|.b.x.b.c.%.#.@.@.t.j.t.j.,.X o X o .   @ L Y U P @...%.%.k.z.z.z.v.v.v.p.t.t.e.s.|.oXoX|.e.<.e.w.",
"`.`.`.Q.`.`.].Q.:.&.&.:.oX$X#XoXb.j.b.x.+.o.o.#.t.p.p.t.,.o X X o & = < T U P < +.2 o.o.k.M.M.z.p.p.U.p.s.s.r.j.XX#XOXoXe.w.e.w.",
"`.`.`.`.`.`.`.Q.*.+...*.|.$X#XoXb.x.b.c.@.o.o.#.i.k.p.p.,.$ $ # & , ] | ` P < > +. .o.o.k.m.m.z.p.u.m.p.s.a.t.s.OX$X%XOXt.<.w.w.",
"N.E.N.W.W.N.Q.N.y.:.:.w.}.oXoX|.b.x.b.x.@.#.+.@.r.a.t.t.d.1 A ) } L W } ` Y L > &.+.+.;.j.m.z.z.m.v.m.p.s.s.e.s.{.XXoX{.e.<.e.w.",
":.:.:.<.j.c.p.v.}.oXoX}.m.p.c.v.e.w.e.w.w.w.e.w.:.:.:.=. .f b V g s g V S.Z.1.5.k.x.x.x.z.m.k.z.}.oXoX}.p.u.j.a.%.%.%.%.t.s.i.i.",
"=.=.-.*.p.v.p.p.oX#X#XOXp.u.p.p.w.w.w.w.e.e.e.w.:.;.:.;.X.b M n k x v &XS.A.C.y.b.b.b.b.z.z.l.m.oX#X#XoXj.r.s.e.O.; o. .a.j.j.i.",
"-.:.=.*.v.U.p.p.oX%X%X@XE.u.v.j.w.w.w.w.w.e.e.w.;.&.*.;.B.N k z M &XS.N m n A.V.v.b.c.c.z.z.k.n.oX%X%X+Xj.r.s.a. . .; o.p.j.j.a.",
":.:.=.<.p.m.p.v.}.|.|.}.v.u.l.j.e.w.w.e.e.w.e.w.<.:.<.C.A.m z z x &XM x j l N H.U.b.b.c.z.z.l.z.{.|.|.}.a.t.j.a.;.;.%.;.t.a.i.t.",
"p.m.v.v.b.b.v.v.-.$.%.%.w.w.w.e.j.l.l.j.t.t.t.j.N.W.R.I.C v z x m N v x z z m D.P.c.x.c.s.i.s.t.<.=.<.<.t.s.r.j.}.XXoX|.<.*.=.:.",
"E.U.b.v.b.v.R.p.#.;  .#.w.w.w.w.j.l.v.l.j.j.i.j.Q.`.^.{ H g c n &Xm x m m x h K J h.c.x.i.i.s.t.&.&.&.&.i.j.t.j.oX$X$XoX<.&.:.:.",
"x.x.b.b.m.v.R.b.#.;  .o.e.t.w.e.p.v.p.v.i.t.t.p.`.'.' W ( ~ H h N k x D.Z F ^ T T 7.f.x.i.i.s.t.=.;.;.*.i.j.r.k.OX$X$XoX:.&.;.;.",
"x.b.b.b.m.U.p.b.>.%.%.%.<.w.w.w.p.v.v.p.j.t.p.p.n.q.U W ( W U F &Xj x b K R R ( T E T.b.i.i.s.i.:.:.=.:.i.j.r.j.}.XXoX{.w.&.:.:.",
"R.p.x.T.m.v.v.v.}.oXoX}.;.o.#.@.p.p.s.t.c.c.m.v.3 1 U Y _ / P D N z m m h T ( ` Y _ /.[.b.k.z.z.j.p.p.p.s.i.j.t.%.%.@.%.i.i.i.i.",
"m.U.b.x.b.v.p.m.+X#X%X+X%.; #.@.r.j.a.t.c.c.T.v.4 L _ _ / U 6 D k &XN &XB A / / _ _ { ).n.z.m.z.c.v.v.v.s.i.j.i.o.;  .o.i.j.p.i.",
"v.b.b.b.R.E.p.m.XX#X#XoX%.; #.#.t.j.t.i.j.p.v.8.6 U _ Y Y / ,.K.A.m m m &X2 1 / Y U W !.h.l.v.v.v.v.v.v.i.i.j.i.@.#.#.%.i.j.i.i.",
"b.b.x.b.p.p.p.T.}.+XoX}.>.#.@.@.a.s.s.s.b.R.R.Q W W U U W Q e.2.M m m m A.1.5 / Y U U W q.z.m.m.p.p.p.v.s.a.j.t.@.#.+.@.t.p.i.i.",
"j.t.p.i.:.:.*.:.W.`.`.Q.s.r.t.t.v.p.j.b.oXXX X' _ _ I U ' ^.Q.J.k m m M Z.3.6.6 / / I U [ (.`.N.<.*.*.=.x.b.b.v.;.*.*.:.w.w.w.e.",
"t.t.j.i.:.*.*.*.M.Q.Q.W.a.t.j.i.x.R.x.b.oX X' ` / U I Y !.].`.Y.N N F.F.j 3.e.7 ` / U Y ' ~.`.W.;.;.;.=.x.b.b.b.:.;.:.:.w.e.w.w.",
"s.i.p.t.*.*.&.:.W.`.`.W.j.a.i.i.x.R.x.b.oXXX_.{ _ / U ! g.`.Q.Y.m F.v l D.3.w.9.Q / Y E ~.^.].`.:.;.*.:.k.b.b.x.:.:.*.:.w.w.w.w.",
"i.j.p.i.:.:.:.:.N.`.Q.N.s.t.i.p.v.p.c.b..XXX.X/.7 E W 7.R.`.W.Y.m F.l l G.3.e.e.7.Q Q 6.n.`.W.E.:.*.*.:.c.b.b.c.:.:.:.:.w.e.e.e.",
"j.v.j.j.c.v.x.b.c.b.b.b.p.p.U.v.p.x.v.p.;.@.%.%.f.g.! d.W.`.W.Y.M G.l l F.y.e.e.d.T.g.k.;.@.@.%.w.w.w.w.N.Q.Q.W.l.p.l.v.v.x.x.c.",
"v.v.p.v.b.b.b.b.c.x.x.v.v.v.m.v.v.v.U.p.o. .; o.j.b.f.x.W.Q.`.L.p p w q p 1.e.e.b.b.n.b.#.; o.o.w.r.w.r.W.`.`.Q.v.v.v.U.x.b.b.b.",
"v.c.v.v.v.v.R.c.x.b.c.b.v.p.v.v.p.v.m.p.+.#.#.$.p.v.p.v.Q.].].I.y e 0 0 u 1.w.w.x.b.b.x.%.#.%.$.w.e.w.e.Q.`.`.Q.v.p.p.p.v.R.c.b.",
"p.p.p.v.m.T.p.x.x.c.x.x.v.j.j.j.p.p.m.p.%.#.$.%.p.v.p.v.R.W.W.G e 9 9 e u 1.w.w.v.b.b.k.@.#.$.+.w.e.<.e.N.Q.Q.W.v.v.v.p.x.x.x.x.",
":.:.:.:.x.b.b.c.e.w.w.w.t.j.s.i.p.p.a.i.e.w.w.w.p.v.m.p.3.+.+.d t 9 e t t K.v.j.i.i.i.i.@.$.#.$.t.a.p.t.e.r.w.e.E.Q.Q.W.i.t.s.i.",
":.:.;.;.x.b.b.x.w.w.w.w.t.a.i.a.p.p.p.t.e.e.w.w.p.v.v.p.+. .o.a y 9 e i u U.v.v.i.i.s.t.@.+.+.$.t.j.j.s.w.=.w.w.W.`.'.Q.p.t.i.t.",
":.;.;.:.p.R.R.p.w.=.=.w.t.j.a.a.p.p.j.j.e.w.w.w.v.v.v.v.+.o.o.a t 9 e i t K.v.p.i.s.s.i.+.#.#.+.t.j.i.i.w.w.w.w.W.'.`.W.j.s.s.i.",
":.:.:.:.p.b.x.v.t.e.e.r.t.a.t.t.p.t.t.t.w.w.w.e.p.v.v.p.-.+.@.d y 9 e i i U.p.v.t.i.s.t.$.$.+.+.t.j.p.t.e.w.e.r.W.Q.Q.W.a.t.t.t.",
"p.p.p.p.r.y.w.w.{.oXoX|.<.&.:.:.:.:.=.=.w.e.w.w.p.U.m.p.v.p.v.G y 9 e i i T.m.z.e.w.w.w.w.w.w.w.k.b.x.c.z.z.z.z.c.c.b.c.w.w.w.e.",
"m.p.m.l.w.w.=.e.oX$X#XoX<...:.:.:.:.;.;.w.e.w.w.p.v.m.p.v.v.v.G y 9 e i i T.z.z.e.w.w.e.e.e.w.e.x.b.b.b.z.m.m.z.c.x.b.x.w.w.w.w.",
"p.v.l.l.w.w.w.w.oX@X#XXX<.&.&.=.&.;.*.*.w.w.w.w.v.v.v.v.v.v.v.G y 9 e i i T.m.z.e.w.e.e.e.w.w.w.b.b.x.b.n.z.z.b.j.v.x.j.w.w.w.w.",
"v.p.j.p.w.w.w.e.}.oXoX|.w.&.:.w.:.:.:.<.w.w.w.e.p.v.p.p.p.p.v.G i i i i i T.z.z.w.w.w.w.e.w.w.w.x.c.x.x.z.z.z.z.b.b.b.c.w.w.e.e.",
"u.w.w.r.p.v.p.v.W.Q.Q.Q.W.W.W.W.W.W.W.E.s.t.i.i.i.s.i.i.w.w.w.S y i y y y U.E.p.@.o.#.%.p.v.v.p.i.i.p.t.w.w.w.w.}.oXoX|.a.t.t.t.",
"y.w.w.w.v.v.p.v.W.W.Q.W.Q.`.`.`.`.`.`.`.j.i.j.i.i.i.j.i.w.w.w.2 r r y y y J.p.p.@.o.o.%.v.v.v.v.i.i.i.i.w.w.=.t.oX$X#XoXj.t.a.a.",
"w.w.w.w.v.v.v.k.Q.`.`.Q.Q.Q.W.Q.`.`.].Q.j.r.j.s.i.t.i.r.w.w.<.2 = a r t t U.E.u.#.o.o.$.v.v.v.v.i.i.j.i.w.r.w.t.oX#XOXoXj.t.a.a.",
"w.w.w.w.j.p.p.j.W.W.W.W.W.Q.Q.Q.W.E.W.M.s.i.s.i.j.s.j.j.w.w.w.2 % 8 8 8 8 4.p.p.@.#.+.$.p.l.j.p.i.i.i.i.w.w.=.e.{.oXoX}.a.r.i.t.",
"p.t.t.p.e.w.w.w.s.s.i.s.W.`.Q.W.w.;.:.:.i.i.i.i.N.Q.Q.W.c.x.k.2.% % % % = 1.y.w.t.t.t.t.:.:.:.:.i.j.j.t.+.+.+.+.t.k.j.j.w.w.w.w.",
"i.p.j.i.w.w.w.w.r.t.r.i.W.Q.`.Q.:.&.*.*.i.i.i.i.Q.`.`.Q.b.b.l.L.% % - - : %.r.w.i.j.j.j.;.;.;.:.i.j.j.t.+.+.#.+.r.t.t.r.w.w.w.e.",
"p.p.i.p.w.w.w.w.s.s.t.s.Q.].].Q.<.;.:.:.e.s.e.i.Q.`.`.Q.b.c.b.b.`.'.'.Q.e.w.w.w.t.s.a.a.:.;.;.:.i.j.j.i.@.#.+.$.a.j.s.i.e.e.e.e.",
"i.t.s.i.w.w.w.w.t.s.i.i.E.W.W.E.:.;.;.;.i.s.i.p.M.W.Q.W.x.x.x.x.E.N.N.N.e.w.w.e.t.s.s.t.:.:.:.<.i.i.s.t.%.+.#.%.t.s.s.a.w.<.w.w.",
"i.t.t.i.t.t.p.t.w.w.e.w.@.#.@.@.;.:.:.:.x.c.p.v.j.p.p.p.e.w.w.w.:.:.=.:.j.v.v.v.p.i.i.i.i.t.t.t.w.w.w.w.%.+.$.$.w.e.w.w.@.o.@.@.",
"i.s.s.i.j.j.j.i.w.w.w.w.#.o.o.o.;.:.:.:.x.b.R.x.t.t.t.t.w.w.w.w.=.;.&.;.x.R.b.x.i.i.i.i.a.j.a.j.w.w.e.w.@.#.+.%.w.w.w.w.@.#.+.#.",
"s.s.s.s.j.j.k.a.w.w.w.w.#.o.o.o.=.:.;.:.x.b.b.b.j.j.k.a.e.w.e.w.=.*.*.*.p.R.c.x.i.i.i.p.t.s.s.i.e.e.r.w.#.#.#.$.<.e.w.w.@.#.#.o.",
"t.t.a.t.t.t.t.t.e.w.e.w.@.%.@.@.:.:.:.<.x.c.c.x.t.t.t.t.w.w.w.w.:.:.:.:.p.b.c.x.i.i.j.j.i.s.i.t.w.w.w.w.@.+.+.+.w.e.t.w.@.@.@.@.",
"w.w.e.w.@.#.o.@.l.m.z.z.x.c.c.x.t.t.t.t.p.t.j.t.@.o.+.@.=.:.*.=.p.v.p.p.p.i.i.i.v.x.T.v.i.i.p.i.=.=.:.=.w.w.w.w.t.i.t.t.t.a.t.p.",
"w.w.e.w.+.o.o.+.k.m.m.z.b.b.b.b.j.a.a.a.t.s.j.t.+.#.#.+.=.3.;.:.v.m.U.v.p.i.i.i.p.R.m.v.i.i.s.i.=.;.:.;.w.e.e.w.a.j.j.p.j.a.j.j.",
"w.w.e.w.@.+.#.@.k.m.b.m.c.b.c.c.s.t.t.s.i.j.j.t.@.#.@.+.:.:.:.:.p.m.v.p.p.i.i.p.x.c.b.c.p.i.p.i.:.*.:.:.w.e.w.e.i.j.i.s.s.i.t.p.",
"w.w.e.w.@.+.o.@.k.m.z.b.c.b.v.c.s.t.s.t.t.i.j.i.@.#.@.+.:.:.:.y.p.p.x.v.s.i.i.i.x.b.b.x.s.i.p.i.:.:.;.:.w.w.e.e.i.i.i.p.i.a.j.t."
};
