/* XPM */
static char *result[] = {
/* columns rows colors chars-per-pixel */
"64 64 154 2 ",
"   c #1C1306",
".  c #23160A",
"X  c #261A0A",
"o  c #291C0C",
"O  c #2B230D",
"+  c #2F2511",
"@  c #332310",
"#  c #3A2715",
"$  c #332B11",
"%  c #3C2A15",
"&  c #333513",
"*  c #3D3B17",
"=  c #3E3D18",
"-  c #3F3F3F",
";  c #432716",
":  c #4A311C",
">  c #5A3A25",
",  c #583A27",
"<  c #3D431B",
"1  c #3D7F22",
"2  c #41433D",
"3  c #754A2D",
"4  c #704C37",
"5  c #715530",
"6  c #7F5236",
"7  c #43743A",
"8  c #517F3D",
"9  c #7C6335",
"0  c #637331",
"q  c #201D5B",
"w  c #3C3B48",
"e  c #252157",
"r  c #28225F",
"t  c #383056",
"y  c #221F61",
"u  c #2A2362",
"i  c #352F63",
"p  c #3D2E62",
"a  c #3F3068",
"s  c #2C2573",
"d  c #2F2775",
"f  c #302774",
"g  c #302872",
"h  c #41326C",
"j  c #3C5E47",
"k  c #3D6045",
"l  c #006566",
"z  c #006A6B",
"x  c #196965",
"c  c #006F71",
"v  c #007B7D",
"b  c #187874",
"n  c #2C766E",
"m  c #317B73",
"M  c #466F48",
"N  c #47714A",
"B  c #4B764C",
"V  c #537D49",
"C  c #825434",
"Z  c #8C5636",
"A  c #845B35",
"S  c #87553B",
"D  c #8A563B",
"F  c #8F5B3C",
"G  c #925C3E",
"H  c #955E41",
"J  c #985F41",
"K  c #976041",
"L  c #996142",
"P  c #9E6748",
"I  c #A26646",
"U  c #A96F51",
"Y  c #3F8023",
"T  c #3F8E22",
"R  c #368539",
"E  c #448526",
"W  c #468926",
"Q  c #498B27",
"!  c #468628",
"~  c #478928",
"^  c #4A8C28",
"/  c #5F862C",
"(  c #5E8D2E",
")  c #459325",
"_  c #499626",
"`  c #4D9A27",
"'  c #4B9529",
"]  c #4D9A29",
"[  c #50922B",
"{  c #519D2B",
"}  c #448130",
"|  c #4E873C",
" . c #518D31",
".. c #5E9B3B",
"X. c #62832B",
"o. c #6B8433",
"O. c #718835",
"+. c #639230",
"@. c #7C943D",
"#. c #56A42C",
"$. c #59A62D",
"%. c #57A92D",
"&. c #5CAB2E",
"*. c #56AF33",
"=. c #5EAE31",
"-. c #5EB234",
";. c #60AF2F",
":. c #60AF31",
">. c #76A53A",
",. c #7DAA3E",
"<. c #61B334",
"1. c #68B736",
"2. c #64B836",
"3. c #6ABA36",
"4. c #65B639",
"5. c #68B73A",
"6. c #64B939",
"7. c #6ABA3B",
"8. c #70BE3A",
"9. c #6FC039",
"0. c #75C33E",
"q. c #78C53F",
"w. c #2A8D4E",
"e. c #329049",
"r. c #5A834E",
"t. c #569445",
"y. c #589747",
"u. c #669745",
"i. c #56AE4A",
"p. c #48AB5D",
"a. c #56AB5A",
"s. c #6CA44D",
"d. c #77C440",
"f. c #7AC641",
"g. c #7DCA43",
"h. c #81973E",
"j. c #839B41",
"k. c #82AE41",
"l. c #81CD45",
"z. c #84D147",
"x. c #86D248",
"c. c #97D855",
"v. c #9ADB56",
"b. c #9DDD59",
"n. c #A1DF5B",
"m. c #A4E35D",
"M. c #A8E85F",
"N. c #A6E560",
"B. c #A9E660",
"V. c #ADEA64",
"C. c #B1ED65",
"Z. c #B2F066",
"A. c #007E81",
"S. c #008285",
/* pixels */
"$.#.#.#.f.l.g.f.^ E E ^ 8.l.l.f.$.#.` $.b.M.M.n.5.4.5.4.$.#.#.#.;.;.:.=.] ' ) ] b.B.m.n.l.f.l.f.^ E E ^ f.l.l.g.4.4.5.5.5.4.5.4.",
"$.$.#.$.f.l.z.f.^ E E ^ f.l.l.g.#.#.#.%.b.M.m.m.3.4.5.4.$.#.#.$.;.;.<.=.] ] ) ] b.B.N.n.g.f.l.q.^ E E ^ f.g.g.g.7.4.7.5.4.7.5.7.",
"#.#.#.#.f.g.g.f.^ E E ^ f.l.l.g.$.#.{ $.m.C.C.m.8.4.i.9.#.` ` { :.:.<.=.] ' ) { m.C.V.M.l.g.x.g.^ E E ^ f.x.l.g.7.4.i.3.5.1.4.4.",
"$.#.#.#.f.l.z.f.' ! E ^ q.l.g.f.#.#.#.$.c.m.n.b.5.1.3.3.$.&.&.&.;.:.:.&.] ] _ { v.m.n.b.f.f.l.q.^ ! ! ^ f.g.g.q.4.4.8.3.3.8.i.5.",
"6.4.5.5.f.l.g.g.$.{ { #.4.7.5.5.3.3.3.3.&.$.&.$.^ ^ T _ c.m.m.c.%.#.$.#.#.#.$.#.{ { { { #.#.&.$.#.#.#.#.=.=.;.-.=.=.&.:.b.m.b.n.",
"7.7.3.0.f.l.l.f.&.$.$.$.4.5.4.5.3.0.9.3.#.` #.] ! E 7 Q m.C.V.m.$.] #.#.%.%.$.#.) ) ) ) #.#.#.#.$.$.$.$.&.=.&.=.=.=.&.<.m.V.m.N.",
"7.7.4.i.q.g.g.q.&.#.$.$.9.i.7.7.7.3.0.3.#.#.$.#.E E 1 Q m.C.C.m.$.#.$.#.#.#.#.{ ` ] ] ] #.#.#.#.$.$.#.#.=.<.-.<.=.=.%.=.m.V.B.B.",
"4.4.4.4.g.g.l.g.#.#.#.$.3.5.5.4.3.3.3.<.#.#.$.$.^ ^ E ^ c.m.m.v.$.{ #.#.$.$.$.$._ ] ' ` #.#.#.$.#.$.#.#.&.;.&.=.=.=.&.<.v.m.b.m.",
"&.=.%.;.c.N.N.b.[ Y Q Q Q ^ Q ^ #.$.#.#.6.4.4.6.0.q.g.q.%.#.=.$.#.$.#.$.q.g.g.q.) E E Q <.3.3.3.&.&.;.&.] ] ] { f.g.g.f.7.5.5.7.",
"&.-.%.;.b.V.V.n.Q Y E Q ! E E Q #.%.#.#.5.7.7.5.q.z.$ O O O o + O $ $ + + < z.g.^ E E ^ 3.9.0.3.:.=.<.;.] ' ) ] g.z.l.g.4.4.4.4.",
":.:.%.;.m.Z.Z.N.[ 1 W E E W E E { #.{ #.4.7.4.5.z.l.O o X X X o o o o o @ = l.g.Q 1 7 T 3.0.3.3.:.&.=.&.] ' ' ] f.z.g.g.i.5.5.7.",
"&.=.*.-.c.m.N.b.[ Y Q Q Q Q Q Q $.%.$.$.4.7.4.5.q.q.O X X X o o o o o O @ = g.q.[ Q Q Q <.9.3.1.:.:.-.&.] ] ) ] f.g.g.f.8.4.4.4.",
":.:.;.&.{ { { { -.-.<.<.&.&.&.;.d.g.f.g.g.g.g.f.<.;.+ o X X o o + o . X o & =.-.0.q.q.q.&.$.#.#.4.7.5.4.#.#.#.#.5.7.7.5.$.#.$.#.",
"&.<.<.=.' ' T ' 6.9.6.6.<.<.&.;.g.z.g.g.g.g.l.g.;.&.O X o o o o o .     o & &.=.g.z.z.l.$.#.#.#.4.7.s.5.$.#.#.$.4.7.5.4.$.#.#.#.",
"&.&.&.&._ T ) _ -.d.6.6.&.$.$.&.g.g.g.g.g.z.z.g.-.&.O X o o o X X : > , + & =.=.g.x.x.g.$.#.#.#.6.7.9.9.$.#.#.$.<.4.4.<.$.#.#.#.",
"<.&.<.:.{ ] ] ] -.-.<.1.:.;.;.<.f.g.g.f.f.f.g.q.;.=.O o X o o . o 6 L H # * =.=.q.q.q.q.$.#.#.#.6.7.6.2.$.#.#.$.5.7.8.3.#.#.$.#.",
"f.f.f.f.f.f.g.q.{ ' ' ] c.N.n.b.7.4.7.4.^ ! ^ ^ ;.-.O o X o .   o 3 K L A 9 6.-.Q E Q W <.3.3.3.4.6.-.-.=.&.$.:.b.m.m.c.&.{ $.#.",
"l.l.g.l.l.l.x.g.] ) ) ] n.C.V.m.3.<.7.4.~ E E E &.<.O X X o % , 4 F F D 6 9 6.6.W E E W 3.0.8.9.<.6.6.6.:.:.$.<.m.V.C.m.$.#.#.#.",
"l.l.l.l.g.l.l.f.' T T ' n.C.V.N.7.4.7.5.Q E E E &.<.% @ @ ; > F U I F C 3 5 6.-.W E E W 3.3.3.3.-.-.-.-.:.=.&.:.m.C.Z.m.$.{ $.#.",
"q.q.q.q.f.q.l.f.#.] ] #.c.N.m.b.7.4.7.4.^ ! ! Q &.<.A A F I Z Z P L G 6 3 5 6.4.Q W W Q 1.0.8.3.6.6.6.6.=.=.&.:.c.n.m.c.$.{ $.#.",
"] ] ] ] <.6.-.6.v.m.m.v.9.-.6.2.$.#.$.#.#.#.$.#.] ] / X.0 m n n m m 8 X./ ( #.$.6.6.4.4.3.7.3.7.b.m.m.v.<.&.:.;.[ Q Q _ &.<.;.&.",
"_ ' ' _ -.4.-.6.m.V.V.M.-.*.-.-.#.#.#.#.$.$.$.#.] ' ] ' } A.v v v S.e.' #.#.{ #.5.7.7.7.3.3.3.3.m.V.V.m.<.&.:.;.E Y Y Y &.<.<.<.",
"' ] ' ] -.6.-.-.M.C.Z.B.d.*.6.2.#.#.#.#.#.#.$.#._ ) _ ) R l l l l v w.` #.#.#.#.4.7.7.6.3.7.3.7.m.C.C.N.<.$.:.&.Y Y 7 T ;.<.<.;.",
"] ] ] { -.6.-.6.c.b.b.v.6.*.<.<.$.#.$.#.$.#.$.$.{ ] { { R v z l z v w.{ #.$.#.%.4.7.5.5.3.3.3.3.c.n.n.c.;.&.<.&.[ Q ^ ' &.-.&.&.",
"6.2.6.5.8.3.7.5.[ ^ ^ ^ #.$.$.$.<.2.2.-.=.=.=.=.f.g.g.f.i.S.c l z v p.q.&.&.&.;.4.5.5.5.=.=.:.&.{ ] ] { =.&.&.<.v.m.m.v.{ _ ` ` ",
"i.0.7.7.i.4.7.5.W 1 7 E { $.#.#.<.3.6.6.<.=.=.=.g.z.l.g.i.b x x x b a.l.<.&.:.:.5.5.5.4.=.=.:.&._ ) ) _ =.<.&.<.m.C.Z.m.{ ) ` ` ",
"4.7.7.7.5.7.7.4.Y 1 Y T $.&.$.$.-.6.-.6.=.=.=.=.g.x.z.g.>.H H H G D j.g.<.&.:.:.4.4.6.6.=.=.=.=.` ' ) ' =.-.&.<.M.C.Z.m.{ Q ` ` ",
"4.5.7.4.5.7.7.5.[ Q _ Q { #.#.#.-.6.6.-.=.=.=.:.s.f.f.d.>.J J J J S h.f.;.&.&.&.7.7.7.7.:.=.:.=.] ] ` ] =.<.&.<.c.n.m.c.{ ) ' ` ",
"7.5.4.7.4.7.4.5.n.n.m.n.[ Y E Q -.-.:.&.5.5.7.4.` Q ! Q +.G H H H S o.#.` ` ) { v.M.m.v.3.1.3.3.<.-.-.6.:.=.<.&.^ Q Q ^ &.-.&.=.",
"8.i.7.5.i.5.4.3.m.C.C.m.[ 1 E Q &.<.;.&.5.5.7.5.W E E E +.S H J H S o.#.` ' ) ` n.V.V.m.0.2.9.3.6.6.6.6.:.:.<.&.E E Y E :.<.<.<.",
"3.7.7.7.0.7.6.7.n.V.V.m.Q 1 E E &.<.&.=.4.4.6.4.Q E E Q ( S G J H H O.#.] ] W ] m.V.V.m.3.1.7.7.6.6.6.6.=.=.<.:.W E ! ~ =.<.=.=.",
"5.5.5.5.1.1.<.5.v.m.m.n.[ E Q Q &.:.;.:.5.7.8.5.) E Q Q +.S G G G H O.#.] ] ) { c.m.m.v.9.1.7.9.-.-.-.-.<.&.<.&.^ E Q Q &.;.<.&.",
"-.;.-.&.] ` ) ] f.z.g.g.&.&.&.&.3.3.4.5.v.m.m.b.&.` #.#.,.S K H S G @.4.$.#.#.#.$.$.#.$.0.g.g.q.#._ ` ` 4.5.7.4.] _ ] _ $.$.#.$.",
"&.&.<.;._ ' ) ] 0.g.g.q.<.&.<.;.3.i.4.7.m.V.V.m.&.` #.$.s.K K F S H @.5.$.$.$.#.#.{ ` #.q.l.l.g.` ) ) ` 5.7.7.7.] ] ] ` #.#.#.#.",
"=.:.<.&.] ' _ ] f.l.l.g.;.;.;.-.5.7.4.5.m.Z.C.m.&.` #.#.k.I L F S H @.5.$.{ #.#.#.#.#.$.g.z.z.g.{ ) ` ` 6.5.5.4.] ' ] ' #.#.#.#.",
"=.<.-.;.] ] ] ] f.g.g.f.:.&.;.<.5.7.6.5.v.m.n.b.&.#.%.%.k.K L G D G @.5.$.#.$.$.#.#.#.$.q.g.g.q.{ _ _ ` 5.7.7.5.] ] ] ] #.$.$.$.",
"<.<.6.<.5.5.4.5.6.7.7.5.6.-.4.3.4.6.6.-.' ^ ^ ^ ;.-.-.2.s.L K L K K @.3.$.#.#.#.4.4.7.3.^ Q Q ^ { #.#.$.q.g.g.f.<.-.-.6.6.4.4.5.",
"6.6.-.6.7.7.5.7.5.4.4.4.6.6.-.i.6.<.6.<.E 1 1 E ;.9.-.6.s.a h p t a r.5.$.#.#.$.7.7.i.8.W 1 E E #.$.#.$.f.l.l.g.6.6.6.6.4.7.7.7.",
"6.6.6.6.5.5.i.5.7.5.7.7.-.-.6.6.-.6.6.6.^ E ! ~ -.-.-.6.s.s s y q s r.6.#.{ #.#.4.7.7.4.^ W ~ ~ #.$.{ $.g.l.l.g.6.-.<.-.8.i.5.7.",
"4.-.-.6.5.3.8.4.4.5.5.4.4.6.<.<.6.6.6.-.) ! ! ' -.9.-.6.s.g e e r s V 1.%.#.#.#.6.7.7.4.^ E ~ ~ #.$.#.$.q.g.g.f.4.6.4.1.3.4.4.4.",
"] ] ] ] 4.7.5.4.$.#.$.#.&.;.:.:.=.=.<.&.#.#.#.{ -.9.6.-.} d r u g g N #.-.i.3.-.-.&.-.&.Q ! W ^ &.;.=.&.#.$.#.$.f.g.g.f.=.=.=.&.",
"] ' ' { 1.7.7.5.#.#.#.#.&.;.&.;.=.=.:.&.&.$.#.$.-.6.6.-.k d u u g g M #.-.9.9.-.-.-.<.&.Q ~ E ^ &.<.<.-.#.#.{ #.g.z.l.f.-.=.=.&.",
"' ] ) ' 3.7.i.8.{ ` ` { ;.<.;.<.-.-.<.<.$.#.#.$.i.9.d.-.} g u u g g N $.-.-.-.2.;.<.<.&.~ E E W &.<.;.=.#.#.#.#.f.l.l.g.:.=.:.:.",
"] ] ] ] 4.3.5.3.&.$.&.&.&.&.&.&.=.&.&.&.#.#.#.#.-.-.-.-.7 g u u g g M #.6.6.6.2.;.&.;.&.Q ~ ! W &.<.<.&.#.#.#.&.f.g.g.f.;.&.=.&.",
"-.-.-.-.$.#.#.#.c.m.m.b.] ) ] ] ] ] ` ] #.$.#.#.-.6.6.6.t.g r u f g j Q <.9.3.3.$.#.#.#.#.#.#.#.1.7.4.5.3.3.3.3.5.5.5.4.$.#.#.#.",
"9.-.9.2.$.#.{ #.m.V.V.m.#.) ] ] ' ] ' ' #.$.#.$.-.6.6.-.t.g r u g g j ~ 1.9.8.3.#.#.#.#.$.$.#.$.6.7.5.5.3.8.9.3.5.4.7.4.#.#.#.#.",
"-.6.6.2.#.#.` $.m.V.V.n.] ) _ ) ) ' ) ` #.#.#.#.6.6.6.6.y.g u u g g j W 1.9.9.3.$.#.&.$.#.#.#.#.5.7.7.5.7.7.8.3.4.6.4.<.#.#.#.#.",
"-.-.<.<.#.#.#.$.v.m.m.b.#.) ] #.] ] { ` #.#.#.$.-.6.-.<.t.g g g g g k ^ 1.3.3.3.#.#.#.#.$.$.#.$.4.5.6.5.1.3.3.3.5.7.7.5.$.#.$.$.",
"*.#.#.%.-.6.-.3.g.z.g.g.f.f.f.f.q.f.g.q.:.&.=.=.=.=.:.=.| s d f f f B =.-.6.6.6.Q E E Q -.6.6.-.-.=.<.&.#.#.#.$.v.m.m.v.;.&.&.&.",
"%.#.#.#.6.6.-.i.q.g.g.g.g.l.g.l.l.l.l.l.<.=.:.<.=.-.=.=.| i i g f f B :.6.-.6.6.^ E E ^ 6.6.6.6.=.&.<.=.#.#.` $.m.C.V.m.<.$.;.<.",
"#.#.{ #.4.6.6.6.g.g.g.g.g.f.g.g.l.l.x.g.:.=.=.=.=.=.=.=. .- - t d f B =.6.6.6.-.Q 7 E E 6.6.6.6.=.=.=.=.#.%.#.&.m.V.V.m.<.&.;.;.",
"#.#.#.%.-.-.-.<.q.g.g.f.f.g.g.g.f.q.f.q.=.=.=.=.=.:.<.-.^ - - t w w | -.-.-.1.<._ T W ^ -.6.-.-.=.:.-.=.#.#.` $.c.m.m.v.;.&.&.&.",
"-.*.=.=.%.#.#.#.:.:.:.:.f.g.l.f.{ ] ] ] =.:.=.=.f.g.g.f...- j , - 2 u.f.$.#.#.#.;.;.&.$.] ] ] ] =.-.<.&.W W W W <.<.<.;.#.#.#.$.",
":.=.=.4.#.#.#.#.&.&.$.:.f.l.l.f.] ) ) ' &.:.&.:.g.l.l.g...2 2 2 2 2 u.f.$.{ #.#.;.;.<.;.' ' ' ] &.<.<.;.W ! E W $.&.&.&.#.$.#.#.",
"=.=.=.=.#.#.#.#.:.:.&.:.g.x.x.g.{ ' ' ] &.=.$.:.g.l.l.g.7.7.7.5.l.x.x.l.$.#.$.{ &.:.<.;.] ' ' ] :.<.<.&.Q ~ W ^ &.<.<.&.$.$.$.$.",
"<.=.:.=.$.#.#.#.=.&.&.&.0.f.g.0.] ' ] ] &.:.=.:.0.f.g.f.5.4.6.4.q.q.q.q.$.{ $.$.&.&.;.;.] ] ] { =.=.:.&.Q W ! ^ &.;.:.&.#.{ #.#.",
"=.=.=.=.&.=.=.=.#.#.$.#.Q E Q Q ` ] ' ] 4.7.5.5.-.=.<.&.$.#.$.#.' ` _ ] 1.7.6.4.=.=.=.=.&.&.&.=.#.#.#.#.^ ~ ! ^ #.$.%.#.Q Q W Q ",
"&.:.&.=.<.<.<.=.#.#.#.#.E E E E ' ] ' ] 4.7.7.7.=.&.=.&.#.#.#.#._ ' _ _ 4.7.7.7.=.=.=.<.;.<.;.:.#.#.#.#.Q E ! ^ #.$.#.#.! ! Q E ",
":.:.:.:.:.<.1.=.#.#.#.#.E E E E ` ] ' ] 4.7.i.3.<.-.-.<.$.#.%.$.' ' _ _ 8.i.7.5.=.=.=.:.&.=.:.:.$.$.&.#.W E E ^ #.$.#.#.Q E E E ",
"=.&.&.&.=.&.&.&.$.#.$.#.Q ^ ^ ^ ] ] ] { 4.5.8.3.&.&.=.&.#.#.#.#.] { ] ] 1.7.5.4.=.=.<.:.:.:.=.&.#.#.#.#.^ ! Q Q #.#.$.#.Q Q Q Q ",
"#.#.$.#.Q E W Q 3.3.3.3.5.6.5.4.&.&.&.&.&.=.<.=.Q E Q Q ] ] ' ] -.6.-.-.;.=.=.:.4.5.7.3.<.&.-.=._ _ ] ` #.#.#.#.&.=.&.&.=.&.&.;.",
"$.#.#.#.W E E W 3.0.3.9.7.7.7.5.:.;.<.;.-.&.<.&.W E E E ' ] ' ] 6.6.6.6.:.:.=.=.5.7.i.8.:.&.<.=.] ] ] ] #.$.$.#.;.<.<.-.<.<.<.<.",
"#.$.$.#.^ W E Q 1.9.7.3.7.4.7.7.:.&.&.=.&.<.<.&.^ ! ^ ~ ] ] ] ] -.6.6.6.=.:.=.=.5.7.5.4.=.=.-.&.] ' ] ] #.#.#.#.=.<.=.:.<.&.=.&.",
"#.#.$.#.^ ! ~ Q 3.3.7.5.7.5.7.4.:.&.:.;.&.=.<.=.Q E ^ ~ ] ] ' ] 6.6.4.<.-.:.&.-.4.7.7.4.<.=.-.=.] ] ' ] #.$.#.$.=.-.=.=.=.<.=.<."
};
