/* XPM */
static char *result[] = {
/* columns rows colors chars-per-pixel */
"64 64 151 2 ",
"   c #1F1508",
".  c #211608",
"X  c #261A0A",
"o  c #2A1C0C",
"O  c #2A210C",
"+  c #2F2411",
"@  c #342613",
"#  c #3A2614",
"$  c #352A12",
"%  c #3F3F3F",
"&  c #432C1B",
"*  c #4A321D",
"=  c #5A3B28",
"-  c #3D7F22",
";  c #41433E",
":  c #72482E",
">  c #6B4833",
",  c #7A4E34",
"<  c #7C5235",
"1  c #427634",
"2  c #547D38",
"3  c #3E3E42",
"4  c #3C3B49",
"5  c #27225D",
"6  c #342957",
"7  c #393751",
"8  c #292362",
"9  c #282368",
"0  c #332D67",
"q  c #372C68",
"w  c #3F306F",
"e  c #2E2774",
"r  c #2F2871",
"t  c #2E2579",
"y  c #302873",
"u  c #3C5D47",
"i  c #3C5E48",
"p  c #006666",
"a  c #006768",
"s  c #006B6B",
"d  c #146763",
"f  c #146B67",
"g  c #007B7C",
"h  c #137B77",
"j  c #267B74",
"k  c #456D49",
"l  c #46704B",
"z  c #4A744E",
"x  c #527B52",
"c  c #855335",
"v  c #8A5636",
"b  c #825B36",
"n  c #86543B",
"m  c #89563B",
"M  c #8F5A3C",
"N  c #915C3E",
"B  c #9A5E3F",
"V  c #92603F",
"C  c #955E41",
"Z  c #9A5F40",
"A  c #976041",
"S  c #9A6141",
"D  c #926349",
"F  c #A66645",
"G  c #AA6847",
"H  c #A6674A",
"J  c #A76F52",
"K  c #3F8023",
"L  c #3F8E22",
"P  c #3B8533",
"I  c #448526",
"U  c #468926",
"Y  c #498B27",
"T  c #468628",
"R  c #478928",
"E  c #4A8C28",
"W  c #59882A",
"Q  c #459325",
"!  c #499626",
"~  c #4D9A27",
"^  c #4B9529",
"/  c #4D9A29",
"(  c #50922C",
")  c #5C922E",
"_  c #519D2B",
"`  c #508D38",
"'  c #539330",
"]  c #618C2E",
"[  c #60932E",
"{  c #6C8233",
"}  c #728736",
"|  c #7D923E",
" . c #56A42C",
".. c #59A62D",
"X. c #57A92D",
"o. c #5CAB2E",
"O. c #56AF33",
"+. c #5EAE31",
"@. c #5EB234",
"#. c #60AF2F",
"$. c #60AF31",
"%. c #61A43C",
"&. c #74AB39",
"*. c #61B334",
"=. c #68B736",
"-. c #64B836",
";. c #6ABA36",
":. c #65B639",
">. c #68B73A",
",. c #64B939",
"<. c #6ABA3B",
"1. c #76B73C",
"2. c #6FC039",
"3. c #75C33E",
"4. c #78C53F",
"5. c #2B8E4E",
"6. c #58804F",
"7. c #579B42",
"8. c #5A9F44",
"9. c #628E40",
"0. c #679343",
"q. c #56AE45",
"w. c #5FB245",
"e. c #46A95D",
"r. c #52AA5B",
"t. c #6DAA4B",
"y. c #70AB49",
"u. c #7FB341",
"i. c #77C440",
"p. c #7AC641",
"a. c #7DCA43",
"s. c #80953D",
"d. c #859840",
"f. c #81B542",
"g. c #81CD45",
"h. c #84D147",
"j. c #86D248",
"k. c #97D855",
"l. c #9ADB56",
"z. c #9DDD59",
"x. c #A1DF5B",
"c. c #A4E35D",
"v. c #A8E75F",
"b. c #A8E85E",
"n. c #A6E560",
"m. c #A9E660",
"M. c #ADEA64",
"N. c #B1ED65",
"B. c #B2F066",
"V. c #007F80",
"C. c #008182",
/* pixels */
".. . . .p.g.g.p.E T I E 1.h.a.a... .~ ..z.v.c.x.<.*.>.>... . . .#.#.$.+./ ^ ! / z.m.c.c.g.4.g.p.Y I I E p.a.g.a.:.:.>.>.:.:.>.>.",
".... ...p.g.a.a.E I I E i.h.a.p. . . .X.z.v.v.x.<.:.>.>... . ...#.$.*.+./ / ! / z.m.n.x.g.p.g.p.E I I E p.g.a.a.<.:.>.>.<.>.<.<.",
" . . . .p.a.g.p.E I I E p.h.h.a. . . .X.c.N.N.v.<.:.<.<. .~ ~  .$.*.*.+./ / Q / c.N.M.v.g.a.g.a.E I I E a.h.g.a.<.:.w.<.:.=.,.*.",
".. . . .p.h.a.p.^ I T E 4.a.a.p. . . .o.k.c.x.l.<.:.>.:...o...o.o.$.#.o./ ^ ^ / k.c.x.z.a.4.g.4.E T T E i.a.a.4.:.:.<.<.<.<.w.>.",
",.:.<.>.a.g.g.p. . ._  .:.<.<.>.=.=.;.=.o...o...E R L Y k.c.c.k.X. . ... ... . ._ _ _ _  ...X... . . . .+.+.#.@.+.+...*.z.c.z.x.",
"<.<.<.<.p.a.g.p... .....:.>.:.:.;.3.2.;._ /  ./ I T 1 Y c.N.N.c.../  . .X.X... .Q Q Q Q  . . . .........+.+.o.+.+.+.+.$.c.M.v.v.",
"<.<.:.w.4.a.a.4.o. .....<.<.<.<.<.;.3.;... ... .I I - Y c.N.N.c... ... . . . ._ ~ / / /  . . . . ... . .+.*.*.*.+.+...+.c.M.c.m.",
":.:.:.:.a.a.g.a... . . .:.>.:.:.-.;.;.=. . ... .E E I ^ k.c.c.l..._  ......... .~ ^ / !  . ....... . . ...#.o.+.+.+.+.*.l.c.z.x.",
"o.+...@.k.n.n.z.^ I E R E E E Y  ... ...:.:.:.:.4.a.i.4.o...o.o. . . . .4.4.a.4.^ I I Y =.;.=.;.o.o.o.o./ ^ ^ / i.a.a.p.<.<.<.<.",
"o.#.o.#.z.M.M.c.E - R Y I I I I  .X. . .:.<.<.<.a.h.$ @ @ $ O O O O O O O h.h.a.E I I Y =.3.2.;.*.@.*.#./ / ^ / a.h.g.a.:.*.:.:.",
"@.+.o.#.c.B.B.c.E - I I I R I Y / .. . .:.<.:.:.a.g.@ + o o o o X X X X o h.h.4.L 1 I I =.2.;.;.o.o.#.o./ ^ ! / a.g.g.a.w.>.>.>.",
"o.+.O.@.k.z.n.z.( I Y Y Y Y R Y ..X. ...:.<.:.<.4.a.$ + o o O o X X X X o a.a.4.~ I Y Y =.2.;.=.#.$.@.+./ / ! / i.a.a.p.;.:.:.>.",
"$.#.$.o._ _ _ _ @.@.,.*.o.o.o.o.i.a.i.a.a.a.a.p.$.+.O X X o o o o X X X o $.@.*.4.4.a.4... .....=.<.>.:. . ._  .:.<.<.>... .....",
"o.*.$.+.^ ! L ^ ,.<.-.-.*.*.#.#.a.h.a.g.a.a.g.a.+...+ o . . X o O o o o o +...+.a.h.h.a..._ _  .:.<.w.>... .....:.<.<.>... . . .",
"o.o.#.o.! L Q / @.i.>.-.o...X.o.a.a.a.a.g.g.h.a.+.+.@ * = * O X o o o o o #.+.$.g.h.h.g... . . .<.<.1.<... . ...*.:.:.*. . . . .",
"$.+.*.+._ / / _ O.@.:.*.$.#.#.*.p.a.a.p.p.p.p.i.+.+.$ < H V #   o X o X X o.o.+.4.p.p.4... . ...:.<.<.,... . ...<.<.<.>... ... .",
"a.p.p.p.p.p.a.i./ ^ ! / k.n.x.z.<.:.<.:.E I E E +.@.b N A c @   . X o o o @.,.,.! Y Y E =.;.;.;.,.@.,.@.+.o...$.z.c.c.z... ... .",
"a.g.g.a.g.g.j.a./ ^ ! / x.N.M.c.>.:.<.:.R I I I o.@.< c M N , = & o X X o ,.-.@.U 1 I I =.3.<.2.*.-.w.@.$.$...*.c.M.M.c.o.~ .. .",
"g.g.g.g.g.a.g.a.! L L ! z.N.M.n.<.:.<.<.Y I I I +.*.: < v F J D > & # $ # ,.>.,.U K I I =.2.<.;.@.O.@.@.$.o.o.*.b.N.N.c... . . .",
"4.i.4.p.a.4.g.4. ./ /  .l.n.n.l.>.*.<.:.E I Y Y +.@.: < N G F F F G H S n @.,.*.Y Y Y Q =.2.;.;.i.2.@.2.#.#...$.k.x.c.k...~ .. .",
"/ _ / / *.-.@.-.l.c.c.l.2.@.>.>... . ... . . . ./ / W W 2 j j j j j x ] )  . ...=.:.:.:.;.<.;.2.k.c.c.l.@.X.*.o.( Y Y ! o.o.$.+.",
"Q ^ ^ ! +.,.O.,.c.M.M.b.@.O.@.@. . . . ........./ ^ ^ ^ T g g g g V.5.~  . ._ ..;.<.<.<.;.;.;.;.n.n.M.c.*.o.*.+.I - - K #.:.$.@.",
"^ ^ ^ ^ @.,.@.,.c.B.B.n.i.O.,.-. . . . . . ... .^ ! ^ ^ - a p a p g 5.!  . . .X.-.<.>.>.;.<.;.<.n.B.B.n.*...=.o.K K 1 L @.*.*.#.",
"/ / / _ @.,.@.,.k.x.z.l.,.O.*.*... . ... ..... ./ / / _ P V.s a p g 5.~  .X._ X.:.<.<.>.;.;.=.;.k.z.z.l.#...#.o.( E Y ^ o.#.+.o.",
",.<.<.,.:.<.w.:.^ Y Y Y  ... ...*.-.-.*.+.+.+.+.p.a.a.p.q.C.s s s 5.e.i.+...o.$.:.<.:.:.+.+.$.o._ / / _ o.@.o.#.l.c.c.l. .Q ~ ~ ",
"w.2.w.<.<.:.3.:.I 1 K I  ... . .:.-.,.-.*.+.+.+.a.g.g.a.w.h f d s V.r.g.$.+.$.$.:.:.<.:.+.+.+.+.! Q Q ! +.*.o.*.c.N.N.c._ Q ~ ~ ",
":.:.<.<.>.<.<.:.I - K K  .o.....@.,.@.,.+.+.+.$.a.h.j.a.&.B S C Z C 0.u.*.o.$.*.:.:.:.:.+.+.+.+.! ^ ! ! +.*...:.b.N.N.c._ Q ^ ~ ",
">.<.<.<.>.<.<.:.( Y ( ^ _  . . .@.,.,.@.+.+.+.$.i.p.i.p.&.A C C D C d.u.#.X.o.o.<.1.<.<.$.+.$.+./ / / / o.*...*.l.x.c.k._ Q _ ^ ",
"<.>.>.>.<.>.:.>.l.c.c.x.E K I E @.@.$.#.:.>.<.:.E Y R Y [ C C C A m {  .^ ~ ! ~ k.v.c.x.;.=.;.-.*.@.-.@.$.+.*.o.E E E E o.$.+.+.",
":.<.<.>.:.<.:.<.c.M.N.v.( - I Y +.*.o.$.>.>.<.>.I I I I ) n C C A n {  .~ ~ Y _ c.b.m.c.2.-.2.2.,.,.,.-.$.$.*.+.I K K I +.*.*.+.",
"<.<.w.<.<.<.:.<.c.b.N.x.( - I I ..*.o.o.:.:.:.:.R I I R ) m C C A N }  ./ ^ Q ~ c.M.M.v.<.-.;.;.2.w.,.,.+.+.*.+.Y I T E +.*.+.+.",
":.:.<.<.:.:.:.:.l.c.b.l.( K Y Y +.$.$.$.>.<.<.<.Y I E Y ) m C C M A }  ./ / ! / k.c.c.l.2.=.,.2.@.@.,.@.+.#.*.o.Y R I Y o.*.+.+.",
"+.+.@.+./ ~ ! / p.g.a.a.#.o.o.o.:.<.:.>.l.n.n.l...~ _  .1.m C N m C | =. . . . ..... .X.3.a.g.4.~ ! ! ~ :.<.<.,.^ ! ^ /  . . ...",
"o.#.@.+./ ^ Q ^ 3.a.a.4.*.o.*.+.:.:.:.<.c.m.M.c.#. ...o.f.C S N m C s.>. . ..... ./ ~  .4.h.h.a.~ ! ! / >.<.<.<./ ^ / ~  .X... .",
"#.@.#.+.^ ^ ! ^ i.g.g.a.#.o.+.+.:.w.:.<.v.M.N.v...~ _ ..f.C V N n C 0.>..._  ... . ._ ..4.h.j.4./ ^ ~ / -.<.>.:./ ^ ^ ~  . . . .",
"@.#.@.+._ / ^ _ i.g.a.a.$.o.+.@.<.<.:.:.l.c.c.l... ._  .f.C S B m C s.>..._ ...... . . .4.g.a.4./ ! ! / >.<.<.<./ ^ _ /  ..... .",
"@.,.@.,.:.:.:.:.<.<.>.<.@.@.w.-.:.*.>.@.^ E E E *.-.@.*.u.A A V V V s.;... . ...:.<.<.,.Y U Y Y  . . . .i.a.a.p.@.@.-.*.-.:.:.:.",
"-.-.@.,.<.<.<.<.:.:.:.:.,.,.>.,.:.-.,.-.I K - I *.>.-.-.y.w w q 6 w 6.;... . .X.<.<.<.<.R I I I  ... ...p.g.g.a.<.-.,.,.<.<.<.<.",
",.-.,.,.>.<.>.<.w.>.<.<.,.@.,.-.i.@.,.@.Y I T R @.,.@.,.t.e 9 8 5 r x ;..._ _  .>.<.<.>.Y R T R  ... ...a.g.g.a.,.@.@.@.<.w.<.<.",
":.@.@.:.>.>.<.>.;.:.:.>.,.@.,.*.O.@.2.@.E T T ^ @.,.@.,.t.y 5 5 5 y x =... . ...:.<.,.:.Y I R R  ... . .p.a.a.i.,.,.:.:.<.:.:.:.",
"/ / / / :.<.<.:. . ... .+.$.$.+.@.@.*.o... . . .-.,.,.@.` t 5 8 y y k ..,.,.@.,.@.o.*.o.Y R R E o.#.+.o. . . . .i.a.a.i.*.+.+.+.",
"/ ^ ^ / :.<.<.>. . . . .o.o.$.o.O.@.*.o..... ...@.,.2.O.- e 5 8 y y k  .@.,.w.,.o.#.*.o.Y I I E +.*.*.@. . . . .a.g.g.a.+.+.+...",
"^ / ! ^ >.<.w.<. .~ ~  .#.*.$.#.@.@.*.#... . . .,.,.w.,.1 e 5 8 y y k ..@.,.-.-.*.$.*.#.Y I I R o.*.#.+. . . . .a.g.g.a.$.+.$.+.",
"/ / / / :.<.<.;.o.......o.o.#.o.o.o.o.o. . . . .@.@.2.@.l e 5 8 y y k  .-.,.@.-.#.o.#.o.Y R R R o.*.*.o. . . ...i.a.a.p.#.o.+.+.",
"@.@.@.@. . . ...l.c.c.l. .Q / / / / ~ /  . . ...,.,.,.@.q.r 5 8 y y u E =.;.;.;... ... . . . . .:.<.:.:.;.;.;.;.>.<.<.>. . . ...",
"2.@.2.-. . .~  .x.N.M.n./ Q / ^ ^ / ^ ^  ... . .@.,.@.,.7.r 5 8 y y i I =.3.2.;. . . . ..... ...:.<.<.<.;.;.3.;.>.:.:.:. . . . .",
"@.,.,.-. . .~ ..z.M.b.c./ Q ! ! Q ^ Q !  . . . .@.,.@.,.8.e 8 8 y y u Y =.2.2.;.....X... . . . .:.<.>.<.;.3.;.<.:.*.:.*. . . . .",
"@.@.*.*. . . .o.l.v.b.z. .Q / ~  ./ _ _  . . ...@.,.,.,.7.e r r y y u E =.;.;.=. ._  . . ... ...:.<.:.:.;.;.;.<.<.<.<.>. . .....",
"O. . .X.@.,.@.-.a.a.a.a.p.p.p.a.p.a.a.4.$.o.+.+.+.$.+.+.` t t t r y l #.,.@.-.-.Y I I Y O.@.,.@.+.+.*.o. . . .X.l.b.v.l.$.o.#.o.",
"X. . . .,.,.@.w.i.a.p.a.a.g.g.a.g.g.g.a.$.+.*.+.+.+.$.+.` e 0 0 y r z *.,.,.,.@.R I T R @.i.,.@.o.+.*.+. . .~ X.c.M.b.c.*.o.#.$.",
" . ._ X.,.,.@.<.a.g.a.a.p.p.a.a.g.g.h.a.$.+.+.+.+.+.+.+.( = ; 7 e y z #.@.,.,.-.R I I R w.2.,.-.+.+.+.+.X. . .o.c.M.M.c.*...#.#.",
"X. . . .,.@.@.*.p.a.p.a.a.a.a.a.i.4.a.4.*.+.+.+.+.+.*.@.' % ; 3 4 4 z ,.@.@.*.*.E R U ! @.,.-.@.+.+.*.+. . .~  .k.c.c.k.#...+.o.",
"O.+.+.+.X. . . .+.$.$.$.p.a.g.p. .^ / / +.$.o.$.p.a.a.p.+.4 % % ; ; 9.a... . . ...o.o.o./ / / / +.@.*.o.Y R R Y o.=.*.*. . . ...",
"+.+.*.@..._  . ...+...+.p.g.g.p./ Q Q ! o.$.o.$.a.g.g.a.%.% ; % ; ; 0.a..._  . .@.*.=.#./ ^ ^ ^ o.*.*.#.R I I R ..o.o... . . . .",
"$.$.@.+. . . . .$.$.o.$.g.g.h.a./ ^ / / o.$.o.#.a.g.g.a.<.>.>.<.g.g.h.g... . . .o.*.#.o./ ^ ^ / $.*.*.o.Y R R Y #.*.$.$.........",
"+.+.$.+... . . .+.o.o.$.3.i.a.4._ ^ ^ / o.$.o.$.3.a.p.p.>.:.>.>.i.4.p.i... . ...o.o.$.+./ ^ / _ +.+.$.o.Y R I Y o.@.$.#._  . . .",
"o.+.o.+.o.o.#.o. . ... .Y R Y Y ^ / / / :.<.<.<.@.@.*.+... . . ./ / ~ / :.,.<.:.+.+.+.+.o.o.o.$. . ... .E E I E  ...X. .Y Y Y Y ",
"$.+.$.+.*.*.*.*..._  . .I I I I / / ^ / >.<.w.>.o.o.+.o. . . . .! ^ ! ! >.<.<.<.+.+.+.@.#.*.#.+. . .X. .R I R R  . ... .I I Y I ",
"$.$.$.$.*.*.*.#. ._ .. .I I I I ! / ^ / >.<.<.<.*.@.@.*.X...X. .^ ^ ! ! :.<.<.>.+.+.+.+.#.$.$.$....... .R I I E  ... . .Y I I I ",
"o.o.#.o.o.o.o.o.........Y E Y Y / / ^ _ ,.:.:.:.o.o.+... . .X. ./ / / / :.<.:.:.+.+.*.$.+.+.+.o. . . . .Y I R Y  . . . .E E Y Y ",
" . ... .R U I Y =.;.;.;.:.>.>.:.o.o.#.o.o.$.*.+.Y I Y Y ^ / ^ / @.,.,.@.@.+.+.+.:.:.<.<.@.+.#.*.~ ! / ~  . . . .o.+.+.o.+.o.o.+.",
".. . . .R I I R =.3.2.;.<.<.<.<.$.#.$.#.@.o.*.o.R I I I ^ _ ^ / @.,.,.,.$.+.+.+.,.<.w.<.$.o.*.o./ ^ ^ ^  ..... .#.@.*.@.*.*.*.*.",
" ..... .E R I Y =.2.;.<.<.:.<.:.$.o.$.o.o.*.*.o.E I Y E ^ _ ^ / ,.,.,.@.+.+.+.+.>.<.>.>.+.+.@.o./ / / /  . ... .+.*.+.$.+.*.o.$.",
" . ... .E R I Y ;.2.<.<.:.<.<.>.*.o.o.$.o.+.@.+.Y T E R ^ _ ^ _ @.,.,.,.*.$.+.+.>.<.<.>.$.+.@.@./ ^ / /  ... ...+.$.o.*.+.o.*.+."
};
