/* XPM */
static char *result[] = {
/* columns rows colors chars-per-pixel */
"64 64 93 2 ",
"   c #34111C",
".  c #37211E",
"X  c #39201C",
"o  c #391520",
"O  c #3C1E21",
"+  c #3C2522",
"@  c #3E2823",
"#  c #5B3E35",
"$  c #3E7E23",
"%  c #5D4037",
"&  c #5E4139",
"*  c #62443B",
"=  c #775346",
"-  c #7A5547",
";  c #7A5648",
":  c #7D594A",
">  c #676C6B",
",  c #805B4C",
"<  c #917266",
"1  c #957669",
"2  c #3F8023",
"3  c #448526",
"4  c #468926",
"5  c #498B27",
"6  c #468628",
"7  c #478928",
"8  c #4A8C28",
"9  c #469325",
"0  c #499627",
"q  c #4D9A27",
"w  c #479328",
"e  c #4A9529",
"r  c #4D9A29",
"t  c #519D2A",
"y  c #4E8C32",
"u  c #518E33",
"i  c #4F9931",
"p  c #529233",
"a  c #559D34",
"s  c #4EA028",
"d  c #56A42C",
"f  c #58A62D",
"g  c #56A92D",
"h  c #5CAB2E",
"j  c #56A035",
"k  c #5CA437",
"l  c #5EAD31",
"z  c #5FA938",
"x  c #5FB234",
"c  c #67A537",
"v  c #60AE32",
"b  c #61AB38",
"n  c #61B334",
"m  c #68B735",
"M  c #64B836",
"N  c #6ABA36",
"B  c #65B53A",
"V  c #68B53C",
"C  c #64B939",
"Z  c #6ABA3B",
"A  c #6FC039",
"S  c #75C33E",
"D  c #78C43F",
"F  c #67AD42",
"G  c #6CB743",
"H  c #6CBA43",
"J  c #71BD45",
"K  c #76BE4E",
"L  c #76C441",
"P  c #7AC641",
"I  c #7DCA43",
"U  c #82CD45",
"Y  c #83CA4C",
"T  c #84D147",
"R  c #86D14A",
"E  c #88D04F",
"W  c #95D754",
"Q  c #98D755",
"!  c #96D855",
"~  c #9ADB56",
"^  c #9EDE59",
"/  c #A0DF5B",
"(  c #9FE05A",
")  c #A4E35D",
"_  c #A8E75E",
"`  c #A2DE61",
"'  c #A5E162",
"]  c #AAE564",
"[  c #AEEA64",
"{  c #ADE768",
"}  c #AEE869",
"|  c #B1EE65",
" . c #B3F066",
/* pixels */
"G V V V M B V V z z b z a a a j M V V V H J H J V V b G H H H H j j j j p p y p V V V b V V B B G J J J L J L Z p u u u c b z F ",
"l v l l v v l l d d g d q r r r v v h v V V V V x l l l x C C x r r r r 7 7 7 7 h v l l l l l l V V V m Z N S m 5 4 4 5 d d d d ",
"V x n n v x n v f d f d r r e q h x h x N Z Z V l l l l C C C C r e r e 7 3 3 7 h n l l l v l l Z Z Z Z N N S m 4 3 3 5 d f d z ",
"V l l l h v v h d d d d q e q q v x v v M V V M l l l x x C C x r e r q 4 4 7 8 l x x l h l h l M V M V N N N M 5 3 3 5 d f d z ",
"u 5 4 5 d f f d 5 5 7 8 t f d d h x v h x v v v M V M n t r r r d d d d l f h h V V C M r r r r 8 8 5 8 f f d f h h h h h h v n ",
"y 6 6 6 d d f s 4 6 6 4 d f d f h v v v h v h v Z Z H C e e e e d f d f x n n n V Z Z V r e r e 3 3 3 6 d f d d v n n v v v v V ",
"y 4 6 4 d d f d 5 7 6 5 d f d f v n v x x x v v V Z H V e 9 e 0 d d d d h h h x V Z H V r r r r 7 3 3 4 d f d d v n n n l l v B ",
"p 4 4 5 d f f d 5 7 7 7 d d d d v h h h h v h v M V N M r q q r d f d f x n l l M V C M r r r r 5 6 6 8 t f d d h v v l l l v b ",
"k d d d h v v h 5 7 4 5 h v h h i r r r l x l h d d d f S I D D m B n V D I I D x h n h r r w r D P P S l h h l f d d d h v v M ",
"v f d f v v n v 5 6 4 5 x n n x s w w r l x v l d d d d U T U I Z Z Z Z I I I I n f n h q q e r U T T U x h l l f d d d v x v B ",
"b d d d g h h h 4 6 6 4 h n n h r 9 w i h x n l d d d d I U U I C V V Z I T T D l l l h e e 9 q D U I L h f l l d d d d h n v V ",
"b f d g x n n l 5 6 6 5 h n n x i r s s h x h h d d d f L I I D N M V V D I I D l h l l r r e t D U U D n l x z d f d d h n b b ",
"b l f l W ) ) ! f q t d l l h n x x x x 5 6 4 w n C n n n n v n j d d g x n x v l v h x D D D D P U P I I I I L x x x x f d f b ",
"V l h v ) | [ ) h d d f l n l l x H L x 5 3 3 7 n C x C h h v h d d d d h h h v v v h x I T T U P P I I I I I I A C C x d d d z ",
"m v h v ) [ [ ) f s d d h l l h M x C n 5 3 3 7 x C C x n v n n d d d d l v v v v v v x D T U T U U U U I L I I x C C M d d d z ",
"B v h v ~ ) _ ~ h s d f x n h n M M C n 5 6 7 8 C C C C l l l h f d d f l v v v v h v v D U D D L D P D I I I I x x M n d d d z ",
"c d d f N Z Z Z N N N N N C V M j d f d d d d d N N A n 5 5 4 8 x C x C x x C x f d d d d r q r t t 0 d ~ _ ) ~ f s f f v n n Z ",
"z d d d n M B M Z A N Z N Z Z V d d d d g f d f N A A N 4 6 3 4 C C C C L x G x d d d d 0 0 0 w 0 0 4 t ) [ [ / f t t f m m x A ",
"z d d d M V V V Z N A N Z Z Z V g d g f d d d d N N Z M 5 3 6 6 x C C C x x C C f d g d 0 q r q r 0 9 q / [ | ) f s f f x C C L ",
"b d d d M N V V N N N N M V V M d d d d d d d g N N S C 5 6 4 5 x C x C x C C x f d j d q q q q r 0 9 d / ) ) ~ f s t f x x x G ",
"B h h l L I I L f d f d v n n h 5 4 4 5 l l h l x C C C d s d d 2 i w w x C C C f d d d h h v h h h l h h h f h M N N n s r r j ",
"V v v v I U U I d d d d h v n h 4 6 6 5 l n l l C x x C f f f d w 2 2 7 M C C x d d d f l n n x v x x v d q q s V H Z C i r r a ",
"b v h v P U U I d s d d x x n h 4 4 4 5 h v l l C C C M f d f d 3 3 3 6 x C C n f f f f h v v l h h v h d d d d V V H C r e r i ",
"B v l v P U I L f d d f h v x h 5 6 4 5 l v l l M x M n f d f d 8 8 7 8 n C C n d d d d l n l n v v v h d f d d C V V C r r r j ",
"G V V M C C C C L I I L f d d d 5 6 4 8 M Z V C d d d d m N m N L L L D M x V x 5 6 4 5 # # # # % # # % M V V M V C Z M n x x H ",
"J Z V V x x x C I U U P d d f d 4 6 4 8 V Z Z V d d d d Z S N A I T T U M n L x 5 3 3 5 # # # # # # # # H Z Z C Z Z V V V C C H ",
"J Z Z Z C x C C I U U I f d f d 3 3 $ 8 V Z Z N g d d d N Z N N I I I P C x x x 3 $ 3 5 # # # % # # # # M V C V H Z H V C C C H ",
"H V V M M n x n L I U L g d f d 8 8 5 8 B N N n f d d d N Z N N L U I P C C x x e 8 5 t # # # # # # # % V V H V M M M M C x x G ",
"b k f d q r r r V Z Z C r e 0 r Z U D D f d f d d f d d M N M V I U U D g j s g 1 1 1 1 1 1 1 1 1 1 1 1 # % # # # # # % l x l B ",
"z d d d 0 r e r M Z V B r e e r U R T U f t f f f d d f V Z V Z D D U I g d r l 1 1 1 1 1 1 1 1 1 1 1 1 # # # # % # # # l x l V ",
"z d f d q r e r V Z H V r 0 0 r D U U D d q d q d k d f V Z V Z U U T D f d s l 1 1 1 1 1 1 1 1 1 1 1 1 # # # # # # # # f n l b ",
"z d f d q q e r M N Z M r 0 0 r D U U D f d f f d d d d M C M V D I I D f d r f 1 1 1 1 1 1 1 1 1 1 1 1 % # # % # # # % l n l V ",
"V h n h 5 4 4 8 h x x z x x x n N N N A ~ / ) W r w e r d g d d   o o o * * * * % * % * < 1 1 1 , - - - - - - ; % & % % : : : : ",
"V n n h 5 6 6 7 h x l x H C C C N N m Z ) | | / r 9 q r d f d d o o o o * * * * * % * % 1 1 1 1 - - - - - - - ; % & % % : : : : ",
"V v n l 3 2 2 3 h x x x x A C C N S N Z ) [ | / r 9 e q d d d d o o o o & = * * % * % * 1 1 1 1 - - - - - - - - & & % % : : : : ",
"b l n f w 5 8 8 v x x x x x n n N N m N ~ ) ] ~ r 0 q q d f f d o o o o * * * * * % * * 1 1 1 1 - - - - - - - - & % & & : : : : ",
"k r 9 t W ( ( ! x h v v q q q t h v h v Z H Z Z h h f h L I L D N N N N + O O O X X @ @ * * % * # # # # : : : : . . . . % # # # ",
"a e 9 t )  . ._ m g x h q 9 0 e l l h v b M V M n v l n I U U U N N N N + O + O X @ + X % % * % # # % # : : : : . . . . % % % # ",
"a r 9 t )  .| _ n h x v 0 9 9 q h v h v C Z N m v v l v I T I I S A Z S O + O O @ X X X * * % * # % # # : : : : . . . . # % # # ",
"a r e t ! _ ) ~ n g v v t t q q v v v v C V V N v h h v L I I I N m V H O O O O O O X X * % * * # # # # : : : : . . . . # # # # ",
"V l l h e 5 8 e h v h v ~ ) ) ! N m N N Z N Z V d d f d r r r r 3 2 2 2 #     O , , , , # # % # : : : : # # # % % % % % < < < < ",
"V l n l 3 $ $ 3 h v h v _ [ [ _ A N N N N C Z C d d d d e q e w $ $ $ 2 O O   @ , , , , # # # % : : : : % # # # % % % % < < < < ",
"V l n l 4 $ $ 4 h m h v ) [ [ ) N N N A Z V Z Z d d d d r e r e $ $ $ $ O O + @ , , , , # # # # : : : : # # # # % % % % < < < < ",
"V l n l 5 8 5 5 l v h v ~ ) ) ~ A m N N C V V M g d d d r r r r 2 2 $ 3 O + O @ , , , , # # # # : : ; ; # # # % % % % % < < < < ",
"b d d f Q ) ^ ! n f v h x A C C N N A N w 7 4 8 n C x x h h h h         & & * * * # # # % % % * % # # # # % # # % % % % < 1 1 1 ",
"z f r h _ | | _ n f v v x x x x N N A n 6 3 3 4 C C C C n n l n         * * * * # # % # * % * % # # # # # # # # % % % % < 1 1 1 ",
"z d t f / | [ ) n g x x x C C x Z S D N 6 3 3 3 x C C C l l v n         * * * * # # # # * % * * % @ # # # # % % % % & % 1 1 1 1 ",
"b d d f ~ ) ) ~ x g z x x C n n N N N n 5 4 7 8 n C C n l v h x         * * * * # # # # % * % * # # # # % # % % % % & * 1 1 1 1 ",
"z f d d V Z Z Z k d d d C Z Z V f f d f D D I S n h l x n l h l D I I D         > > > > X X X X < 1 < 1 = = = = # # # # # # # # ",
"z d d f n M N n d d d d V Z Z V f s t f I T T I l l l l h n l n I U U D         > > > > X X X X < < < 1 = = = = # # # # # # # # ",
"z d d d V C V M f d d f V H Z V d d d f U T T I h h l h n v h n I U U I         > > > > X X . X < 1 1 < = = = = # # # # # & # # ",
"b d f f V Z Z M d d d d C V Z M f d d f D I D D x v l x n h h x D I A m         > > > > X X   + 1 1 < 1 = = = = # # # # & & # & ",
"H M M V L I U D t w q t l l l l N N N n 5 6 5 8 D D I D d d d d f h d h c c c c + O O O & & * & 1 1 1 1 : : ; : = ; ; = # # # # ",
"J V V Z I U T P t w q e h x h h N A S N 4 3 $ 4 I T U I d d g d d s t d c c c c O O O O & & & & 1 1 1 1 : : : ; ; ; = ; # # # # ",
"H M V M I U U I q w q q v v n l N A S N 5 6 3 8 I T T I d d d d s t q s c c c c O O O O & & & # 1 1 1 1 : : : ; = ; ; ; # # # & ",
"J Z V Z L P U L e q q t h l h l N N N n 5 6 3 8 D I I D d d d d h h f h c c c c O O O O & & & # 1 1 1 1 : : : : = ; ; ; # # # # ",
"' / ) ~ n f n b v h h v f d d f d d l d e e q q d f f f d f d f ~ ) ) ~       o @ @ @ @ * * * = # # # # . . . . : : , , * # # # ",
"{ _ [ / n g l l n n n x d d d f d d d d r r r r d d d d d d t h ) [ | )     o   @ @ @ @ * * * * # # # # . . . . : : , : & # # # ",
"] ] [ ) n f l l h h v h d g f f d d d d w 9 w e d f f f d d r f ) [ | )     o o @ @ @ @ * * * * # # # # . . O . : : : : # # & # ",
"' ^ _ ~ n h l l v v v v d d d d d g d d r s r t d d d d f d d f ~ ) ) ~   o o o @ @ @ @ * * * * # # # # . . + o : < : : & # # # ",
"J Z Z Z C M V M D I U J w 6 4 5 L I I I ^ ^ ) ! t 9 q r l l l l h f f f V V n V       O + @ @ @ > < < < ; = ; ; # & & & # # & & ",
"H n B M V Z V Z U U U U 5 3 3 5 I R P T _ [ | ) t 9 e r l n n l d t t d V Z Z Z #   X X # @ @ @ < < 1 < = ; ; ; & & # # & & & # ",
"V Z V V M V Z V D U U L 8 3 3 8 L I P I ( _ ] ^ r 9 q r l n v h d d d j M N M Z O O   @   . X @ 1 < < 1 ; = ; ; & # & & # & & # ",
"K H H J K H H J U Y E Y p 8 u p Y E Y Y ' ] } ` k i a a b V V B b z b b H H G K +   @   @ .   # < 1 < 1 ; ; = ; & & # & & & # & "
};
