/* XPM */
static char *result[] = {
/* columns rows colors chars-per-pixel */
"64 64 93 2 ",
"   c #34111C",
".  c #37211E",
"X  c #39201C",
"o  c #391520",
"O  c #3C1E21",
"+  c #3C2522",
"@  c #3E2823",
"#  c #5B3E35",
"$  c #3E7E23",
"%  c #5D4037",
"&  c #5E4139",
"*  c #62443B",
"=  c #775346",
"-  c #7A5648",
";  c #7D594A",
":  c #676C6B",
">  c #805B4C",
",  c #917266",
"<  c #957669",
"1  c #3F8023",
"2  c #448526",
"3  c #468926",
"4  c #498B27",
"5  c #468628",
"6  c #4A8C28",
"7  c #469425",
"8  c #4A9627",
"9  c #4D9B27",
"0  c #479528",
"q  c #4B9529",
"w  c #4D9A29",
"e  c #509E27",
"r  c #519D2A",
"t  c #4E8C32",
"y  c #518F33",
"u  c #4F9931",
"i  c #529233",
"p  c #559D34",
"a  c #56A42C",
"s  c #59A62D",
"d  c #56A92D",
"f  c #5CAB2E",
"g  c #57A035",
"h  c #5BA436",
"j  c #5EAD31",
"k  c #5FAA38",
"l  c #5FB234",
"z  c #5FB538",
"x  c #67A537",
"c  c #60AE32",
"v  c #61AB38",
"b  c #61B334",
"n  c #68B735",
"m  c #65B836",
"M  c #6ABA36",
"N  c #65B53A",
"B  c #68B53B",
"V  c #64B939",
"C  c #6ABA3B",
"Z  c #65C038",
"A  c #6FC039",
"S  c #75C33D",
"D  c #78C43F",
"F  c #67AD42",
"G  c #6CB744",
"H  c #6CBA43",
"J  c #71BD44",
"K  c #76BE4E",
"L  c #76C341",
"P  c #7AC641",
"I  c #7DCA43",
"U  c #82CD45",
"Y  c #81C74A",
"T  c #84CB4D",
"R  c #84D147",
"E  c #85D148",
"W  c #88D04F",
"Q  c #96D754",
"!  c #97D855",
"~  c #9ADB56",
"^  c #9DDE59",
"/  c #A0DF5C",
"(  c #9FE05A",
")  c #A4E35D",
"_  c #A8E55F",
"`  c #A3DF61",
"'  c #A5E262",
"]  c #AAE565",
"[  c #AEEA64",
"{  c #ACE668",
"}  c #AEE869",
"|  c #B1EE65",
" . c #B2F066",
/* pixels */
"K H G J ` { { ' J C J H v k k k c x h v N N B N p p p p N B N v v v k k H J H H N v B B v v v v v N B v c x j k y 6 t i B B B G ",
"N C N C ^ _ _ / C N C B s a s a a s s a f c b f w w w w f b c j a s a s n C C B c c c f s r a s c c c j a a a a 4 4 5 4 j c j j ",
"H B N C ) [ [ ) C b B N a a a a a e a e c b m j 0 7 7 0 b b b b s h a s B C C B f f f f a a a r f f f s a a d a 5 5 5 4 f b j F ",
"J N N C ~ ) ) ~ C N C B s a s a s s s s j f j f r w r r f c f f a a a a V B C N c c b c a s a s c c b c a a d a 4 4 5 6 f b l B ",
"H C C B z b j b P I P P N N b B ~ ( _ Q 8 2 2 8 ! ) ) Q 0 2 3 6 w w w 9 b V z V P I P D m N b C ~ ) ) ! c s c f a a a a f l j B ",
"J C B B f d d f I U I I C C N C _ [ | ) 4 $ $ 6 _  .| ) 4 $ 5 3 q w w w z V z N I U U I C C B C _ _ | ) b f b f a a a a l c j N ",
"H B B V l j f b I U U U C B V C _ [ | / 4 $ $ 6 ) | | ) 4 1 5 5 0 w 0 w l V z b I R U I B N b C _ [ | ) b f b c s s s s j j c B ",
"J B C B j j j l D I I P V N b C ~ ) _ ~ 6 2 2 8 ! _ _ ! 6 5 4 4 w w w w b V b V P D I D C B m C ~ ) ) ! c s c f a a a a j j j B ",
"E D I D j j b j r 9 9 9 s s a s c b b c f f f f c b b b f f f f N C N V D I I D f s d a M M C M s s f s 4 3 6 6 3 3 3 6 a a a v ",
"T I R D b f b j q 0 0 8 a a a a s f s f b b c c f f f f b b b b V C C C I U R P a 9 a a M A A M a 9 a 9 3 5 5 3 5 3 5 4 a s a v ",
"W R R R c f b f w q w 0 a a a a c c f f f f f f l b b c j c f b C C C C U U U I a a a a M C M M a a d a 3 2 3 3 3 5 5 3 s s s k ",
"Y P D S b f c f w w w w a s s a f c j l b c c c f f j j j j j j N N N N D P I D a a a a M C M M a a a a 4 3 4 4 4 4 5 6 a a a k ",
"i 6 6 6 a a a s f f f f m B B C z z l V ~ ) ) ! a 7 8 9 z m V z 9 w w w s s a a f l f j M M C N f j j j f f j j a a a a 8 9 9 p ",
"t 2 2 5 a s a a c c b l V C C C V V l V ) [ | ) 9 7 8 9 z V V z w 8 8 w a a a a j b j c C V C N j c l j c b b c a a f a 9 q w p ",
"t 5 2 2 a s a s f c f j B C C C z z z V ) [ [ ) w 7 8 w z m m z 8 7 q q a f s a c b b b V C C V j j j j b j b j a a a a 9 q w p ",
"i 6 6 6 a s s s f c j l B B B B m b l m ~ ) _ ! r 0 w 9 z V m z w w w 9 a a a a f j f f N B C N l c f l j j j f a a s s 9 9 w p ",
"Y P P P f a a a M M M M s s a a M M M M A M S M f f f c n M M M D D U S 6 2 4 6 3 3 3 6 a s a d b m m z 9 w w w j j f f c f f N ",
"W I R I s a a a M A A M a a a s M A C M M M n n c c c c M M M A U U E P 4 2 3 5 5 3 5 3 a a a a b Z z z w q q w f b c b b c c B ",
"T I I P d a a g M A S M a a r a M A A C M A M M c j j j M n n m U U U I 3 2 5 3 3 5 5 3 a a a s V V Z m q q 9 9 f c c f j j c B ",
"T I R P a a a a n n n n s a a s M M M m M M M M f j j b M S M A D D U S 7 5 6 6 4 6 4 4 a s a a z z N l w 9 9 9 f c f b j j j B ",
"' ( _ ^ r 7 9 9 4 4 3 4 D I I D 6 2 5 0 V C C C N N b C ~ ) _ ! f a a s N N N N f f c f a s s a 6 3 4 6 f f f c f l j b N B N H ",
"{ ) [ / r 7 w w 5 5 1 4 I R R I 4 2 2 4 N C N B B C N C ) ] | / s e e a C C C C b c c c a a s a 3 5 2 3 c b c c j j j j C C C J ",
"} ] | ) w 7 w w 3 2 $ 5 I R R D 4 $ 2 5 B C C C B C N C _ | | ) f e a a B C C m c f c f a a a a 3 5 2 3 j c c c f b f c V H B J ",
"' ~ ) ! r 7 9 w 4 4 4 q D I I D 6 3 5 6 V C N V N N N C ~ / ) Q s e a a m B m n c c c f a d s s 3 3 5 6 f c f f j j j b V B B H ",
"g 9 9 r a a a a S P I P l j j j b N b z a d a a f c c f 9 9 r r a s s a s s a s z b V N m M M M V b b z a a a s N C C N j j l B ",
"u 0 0 q a s a s I R E P j f j j V V V m a a a a f b b f 7 7 7 0 s s a a a a a a N V z V M C M M V V V V a a a d N C C N j j j B ",
"p w q w s s r s I R R I j f j j m z V z a a g s f f f f w q w q r s a a a a r a V V m m A A A A V z V z a 9 9 a C H C C j j j B ",
"p w w w a s a s P P P P b f j l z m V z a a a s c c b f 9 8 w w s s a s s s a s z b z b m n n n z N b z s s s f b N V N j j b v ",
"N j j f s a a a s s s s j l b f l f b f w q q 9 S I D D s a a a N V N N n M M n a a s a 4 3 5 6 f l f b P P I P w w w w N V z G ",
"B j b l s a s a a a w a f l j b f l b f w w q w I R U U s a a s C C C C C C S M a a s a 5 2 2 4 j l f j I R E P 9 0 q 9 z V m H ",
"F l l j r 9 a a a a a s f f f f l f b f 9 w q r D U U D s a a s N V N N M M M n s d s a 3 5 5 5 f b j b I U U D w 0 0 9 V z z L ",
"B j j j f s s s a a a a l b b c c b b f w q 0 w D U U D s a a a B C C C M M A M a a a a 4 4 4 6 f b f c P I I D w 0 w 9 z z z H ",
"x a r f / / / / f e a s D I I D         1 $ $ 1 m A M M o o o o P I D I D D U S 4 5 3 4 c b z l d a a s N C C N s a a a 9 w 9 p ",
"k s e f / | | / f e e s I U U I         1 $ $ 2 n M A n o o o o I U D U U U U P 4 2 2 4 V Z V z a a a a N C B N s s s a 8 q q p ",
"k a e s ) | | / s e e a I U I D         2 $ $ 2 M M C m o o o o I U U U P U U P 3 $ 3 3 N V V z a a a a N C V N a a a a w w w g ",
"v s e s / / / / f e a f D I S M         1 $ 1 3 M S A V o o O + S U S D P P U P 4 3 3 6 z V m z a a a s B C C M a a s a w q w p ",
"H m B b o       x x x x         & * * * O O #   + O O + * * * * a d a a m V N z z z l z z V z N c f f b D I I D c f b f 5 3 3 i ",
"J C C B o o o   x x x x         & & * * O O     O O O O * & * * a a a a b N z z V V V Z m z V z b c f c P U R I b f b f 6 5 4 t ",
"G V C b   o o   x x x x         * * * * + O   # O O O O = & * * 9 a e a V V V V m z V V V V V N f b f b I U U I f f l f 3 2 5 t ",
"J C C C   o     x x x x         * * * * O O   O O O + O * * * * s f s f b b l z z m z b z z b b b f j b D I D D b f b j 4 3 6 i ",
"O O + O + @ @ @ O O O O : : : : * % # # > > > > . + . + & & & & < < < < 6 3 4 4 a s a s s s a s f j j b c c j c V B C N j f j v ",
"o O   O @ @ @ @ O O o O : : : : % % # # > > > > + + + . & & & & < < < < 6 $ 2 5 a s a a a a a a j b j j f f f f C C C N b b b B ",
"O O   O @ @ @ @ O O O O : : : : % # # # > > > > + . + . & & & & < < < < 4 $ 3 3 a s a a a a s s j j f j c c c b C C C C j j c B ",
"o O + O @ @ @ @ O O O X : : : : # # # # > > > > . + . @ & & & & < < < < 8 1 4 4 s s a a a a a a j b c b f f f f b B B N j j j B ",
"@ @ @ @ * * * * % * % % X X X X % * * % # # # # & * & * < < < < < < < < * % # # j f j f 9 9 0 9 D I I D w q w w w r w r f j f B ",
"@ @ @ @ * * * * * % % * X X X X * % % * # # # # & * * & < < < < < < < < % % # % c c b f w w q r I U U I w 0 w w q q 0 q f c c v ",
"@ @ + + = * * * % * * % X X X X % * * % # # # % & & & & < < < < < < < < % % # # j c b f w q 0 9 P I U P w 7 q q w 9 9 w f c c N ",
"@ @ + + # * * * * * % * X X X X % * % * % # # # & & * * < < < < < < < < # # # # j j b f w w 0 9 P U U P r w 9 r q w 9 9 c c c v ",
", , < , # # # # , , < < < < < , # # # @ = - ; ; % % % % - = - = < < < < # # # # c f c f w q 7 e P U P I P P I S 4 2 2 6 B C n J ",
", < < < # # # # , , < < < < < < # # # # - - ; ; % % # % - = = ; < < < < # % # # c c c f w w 8 9 P U P I U U R P 4 2 2 6 B C N J ",
", < , < # # # # , < < < < < , < # # # # ; ; ; ; # # # # - = - - < < < < # % % # c f c f 0 7 7 7 P U I I U I U P 4 2 2 4 N C B H ",
"< < , < # # # # < < < < , , < , # # # # ; ; ; ; # # % # = - = - < < < < # # # # c f c f r w 9 a P U I P P P U S 4 5 3 4 B C C J ",
"- - = -   X . . > - - ; = = = = # # # # # # # # = ; ; ; = = - = & # % # B m B N s a a s ~ _ ) ( I P U P c j c f a a a a M M C L ",
"- - - - . + . . - - > - = = = = # % % # # % # # ; ; ; ; - - - = % % # # C C C N a a e s ) | ] ) I P I P f f j f s s a s M C M J ",
"- = - - . . . . > - ; ; = = = = # # % # # % % % ; ; ; ; - - - - % # # % C N C m a a 9 s ) [ [ _ U P U I c f c c a a a a M S S L ",
"= - - - . . . . - > - - = = = = # # # # # # % % ; ; ; ; = - = - # # # # V N C n a a a f Q ) ( ! P P I P f f c f a a a s m M n C ",
"& & % & > > > > = - = - # # # # % % % % % % % % . . . . % & & & # # % # V C B B N N B N s s a s z V V l s a a a j j j f 4 3 3 i ",
"# % & % > > > > - - - = # # # # % % % % % % % % . . . . % & & & # # # # B B B C C C C C a 9 9 a z m z z a a a a j l b f 3 3 5 6 ",
"& # & % > > > > = = - - # # # # & & & & % % % % . .   . % % & # % # # # V C C V C C C C a a a a m V V V a a a a j b b f 3 5 5 y ",
"& & & & > > ; ; - - = - # # # # & & & & % % % % . . + + % % & # # # % # V C B B N N n b s a a a l z b b a a a a j l b f 4 5 4 i ",
"# # & % # % # # # # # # # # # # < < < < , , , , % % % # ; ; ; ; f f j j b N V l w w 8 r z z m z d a a s f b f j f c c f a a a j ",
"& & % % % # # % # # & # # # # # < < < < , , , , % % # # ; ; ; ; b l l j V V V z 9 0 8 q z Z V b a a a a j c b c f c c f a s s v ",
"% % % % # # # # # & # # # & # # < < , , , , , , # % % # ; ; ; ; f b j j z V V z w w 0 w z m z z s s a a c v c c c c c c a a a a ",
"% % % % # # & # # # # # & # & # < < < , , , , , # # # # ; ; ; ; N N B V G H H B g g g g G A H G k h k j B B v B B b B v v k v F "
};
