/* XPM */
static char * tree_xpm[] = {
"73 64 53 1",
" 	c #FFFFFF",
".	c #000000",
"+	c #282828",
"@	c #020202",
"#	c #050505",
"$	c #262626",
"%	c #151515",
"&	c #030303",
"*	c #090909",
"=	c #FEFEFE",
"-	c #0B0B0B",
";	c #111111",
">	c #0C0C0C",
",	c #292929",
"'	c #131313",
")	c #070707",
"!	c #333333",
"~	c #1E1E1E",
"{	c #2F2F2F",
"]	c #010101",
"^	c #2C2C2C",
"/	c #040404",
"(	c #141414",
"_	c #242424",
":	c #080808",
"<	c #1B1B1B",
"[	c #EBEBEB",
"}	c #0E0E0E",
"|	c #D9D9D9",
"1	c #171717",
"2	c #181818",
"3	c #EDEDED",
"4	c #0D0D0D",
"5	c #232323",
"6	c #EEEEEE",
"7	c #252525",
"8	c #1A1A1A",
"9	c #E4E4E4",
"0	c #191919",
"a	c #EFEFEF",
"b	c #0A0A0A",
"c	c #101010",
"d	c #121212",
"e	c #060606",
"f	c #2A2A2A",
"g	c #202020",
"h	c #1C1C1C",
"i	c #212121",
"j	c #222222",
"k	c #D3D3D3",
"l	c #E3E3E3",
"m	c #E7E7E7",
"n	c #454545",
"                                                                         ",
"                                                                         ",
"                                                                         ",
"                                                                         ",
"                                 .          +                            ",
"                                  @     .  #                             ",
"                             $    %   &@. *                              ",
"                           ..=-  .;.   .  @                              ",
"                            ...>    ...   ..                             ",
"                             ... #   ,.   .                              ",
"                             ..' .    .@  )         !                    ",
"                              ..~.    #. &     .   ..{ ..                ",
"                             -]...    #. .    ^    .. ..                 ",
"                               ...  ~  ...   @    ..  .                  ",
"                       .       ...  ]& ..@..)/;). .   .                  ",
"                        ]       ..    .(..      .. _.:.                  ",
"                        .:<....... ...(#%.  $. ].. #                     ",
"                        ......[<..  ......   ... ...                     ",
"                              .==..:}.|.'...].1                          ",
"                              '.....2.3....        .                     ",
"                       ]    ...  .....43..    <   ..                     ",
"                          @, ...5 ..6.=(..     &  . .   ..               ",
"                     <     7   ..{=../> ... %  @4.  . -.                 ",
"                  ']   . ... &.....]... ...).:...    ..     %            ",
"                / /@  ]    .   .   .... ...83/.......      .9            ",
"               @0..3.  '   . .      ... ...a#.-     b... ...             ",
"               ]' .4.  :]  .       /..  ..3].)b        ...               ",
"               ..  5     . .     .@... ....].c.&         ...             ",
"               ~..  :.    ..        .. ....    d..                       ",
"                 .]e  .@]  .        .. ...       .                       ",
"               >0#.   .f    ..      .. ...        4                      ",
"                  ..  ...   ...    <.. ..                                ",
"             ../--.... .g.-   ...  ......  h/@/                          ",
"              ....   &.   .. .@  ]......../h#      .                     ",
"            b .....d.#........     .....    :&:.  ....                   ",
"                ).       i....&    ....      d  .. ..                    ",
"                             ...(  ....     ~                            ",
"                           e)b  ........    4                            ",
"                                 ]........                               ",
"                                  ...... .                               ",
"                                   ...]                                  ",
"                                  .....                                  ",
"                                  .....                                  ",
"                                  .......j#                              ",
"                                 *..... be                               ",
"                                  .....                                  ",
"                                  k.......                               ",
"                                  ......                                 ",
"                                  .....                                  ",
"                                  .....                                  ",
"                                   ....                                  ",
"                                  !.....                                 ",
"                                  ......                                 ",
"                                  l.....                                 ",
"                                  *.....f                                ",
"                                  .......                                ",
"                                  .......                                ",
"                               m.........                                ",
"                             g................)                          ",
"                        /$/...........&..........                        ",
"                             n                                           ",
"                                                                         ",
"                                                                         ",
"                                                                         "};
