/* XPM */
static char *result[] = {
/* columns rows colors chars-per-pixel */
"64 64 162 2 ",
"   c #010500",
".  c #030B01",
"X  c #120D07",
"o  c #160F08",
"O  c #061302",
"+  c #091504",
"@  c #071802",
"#  c #0A1C03",
"$  c #16130C",
"%  c #1C140B",
"&  c #101D08",
"*  c #1D1A11",
"=  c #22170C",
"-  c #23190E",
";  c #2B1D0F",
":  c #241D11",
">  c #2B1F10",
",  c #0D2504",
"<  c #0E2A05",
"1  c #0F2A08",
"2  c #142006",
"3  c #102D05",
"4  c #13250A",
"5  c #162A0B",
"6  c #182E0D",
"7  c #0F3205",
"8  c #123306",
"9  c #153B07",
"0  c #123008",
"q  c #1B350E",
"w  c #143D08",
"e  c #1A390B",
"r  c #1C2710",
"t  c #242117",
"y  c #2C2213",
"u  c #272419",
"i  c #2A271B",
"p  c #2D2A1D",
"a  c #332514",
"s  c #352916",
"d  c #3A2A17",
"f  c #332C1C",
"g  c #392D1A",
"h  c #233114",
"j  c #213F12",
"k  c #3E321D",
"l  c #332E21",
"z  c #363223",
"x  c #3A3626",
"c  c #3E3826",
"v  c #412F1A",
"b  c #44351F",
"n  c #423F1F",
"m  c #463821",
"M  c #4C3C22",
"N  c #413C2A",
"B  c #513F24",
"V  c #164107",
"C  c #184507",
"Z  c #164409",
"A  c #194509",
"S  c #174909",
"D  c #1B4C09",
"F  c #1E540A",
"G  c #1E590B",
"H  c #20560B",
"J  c #215B0B",
"K  c #2B4716",
"L  c #244A11",
"P  c #2B4C16",
"I  c #2F451B",
"U  c #2B4E19",
"Y  c #255712",
"T  c #2A5216",
"R  c #255C11",
"E  c #2C5419",
"W  c #2F5B18",
"Q  c #305E1A",
"!  c #23620C",
"~  c #25680D",
"^  c #2D6416",
"/  c #336519",
"(  c #366D1B",
")  c #3B6D1E",
"_  c #35741A",
"`  c #3A721E",
"'  c #3C7B1F",
"]  c #3A5221",
"[  c #3A6D20",
"{  c #3E7323",
"}  c #3E7D21",
"|  c #434421",
" . c #4A442C",
".. c #544226",
"X. c #584627",
"o. c #594728",
"O. c #5C4B2B",
"+. c #5A532A",
"@. c #4B4530",
"#. c #516E2E",
"$. c #407622",
"%. c #427F22",
"&. c #577531",
"*. c #3F8023",
"=. c #3F8E22",
"-. c #458526",
";. c #468926",
":. c #498B27",
">. c #468628",
",. c #478928",
"<. c #4A8C28",
"1. c #459325",
"2. c #499627",
"3. c #4D9B27",
"4. c #4A9629",
"5. c #4D9A29",
"6. c #519529",
"7. c #58952D",
"8. c #519C2B",
"9. c #599F2E",
"0. c #599431",
"q. c #618936",
"w. c #68903B",
"e. c #56A42C",
"r. c #59A62D",
"t. c #57A92D",
"y. c #5CAB2E",
"u. c #5CA434",
"i. c #5EAE31",
"p. c #5EB234",
"a. c #60AF2F",
"s. c #66A436",
"d. c #60AF31",
"f. c #61B234",
"g. c #68B736",
"h. c #62B837",
"j. c #69B936",
"k. c #66B639",
"l. c #68B73A",
"z. c #64B939",
"x. c #6ABA3B",
"c. c #6FC03A",
"v. c #76C33E",
"b. c #78C53F",
"n. c #75AA42",
"m. c #77C440",
"M. c #7AC641",
"N. c #7DCA43",
"B. c #81BA48",
"V. c #81CD45",
"C. c #84D147",
"Z. c #85D148",
"A. c #97D957",
"S. c #9ADB56",
"D. c #9DDE59",
"F. c #A0DF5A",
"G. c #A4E35D",
"H. c #A7E560",
"J. c #A9E660",
"K. c #AEEA64",
"L. c #B1ED66",
"P. c #B1F066",
/* pixels */
"r.e.e.r.M.N.N.M.4.-.-.<.m.C.N.N.r.e.3.t.D.G.G.G.x.f.x.k.e.e.e., D a.p.i.5.4.1.8.D.J.G.F.V.M.Z.M.<.-.-.,.M.V.V.M.z.k.x.z.l.k.k.l.",
"r.r.e.r.M.Z.Z.N.<.-.-.<.m.N.N.N.e.e.e.e.D.K.G.G.H ! 3 d.3 3 ! , 6.$.w i.5.4.1.3.I   . O . D N.M.4.>.>.,.M.N.N.N.x.k.z.x.l.x.l.x.",
"e.e.3.r.N.N.N.M.<.-.-.,.M.Z.Z.N.r.e.3.r.G.L.K.G.. H ! . F F ! # . f.D # # O V 1   D G G F   5 s.<.>.-.,.N.C.V.N.x.k.n.z.p.p.k.k.",
"t.e.e.r.N.N.N.N.<.>.-.<.m.N.N.M.r.e.e.y.S.h h L . J H . F F 8 3 / , V 8.1.. . S . V n.n.A   D D <.>.>.<.M.N.N.b.l.k.z.z.m.c.n.k.",
"k.k.p.z.N.N.N.N.e.e.8.e.k.x.x.l.j.j.j.j.y.4 4 A . J F . F F 8 < W , Z 3.4.. . D   Z } } S   D D e.e.e.e.i.i.p.a.f.i.t.f.A.G.D.D.",
"x.z.n.x.N.N.N.N.t.e.t.r.k.z.k.l.c.j.c.j.e.' -.. 3   D F J ! 3 < F F W @ # # . 9 O .     < 1 7 S r.r.r.r.i.i.y.i.i.i.t.p.G.K.H.H.",
"x.x.l.x.N.N.N.M.y.e.r.r.x.x.x.x.x.c.c.j.e.J ! # ~ . 8 <     . J Z Z O @ @ , 7 # w w R ! S ! G . e.r.e.e.i.k.f.f.i.i.t.p.G.K.H.H.",
"z.l.k.k.N.N.N.N.e.e.e.e.k.l.l.k.j.j.j.g.r.! ! G 8 C 2 O F G J O F . V < < O O O   Z @ @ / 7 F   r.e.e.e.t.y.y.y.d.i.p.p.A.H.D.D.",
"y.a.t.a.S.G.G.S.6.%.<.<.<.<.<.:.e.e.e.e.k., , < D ! F . V V F ! Z . O .   . 1 . # 7 9 9 , S x.1 y.y.a.y.4.5.4.5.m.N.N.M.x.x.x.x.",
"y.a.t.p.G.K.K.G.<.} >.>.;.-.-.;.e.r.e.e.z.U U 9 9 . C   9 9 , D w @ . # , . # <   @ 7 < 8 8 S D d.d.f.y.5.4.5.3.N.C.Z.M.k.f.k.k.",
"d.d.y.p.G.P.P.G.6.} -.>.;.;.-.-.8.r.e.e.i.  .   F J .       . , S ! T . . 7   ! O # . O K Z   i.y.d.p.y.3.5.2.4.N.V.V.N.x.l.l.l.",
"i.i.t.y.A.G.H.D.6.-.>.>.>.:.:.:.e.t.e.r.s..     F ! .       . , D ! T . . <   J . @ O . K Z   u.y.d.p.i.5.4.3.3.v.N.N.M.l.k.k.l.",
"y.i.d.y.8.5.8.8.p.z.k.f.y.y.t.y.v.O v.M.< ! ! J   D F . G G ! O . . . D D F < D ! . S S ! # A S F x.x.k.e.e.8.e.k.x.x.k.r.e.e.e.",
"d.d.f.y.2.1.1.1.h.z.z.z.f.f.a.a.N.C.. D F e e J . H V   D D   . . F < 8 8 7 . . 4 F 7 w . # Z ^ k.Q Q l.r.e.r.r.k.x.x.f.r.e.e.e.",
"y.i.a.y.4.2.2.4.k.z.z.z.y.y.t.y.b.! < 8 D # # < <   O F     . < < . 9 G G . ! .   G F S   w 1 # k.x.x.l.r.e.e.r.k.k.h.k.r.r.e.e.",
"i.a.f.i.5.5.5.3.p.h.f.f.d.d.a.f.b.! G J F @ @ F ! . 8 D D D   G G   D F F O C < S , G F . S G # 1 0 0 k.r.e.e.r.z.x.x.k.e.e.u.e.",
"M.M.M.M.M.M.N.m.5.4.4.8.A.H.G.S.x., A C %.  . , < . #   D F   V <     < 1 D   , @ . , , . q < S < Z w p.i.i.u.p.S.G.G.D.y.e.r.e.",
"N.V.V.N.V.V.Z.N.3.1.1.3.G.L.K.G.x.f.6 f.A C C # V D <   9 9 V . w S . C C   . 9 , . S S w r.. . R p.n.p.i.d.t.f.G.K.G.G.y.3.r.e.",
"V.V.V.V.V.V.V.V.2.;.;.4.D.L.K.G.x.k.6 k.V D C # w D 1   9 9 V O w D . D D     9 # . S S V u.  . R p.p.p.i.i.u.f.G.K.P.G.y.3.e.e.",
"M.b.b.M.b.b.N.b.e.6.5.9.A.G.G.D.x.. 6 8 # 8 9 w , / ,   , , 8 9 , . #     . #   7       7 . O w 1 *.=.z.i.i.t.f.S.G.G.S.t.8.r.e.",
"5.5.5.5.J Q ) [ q.  R W D 6 9 9 T 3 H   F     w       D J J 3   w         D   H ,   8 <   J O 3 w     & 1 L F & <.>.<.<.i.f.y.i.",
"4.4.2.2.H A p.8 8 H J w.. H H H 8   J . . J J H 8 F J   D C 3 H F 8 D J J H . . J   F F 8 D F H , F F G w G Z Z . . . V + f.f.d.",
"5.4.2.2.J T p.8.B.D D H . 3 D H . . D H . V V H   D D . H H . 3 D . D D D 9 F . G . D D   D D D   S S S Z   F w C A # -._ g.f.i.",
"5.5.3.8.. 1 R , 2 . 3 H # D O . 2 3 9 H # 8 8 + +   + + 8 8 4 9 4 . . O O 8 J . C . 3 3   . . V 1 w w w 1 O q # 1 3 7 < < p.y.y.",
"k.p.z.z.. F D H H   & ! J J .   ! 3 8 ! H w 9   ! . . H   . J J   ! O . O 9 J J 3 A # + ! O . 8 G F G 7 < 1 O L # # 8 D D 1.5.5.",
"n.c.n.m.. F D H H   2 ! J J . . ! 3 8 ! H 9 w   ! . . H   . J J   ! . . O 9 ! H 3 D + # ! . . 8 G F F 1 < 1 . S # # 7 S S 1.5.5.",
"p.m.z.z.. 4.x.<.( 3 D , 8 D 3 3 D J   1 3 ) ) 3 D 3 D D . . D D 3 D 3 D D # < 3   . , , D 3 D . S . .     O . O &.&.#.q.O =.5.4.",
"z.p.m.p.J x.x.F F C 3 ) J . J J   . F . J . . H . C 3 J J J .   J . V , , 8 . . ,   H H . , . . . S S G . D G   G G w . 1 1.5.5.",
"z.n.n.z.O , k.1 3 , H . D D       D .   D H H     2 H D D D . J     D , 4 F . D J   # ,   D , G   w w w G 0 w ,     S ` S p.i.i.",
"z.z.z.z.Z L L J J ] 3 r j # H H 3 8 J     D D 9 <   H 8     3     2   D D 8 . 3 C   # # , O F   1 0 7 1 Z       G G G @ R p.p.p.",
"z.z.z.z.*.# k., , J +   D # 3 3 . A 3   D     8       D J J 3   w         F   . D 3 J F 3   1 J       D   G D 0 e Z G D Y f.p.i.",
"z.n.z.m.G k.4.D D D J . 2 H H H , 8 H . . J J 9 3 D J   A D 4 F D . H     9   D <   < 1   H   1   O . D G Z +   , , # -./ p.i.i.",
"a.y.f.y.F 3.' D D A J . 5 H D H < 8 H . . J J 9 8 D J   D D , F D . J     8 . D 1   < 3   J   <   O . D G Z +   , , , ,.^ e.e.e.",
"y.p.a.p.D 3 2 F D   K J . A 3 3   2 A H   H H 8   A D   A V   D F 3 D J J , # . J   D D 3 D J F . 3 8 8 V     + A Z O 1 } e.e.e.",
"f.d.a.y.D F H H J   . J H 3     C   8 D <     , 8   #   A A 4 8 3     .   # H   H   D A   D D V O . . 1 7   F O 1 1 5 1 5.e.e.e.",
"i.d.f.y.<.2.8 3.b.e D 3 3 . # # D # 3 C F 3 < 4 D .   H     J J   J   , , 3 F 2   H     8 . 2 8 , F G V F . 1   F F S S e.e.i.e.",
"f.k.k.p.    u.D D A 3 4 J . H H . 2 . . & 3 , # D 5 D D .   A D + D   D F F A F 1 C F F J . . 9 w Z Z 8 1 1 w D S S   8.z.z.h.z.",
"h.z.p.k.  3 8 , 4 9 H _ D H       A H O D + + #   A 3 J J J   5 F   , .   1   O       . D 1 D 1 @     G , 7 { S . O n.z.n.c.x.z.",
"z.z.z.z.l.x.l.J J T 3 H . C q q , . 3 -.V H H P 8., H D H H   J     D , 2 H . H .   D D L V E 1       Z S 7   N.p.p.p.p.x.z.x.n.",
"k.h.p.p.l.l.l.J J P 3 L . A q q , . 3 >.A H H T 8.4 H D H H   H     C < < H . H     D D j V E 5       S Z 8   m.z.k.z.h.k.z.z.z.",
"5.5.5.5.k.x.x.k.r.e.e.r.y.f.i.d.f.d.f.6.. D D 8 7 O 8 w X X 3 .   , # H F A . D H   9 8 Q C , S H @ O 8   r.e.t.m.N.N.M.p.i.i.i.",
"5.5.2.5.k.x.n.l.r.e.e.e.y.y.d.a.i.i.a.y.t.r.r.t.z.z.z.p.$ $ o o & 3 . 3 1 S *   A   8 8 , 3 D 0 w < < i.e.e.8.e.M.Z.V.N.i.i.i.i.",
"5.5.2.4.h.m.c.p.8.3.3.e.a.f.a.a.f.f.f.p.r.e.e.r.p.z.m.p.: = o o X ; % o o $ : l a.d.g.y.:.-.< S i.p.i.i.e.e.e.e.N.V.V.N.d.i.i.i.",
"5.5.4.5.k.x.z.z.y.r.t.t.y.y.y.y.y.y.y.y.e.e.e.e.p.z.p.p.o o o a = a = = * * * : y.y.f.y.<.>.;.;.i.f.f.y.e.e.e.t.m.N.N.m.d.r.i.i.",
"p.p.h.p.e.e.8.t.A.G.G.S.e.1.5.5.5.5.5.3.e.e.e.e.p.z.z.z.o $ = a ; a - - - $ i l t.e.e.e.e.e.e.e.k.l.k.l.j.j.j.j.l.x.x.l.r.e.e.e.",
"z.z.z.h.e.e.5.r.G.K.K.H.8.=.5.5.2.5.2.2.e.r.e.r.p.z.z.p.; ; y ; o d ; % % f u l r.e.r.e.r.r.e.r.k.x.x.x.j.j.v.j.l.k.k.k.e.e.e.e.",
"z.z.z.h.e.e.3.t.D.K.K.G.5.1.2.2.2.2.2.3.e.e.e.e.p.z.k.k.> : y ; % d ; % = l u l r.e.r.r.e.e.e.e.k.x.k.x.j.v.x.j.k.f.k.f.e.e.e.e.",
"z.p.f.p.e.e.e.t.D.G.G.D.8.2.3.e.5.3.3.6.e.r.e.e.k.h.f.f.$ % y b > > > a a p x N e.e.e.e.r.r.e.e.k.x.k.k.j.j.j.x.x.x.x.l.r.e.e.r.",
"t.r.e.e.p.z.p.z.m.N.N.N.m.N.N.N.M.M.N.M.d.y.i.i.i.d.i.d.a a y s y y - s a u l l ,.-.>.<.p.p.z.p.i.i.p.y.e.e.e.t.S.G.G.D.a.y.a.y.",
"e.e.e.e.p.z.n.z.m.N.N.N.N.N.N.N.V.V.V.N.f.i.f.i.i.i.p.i.a a > y a a $ y a p c x ,.>.>.>.p.m.z.p.i.i.f.i.e.e.3.t.G.L.G.G.f.y.a.d.",
"e.e.e.e.k.z.h.h.N.N.N.N.N.N.N.N.V.V.C.N.d.i.i.p.i.i.i.y.a s : % - g a > : : i N ,.-.>.>.p.m.h.k.i.i.i.i.e.r.e.t.G.K.K.G.d.t.a.i.",
"e.e.e.e.h.p.p.f.m.N.N.N.N.N.N.N.b.M.N.m.i.i.i.i.i.d.f.p.: : - M a M s s f u * p <.-.=.1.p.p.k.p.i.i.f.i.e.e.3.r.S.G.G.S.d.r.i.y.",
"p.i.i.i.r.e.e.e.y.f.i.d.m.N.N.N.e.4.5.5.i.i.i.i.M.N.M.M.- : - B g B g m b t z z i.i.i.i.5.5.5.5.i.p.f.y.<.;.;.:.a.k.f.a.r.e.e.r.",
"p.i.f.i.e.e.e.e.y.y.t.i.N.N.N.N.4.1.2.2.y.f.t.i.N.V.V.N.- : % B g B g m m t z l i.p.f.i.5.4.4.5.y.f.f.y.:.-.-.;.r.y.y.t.e.r.e.r.",
"i.p.i.p.e.e.e.e.d.d.y.p.N.N.C.N.8.2.5.5.y.y.t.p.N.V.V.N.s s k m - B g > > p l x i.d.d.i.5.2.2.5.d.f.f.y.<.-.;.<.y.f.f.a.r.r.r.r.",
"i.i.i.i.e.e.e.e.i.y.y.p.M.M.N.b.6.2.5.5.y.f.p.p.v.N.N.M.: : k m : g g v b c @.N y.y.i.i.5.5.5.8.i.i.f.y.:.;.>.<.y.f.y.y.e.e.e.8.",
"d.y.i.y.d.y.f.y.e.e.r.e.:.-.;.<.4.8.5.5.h.x.c.p.p.i.f.d.k k g m g g t M M i N f p.i.i.i.i.i.y.y.e.e.r.e.<.,.>.;.e.r.e.e.:.;.;.:.",
"y.d.i.d.f.f.f.y.e.e.r.e.-.-.-.-.4.5.4.5.z.x.n.z.i.y.i.y.k k k g g k - b b z  .p i.i.i.i.p.i.f.a.e.e.e.e.:.-.>.<.e.r.e.e.;.-.:.;.",
"d.d.d.d.f.f.f.f.e.e.e.e.-.-.-.-.4.5.4.3.z.n.c.z.f.p.f.f.k k > : : m * k k z z x i.i.p.p.y.i.p.d.r.r.t.r.;.-.-.<.8.r.e.e.-.-.-.-.",
"y.y.y.y.y.y.y.y.r.e.r.e.<.;.<.<.3.8.4.6.k.l.z.h.y.y.i.t.t > > o.m X.b m m f * p i.i.p.p.i.i.y.y.e.e.e.e.<.-.:.:.e.r.t.e.<.:.:.:.",
"r.e.r.e.<.;.-.:.g.c.j.j.g.z.z.l.y.y.a.y.y.y.f.y.<.-.;.:.t t > o.k O.k m m p r p k.x.l.p.i.i.i.i.3.2.5.5.e.e.e.e.y.i.i.y.a.a.y.i.",
"e.e.r.e.-.-.-.;.j.c.v.j.x.x.x.x.i.a.d.a.p.f.f.y.;.-.-.-.y t - O.O.O.b ..X.l x z k.x.n.c.i.i.f.i.3.2.2.5.e.r.e.t.p.d.p.f.f.f.f.f.",
"e.e.r.e.<.;.-.:.g.j.x.j.l.k.x.k.y.a.y.d.y.f.f.y.<.-.:.<.f g O.M i n | +.O.z z z l.x.l.z.p.i.p.i.3.4.5.5.e.e.e.e.i.f.i.p.i.i.a.i.",
"e.e.r.e.<.;.-.<.j.c.j.x.x.x.x.l.f.y.d.y.y.d.p.i.<.>.<.>.5.3.2.8.f.u.0.0.7.9.i.p.l.x.x.l.i.i.f.f.5.4.4.5.e.r.e.r.i.d.i.i.d.f.i.i."
};
