/* XPM */
static char *vangogh1643121708[] = {
/* columns rows colors chars-per-pixel */
"64 64 243 2 ",
"   c #040403",
".  c #081209",
"X  c #161305",
"o  c #000E12",
"O  c #0A1816",
"+  c #151A16",
"@  c #230E00",
"#  c #2B1500",
"$  c #341C00",
"%  c #391F00",
"&  c #19231D",
"*  c #0A3215",
"=  c #392306",
"-  c #26271E",
";  c #050929",
":  c #031B2B",
">  c #1A1C24",
",  c #030B33",
"<  c #061939",
"1  c #181B35",
"2  c #192828",
"3  c #17253B",
"4  c #103034",
"5  c #252A25",
"6  c #2B383A",
"7  c #303331",
"8  c #432A06",
"9  c #503810",
"0  c #30403C",
"q  c #634B1A",
"w  c #5B482A",
"e  c #4D4F37",
"r  c #6A5226",
"t  c #735D2A",
"y  c #69573C",
"u  c #745C39",
"i  c #76612D",
"p  c #7A6638",
"a  c #7B633D",
"s  c #09184E",
"d  c #162847",
"f  c #1A3748",
"g  c #112A53",
"h  c #09395E",
"j  c #183857",
"k  c #2A3946",
"l  c #283957",
"z  c #031A72",
"x  c #062B66",
"c  c #0B3869",
"v  c #14316E",
"b  c #173968",
"n  c #083778",
"m  c #2C3A61",
"M  c #0F4D5B",
"N  c #354E50",
"B  c #364959",
"V  c #144B6F",
"C  c #184A79",
"Z  c #264A6A",
"A  c #354C69",
"S  c #2E5472",
"D  c #2A5775",
"F  c #38677C",
"G  c #48524E",
"H  c #445657",
"J  c #6A5845",
"K  c #6E5A44",
"L  c #715D47",
"P  c #516C53",
"I  c #7B6442",
"U  c #786448",
"Y  c #736357",
"T  c #7B6A58",
"R  c #4B5E6D",
"E  c #4C6F76",
"W  c #43697B",
"Q  c #64707B",
"!  c #826A39",
"~  c #88723E",
"^  c #A4763E",
"/  c #876B46",
"(  c #916D47",
")  c #8A7447",
"_  c #8C724B",
"`  c #967648",
"'  c #947B4D",
"]  c #846C53",
"[  c #8A7556",
"{  c #947C53",
"}  c #957B59",
"|  c #A47746",
" . c #A47B4A",
".. c #A57F51",
"X. c #897866",
"o. c #927D68",
"O. c #897D72",
"+. c #E0BF3D",
"@. c #EECB34",
"#. c #9C8349",
"$. c #9B8453",
"%. c #9A835A",
"&. c #AB834A",
"*. c #A58959",
"=. c #B38953",
"-. c #AB925B",
";. c #B5965D",
":. c #9B8464",
">. c #988567",
",. c #8C8D71",
"<. c #998674",
"1. c #A28C65",
"2. c #A38D6C",
"3. c #AA9366",
"4. c #B3986A",
"5. c #A18C74",
"6. c #A99478",
"7. c #B59C77",
"8. c #BEA66E",
"9. c #BBA37B",
"0. c #C4A97A",
"q. c #E4D352",
"w. c #CED57C",
"e. c #001D8A",
"r. c #002E84",
"t. c #013685",
"y. c #033997",
"u. c #013AA7",
"i. c #0034B3",
"p. c #0C488A",
"a. c #15568E",
"s. c #094697",
"d. c #285385",
"f. c #285995",
"g. c #136296",
"h. c #2A6387",
"j. c #2A6598",
"k. c #347190",
"l. c #0947A7",
"z. c #134FAA",
"x. c #0657AA",
"c. c #165AA5",
"v. c #0649B6",
"b. c #0557B6",
"n. c #225BB1",
"m. c #1764AD",
"M. c #1672AC",
"N. c #0768BA",
"B. c #1669B7",
"V. c #1D77B7",
"C. c #306DAB",
"Z. c #2B79A5",
"A. c #286BB8",
"S. c #2B7BBA",
"D. c #507791",
"F. c #6B7A84",
"G. c #0035C3",
"H. c #034BC3",
"J. c #0359C4",
"K. c #0F55CA",
"L. c #096AC7",
"P. c #196BC5",
"I. c #0578CB",
"U. c #1B77C4",
"Y. c #0671D7",
"T. c #1779D3",
"R. c #277BC7",
"E. c #2F75C9",
"W. c #1D75E1",
"Q. c #247BE1",
"!. c #3387BA",
"~. c #78898A",
"^. c #4386B9",
"/. c #5295B5",
"(. c #6693AE",
"). c #77B9B7",
"_. c #7EC8B1",
"`. c #1783CA",
"'. c #2D82C9",
"]. c #3B89C8",
"[. c #3092CF",
"{. c #2A88D6",
"}. c #398AD5",
"|. c #3A9AD6",
" X c #2EA1DF",
".X c #2C8CEB",
"XX c #4588C5",
"oX c #508ECE",
"OX c #4596C9",
"+X c #5B9ACE",
"@X c #4798D7",
"#X c #539BD6",
"$X c #649ECC",
"%X c #56A6C9",
"&X c #5AA6D7",
"*X c #53B0D0",
"=X c #55B2D4",
"-X c #6DAECE",
";X c #69B5C9",
":X c #62ABDD",
">X c #7AB7D7",
",X c #489EE0",
"<X c #50ACE3",
"1X c #69B3E9",
"2X c #54C4D0",
"3X c #77C9D0",
"4X c #73CCED",
"5X c #9D9884",
"6X c #A89583",
"7X c #B29F83",
"8X c #BDA685",
"9X c #BEAB98",
"0X c #89B8BF",
"qX c #C1A987",
"wX c #C2AD97",
"eX c #C8B597",
"rX c #C9B9A6",
"tX c #93CFB5",
"yX c #B3E6AA",
"uX c #E4D592",
"iX c #F4FA95",
"pX c #E6D4A8",
"aX c #E9DBB7",
"sX c #D0F5AF",
"dX c #F6E6BB",
"fX c #FFF0BD",
"gX c #8DB4C9",
"hX c #85BEE2",
"jX c #87C5D6",
"kX c #8FCCD1",
"lX c #ACD5D1",
"zX c #9DE4DC",
"xX c #B9E5D1",
"cX c #92D4E6",
"vX c #ACD9E9",
"bX c #90E8EB",
"nX c #CCF3CE",
"mX c #F9EBC4",
"MX c #E9FFCA",
"NX c #FFF2C7",
"BX c #FFFDD8",
"VX c #C9EDE5",
"CX c #FCFEE3",
/* pixels */
"Y Y Y Y Y Y Y Y Y Y Y Y Y Y Y Y Y Y Y Y Y Y Y Y Y Y Y Y Y Y Y Y Y Y Y Y Y Y Y Y Y Y Y Y Y Y Y Y Y Y Y Y Y Y Y Y Y Y Y Y Y Y Y Y ",
"Y Y Y Y Y Y Y Y Y Y Y Y Y Y Y Y Y Y Y Y Y Y Y Y Y Y Y Y Y Y Y Y Y Y Y Y Y Y Y Y Y Y Y Y Y Y Y Y Y Y Y Y Y Y Y Y Y Y Y Y Y Y Y Y ",
"Y Y Y Y Y Y Y Y Y Y Y Y Y Y Y Y Y Y Y Y Y Y Y Y Y Y Y Y Y Y Y Y Y Y Y Y Y Y Y Y Y Y Y Y Y Y Y Y Y Y Y Y Y Y Y Y Y Y Y Y Y Y Y Y ",
"Y Y Y Y Y Y Y Y Y Y Y Y Y Y Y Y Y Y Y Y Y Y Y Y Y Y Y Y Y Y Y Y Y Y Y Y Y Y Y Y Y Y Y Y Y Y Y Y Y Y Y Y Y Y Y Y Y Y Y Y Y Y Y Y ",
"Y Y Y Y Y Y Y Y Y Y Y Y Y Y Y Y Y Y Y Y Y Y Y Y Y Y Y Y Y Y Y Y Y Y Y Y Y Y Y Y Y Y Y Y Y Y Y Y Y Y Y Y Y Y Y Y Y Y Y Y Y Y Y Y ",
"Y Y Y Y Y Y Y Y Y Y Y Y Y Y Y Y Y Y Y Y Y Y Y Y Y Y Y Y Y Y Y Y Y Y Y Y Y Y Y Y Y Y Y Y Y Y Y Y Y Y Y Y Y Y Y Y Y Y Y Y Y Y Y Y ",
"Y Y Y Y Y Y Y Y Y Y Y Y Y Y Y Y Y Y Y Y Y Y Y Y Y Y Y Y Y Y Y Y Y Y Y Y Y Y Y Y Y Y Y Y Y Y Y Y Y Y Y Y Y Y Y Y Y Y Y Y Y Y Y Y ",
"Y Y Y Y Y Y Y Y Y Y Y Y Y Y Y Y Y Y Y Y Y Y Y Y Y Y Y Y Y Y Y Y Y Y Y Y Y Y Y Y Y Y Y Y Y Y Y Y Y Y Y Y Y Y Y Y Y Y Y Y Y Y Y Y ",
"Y Y Y Y Y Y Y Y Y Y Y Y Y Y Y Y Y Y Y Y Y Y Y Y Y Y Y Y Y Y Y Y Y Y Y Y Y Y Y Y Y Y Y Y Y Y Y Y Y Y Y Y Y Y Y Y Y Y Y Y Y Y Y Y ",
"Y Y Y Y Y Y Y Y Y Y Y Y Y Y Y Y Y Y Y Y Y Y Y Y Y Y Y Y Y Y Y Y Y Y Y Y Y Y Y Y Y Y Y Y Y Y Y Y Y Y Y Y Y Y Y Y Y Y Y Y Y Y Y Y ",
"Y Y Y Y Y Y Y Y Y Y Y Y Y Y Y Y Y Y Y Y Y Y Y Y Y Y Y Y Y Y Y Y Y Y Y Y Y Y Y Y Y Y Y Y Y Y Y Y Y Y Y Y Y Y Y Y Y Y Y Y Y Y Y Y ",
"Y Y Y Y Y Y Y Y Y Y Y Y Y Y Y Y Y Y Y Y Y Y Y Y Y Y Y Y Y Y Y Y Y Y Y Y Y Y Y Y Y Y Y Y Y Y Y Y Y Y Y Y Y Y Y Y Y Y Y Y Y Y Y Y ",
"Y Y Y Y Y Y Y Y Y Y Y Y Y Y Y Y Y Y Y Y Y Y Y Y Y Y Y Y Y Y Y Y Y Y Y Y Y Y Y Y Y Y Y Y Y Y Y Y Y Y Y Y Y Y Y Y Y Y Y Y Y Y Y Y ",
"Y Y Y Y Y Y Y Y Y Y Y Y Y Y Y Y Y Y Y Y Y Y Y Y Y Y Y Y Y Y Y Y Y Y Y Y Y Y Y Y Y Y Y Y Y Y Y Y Y Y Y Y Y Y Y Y Y Y Y Y Y Y Y Y ",
"Y Y Y Y Y Y Y Y Y Y Y Y Y Y Y Y Y Y Y Y Y Y Y Y Y Y Y Y Y Y Y Y Y Y Y Y Y Y Y Y Y Y Y Y Y Y Y Y Y Y Y Y Y Y Y Y Y Y Y Y Y Y Y Y ",
"Y Y Y Y Y Y Y Y Y Y Y Y Y Y Y Y Y Y Y Y Y Y Y Y Y Y Y Y Y Y Y Y Y Y Y Y Y Y Y Y Y Y Y Y Y Y Y Y Y Y Y Y Y Y Y Y Y Y Y Y Y Y Y Y ",
"Y Y Y Y Y Y Y Y Y Y Y Y Y ,.<.:.O.>.<.X.X.X.X.X.o.o.o.<.<.5.5.5.6.6.6.6.6X6X6X5.<.5.6X6X6X<.>.<.5.5.O.Y Y Y Y Y Y Y Y Y Y Y Y Y ",
"Y Y Y Y Y Y Y Y Y Y Y Y Y e = # # @ @ $ $ $ # # 8 8 8 8 8 9 8 = 8 8 9 8 $ % # = 8 # # # @ $ $ # % = 9 Y Y Y Y Y Y Y Y Y Y Y Y Y ",
"Y Y Y Y Y Y Y Y Y Y Y Y Y y w p _ [ %.3.4.9.7.4.0.4.0.8.3.1.1.3.*.*.4.3.*.%.*.-.4.$.} ' / ' ) p w a U Y Y Y Y Y Y Y Y Y Y Y Y Y ",
"Y Y Y Y Y Y Y Y Y Y Y Y Y y u [ <.) &.` (  .=. .` ;.=.| |  .=.&.^ &.&.=. . .=.=.&.=.=.&.&.` *.1.:.%.L Y Y Y Y Y Y Y Y Y Y Y Y Y ",
"Y Y Y Y Y Y Y Y Y Y Y Y Y y #.%.u 5 ; d e 6 : f G d j P B s d G B g s s d d 1 d 3 3 2 , : 2 > y [ #.I Y Y Y Y Y Y Y Y Y Y Y Y Y ",
"Y Y Y Y Y Y Y Y Y Y Y Y Y J I [ ( A i.@XsX=XG.R.=Xi.T.bX1X>X@XQ.W.K.Q.%XT.Y.L.b.b.b.T.|.*X!.j.X.I [ a Y Y Y Y Y Y Y Y Y Y Y Y Y ",
"Y Y Y Y Y Y Y Y Y Y Y Y Y u p $.( A y.A.%XE.f.v G.H.E.E.P.(.E.H.v.v.;XsXtXv.y.l.L.!.4XnXsX_.;XX./ $.I Y Y Y Y Y Y Y Y Y Y Y Y Y ",
"Y Y Y Y Y Y Y Y Y Y Y Y Y U p [ ` D.l.y.i.K.Z A $Xn.H.v.b.H.v.C.n.v.R.;XXXt.e.u.Y.2XsXw.uXtX;X[ ` -.U Y Y Y Y Y Y Y Y Y Y Y Y Y ",
"Y Y Y Y Y Y Y Y Y Y Y Y Y y p [ ( k.b.l.b.K.r.,.iX^.i.B.[.>XgXkX$XXXE.v.y.A.'.v.J.3XiX@.sXtX_.,.) -./ Y Y Y Y Y Y Y Y Y Y Y Y Y ",
"Y Y Y Y Y Y Y Y Y Y Y Y Y y #.%.~ D.'.l.y.b.n h.$XR.U.].>XlX&X-X>X@X<XoXy.gXMX].H.=XnXq.+.w.3X,.! $./ Y Y Y Y Y Y Y Y Y Y Y Y Y ",
"Y Y Y Y Y Y Y Y Y Y Y Y Y K #.-.` D.}.(.C.E.a.h..X#X:X<X(.V.L.L.E.#XR.oXB.!.xX*XH.x.3XsXw.yX*XT ( { U Y Y Y Y Y Y Y Y Y Y Y Y Y ",
"Y Y Y Y Y Y Y Y Y Y Y Y Y L ~ -.` D.I.^.+X:XOX0 &X1XjX;Xy.S.hX|.T.XX&XA.l.H.Y.{.B.l.S.=X=X`.M.,.( %.U Y Y Y Y Y Y Y Y Y Y Y Y Y ",
"Y Y Y Y Y Y Y Y Y Y Y Y Y L p 1.` ~.@XU.{.:XF 2 +X{.).).L.@X#X+X}.,X4X#Xz.m.b.N.M.B.L.L.x.u.m.:._ *.] Y Y Y Y Y Y Y Y Y Y Y Y Y ",
"Y Y Y Y Y Y Y Y Y Y Y Y Y J I :.| ~.}.&X1X].4 2 R.p.s.L.@X:XU.B.R.,X+XXX:X-X(.R.N.`.L.b.N.Z.gX2._ 1./ Y Y Y Y Y Y Y Y Y Y Y Y Y ",
"Y Y Y Y Y Y Y Y Y Y Y Y Y T ! { | Q }.XX{.!.. O p.B.l.L..X&X-X].L.XX@X+X&XXXXX@Xm.b.}.>XlXxXxX>.[ *.I Y Y Y Y Y Y Y Y Y Y Y Y Y ",
"Y Y Y Y Y Y Y Y Y Y Y Y Y L ! $.| F.&XB./.yX2   k I.<XvXcX{.Q.&X@X$X@X`.}.R.R.XXu.S.lXnXVXbXjX:.( -.I Y Y Y Y Y Y Y Y Y Y Y Y Y ",
"Y Y Y Y Y Y Y Y Y Y Y Y Y L p $.` F.v.l.OX).2   h .XVXCXCX>Xv.XXXXT.N.N.[.@X].m.C.nXlX=X*XN S $.$.-.a Y Y Y Y Y Y Y Y Y Y Y Y Y ",
"Y Y Y Y Y Y Y Y Y Y Y Y Y U t $.&.E x.Z.b.n @   h T.vXCXCXhXU.E.{.I.[./.*XkX-X-XzXzX4X!.<   ; T *.%.a Y Y Y Y Y Y Y Y Y Y Y Y Y ",
"Y Y Y Y Y Y Y Y Y Y Y Y Y L t %.( ,./._.|.V X X 4 g.OXvXvXjXjXjXkXjXzXcXcXzXcX4X|.Z.F s < s s Y *.*.I Y Y Y Y Y Y Y Y Y Y Y Y Y ",
"Y Y Y Y Y Y Y Y Y Y Y Y Y L t $.( 5X|.%X4Xh.  + 2 : h.4XkX>X3X-X;X3X^.m.C.d.d.a.v s s y.B.m.c.T ` ' a Y Y Y Y Y Y Y Y Y Y Y Y Y ",
"Y Y Y Y Y Y Y Y Y Y Y Y Y L t $.` ~.P.Z.|.!.O + & : - (. XI.x.C.{.m.z.s.y.v z u.a.v.b.U.P.b.c.T { ' u Y Y Y Y Y Y Y Y Y Y Y Y Y ",
"Y Y Y Y Y Y Y Y Y Y Y Y Y K r $.( R t.m.B.m.2 X & N & . p.z.z p.g.z.c.c.a.n.m.a.a.C C h.h.F F [ { { L Y Y Y Y Y Y Y Y Y Y Y Y Y ",
"Y Y Y Y Y Y Y Y Y Y Y Y Y J t [ { G s x v 3 O O 6 5 O . 3 v C Z.g.a.j.M.M.g.V M F h.V D E E Z U [ *.! Y Y Y Y Y Y Y Y Y Y Y Y Y ",
"Y Y Y Y Y Y Y Y Y Y Y Y Y L i $.{ G x c j O & 6 7 5 + + 2 Z j.h.F h.S p.g.C V m n C C Z.h.V V K ) } ! Y Y Y Y Y Y Y Y Y Y Y Y Y ",
"Y Y Y Y Y Y Y Y Y Y Y Y Y I q $.( G Z C b & 5 5 O > 5 2 + k m k N S C b d l j Z C 1 Z A g c j J } ` u Y Y Y Y Y Y Y Y Y Y Y Y Y ",
"Y Y Y Y Y Y Y Y Y Y Y Y Y K q #. .k v l A - & O + 2 4 5 2 : d 4 f D A B < 1 1 V C W B 3 Z j v J ` } K Y Y Y Y Y Y Y Y Y Y Y Y Y ",
"Y Y Y Y Y Y Y Y Y Y Y Y Y K q ' ` 7 , * * : o o     o   o O   f D V k 6 j f l b x x x c 4 : < J ` } y Y Y Y Y Y Y Y Y Y Y Y Y Y ",
"Y Y Y Y Y Y Y Y Y Y Y Y Y T 9 I ` G H P N E N 6 N N k 7 6 7 7 W k.W A G R R D.R k j m m 3 N N y / ' u Y Y Y Y Y Y Y Y Y Y Y Y Y ",
"Y Y Y Y Y Y Y Y Y Y Y Y T T q t u <.9X9X8XeXeX9XrXrXrXrXeXwXeXeXeXeXeXeXqX8X8X7X7X6.2.4.:.1.7.J u ` u Y Y Y Y Y Y Y Y Y Y Y Y Y ",
"Y Y Y Y Y Y Y Y Y Y Y Y Y K 9 [ 5X>.:.>.2.7.9.9.7.7.qXqX8XqXqXqX0.7.9.9.7.7.4.6.6.3.2.1.3.o.] ] :.! r Y Y Y Y Y Y Y Y Y Y Y Y Y ",
"Y Y Y Y Y Y Y Y Y Y Y Y Y y $.pXmXdXdXNXBXCXBXNXNXNXBXCXCXNXdXmXmXaXmXdXaXdXfXmXpXaXfXpXpXwX8XuXuX1.w Y Y Y Y Y Y Y Y Y Y Y Y Y ",
"Y Y Y Y Y Y Y Y Y Y Y Y Y Y U :.[ :.:.2.%.} :.:.1.2.5.6.6.5.:.5.2.6.8X5.2.:.1.1.} :.} [ ] ] ] _ } X.w Y Y Y Y Y Y Y Y Y Y Y Y Y ",
"Y Y Y Y Y Y Y Y Y Y Y Y Y Y Y Y Y Y Y Y Y Y Y Y Y Y Y Y Y Y Y Y Y Y Y Y Y Y Y Y Y Y Y Y Y Y Y Y Y Y Y Y Y Y Y Y Y Y Y Y Y Y Y Y ",
"Y Y Y Y Y Y Y Y Y Y Y Y Y Y Y Y Y Y Y Y Y Y Y Y Y Y Y Y Y Y Y Y Y Y Y Y Y Y Y Y Y Y Y Y Y Y Y Y Y Y Y Y Y Y Y Y Y Y Y Y Y Y Y Y ",
"Y Y Y Y Y Y Y Y Y Y Y Y Y Y Y Y Y Y Y Y Y Y Y Y Y Y Y Y Y Y Y Y Y Y Y Y Y Y Y Y Y Y Y Y Y Y Y Y Y Y Y Y Y Y Y Y Y Y Y Y Y Y Y Y ",
"Y Y Y Y Y Y Y Y Y Y Y Y Y Y Y Y Y Y Y Y Y Y Y Y Y Y Y Y Y Y Y Y Y Y Y Y Y Y Y Y Y Y Y Y Y Y Y Y Y Y Y Y Y Y Y Y Y Y Y Y Y Y Y Y ",
"Y Y Y Y Y Y Y Y Y Y Y Y Y Y Y Y Y Y Y Y Y Y Y Y Y Y Y Y Y Y Y Y Y Y Y Y Y Y Y Y Y Y Y Y Y Y Y Y Y Y Y Y Y Y Y Y Y Y Y Y Y Y Y Y ",
"Y Y Y Y Y Y Y Y Y Y Y Y Y Y Y Y Y Y Y Y Y Y Y Y Y Y Y Y Y Y Y Y Y Y Y Y Y Y Y Y Y Y Y Y Y Y Y Y Y Y Y Y Y Y Y Y Y Y Y Y Y Y Y Y ",
"Y Y Y Y Y Y Y Y Y Y Y Y Y Y Y Y Y Y Y Y Y Y Y Y Y Y Y Y Y Y Y Y Y Y Y Y Y Y Y Y Y Y Y Y Y Y Y Y Y Y Y Y Y Y Y Y Y Y Y Y Y Y Y Y ",
"Y Y Y Y Y Y Y Y Y Y Y Y Y Y Y Y Y Y Y Y Y Y Y Y Y Y Y Y Y Y Y Y Y Y Y Y Y Y Y Y Y Y Y Y Y Y Y Y Y Y Y Y Y Y Y Y Y Y Y Y Y Y Y Y ",
"Y Y Y Y Y Y Y Y Y Y Y Y Y Y Y Y Y Y Y Y Y Y Y Y Y Y Y Y Y Y Y Y Y Y Y Y Y Y Y Y Y Y Y Y Y Y Y Y Y Y Y Y Y Y Y Y Y Y Y Y Y Y Y Y ",
"Y Y Y Y Y Y Y Y Y Y Y Y Y Y Y Y Y Y Y Y Y Y Y Y Y Y Y Y Y Y Y Y Y Y Y Y Y Y Y Y Y Y Y Y Y Y Y Y Y Y Y Y Y Y Y Y Y Y Y Y Y Y Y Y ",
"Y Y Y Y Y Y Y Y Y Y Y Y Y Y Y Y Y Y Y Y Y Y Y Y Y Y Y Y Y Y Y Y Y Y Y Y Y Y Y Y Y Y Y Y Y Y Y Y Y Y Y Y Y Y Y Y Y Y Y Y Y Y Y Y ",
"Y Y Y Y Y Y Y Y Y Y Y Y Y Y Y Y Y Y Y Y Y Y Y Y Y Y Y Y Y Y Y Y Y Y Y Y Y Y Y Y Y Y Y Y Y Y Y Y Y Y Y Y Y Y Y Y Y Y Y Y Y Y Y Y ",
"Y Y Y Y Y Y Y Y Y Y Y Y Y Y Y Y Y Y Y Y Y Y Y Y Y Y Y Y Y Y Y Y Y Y Y Y Y Y Y Y Y Y Y Y Y Y Y Y Y Y Y Y Y Y Y Y Y Y Y Y Y Y Y Y ",
"Y Y Y Y Y Y Y Y Y Y Y Y Y Y Y Y Y Y Y Y Y Y Y Y Y Y Y Y Y Y Y Y Y Y Y Y Y Y Y Y Y Y Y Y Y Y Y Y Y Y Y Y Y Y Y Y Y Y Y Y Y Y Y Y ",
"Y Y Y Y Y Y Y Y Y Y Y Y Y Y Y Y Y Y Y Y Y Y Y Y Y Y Y Y Y Y Y Y Y Y Y Y Y Y Y Y Y Y Y Y Y Y Y Y Y Y Y Y Y Y Y Y Y Y Y Y Y Y Y Y ",
"Y Y Y Y Y Y Y Y Y Y Y Y Y Y Y Y Y Y Y Y Y Y Y Y Y Y Y Y Y Y Y Y Y Y Y Y Y Y Y Y Y Y Y Y Y Y Y Y Y Y Y Y Y Y Y Y Y Y Y Y Y Y Y Y "
};
