/* XPM */
static char *a8d6d388cb26415cb8e140757cfe9ca8BK6tP2iGRzqjysGW[] = {
/* columns rows colors chars-per-pixel */
"64 64 241 2 ",
"   c #040403",
".  c #081209",
"X  c #161305",
"o  c #000E12",
"O  c #0A1816",
"+  c #151A16",
"@  c #230E00",
"#  c #2B1500",
"$  c #341C00",
"%  c #391F00",
"&  c #19231D",
"*  c #0A3215",
"=  c #392306",
"-  c #26271E",
";  c #050929",
":  c #031B2B",
">  c #1A1C24",
",  c #030B33",
"<  c #061939",
"1  c #181B35",
"2  c #192828",
"3  c #17253B",
"4  c #103034",
"5  c #252A25",
"6  c #2B383A",
"7  c #303331",
"8  c #432A06",
"9  c #503810",
"0  c #30403C",
"q  c #634B1A",
"w  c #5B482A",
"e  c #4D4F37",
"r  c #6A5226",
"t  c #735D2A",
"y  c #69573C",
"u  c #745C39",
"i  c #76612D",
"p  c #7A6638",
"a  c #7B633D",
"s  c #09184E",
"d  c #162847",
"f  c #1A3748",
"g  c #0E3058",
"h  c #183857",
"j  c #2A3946",
"k  c #283957",
"l  c #031A72",
"z  c #062B66",
"x  c #10346C",
"c  c #173968",
"v  c #083778",
"b  c #2C3A61",
"n  c #0F4D5B",
"m  c #354E50",
"M  c #364959",
"N  c #144B6F",
"B  c #184A79",
"V  c #264A6A",
"C  c #354C69",
"Z  c #2E5472",
"A  c #2A5775",
"S  c #38677C",
"D  c #504945",
"F  c #48524E",
"G  c #445657",
"H  c #6A5845",
"J  c #6E5A44",
"K  c #715D47",
"L  c #516C53",
"P  c #7B6442",
"I  c #786448",
"U  c #736357",
"Y  c #7B6A58",
"T  c #4B5E6D",
"R  c #4C6F76",
"E  c #43697B",
"W  c #6C6561",
"Q  c #64707B",
"!  c #826A39",
"~  c #88723E",
"^  c #876B46",
"/  c #916D47",
"(  c #8A7447",
")  c #8C724B",
"_  c #967648",
"`  c #947B4D",
"'  c #846C53",
"]  c #8A7556",
"[  c #947C53",
"{  c #957B59",
"}  c #A47746",
"|  c #A47B4A",
" . c #A57F51",
".. c #897866",
"X. c #927D68",
"o. c #897D72",
"O. c #E0BF3D",
"+. c #EECB34",
"@. c #9C8349",
"#. c #9B8453",
"$. c #9A835A",
"%. c #AB834A",
"&. c #A58959",
"*. c #B38953",
"=. c #AB925B",
"-. c #B5965D",
";. c #9B8464",
":. c #988567",
">. c #8C8D71",
",. c #998674",
"<. c #A28C65",
"1. c #A38D6C",
"2. c #AA9366",
"3. c #B3986A",
"4. c #A18C74",
"5. c #A99478",
"6. c #B59C77",
"7. c #BEA66E",
"8. c #BBA37B",
"9. c #C4A97A",
"0. c #E4D352",
"q. c #CED57C",
"w. c #001D8A",
"e. c #013685",
"r. c #033997",
"t. c #013AA7",
"y. c #0034B3",
"u. c #0C488A",
"i. c #15568E",
"p. c #094697",
"a. c #285385",
"s. c #285995",
"d. c #136296",
"f. c #2A6387",
"g. c #2A6598",
"h. c #347190",
"j. c #0947A7",
"k. c #134FAA",
"l. c #0657AA",
"z. c #165AA5",
"x. c #0649B6",
"c. c #0557B6",
"v. c #225BB1",
"b. c #1764AD",
"n. c #1672AC",
"m. c #0768BA",
"M. c #1669B7",
"N. c #1D77B7",
"B. c #306DAB",
"V. c #2B79A5",
"C. c #286BB8",
"Z. c #2B7BBA",
"A. c #507791",
"S. c #6B7A84",
"D. c #0035C3",
"F. c #034BC3",
"G. c #0359C4",
"H. c #0F55CA",
"J. c #096AC7",
"K. c #196BC5",
"L. c #0578CB",
"P. c #1B77C4",
"I. c #0671D7",
"U. c #1779D3",
"Y. c #277BC7",
"T. c #2F75C9",
"R. c #1D75E1",
"E. c #247BE1",
"W. c #3387BA",
"Q. c #78898A",
"!. c #4386B9",
"~. c #5295B5",
"^. c #6693AE",
"/. c #77B9B7",
"(. c #7EC8B1",
"). c #1783CA",
"_. c #2D82C9",
"`. c #3B89C8",
"'. c #3092CF",
"]. c #2A88D6",
"[. c #398AD5",
"{. c #3A9AD6",
"}. c #2EA1DF",
"|. c #2C8CEB",
" X c #4588C5",
".X c #508ECE",
"XX c #4596C9",
"oX c #5B9ACE",
"OX c #4798D7",
"+X c #539BD6",
"@X c #649ECC",
"#X c #56A6C9",
"$X c #5AA6D7",
"%X c #53B0D0",
"&X c #55B2D4",
"*X c #6DAECE",
"=X c #69B5C9",
"-X c #62ABDD",
";X c #7AB7D7",
":X c #489EE0",
">X c #50ACE3",
",X c #69B3E9",
"<X c #54C4D0",
"1X c #77C9D0",
"2X c #73CCED",
"3X c #9D9884",
"4X c #A89583",
"5X c #B29F83",
"6X c #BDA685",
"7X c #BEAB98",
"8X c #C1A987",
"9X c #C2AD97",
"0X c #C8B597",
"qX c #C9B9A6",
"wX c #93CFB5",
"eX c #B3E6AA",
"rX c #D9D397",
"tX c #E4D592",
"yX c #F4FA95",
"uX c #E6D4A8",
"iX c #E9DBB7",
"pX c #D0F5AF",
"aX c #F6E6BB",
"sX c #FFF0BD",
"dX c #8DB4C9",
"fX c #85BEE2",
"gX c #87C5D6",
"hX c #8FCCD1",
"jX c #ACD5D1",
"kX c #9DE4DC",
"lX c #B9E5D1",
"zX c #92D4E6",
"xX c #ACD9E9",
"cX c #90E8EB",
"vX c #CCF3CE",
"bX c #F9EBC4",
"nX c #E9FFCA",
"mX c #FFF2C7",
"MX c #FFFDD8",
"NX c #C9EDE5",
"BX c #FCFEE3",
/* pixels */
"U U U U U U U U U U U U U U U U U U U U U U U U U U U U U U U U U U U U U U U U U U U U U U U U U U U U U U U U U U U U U U U U ",
"U U U U U U U U U U U U U U U U U U U U U U U U U U U U U U U U U U U U U U U U U U U U U U U U U U U U U U U U U U U U U U U U ",
"U U U U U U U U U U U U U U U U U U U U U U U U U U U U U U U U U U U U U U U U U U U U U U U U U U U U U U U U U U U U U U U U ",
"U U U U U U U U U U U U U U U U U U U U U U U U U U U U U U U U U U U U U U U U U U U U U U U U U U U U U U U U U U U U U U U U ",
"U U U U U U U U U U U U U U U U U U U U U U U U U U U U U U U U U U U U U U U U U U U U U U U U U U U U U U U U U U U U U U U U ",
"U U U U U U U U U U U U U U U U U U U U U U U U U U U U U U U U U U U U U U U U U U U U U U U U U U U U U U U U U U U U U U U U ",
"U U U U U U U U U U U U U U U U U U U U U U U U U U U U U U U U U U U U U U U U U U U U U U U U U U U U U U U U U U U U U U U U ",
"U U U U U U U U U U U U U U U U U U U U U U U U U U U U U U U U U U U U U U U U U U U U U U U U U U U U U U U U U U U U U U U U ",
"U U U U U U U U U U U U U U U U U U U U U U U U U U U U U U U U U U U U U U U U U U U U U U U U U U U U U U U U U U U U U U U U ",
"U U U U U U U U U U U U U U U U U U U U U U U U U U U U U U U U U U U U U U U U U U U U U U U U U U U U U U U U U U U U U U U U ",
"U U U U U U U U U U U U U U U U U U U U U U U U U U U U U U U U U U U U U U U U U U U U U U U U U U U U U U U U U U U U U U U U ",
"U U U U U U U U U U U U U U U U U U U U U U U U U U U U U U U U U U U U U U U U U U U U U U U U U U U U U U U U U U U U U U U U ",
"U U U U U U U U U U U U U U U U U U U U U U U U U U U U U U U U U U U U U U U U U U U U U U U U U U U U U U U U U U U U U U U U ",
"U U U U U U U U U U U U U U U U U U U U U U U U U U U U U U U U U U U U U U U U U U U U U U U U U U U U U U U U U U U U U U U U ",
"U U U U U U U U U U U U U U U U U U U U U U U U U U U U U U U U U U U U U U U U U U U U U U U U U U U U U U U U U U U U U U U U ",
"U U U U U U U U U U U U U U U U U U U U U U U U U U U U U U U U U U U U U U U U U U U U U U U U U U U U U U U U U U U U U U U U ",
"U U U U U U U U U U U U U >.,.;.o.:.,...........X.X.X.,.,.4.4.,.5.5.5.5.5.4X4X4.3X,.4X4X4X,.X.,.4.4.o.U U U U U U U U U U U U U ",
"U U U U U U U U U U U U U e = # # @ @ $ $ $ # # 8 8 8 8 8 9 8 8 8 8 9 8 $ = # = 8 # # $ # $ $ # = = 9 U U U U U U U U U U U U U ",
"U U U U U U U U U U U U U y w p ) ] $.2.3.8.6.3.9.3.9.3.1.<.<.2.&.&.3.2.$.&.%.=.3.#.[ ) ^ ` ^ p w p I U U U U U U U U U U U U U ",
"U U U U U U U U U U U U U y u ] ,.( %._ / | *.| } -.-.} } | *.%.} %.%.*.| | *.*.%.*.*.%.%._ &.<.;.#.K U U U U U U U U U U U U U ",
"U U U U U U U U U U U U U y @.$.! 5 ; d e 6 : f F d h L M s d F M g s , s d 3 d d 2 1 , : > > y ] ` P U U U U U U U U U U U U U ",
"U U U U U U U U U U U U U H P ] / C y.{.pX&XD.Y.&Xy.U.cX>X;XOXE.R.H.E.&XY.I.J.c.c.c.U.{.<XW.g.X.I ` a U U U U U U U U U U U U U ",
"U U U U U U U U U U U U U u p #./ C r.B.#XT.s.c D.F.T.T.K.^.Z.H.x.x.;XpXwXx.r.j.J.W.1XvXpX(.=X;.^ #.P U U U U U U U U U U U U U ",
"U U U U U U U U U U U U U I p ] _ A.t.t.y.H.V C @Xv.x.H.c.F.x.C.v.k.C.&X`.e.w.t.I.<XpXtXrXwX=XY _ =.I U U U U U U U U U U U U U ",
"U U U U U U U U U U U U U y p ] / h.c.t.c.H.e.>.yX!.y.M.].;XdXgX*XT.T.x.r.C.Y.x.G.1XyX+.pXwX(.>.( =.^ U U U U U U U U U U U U U ",
"U U U U U U U U U U U U U y @.$.~ A.T.k.r.x.v s./.K.P.[.;XjX*X*X;XOX>X.Xr.dXnXXXF.&XvX0.O.q.1X>.! #.^ U U U U U U U U U U U U U ",
"U U U U U U U U U U U U U J @.=.} h.[.^.B.T.i.f.|.+X-X>X^.N.J.J.T.+XY..Xc.W.lX%XF.l.1XpXq.eX%XY / [ I U U U U U U U U U U U U U ",
"U U U U U U U U U U U U U K ~ =.} A.L.!.#X-XXX0 $X,XgX*Xp.Z.;X{.U.XX-XC.j.F.I.].M.j.W.%X%X).n.;._ { I U U U U U U U U U U U U U ",
"U U U U U U U U U U U U U K p <._ Q.OXP.].-XS 2 oX]././.J.OX+X+X].:X2X.Xz.M.c.m.n.M.G.G.l.r.b.;.) &.' U U U U U U U U U U U U U ",
"U U U U U U U U U U U U U H P ;._ Q.[.$X,X`.4 2 Y.u.u.G.OX-XZ.M.Y.+X-X X-XdX^.P.m.).L.G.m.V.dX1.) <.^ U U U U U U U U U U U U U ",
"U U U U U U U U U U U U U Y ! [ | Q OX X].W.. O B M.j.J.|.$X*X[.K.T..X#X$X[. XOXc.m.[.;XjXlXlXX.] &.P U U U U U U U U U U U U U ",
"U U U U U U U U U U U U U K ! #.} S.+XM.~.eX2   h L.>XxXzX].E.$X+X@XOX).[.Y.Y. Xt.Z.lXvXNXcXgX;._ &.P U U U U U U U U U U U U U ",
"U U U U U U U U U U U U U J ! #.( S.x.x.XX/.5   n |.NXBXBX;Xx. X[.Y.m.m.'.OX`.z.B.vXjX%X%XZ C $.#.=.P U U U U U U U U U U U U U ",
"U U U U U U U U U U U U U I t #.| R l.V.c.v X   g U.xXBXBXfXP.T.).).'.~.%XhX*X*XkXkX2XW.:   ; Y &.$.a U U U U U U U U U U U U U ",
"U U U U U U U U U U U U U I t #./ >.~.wX{.v X X 4 l..XxXxXgXgXgXgXhXkXkXhXzXcX2XOXV.Z d , s s Y &.$.P U U U U U U U U U U U U U ",
"U U U U U U U U U U U U W K i [ / 3XXXW.cXh.  O * : f.2XhX;X1X*X<XgXZ.v.B.a.a.i.x s s p.M.M.z.Y _ ` a U U U U U U U U U U U U U ",
"U U U U U U U U U U U U U H t #._ Q.M.Z.{.W.. + - : 7 ^.}.L.l.B._.b.j.p.p.l l j.p.l.c.J.K.c.b.Y [ _ u U U U U U U U U U U U U U ",
"U U U U U U U U U U U U U J r #._ T e.b.M.b.2 X & j - . u.k.l u.z.k.b.z.s.v.v.d.i.B a.f.f.S R Y [ [ K U U U U U U U U U U U U U ",
"U U U U U U U U U U U U U J t ] [ D s z x d O + 6 5 O . 3 c N V.d.i.g.n.n.g.N n A h.N A R R V I ] &.u U U U U U U U U U U U U U ",
"U U U U U U U U U U U U U I i #.[ m z g h O & 6 7 - + O 2 V g.a.A S A B d.u.N h v B B V.f.N N J ) &.! U U U U U U U U U U U U U ",
"U U U U U U U U U U U U U I r #._ F V B c & 5 5 O > 5 2 + j b k m S B h d k h B V 1 V C d z h H { _ u U U U U U U U U U U U U U ",
"U U U U U U U U U U U U U J q ` _ m x k C 5 & + + 2 4 - 2 : 3 f h A C M < 1 1 N B E M d V c c H _ [ H U U U U U U U U U U U U U ",
"U U U U U U U U U U U U U J q ( _ 7 , * * : o o     o   o O   4 A N j 6 h j h x s z z x 4 : < H _ [ u U U U U U U U U U U U U U ",
"U U U U U U U U U U U U U ' 9 P _ D G L G T m 6 m m j 7 6 7 6 E h.E C m T T A.T k k V h 2 m m y ^ [ u U U U U U U U U U U U U U ",
"U U U U U U U U U U U U U ' q i J 1.7X6X5X7XqX7XqXqXqXqX0X9X0X0X0X0X0X0X8X6X6X6.5X5.1.3.<.X.5.K K _ u U U U U U U U U U U U U U ",
"U U U U U U U U U U U U U I 9 ] 3X>.:.:.1.6.8.7.6.6.8X8X6X8X8X8X9.6.8.6.6.6.6.2.5.2.1.<.3.{ ] ' $.! r U U U U U U U U U U U U U ",
"U U U U U U U U U U U U U y @.uXbXaXaXmXMXMXMXmXbXmXMXBXBXmXaXbXmXiXbXbXiXaXbXmXuXaXsXuXuX9X8XtXtX<.w U U U U U U U U U U U U U ",
"U U U U U U U U U U U U U U I X.] ;.;.<.:.:.$.:.1.1.4.5.5.4.;.4.1.5.6X1.<.:.<.<.{ :.] ] ' ' ' ] { ..w U U U U U U U U U U U U U ",
"U U U U U U U U U U U U U U U U U U U U U U U U U U U U U U U U U U U U U U U U U U U U U U U U U U U U U U U U U U U U U U U U ",
"U U U U U U U U U U U U U U U U U U U U U U U U U U U U U U U U U U U U U U U U U U U U U U U U U U U U U U U U U U U U U U U U ",
"U U U U U U U U U U U U U U U U U U U U U U U U U U U U U U U U U U U U U U U U U U U U U U U U U U U U U U U U U U U U U U U U ",
"U U U U U U U U U U U U U U U U U U U U U U U U U U U U U U U U U U U U U U U U U U U U U U U U U U U U U U U U U U U U U U U U ",
"U U U U U U U U U U U U U U U U U U U U U U U U U U U U U U U U U U U U U U U U U U U U U U U U U U U U U U U U U U U U U U U U ",
"U U U U U U U U U U U U U U U U U U U U U U U U U U U U U U U U U U U U U U U U U U U U U U U U U U U U U U U U U U U U U U U U ",
"U U U U U U U U U U U U U U U U U U U U U U U U U U U U U U U U U U U U U U U U U U U U U U U U U U U U U U U U U U U U U U U U ",
"U U U U U U U U U U U U U U U U U U U U U U U U U U U U U U U U U U U U U U U U U U U U U U U U U U U U U U U U U U U U U U U U ",
"U U U U U U U U U U U U U U U U U U U U U U U U U U U U U U U U U U U U U U U U U U U U U U U U U U U U U U U U U U U U U U U U ",
"U U U U U U U U U U U U U U U U U U U U U U U U U U U U U U U U U U U U U U U U U U U U U U U U U U U U U U U U U U U U U U U U ",
"U U U U U U U U U U U U U U U U U U U U U U U U U U U U U U U U U U U U U U U U U U U U U U U U U U U U U U U U U U U U U U U U ",
"U U U U U U U U U U U U U U U U U U U U U U U U U U U U U U U U U U U U U U U U U U U U U U U U U U U U U U U U U U U U U U U U ",
"U U U U U U U U U U U U U U U U U U U U U U U U U U U U U U U U U U U U U U U U U U U U U U U U U U U U U U U U U U U U U U U U ",
"W W W W W W W W W W W W W W W W W W W W W W W W W W W W W W W W W W W W W W W W W W W W W W W W W W W W W W W W W W W W W W W W ",
"D D D D D D D D D D D D D D D D D D D D D D D D D D D D D D D D D D D D D D D D D D D D D D D D D D D D D D D D D D D D D D D D ",
"D D D D D D D D D D D D D D D D D D D D D D D D D D D D D D D D D D D D D D D D D D D D D D D D D D D D D D D D D D D D D D D D "
};
