/* XPM */
static char *_0204efdebbe4da58d7acbb022cdfe86uSVY4fWMABLGopxw[] = {
/* columns rows colors chars-per-pixel */
"64 64 244 2 ",
"   c #040503",
".  c #081209",
"X  c #161305",
"o  c #000E12",
"O  c #0A1816",
"+  c #151A16",
"@  c #230E00",
"#  c #2B1500",
"$  c #2C1602",
"%  c #341C00",
"&  c #391F00",
"*  c #19231D",
"=  c #0A3215",
"-  c #3B2406",
";  c #2C281B",
":  c #05132B",
">  c #1A1C24",
",  c #030B33",
"<  c #061939",
"1  c #181B35",
"2  c #192828",
"3  c #17253B",
"4  c #103034",
"5  c #252A25",
"6  c #2B383A",
"7  c #303331",
"8  c #432A06",
"9  c #4E3612",
"0  c #30403C",
"q  c #574114",
"w  c #674F1D",
"e  c #514D37",
"r  c #624D28",
"t  c #705A33",
"y  c #75612E",
"u  c #796538",
"i  c #0A1850",
"p  c #152748",
"a  c #1A3748",
"s  c #0E3058",
"d  c #193958",
"f  c #2A3946",
"g  c #283957",
"h  c #031A72",
"j  c #062B66",
"k  c #0B3869",
"l  c #183767",
"z  c #083778",
"x  c #123171",
"c  c #2C3A61",
"v  c #0F4D5B",
"b  c #364D4F",
"n  c #364959",
"m  c #144C6F",
"M  c #184A79",
"N  c #264A6A",
"B  c #375768",
"V  c #304E70",
"C  c #2A5775",
"Z  c #38657C",
"A  c #48514D",
"S  c #445657",
"D  c #695843",
"F  c #6C5A44",
"G  c #725E43",
"H  c #725E4A",
"J  c #516C53",
"K  c #7B6443",
"L  c #75624B",
"P  c #7A6648",
"I  c #6C6252",
"U  c #736357",
"Y  c #7A6956",
"T  c #756559",
"R  c #74685F",
"E  c #4B5E6D",
"W  c #4E6D72",
"Q  c #44697B",
"!  c #7D6F66",
"~  c #66727C",
"^  c #836B3B",
"/  c #A6773D",
"(  c #846A46",
")  c #916E49",
"_  c #887447",
"`  c #8C744A",
"'  c #96784A",
"]  c #856E56",
"[  c #8A7657",
"{  c #967B56",
"}  c #947D54",
"|  c #A47745",
" . c #A47C4A",
".. c #817267",
"X. c #8A7967",
"o. c #88776B",
"O. c #937E69",
"+. c #8A7F74",
"@. c #E0BF3D",
"#. c #EECB34",
"$. c #9D844C",
"%. c #9A8355",
"&. c #998457",
"*. c #9C845B",
"=. c #AB834A",
"-. c #A6895A",
";. c #B38953",
":. c #B1945B",
">. c #9B8464",
",. c #998667",
"<. c #8D8E72",
"1. c #948372",
"2. c #9C8A77",
"3. c #A38D65",
"4. c #A38D6C",
"5. c #AA9366",
"6. c #B29869",
"7. c #A28C74",
"8. c #A99478",
"9. c #B59C77",
"0. c #BEA66E",
"q. c #BBA37B",
"w. c #C4A97A",
"e. c #E4D352",
"r. c #CED57C",
"t. c #001D8A",
"y. c #002E84",
"u. c #013685",
"i. c #033997",
"p. c #033BA7",
"a. c #0034B3",
"s. c #0C488A",
"d. c #15568E",
"f. c #094697",
"g. c #285385",
"h. c #285995",
"j. c #136296",
"k. c #2A6387",
"l. c #2A6598",
"z. c #347291",
"x. c #0947A7",
"c. c #134FAA",
"v. c #0356AB",
"b. c #175BA5",
"n. c #074AB6",
"m. c #0657B6",
"M. c #225BB1",
"N. c #1665AC",
"B. c #1A75AC",
"V. c #0768BA",
"C. c #1669B7",
"Z. c #1E77B7",
"A. c #306FAA",
"S. c #2A7AA5",
"D. c #286BB8",
"F. c #2B7BBA",
"G. c #4C7892",
"H. c #677B88",
"J. c #0035C3",
"K. c #034BC3",
"L. c #0359C4",
"P. c #0F55CA",
"I. c #0869C8",
"U. c #196BC5",
"Y. c #0679CB",
"T. c #1976C4",
"R. c #0671D7",
"E. c #1779D3",
"W. c #277BC7",
"Q. c #2F75C9",
"!. c #1D75E1",
"~. c #247BE1",
"^. c #3387BA",
"/. c #7A8A8B",
"(. c #4386B9",
"). c #5295B5",
"_. c #6693AE",
"`. c #77B9B7",
"'. c #7FC7B1",
"]. c #1984CA",
"[. c #2C83CA",
"{. c #3A89C8",
"}. c #3092CF",
"|. c #2A88D6",
" X c #388AD7",
".X c #3A9AD6",
"XX c #2D9BE4",
"oX c #4588C5",
"OX c #508ECE",
"+X c #4595CA",
"@X c #5B9ACE",
"#X c #4798D7",
"$X c #539BD6",
"%X c #649ECC",
"&X c #55A7CA",
"*X c #5AA6D6",
"=X c #51AFD3",
"-X c #55B2D4",
";X c #6DAECE",
":X c #69B5C9",
">X c #62ABDD",
",X c #7AB7D7",
"<X c #489EE0",
"1X c #56AEE4",
"2X c #69B3E9",
"3X c #54C4D0",
"4X c #77C9D0",
"5X c #73CCED",
"6X c #9E9884",
"7X c #A89583",
"8X c #B29F83",
"9X c #BDA685",
"0X c #BEAB98",
"qX c #C1A987",
"wX c #C2AD97",
"eX c #C8B597",
"rX c #C9B9A6",
"tX c #94CEB5",
"yX c #B3E6AA",
"uX c #D9D397",
"iX c #E4D592",
"pX c #F4FA95",
"aX c #E6D4A8",
"sX c #E9DBB7",
"dX c #D0F5AF",
"fX c #F6E6BB",
"gX c #FFF0BD",
"hX c #8DB4C9",
"jX c #85BEE2",
"kX c #87C5D6",
"lX c #8FCCD1",
"zX c #ACD5D1",
"xX c #9DE4DC",
"cX c #B9E4D0",
"vX c #92D4E6",
"bX c #ACD9E9",
"nX c #91E8EA",
"mX c #CCF3CE",
"MX c #F9EBC4",
"NX c #E9FFCA",
"BX c #FFF2C7",
"VX c #FFFDD8",
"CX c #C9EDE5",
"ZX c #FCFEE3",
/* pixels */
"U U U U U U U U U U U U U U U U U U U U U U U U U U U U U U U U U U U U U U U U U U U U U U U U U U U U U U U U U U U U U U U U ",
"U U U U U U U U U U U U U U U U U U U U U U U U U U U U U U U U U U U U U U U U U U U U U U U U U U U U U U U U U U U U U U U U ",
"U U U U U U U U U U U U U U U U U U U U U U U U U U U U U U U U U U U U U U U U U U U U U U U U U U U U U U U U U U U U U U U U ",
"T T U U U U U U U U U U U U U U U U U U U U U U U U U U U U U U U U U U U U U U U U U U U U U U U U U U U U U U U U U U U U U U ",
"R R T T U U U U U U U U U U U U U U U U U U U U U U U U U U U U U U U U U U U U U U U U U U U U U U U U U U U U U U U U U U T R ",
"R R R R T T U U U U U U U U U U U U U U U U U U U U U U U U U U U U U U U U U U U U U U U U U U U U U U U U U U U U U U T R R ! ",
"! R R R R T T U U U U U U U U U U U U U U U U U U U U U U U U U U U U U U U U U U U U U U U U U U U U U U U U U U U T R R R ! ! ",
"..! R R R R T T U U U U U U U U U U U U U U U U U U U U U U U U U U U U U U U U U U U U U U U U U U U U U U U U U T R R R ! ! ! ",
"....! ! R R R U T U U U U U U U U U U U U U U U U U U U U U U U U U U U U U U U U U U U U U U U U U U U U U U U T R R R ! ! ! ..",
"..! ! ! R R R R T T U U U U U U U U U U U U U U U U U U U U U U U U U U U U U U U U U U U U U U U U U U U U U T R R R ! ! ! ....",
"........! R R R R T T U U U U U U U U U U U U U U U U U U U U U U U U U U U U U U U U U U U U U U U U U U U T R R R ! ! ! ......",
"o...! ! ! ! R R R R T T U U U U U U U U U U U U U U U U U U U U U U U U U U U U U U U U U U U U U U U U U T R R R ! ! ! ......o.",
"o.........! ! R R R R U T U U U U U U U U U U U U U U U U U U U U U U U U U U U U U U U U U U U U U U U T R R R ! ! ! ........o.",
"o.o.......! ! ! R R R R T T U U U U U U U U U U U U U U U U U U U U U U U U U U U U U U U U U U U U U T R R R ! ! ! ! ......o.o.",
"o.o.....! ..! ! R R U R T T U U U U U U U U U U U U U U U U U U U U U U U U U U U U U U U U U U U U T ! R R R ! ! ! ........o.o.",
"o.o.o...! ! ! ! R R ! U ! T T U U U U U U U U U U U U U U U U U U U U U U U U U U U U U U U U U U U U U R R ! ! ! ! ......o.o.o.",
"o.o.o.........! ! R R R R <.2.1.1.1.1.X.X.X.X.o.O.O.+.2.2.7.7.7.8.8.8.9.8.7X7X7.2.2.7X7X7.2.O.1.2.7.1.! R R ! ! ! ........o.o.o.",
"o.o.o.o.......! ! R R R ! e ; $ # @ @ % % % # % 8 8 8 8 8 9 8 - 8 8 9 8 % & $ & 8 # # $ $ % & $ - - 9 R R ! ! ! ! ......o.o.o.o.",
"o.o.o.o.........! ! R R U D t t _ &.&.5.6.q.6.6.0.9.w.w.-.3.3.5.-.*.6.5.>.%.-.:.6.%.} ` ] ` _ u r K I ! R ! ! ! ......! o.o.o.o.",
"o.o.o.o.o.......! ! R R R D t &.1.` $.' )  .;. .| ;.;.' |  .;.=./ =.=.;. . .;.;.=.;.;.=.=. .-.,.,.&.H U ! ! ! ! ......X.o.o.o.o.",
"o.o.o.o.o.......! ! ! R R G $.&.( ; : 3 A 6 : a A p d J n i p A n s i , p p 1 p 3 3 2 , = 1 > t [ &.K R ! ! ! ........o.o.o.o.o.",
"o.o.o.o.o.! ....! ! ! R R F u ! ) V a..XdX-Xa.[.*Xa.E.nX1X,X#X~.!.P.~.-XE.R.I.m.m.m.Y..X&X^.N.,.P &.P ! ! ! ! ........o.o.o.o.o.",
"o.o.o.o.o.......! ! ! R R G P &.) S i.D.&XQ.h.x J.n.Q.Q.U._.F.P.n.n.,XdXtXn.f.x.V.^.vXmXdXtX:X&.( %.K ! ! ! ! ........o.o.o.o.o.",
"o.o.o.o.o.o.....! ! ! R R P u &.' G.p.p.a.P.V n %XD.K.K.m.K.m.D.M.x.F.-X{.u.t.p.R.3XyXiXuXtX:X! ` :.P ! ! ! ! ......o.o.o.o.o.o.",
"o.o.o.o.o.o.......! ! ! R D u &.) G.m.p.c.P.y.<.pX(.a.C.}.,XhXhX%XoXQ.n.i.C.W.n.L.4XpX#.dXtX'.<.` :.K ! ! ! ........o.o.o.o.o.o.",
"o.o.o.o.o.o.......! ! ! R G $.&.) G.[.x.f.K.z l.%XZ.T..X,XzX*X;X,X#X1XOXi.hXNX+XK.-XmXe.@.r.4X<.( %._ ! ! ! ........o.o.o.o.o.o.",
"o.o.o.o.o.o.......! ! ! R G $.5.| z. X_.A.D.d.j.XX$X>X1X_.Z.I.I.Q.OXW.OXm.^.cX*XK.v.4XdXr.yX&X..) &.P ! ! ! ........o.o.o.o.o.o.",
"o.o.o.o.o.o.......! ! ! R P ^ 5. .G.E.(.*X>X).b @X2XjX;Xi.^.,X#XE.#X>XD.x.L.R.|.C.x.^.=X-X].B.,.' *.] ! ! ! ........o.o.o.o.o.o.",
"o.o.o.o.o.o.......! ! ! ! G u 3.' /.<XT.[.>XZ + @XW.`.`.I.#X$X@X|.<X2X$Xc.C.v.V.B.V.V.L.v.f.N.,.` -.] ! ! ! ........o.o.o.o.o.o.",
"o.o.o.o.o.o.......! ! ! ! D P ,.| /. X>X5X{.2 2 [.s.f.I.<X>XT.C.W.$X>XoX>XhX_.T.V.].I.L.V.S.hX5.[ 3.( ! ! ! ........o.o.o.o.o.o.",
"o.o.o.o.o.o.......! ! ! R Y ^ &. .~ +X(.~.^.. O s.C.x.I.|.>X>X XU.{.OX&X*X{.oX#Xv.V.}.,XzXcXzX,.' 3.( ! ! ! ........o.o.o.o.o.o.",
"o.o.o.o.o.o.......! ! ! R H ^ &. .H.$XU.).yX2   a ].<XbXvX|.Q.1X#X%X#X]. X[.W.oXp.^.zXCXCXbXkX3.[ -.K ! ! ! ........o.o.o.o.o.o.",
"o.o.o.o.o.o.....! ! ! ! R L ^ &.` H.n.v.+X`.2   k XXCXVXZX2Xn.oX+XE.V.V.}.+X{.M.A.mXzX=X&XB B ,.{ -.( ! ! ! ........o.o.o.o.o.o.",
"o.o.o.o.o.o.......! ! ! R L y &. .G.b.S.m.z @   s E.bXZXZXkXT.Q.|.Y.^.+X-XvX;X:XxXxX5X^.<   , [ -.-.K ! ! ! ........o.o.o.o.o.o.",
"o.o.o.o.o.o.....! ! ! ! R L y %.) 1._.tX.Xz X X 4 j.+XbXbXlXkXkXkXlXxXxXkXxXvX5X=XS.C i , p i Y -.*.K ! ! ! ........o.o.o.o.o.o.",
"o.o.o.o.o.......! ! ! ! R I y &.` 6X+X^.nXz.  + = < h.5XlX,X4X;X:X4XF.M.A.g.g.d.x i i f.B.C.b.R ' %.K ! ! ! ..........o.o.o.o.o.",
"o.o.o.o.o.......! ! ! R U H t &.' /.C.S..X^.+ + 5 : 7 _.XXY.v.A.|.N.c.f.f.h h x.d.n.n.T.U.m.b.! { ' t ! ! ! ! ........o.o.o.o.o.",
"o.o.o.o.o.......! ! ! R ! D t &.{ E u.N.C.N.2 . * 6 *   s.c.h s.N.f.N.v.h.M.N.j.d.M M k.k.Z Q [ { %.u ! ! ! ! ........o.o.o.o.o.",
"o.o.o.o.X.....! ! ! ! R U H y ` { A i j k 3 O O 6 5 O . 3 l M S.d.d.l.B.N.l.m v C z.v C Q W B L { -.K ! ! ! ! ........o.o.o.o.o.",
"o.o.o.o.......! ! ! ! R ! L u %.{ S j s d O * 6 7 5 + * 2 N l.g.Z Z C M j.s.m g z M M ^.k.m m H [ %.( ! ! ! ! ..........o.o.o.o.",
"o.o.o.o.....! ! ! ! R R R L y %.' A N M l 2 5 5 O > 2 2 X f c f b C M d p a d N M 1 N N p j d G } } G ! ! ! ! ! ........o.o.o.o.",
"o.o.o.....! ! ! ! ! R R R L w ` ' A x g n 5 * O + 2 4 5 4 : p 4 d C B n i 1 1 m M W c p N v l I ' { D U ! ! ! ! ..........o.o.o.",
"o.o.o.....! ! ! ! R R R R H r ` ' 7 , = = : o o     o   o O   a C M f 6 d f g k i j j k 4 : < D ' *.F ! ! ! ! ! ! ........o.o.o.",
"o.o.......! ! ! ! R R R R ] q K ) A S J S W b 6 b b f 7 6 7 6 W (.Q n n E E G.E g d c n 3 b n t ( } F R R ! ! ! ! ..........o.o.",
"o.o.....! ! ! ! R R R R R ] w y G 4.0X9X8.0XuX0XrXrXrXrXrXwXeXeXq.eXeXeXqX9X9X9.q.8.4.6.>.,.9.F K ' t ! R ! ! ! ! ! ........o.o.",
"o.....! ! ! ! ! R R R R R I q ` 6X,.,.1.7.q.q.q.9.9.qXqXq.qXqXqXw.6.q.q.9.9.9.5.8.4.4.3.5.O.] ] *.^ r R R R ! ! ! ! ..........o.",
"o...! ! ! ! ! ! R R R R R D %.aXMXfXfXBXVXVXVXBXBXBXZXVXZXBXfXMXBXsXBXfXsXfXgXMXaXsXgXaXaXeX9XiXiX3.r ! R R ! ! ! ! ! ........o.",
"....! ! ! ! ! R R R R R T Y P 1.[ %.>.4.,.X.%.,.4.4.4.8.8.7.1.7.4.8.8X7.4.,.4.3.*.>.} [ ] ] ` ] { X.e R U ! ! ! ! ! ! ..........",
"..! ! ! ! ! R R R R R R T T U U U U U U U U U U U U U U U U U U U U U U U U U U U U U U U U U U U U T ! R R R ! ! ! ! ! ! ! ! ..",
"! ! ! ! ! R R R R R R T T U U U U U U U U U U U U U U U U U U U U U U U U U U U U U U U U U U U U U U U R R R R ! ! ! ! ! ! ....",
"! ! ! ! R R R R R R T T U U U U U U U U U U U U U U U U U U U U U U U U U U U U U U U U U U U U U U U U ! R R R R ! ! ! ! ! ....",
"! ! ! R R R R R R T T U U U U U U U U U U U U U U U U U U U U U U U U U U U U U U U U U U U U U U U U U U R R R R R ! ! ! ! ! ..",
"! ! R R R R R R T T U U U U U U U U U U U U U U U U U U U U U U U U U U U U U U U U U U U U U U U U U U U ! U R R R R ! ! ! ! ! ",
"! R R R R R R T T U U U U U U U U U U U U U U U U U U U U U U U U U U U U U U U U U U U U U U U U U U U U I U ! R R R R ! ! ! ! ",
"R R R R R R T T U U U U U U U U U U U U U U U U U U U U U U U U U U U U U U U U U U U U U U U U U U U U U U U U R R R R R ! ! ! ",
"R R R R R T T U U U U U U U U U U U U U U U U U U U U U U U U U U U U U U U U U U U U U U U U U U U U U U U U U U R R R R ! ! ! ",
"R R R R T T U U U U U U U U U U U U U U U U U U U U U U U U U U U U U U U U U U U U U U U U U U U U U U U U U U U U U R R R R ! ",
"R R T T U U U U U U U U U U U U U U U U U U U U U U U U U U U U U U U U U U U U U U U U U U U U U U U U U U U U U U U ! R R R R ",
"T T U U U U U U U U U U U U U U U U U U U U U U U U U U U U U U U U U U U U U U U U U U U U U U U U U U U U U U U U U U U R R R ",
"U U U U U U U U U U U U U U U U U U U U U U U U U U U U U U U U U U U U U U U U U U U U U U U U U U U U U U U U U U U U U U U R ",
"U U U U U U U U U U U U U U U U U U U U U U U U U U U U U U U U U U U U U U U U U U U U U U U U U U U U U U U U U U U U U U U U ",
"U U U U U U U U U U U U U U U U U U U U U U U U U U U U U U U U U U U U U U U U U U U U U U U U U U U U U U U U U U U U U U U U ",
"U U U U U U U U U U U U U U U U U U U U U U U U U U U U U U U U U U U U U U U U U U U U U U U U U U U U U U U U U U U U U U U U ",
"U U U U U U U U U U U U U U U U U U U U U U U U U U U U U U U U U U U U U U U U U U U U U U U U U U U U U U U U U U U U U U U U "
};
