/* XPM */
static char *_075407e1e7e46c0ea23b68d7baff5a45Ix9toSyWMFGes2N[] = {
/* columns rows colors chars-per-pixel */
"64 64 125 2 ",
"   c #736357",
".  c #72655C",
"X  c #7D6F66",
"o  c #9E7E52",
"O  c #817267",
"+  c #88776B",
"@  c #9B895E",
"#  c #B18F59",
"$  c #9B8964",
"%  c #9B8A6E",
"&  c #9F906C",
"*  c #9B8B77",
"=  c #948778",
"-  c #9C8D7A",
";  c #9F9072",
":  c #9C937D",
">  c #AC8E63",
",  c #A08F6E",
"<  c #AC9263",
"1  c #A4936E",
"2  c #AD926C",
"3  c #B39061",
"4  c #B59A6E",
"5  c #BC9B6E",
"6  c #A29372",
"7  c #A99671",
"8  c #AB9975",
"9  c #A3947B",
"0  c #A6997B",
"q  c #AB9B7C",
"w  c #B99C71",
"e  c #B29E7D",
"r  c #BBA07A",
"t  c #C09C6A",
"y  c #CBA771",
"u  c #C6A77B",
"i  c #EAD94E",
"p  c #EEDD54",
"a  c #F1E15B",
"s  c #F9EB67",
"d  c #FFF16D",
"f  c #8D8984",
"g  c #938D87",
"h  c #979285",
"j  c #999386",
"k  c #9B9795",
"l  c #9D9C9B",
"z  c #A19680",
"x  c #A49A83",
"c  c #AB9D83",
"v  c #A19688",
"b  c #A49C8B",
"n  c #AA9F89",
"m  c #B39F87",
"M  c #A19C95",
"N  c #AB9F91",
"B  c #A09E9A",
"V  c #ACA18B",
"C  c #B2A184",
"Z  c #B9A78C",
"A  c #B4A98F",
"S  c #BAAB8D",
"D  c #A7A192",
"F  c #ACA492",
"G  c #ACA59B",
"H  c #AEA89D",
"J  c #B4A592",
"K  c #B4AA94",
"L  c #BBAD94",
"P  c #B0A79B",
"I  c #B3AB9D",
"U  c #BBAF9B",
"Y  c #B7B09F",
"T  c #BAB19C",
"R  c #9B9FA3",
"E  c #A4A4A3",
"W  c #ADA7A0",
"Q  c #ADABA5",
"!  c #A4A6AA",
"~  c #ACABAA",
"^  c #B4ADA2",
"/  c #B8AFA5",
"(  c #B1AEA9",
")  c #B7B1A5",
"_  c #BBB3A5",
"`  c #B3B0AD",
"'  c #BCB5AC",
"]  c #B1B0B0",
"[  c #BEBBB4",
"{  c #B7B8BB",
"}  c #B9BABC",
"|  c #C3AB84",
" . c #C0AD8C",
".. c #C8B08B",
"X. c #D1B186",
"o. c #C3B49D",
"O. c #C9B69A",
"+. c #D6BC99",
"@. c #C1B6A3",
"#. c #CABBA4",
"$. c #C1B7A9",
"%. c #C3BBAC",
"&. c #C6BDB3",
"*. c #C0BEBB",
"=. c #EBE096",
"-. c #EEE49B",
";. c #D8C5AE",
":. c #C6C0B0",
">. c #CEC3B2",
",. c #C6C2B9",
"<. c #D2C6B4",
"1. c #F1E7A0",
"2. c #F4ECA8",
"3. c #F8F0AB",
"4. c #FFF7B4",
"5. c #B8BDC5",
"6. c #C4C4C5",
"7. c #C8C8C5",
"8. c #C4C6C9",
"9. c #DAD6CF",
"0. c #D0D4D8",
"q. c #D2D6DC",
"w. c #E6DDCD",
"e. c #E3DFDC",
"r. c #E7E4E0",
/* pixels */
"    . . . . X X X X O O O O O O + + + + + + + + + + + + + + + + + + + + + + + + + + + + + + + + + + + + + O O O O X X           ",
"  . . . . X X X X O O O O O O + + + + + + + + + + + + + + + + + + + + + + + + + + + + + + + + + + + + + + + O O O O X X         ",
"  . . . . X X X O O O O O O + + + + + + + + + + + + + + + + + + + + + + + + + + + + + + + + + + + + + + + + + O O O O X         ",
". . . . X X X O O O O O O + + + + + + + + + + + + + + * * * * * * * * * * * + + + + + + + + + + + + + + + + + + O O O O X       ",
". . . . X X O O O O O O + + + + + + + + + + + * * * * * * * * * * * * * * * * * * * + + + + + + + + + + + + + + + O O O O       ",
". . . X X X O O O O O + + + + + + + + + + * * * * * * * * * * * * * * * * * * * * * * * + + + + + + + + + + + + + + O O O X     ",
". . . X X O O O O O + + + + + + + + * * * * * * * * * * * * * * * * * * * * * * * * * * * * * + + + + + + + + + + + + O O O     ",
". . X X X O O O O + + + + + + + + * * * * * * * * * * * * * * * * * * * * * * * * * * * * * * * + + + + + + + + + + + + O O X   ",
". . X X O O O O + + + + + + + * * * * * * * * * * * * * * * * * * * * * * * * * * * * * * * * * * * + + + + + + + + + + + O O   ",
". . X X O O O + + + + + + + * * * * * * * * * * * * * * * * * * * * * * * * * * * * * * * * * * * * * + + + + + + + + + + + O   ",
". X X O O O O + + + + + + * * * * * * * * * * * * * * * * * * * * * * * = * * * * * * * * * * * * * * * + + + + + + + + + + O O ",
". X X O O O + + + + + + * * * * * * * * * * * * * * * * % % % % % % % % % % * * * * * * * * * * * * * * * + + + + + + + + + + O ",
". X X O O O + + + + + * * * * * * * * * * * * * * % % % % % % % % % % % % % % % % * * * * * * * * * * * * * + + + + + + + + + O ",
". X O O O + + + + + * * * * * * * * * * * * * % % % % % % % % % % % % % % % % % % % % * * * * * * * * * * * * + + + + + + + + + ",
"X X O O O + + + + * * * * * * * * * * * * % % % % % % % % % % % % % % % % % % % % % % % % * * * * * * * * * * * + + + + + + + + ",
"X X O O + + + + * * * * * * * * * * * * % % % % % % % % % % % % % % % % % % % % % % % % % % * * * * * * * * * * * + + + + + + + ",
"X X O O + + + + * * * * * * * * * * * % % % % % % % % % % % % % % % % % % % % % % % % % % % % * * * * * * * * * * + + + + + + + ",
"X O O O + + + * * * * * * * * * * * % % % * % % % % % % % % $ $ $ $ $ $ $ % % % % % % % % % % % * * * * * * * * * * + + + + + + ",
"X O O + + + * * * * * * * * * * * % % % % % % % % % % $ $ $ $ $ $ $ $ $ $ $ $ $ % % % % % % % % % * * * * * * * * * * + + + + + ",
"X O O + + + * * * * * * * * * * % % % % % % % % % $ $ $ $ $ $ $ $ $ $ $ $ $ $ $ $ $ % % % % % % % % * * * * * * * * * + + + + + ",
"X O O + + + * * * * * * * * * % % % % % % % % % $ $ $ $ $ $ $ $ $ $ $ $ $ $ $ $ $ $ $ % % % % % % % % * * * * * * * * + + + + + ",
"X O O + + * * * * * * * * * * % % % % % % % % $ $ $ $ $ $ $ $ $ $ $ $ $ $ $ $ $ $ $ $ $ % % % % % % * * * * * * * * * * + + + + ",
"X O + + + * * * * * * * * * % % % % % % % % $ $ $ $ $ $ $ $ $ C Z 9 I | 1 $ $ $ $ $ $ $ $ % % % % % % % * * * * * * * * + + + + ",
"X O + + * * * * * * * * * * % % % % % % % $ $ $ $ $ $ $ $ $ & G ..U O.o.D $ $ $ $ $ $ $ $ $ % % % % % % * * * * * * * * * + + + ",
"O O + + * * * * * * * * * % % % % % % % $ $ $ $ $ $ $ $ c % $ K S ( @.O.F $ 6 * $ $ $ $ $ $ $ % % % % % % * * * * * * * * + + + ",
"O O + + * * * * * * * * * % % % % % % % $ $ $ $ $ $ $ $ ) $ $ L q &.<.o.) @ H C $ $ $ $ $ $ $ % % % % % % * * * * * * * * + + + ",
"O O + + * * * * * * * * * % % % % % % $ $ $ $ $ $ $ % 1 -.$ ; A e 2.1.V V @ 1.L @ $ $ $ $ $ $ $ % % % % % * * * * * * * * + + + ",
"O O + * * * * * * * * * % % % % % % % $ $ $ $ , x $ n K i & ` r 8 a a q $ e a :.x $ V 6 $ $ $ $ % % % % % % * * * * * * * * + + ",
"O O + * * * * * * * * * % % % % % % % $ $ $ $ % e.6 0 7. .> [ 8 L w.<.q A A S S 7.& _ 6 $ $ $ $ % % % % % % * * * * * * * * + + ",
"O O + * * * * * * * * * % % % % % % $ $ $ $ $ % 4.c 7 2.2 V Y 8 L r.9.C T %.<  .3.1 =.C $ $ $ $ $ % % % % % * * * * * * * * + + ",
"O O + * * * * * * * * * % % % % % % $ $ $ $ $ $ d V , a : I T 1 n q.q.c Z 0.: ) s 1 p q $ $ $ $ $ % % % % % * * * * * * * * + + ",
"O O + * * * * * * * * * % % % % % % $ $ $ $ $ $ y C $ r } G # 8 Q ;.>.b < L L C w 1 4 1 $ $ $ $ $ % % % % % * * * * * * * * + + ",
"O O + * * * * * * * * * % % % % % % $ $ $ $ $ b o m P u #.I | $.@.X.+.#.t 5 #.+.> o.e * $ $ $ $ $ % % % % % * * * * * * * * + + ",
"O O + * * * * * * * * * % % % % % * $ $ $ $ $ l j g k 4 = - c M K 3 m ' @.x x 2 q G N f $ $ $ $ $ % % % % % * * * * * * * * + + ",
"O O + * * * * * * * * * % % % % % % $ $ $ $ $ R E J v ^ ( ' I G *.[ ( @.&.{ ` W G c ' ! $ $ $ $ $ % % % % % * * * * * * * * + + ",
"O O + * * * * * * * * * % % % % % % $ $ $ $ $ P { { B Q 5.' ) { ^ / { 7.6.6.6.~ ! Q ] ,.$ $ $ $ $ % % % % % * * * * * * * * + + ",
"O O + * * * * * * * * * % % % % % % % $ $ $ $ % Q E ] M j b k l E ~ } 8.$.B j j { 6 D F $ $ $ $ % % % % % % * * * * * * * * + + ",
"O O + * * * * * * * * * * % % % % % % $ $ $ $ $ , J ~ G v $ v k G n j ) *.W b N M G @ $ $ $ $ $ % % % % % * * * * * * * * * + + ",
"O O + + * * * * * * * * * % % % % % % $ $ $ $ $ $ 9 ( W E D 0 J x H 9 h N 9 ! ~ l b $ $ $ $ $ $ % % % % % * * * * * * * * + + + ",
"O O + + * * * * * * * * * % % % % % % % $ $ $ $ $ 6 Q , b z $ $ : 5.E $ $ > b x c * $ $ $ $ $ % % % % % % * * * * * * * * + + + ",
"O O + + * * * * * * * * * * % % % % % % $ $ $ $ $ * % $ $ $ $ $ 6 G q @ @ @ @ $ $ $ $ $ $ $ $ % % % % % * * * * * * * * * + + + ",
"O O + + * * * * * * * * * * % % % % % % % $ $ $ $ $ $ $ $ $ $ $ $ $ $ $ $ $ $ $ $ $ $ $ $ $ % % % % % % * * * * * * * * * + + + ",
"O O + + + * * * * * * * * * * % % % % % % % $ $ $ $ $ $ $ $ $ $ $ $ $ $ $ $ $ $ $ $ $ $ $ % % % % % % * * * * * * * * * + + + + ",
"O O O + + * * * * * * * * * * % % % % % % % % $ $ $ $ $ $ $ $ $ $ $ $ $ $ $ $ $ $ $ $ $ % % % % % % % * * * * * * * * * + + + + ",
"O O O + + + * * * * * * * * * * % % % % % % % % $ $ $ $ $ $ $ $ $ $ $ $ $ $ $ $ $ $ $ % % % % % % % * * * * * * * * * + + + + + ",
"O O O + + + * * * * * * * * * * * % % % % % % % % $ $ $ $ $ $ $ $ $ $ $ $ $ $ $ $ $ % % % % % % % * * * * * * * * * * + + + + + ",
"O O O + + + * * * * * * * * * * * * % % % % % % % % % $ $ $ $ $ $ $ $ $ $ $ $ $ % % % % % % % % * * * * * * * * * * * + + + + + ",
"O O O O + + + * * * * * * * * * * * = % % % % % % % % % % % $ $ $ $ $ $ $ % % % % % % % % % % * * * * * * * * * * * + + + + + + ",
"O O O O + + + + * * * * * * * * * * * * % % % % % % % % % % % % % % % % % % % % % % % % % % * * * * * * * * * * * + + + + + + + ",
"X O O O + + + + * * * * * * * * * * * * * % % % % % % % % % % % % % % % % % % % % % % % % * * * * * * * * * * * * + + + + + + + ",
"X O O O O + + + + * * * * * * * * * * * * * * % % % % % % % % % % % % % % % % % % % % * * * * * * * * * * * * * + + + + + + + + ",
"X X O O O + + + + + * * * * * * * * * * * * * * = % % % % % % % % % % % % % % % % * * * * * * * * * * * * * * + + + + + + + + + ",
". X O O O O + + + + + * * * * * * * * * * * * * * * * * % % % % % % % % % % * * * * * * * * * * * * * * * * + + + + + + + + + X ",
". X X O O O + + + + + + * * * * * * * * * * * * * * * * * * * * * * * * * * * * * * * * * * * * * * * * * + + + + + + + + + + X ",
". . X O O O O + + + + + + * * * * * * * * * * * * * * * * * * * * * * * * * * * * * * * * * * * * * * * + + + + + + + + + + X X ",
". . X X O O O + + + + + + + * * * * * * * * * * * * * * * * * * * * * * * * * * * * * * * * * * * * * + + + + + + + + + + + X X ",
". . . X X O O O + + + + + + + * * * * * * * * * * * * * * * * * * * * * * * * * * * * * * * * * * * + + + + + + + + + + + X X   ",
". . . X X X O O O + + + + + + + + * * * * * * * * * * * * * * * * * * * * * * * * * * * * * * * + + + + + + + + + + + + O X X   ",
". . . . X X X O O O + + + + + + + + * * * * * * * * * * * * * * * * * * * * * * * * * * * * * + + + + + + + + + + + + O X X     ",
". . . . . X X X O O O + + + + + + + + + + * * * * * * * * * * * * * * * * * * * * * * * + + + + + + + + + + + + + + O X X X     ",
". . . . . . X X X O O O + + + + + + + + + + + * * * * * * * * * * * * * * * * * * * + + + + + + + + + + + + + + + O X X X       ",
"  . . . . . . X X X O O O + + + + + + + + + + + + + + * * * * * * * * * * * + + + + + + + + + + + + + + + + + + O X X X         ",
"  . . . . . . . X X X O O O + + + + + + + + + + + + + + + + + + + + + + + + + + + + + + + + + + + + + + + + + O X X X           ",
"    . . . . . . . X X X O O O + + + + + + + + + + + + + + + + + + + + + + + + + + + + + + + + + + + + + + + O X X X             "
};
