/* XPM */
static char *result[] = {
/* columns rows colors chars-per-pixel */
"64 64 189 2 ",
"   c #311316",
".  c #34121B",
"X  c #351D1C",
"o  c #381B1E",
"O  c #36211E",
"+  c #39221E",
"@  c #3E291F",
"#  c #381620",
"$  c #3A1D21",
"%  c #3D2522",
"&  c #3E2A23",
"*  c #412525",
"=  c #412A25",
"-  c #412629",
";  c #452D29",
":  c #433226",
">  c #453229",
",  c #4A362F",
"<  c #57382F",
"1  c #4C3831",
"2  c #573B33",
"3  c #5A3E35",
"4  c #5A3F38",
"5  c #245A14",
"6  c #2A5E17",
"7  c #295F19",
"8  c #276615",
"9  c #2D631B",
"0  c #2E6A1C",
"q  c #31651D",
"w  c #346A1E",
"e  c #34721F",
"r  c #356B20",
"t  c #396E21",
"y  c #3A6D28",
"u  c #3B7223",
"i  c #3D7E22",
"p  c #3F732A",
"a  c #5D4037",
"s  c #5E4139",
"d  c #61433A",
"f  c #40732A",
"g  c #5E5C5C",
"h  c #654A41",
"j  c #765346",
"k  c #785447",
"l  c #775549",
"z  c #7A5649",
"x  c #7D594B",
"c  c #7F5D50",
"v  c #5F6161",
"b  c #626363",
"n  c #666A6A",
"m  c #686C6C",
"M  c #736F6F",
"N  c #757575",
"B  c #787D7F",
"V  c #815B4D",
"C  c #805E51",
"Z  c #826052",
"A  c #85675D",
"S  c #876A5E",
"D  c #896A5F",
"F  c #8C6663",
"G  c #8C6D62",
"H  c #8F7065",
"J  c #917266",
"K  c #947469",
"L  c #97796D",
"P  c #99796D",
"I  c #3E8023",
"U  c #448526",
"Y  c #468926",
"T  c #498B27",
"R  c #478728",
"E  c #4F852B",
"W  c #478928",
"Q  c #4A8D29",
"!  c #52852D",
"~  c #558B2F",
"^  c #459225",
"/  c #499627",
"(  c #4D9A27",
")  c #479428",
"_  c #4B9529",
"`  c #4D9A29",
"'  c #509E27",
"]  c #54912E",
"[  c #519D2A",
"{  c #4E8C32",
"}  c #578B30",
"|  c #588E30",
" . c #5D8F39",
".. c #549232",
"X. c #599531",
"o. c #559D34",
"O. c #5F923A",
"+. c #639535",
"@. c #659B37",
"#. c #65963A",
"$. c #679D38",
"%. c #689F38",
"&. c #56A42C",
"*. c #58A62D",
"=. c #57A82C",
"-. c #5CAB2E",
";. c #57A534",
":. c #5CA635",
">. c #5EAD31",
",. c #5EB234",
"<. c #66A436",
"1. c #68A636",
"2. c #60AF31",
"3. c #6AA23A",
"4. c #61AC39",
"5. c #6DAA3B",
"6. c #76A53E",
"7. c #75AD3D",
"8. c #78AF3E",
"9. c #61B335",
"0. c #68B735",
"q. c #62B836",
"w. c #6AB936",
"e. c #65B539",
"r. c #69B53B",
"t. c #64B939",
"y. c #6ABA3B",
"u. c #7AB13E",
"i. c #76C33E",
"p. c #78C53F",
"a. c #6E9E41",
"s. c #6EA242",
"d. c #68AE42",
"f. c #70A542",
"g. c #73A944",
"h. c #79AD41",
"j. c #77A94C",
"k. c #6DBA43",
"l. c #7CB342",
"z. c #71BD44",
"x. c #7EBB43",
"c. c #7AC641",
"v. c #7AC546",
"b. c #7DCA43",
"n. c #80B744",
"m. c #82BA45",
"M. c #85B94A",
"N. c #86BC4A",
"B. c #92BB5F",
"V. c #84C246",
"C. c #89C246",
"Z. c #81CD45",
"A. c #83C74A",
"S. c #8BC34B",
"D. c #84CC4D",
"F. c #92CC4E",
"G. c #85D147",
"H. c #88D14E",
"J. c #91CB50",
"K. c #93C558",
"L. c #9ADB56",
"P. c #9DDE59",
"I. c #A1DF5A",
"U. c #A4E35D",
"Y. c #96C361",
"T. c #9BC765",
"R. c #97C961",
"E. c #9BCC64",
"W. c #9CC66A",
"Q. c #9ECE69",
"!. c #9FD167",
"~. c #A0CF68",
"^. c #A3D36B",
"/. c #A5DC6A",
"(. c #A5C679",
"). c #A6CC7A",
"_. c #A8D575",
"`. c #A5E461",
"'. c #ADEA64",
"]. c #ADE768",
"[. c #B0ED65",
"{. c #ABCE81",
"}. c #ABD280",
"|. c #B1DA84",
" X c #B5D989",
".X c #B5E285",
"XX c #BAE58C",
"oX c #C1EB91",
"OX c #C1F290",
/* pixels */
"`.P.U.L.=.( &.&.w.y.e.w.c.b.b.c./ U T T &.&.&.&.-.9.2.9.e.e.9.y.L.U.U.L._ U W Q &.*.&.&.*.*.&.&.2.2.>.>.2.2.2.2.e.y.y.e.2.-.-.4.",
"].`.'.U.-.&.&.=.e.y.e.y.b.b.G.c.Q f U R *.*.*.*.-.>.-.-.y.y.y.y.`.'.[.U.Q i U Y &.&.&.&.&.&.&.&.>.2.>.9.-.>.-.-.e.y.y.e.9.9.9.r.",
"].`.[.`.*.( &.&.e.y.y.y.b.b.G.p.R U U Y &.*.&.&.-.>.>.>.y.y.e.y.U.'.'.U.Q I U U &.*.&.&.*.*.&.&.-.>.>.>.2.2.>.9.y.y.y.y.>.>.2.r.",
"/.P.U.L.=.&.&.=.e.y.e.e.c.b.Z.c._ U W Q &.*.&.*.2.9.>.2.e.0.e.y.L.U.U.L._ U W Q &.*.*.&.&.&.&.&.>.9.,.>.-.-.-.>.e.e.e.e.>.>.>.e.",
"2.*.*.-.0.w.w.0.&.&.&.;.c.Z.b.c.e.e.e.w.&.&.&.*.e.e.,.,.,.,.-.2.y.y.y.y.9.,.e.,.>.-.,.-.` / / ' c.b.Z.p.` / ` ` ` ` ` [ >.2.>.e.",
";.&.( &.w.y.i.w.&.&.&.&.c.b.b.b.y.y.y.y.&.&.&.*.t.,.c.,.,.;.2.-.9.e.9.e.e.y.t.t.,.>.9.-.` / / [ b.Z.Z.c.` ) ` / / _ _ ` -.2.2.4.",
":.&.[ &.w.i.w.0.=.&.&.=.b.b.Z.b.t.e.e.9.&.&.&.*.,.i.,.,.,.,.2.2.r.k.y.y.t.,.t.q.>.>.,.>.` ` / ` c.Z.Z.c.` ^ _ _ ` ` ` ` -.>.>.4.",
"4.*.*.*.w.w.i.0.&.&.&.&.c.b.b.c.y.y.y.y.*.&.&.;.,.t.,.,.-.-.-.-.e.y.e.e.q.e.t.q.>.>.,.>.` ` / ` c.b.Z.c.[ ` [ ` / ` / [ -.2.>.r.",
"A.c.b.c.y.e.y.e.Q Y W T >.2.-.9.L.U.U.P.e.,.t.,.&.*.*.&.T W Y Q -.2.-.9.,.t.t.e.>.>.>.-.` / / ` c.Z.b.c.p.p.b.p.Q U U Q e.y.w.k.",
"D.Z.Z.b.e.y.y.e.W U U W -.,.=.-.U.'.'.I.y.,.t.,.*.&.*.' R U U Y =.,.2.-.e.t.,.t.,.>.>.-.( / / &.c.Z.c.b.Z.G.G.b.T U U Q e.y.y.z.",
"H.G.Z.Z.y.y.y.y.Q U R T -.2.=.9.U.[.[.U.,.,.,.,.*.*.=.*.U i i U -.2.-.-.,.t.t.q.9.2.9.-.) ^ Y / c.Z.b.b.b.b.G.c.T U U Q y.y.r.k.",
"v.p.c.c.0.e.w.9.Q Y R Q 2.2.-.2.L.I.I.L.y.,.t.t.&.&.*.&.Q Q Q _ 2.2.2.2.t.,.t.,.-.-.-.-.` &.( [ c.b.b.b.c.c.b.u.Q U U Q e.y.e.z.",
"..Q T Q &.*.*.&.Q W U Q 9.t.q.e.[ ( / &.L.U.U.L.Q U e ] L.U.U.L.p.p.b.c.y.e.y.e.*.&.' -.L.U.U.P.b.c.Z.c.2.-.9.2.&.&.&.&.y.i.t.y.",
"{ R U R &.*.&.&.W W U T e.q.t.9.) ^ ^ / U.[.[.P.T U I _ U.[.'.'.Z.Z.Z.b.y.y.y.e.&.&.' *.U.[.'.U.b.c.Z.c.-.-.-.-.&.*.&.=.w.w.y.c.",
"{ U I R ' *.&.&.I I i I ,.i.i.,./ ) Y [ U.[.[.U.T I i Q U.'.'.U.Z.b.G.b.y.y.y.e.&.&.( -.U.[.'.U.b.b.G.c.2.-.9.>.&.&.&.&.w.i.y.c.",
"..Q Q Q *.-.=.;.{ _ _ ) ,.,.,.,.[ ( / &.L.U.U.L.Q U Y ] L.U.U.L.p.p.p.p.e.e.y.e.*.&.&.=.L.I.P.L.b.p.b.c.2.-.-.-.&.&.&.&.0.w.0.z.",
"A.c.c.c.c.c.c.c.U.U.U.L.&.^ / [ p.b.p.p.t.,.q.t.e.e.e.y.y.y.y.e.[ / ` [ e.y.y.e.e.e.y.e.=.=.=.=.e.t.t.q.&.&.&.&.>.,.,.-.T T T ] ",
"H.b.G.b.b.G.b.b.U.U.[.U.' ^ ) ` b.G.G.b.e.,.,.,.y.y.y.y.e.,.y.,./ ) ) / r.y.y.e.y.y.y.y.[ ' [ ' ,.,.,.,.&.&.&.&.2.9.9.-.U U R Q ",
"H.b.b.b.b.b.b.b.U.'.'.U.[ Y ) ` c.Z.b.c.t.t.t.t.y.r.y.e.y.t.k.e.( / / ` e.y.y.y.y.y.y.w.&.&.' ;.,.t.t.t.&.&.&.&.-.2.9.-.Y U R { ",
"A.b.b.v.b.b.c.b.L.I.U.L.[ / / ` c.Z.b.b.t.,.,.,.e.y.e.y.r.r.y.e.` / / ` e.y.e.y.e.e.q.e.=.&.&.=.t.t.t.,.&.&.&.&.>.9.9.-.T W W ..",
">.&.=.;.t.y.y.e.2.-.2.2.-.-.-.>.c.Z.b.p.` / / [ e.y.y.e.y.y.y.e.,.-.2.-.e.t.t.,.` / ` ' ,.t.t.,.&.&.&.&.,.>.>.>.>.>.2.-.&.&.&.:.",
":.&.&.&.e.y.y.e.-.;.-.-.9.2.>.,.c.b.Z.c.` ) / ` e.k.y.y.r.r.y.y.9.2.,.,.t.,.t.,.( _ _ ` ,.t.i.,.&.&.&.&.,.9.>.2.-.>.2.>.&.*.-.4.",
"&.&.-.&.e.k.y.e.>.>.>.2.2.2.>.>.c.Z.D.c.` ) / ` r.y.y.k.y.e.r.e.>.>.2.2.,.t.q.e.` ` _ ` ,.t.t.,.&.=.&.*.-.4.>.>.2.>.2.>.&.&.&.&.",
"d.4.:.:.k.z.z.k.r.r.4.r.4.e.4.e.D.D.D.A.;.o.o.;.k.z.k.k.k.k.z.z.e.e.e.e.k.k.k.k.o.o.o.o.y.k.k.k.:.:.:.4.r.e.e.r.r.4.e.r.:.4.:.d.",
"j.f.s.f.f.f.6.s.s.f.f.s.O. .O.O.O.O.O.O.f.f.g.s.f y y p s.g.s.f.K.J.K.J.M.M.M.M.f.s.f.s.#. .O.O.s.f.f.s.O.O.O. .f y y f s.g.f.j.",
"3.$.$.3.%.$.$.$.3.<.3.$.~ ~ ~ ~ } } ~ ~ $.3.3.$.w q q w $.3.@.3.N.S.S.S.n.8.l.h.%.$.3.$.~ ~ ~ ~ $.3.3.$.~ ~ ~ ~ r q 9 w $.1.%.%.",
"f.%.%.%.3.3.3.3.@.$.$.@.~ ~ ~ ! E ! E E 1.5.7.<.q 9 9 q $.3.$.3.F.F.F.F.l.h.l.h.$.@.%.@.~ E ! ~ 3.3.3.%.~ ~ ~ ~ q 9 9 w $.3.%.f.",
"s.$.3.$.$.$.$.$.3.3.3.%.} } } } | | | ..#.@.$.#.t q w e @.3.@.%.N.N.C.N.l.l.n.l.3.%.3.%.} ~ ~ } $.$.<.$.~ ~ ~ ~ t w q t @.3.%.f.",
"f.3.3.$.~ ~ ! | N.S.S.N.u.l.8.l.R.E.!.B.> % % : +.<.%.$.} } X.~ u w 9 p R.^.Q.R.C.N.C.C.l.u.l.l.| } ~ ~ $.3.$.$.~ ~ ~ ~ %.3.$.f.",
"f.$.3.$.~ ! ! ~ S.F.F.S.n.l.l.n.Q.^.].W.& . # % %.7.3.3.~ ! } ! 9 6 5 w E.^.^.Q.F.S.F.S.l.l.m.l.~ ! ~ ~ 3.3.3.3.| ~ ~ | $.3.%.s.",
"3.@.$.@.X.] ] X.m.S.C.S.n.m.n.m.Q.^./.T.; X $ & @.5.$.$.X.~ X.] 9 9 5 w R.^.Q.E.S.N.S.S.u.7.u.7.X...] X.3.3.3.3.~ ~ ! ~ 1.5.5.g.",
"f.3.3.3.! ! ! } S.F.S.S.u.8.7.l.K.Q.^.Y.: X $ = @.3.1.%.~ ! ~ ! w w q p K.^.E.E.S.S.S.S.m.l.M.h.} E ! ! $.$.$.@.~ ~ ~ | #.@.@.a.",
"Q.E.!.Y.: $ O > )..X X).u 9 w t %.5.7.%.& $ $ = 7.m.n.8.: $ % : 7.x.7.h.S.S.S.S.R.E.E.E._.}..X).: o = = w t w t ~ ~ ..! : * = , ",
"^.^./.T.= . . = ).XXXX{.t 5 7 q +.@.<.+.& % $ = h.V.V.8.% # # & l.C.m.m.S.S.C.S.E.Q.E.~. X XXX{.= . $ % 9 0 9 0 ~ | X.! % o $ ; ",
"_./.].Q.=     & |.OXoX|.u 8 0 e @.1.r.@.& % $ : l.G.A.n.; $ $ & h.V.l.l.F.F.F.F.^.~.~.~..XXXOX}.= . $ & w e w w ] X.X.| & $ % ; ",
"W.Y.Q.B.> % $ > (.|.|.(.t 5 9 t %.3.3.#.& $ $ = 6.n.x.f.& $ $ : h.x.l.l.C.N.m.N.T.~.K.T.).{.|.(.> X * = q w q r ! ~ ~ ! = % * , ",
"1 ; & : g b b g > = = > = & + = S J J D = + % % = = : = % & $ & } X.X.! : = % : %.5.5.%.> = = ; 3 a s a & & & & = & & = 3 s 3 h ",
"- $ . % b n n b $   X X % % o * F K K G = O & % o $ o $ % % $ = ! ] ..! % . . % +.3.3.+.+ .   o s d s a % + $ % % $ $ % s d s h ",
"; % X % b n n b % X % + + O   & H P P H & X % + % % % % % % $ & } X.X.] = $ $ = %.r.r.3.@ o X @ a s s a % + % % % % % & a s s h ",
", = % & g b b g = % = * = & & ; A H G D ; % % = = % = & & & % & ! | } ! & % $ = +.3.3.+.= * = = a s s a = % & * % % % & 3 s a h ",
"c j z j s a s s j j j k F G H A ; * % = j z l j a 3 a a 3 a s a = = & = & % & % = = @ : g b v g d 3 3 s j k k j = % % & 3 d a h ",
"Z z x x a 2 2 3 x V k x J K L H + X X % z V x x s a s s s s s a % o $ % % % % = % $ X $ v m n b s 3 3 s x V V z & % % * 3 s a h ",
"Z z x z d a d d k z k z G J L G = X O = j x x k s a s s s s s a = + % & % % % % % % o & v m n b s 3 3 s k x V k % % % % 2 s 3 d ",
"c l z j a 2 3 3 k x j z G G J F = + % = j x z k a 3 a a a a s a * % = % & * & & = * % = g b v g d 3 3 a j z x j = % % % s d s h ",
"h s d 3 = * % = j x k k z z x k 3 3 3 3 k x x j = % = * = = = = & % % % 3 a a a 3 3 a a = & = = 3 d 3 3 d d 3 d a 4 2 s G H G J ",
"h 3 s 3 % + O * j x k z k k k k d 4 s d k z x j % O % % % + + * & % % = a d s s s s d a + + + + 3 d d a 3 3 3 3 s s 3 d G K J L ",
"d 3 3 3 % + O & k V x z z x V k 3 3 2 3 k x V k % O % % + + o + + + X + a s a a 3 2 a 2 + X O + 3 d 3 a 3 3 3 3 a a 2 s G K H L ",
"h s d s = % % = j z k k j k k k d 3 s s j z x j = % & * = = = = = = = ; a s a a s d d a ; = = ; 3 d 3 a s a d s a a 2 s G H G K ",
"K G H F s 2 3 3 s d d a d d 3 d M N N N d 3 d 3 3 3 2 a A H D D G G G G s 2 3 s D H G G D D H D d 2 3 d k k k k a 3 3 4 x x k C ",
"L J K H d 3 d a a 2 3 3 2 3 < a N B B N 3 2 3 3 d d 3 d J P J K J J L J s 3 3 d H K H J K J P J d 2 2 d k x x z d 3 3 d j k k C ",
"L H K H s 3 a a 2 2 2 2 2 2 < a N B B N s 3 3 3 a a 3 d H K J J G G J G d 3 3 d G K H H H H J G d 2 3 d k V V k 3 3 3 3 k k k C ",
"K G H S s 3 a a d d d d d d a d N N N M d 3 a d a a 2 d D H G D G G G G s 2 2 s D H G G G G H D d 3 3 3 k k k k d 3 3 d k x k C ",
"h s s s s a 2 s D G G G D G G D x j z k k j z k a 3 a a d d a d z x x k = % % = k V k k k z x k a 3 a a d a a s j z j k k x k C ",
"d 3 3 2 a a 3 s J K J J J J K J k j k k x z x k a 3 a a 3 3 2 3 j z x j % % O % j x k k k k k k d 3 a a 3 3 3 a k x z x k k k C ",
"h a a 2 a a 3 s G K J J H H J J x k x z k k z k d 3 a a a d a d z x V j % X X * j x k z z z V z a 3 a a a a 3 a x V x x x k x C ",
"h s s s a a 3 s D J D G G G J D k j j k k z z k a 3 a a 3 3 3 3 j k x j = % % = j V k k k k k k a 3 a a a a a s j k j j j k k C ",
"c k z j d 3 a a d d d d k x z k d 3 3 d k x x k a 3 a a = = * = 3 d 3 d j j j j k k z k d 3 s s a a a a a a s a - * & = 3 d d h ",
"Z z x k s 3 a a 2 2 2 3 j k k k 4 3 3 4 k x k k d 3 d 3 + + + + 3 4 3 4 x V x x z z z z 3 3 3 3 a a a a a a s a % O + % 3 a s d ",
"Z z x z a 3 3 3 d d a d z x x z s 3 3 s k V V x d a d d * + + * 3 d 3 s z x z x z z V z a 3 a a 2 2 2 3 2 3 3 2 % + + % 3 4 3 h ",
"c k z k s 3 a a 3 3 2 a j z k j s 3 3 a j k k j a 2 a 2 = = * = 3 d 3 s j k k k k j k j d 3 a a d d s d s s d s = % * = a d s h ",
"h s 3 d k k x j = + * = a d d 3 a a d 3 = & = = = = % = 3 a 3 3 a a a a 4 d a d a d a d 3 d 2 d D H D G G G H D s 2 3 3 j z k x ",
"h 3 3 a z x V k * + + = 2 d 3 3 s 3 d 3 % X % + + % + % a d d d a a a a 3 3 3 3 3 3 3 3 d 3 2 d H K J J J J K H d 3 s d z x x Z ",
"h s 3 s k z x j & O + + 2 3 2 3 3 2 3 2 % % % % O + + + 3 a 3 a a d d d 3 2 3 2 2 3 2 3 d a 3 d G J J J H H K G 3 < 2 3 z x z Z ",
"h 3 3 s k z V k = + * = a d d d d d d 3 = % % = = = = ; a d a a a 3 3 3 a d d s a d d d 3 3 2 d D J G G G G G G d 4 s s j z z c "
};
