/* XPM */
static char *_b8e75eca5b841f4e36c01a56636556bFiS7zirTT1KC4Qio[] = {
/* columns rows colors chars-per-pixel */
"64 64 130 2 ",
"   c #736357",
".  c #72655C",
"X  c #7D6F66",
"o  c #9E7E52",
"O  c #817267",
"+  c #88776B",
"@  c #9B895E",
"#  c #B18F59",
"$  c #9B8964",
"%  c #9B8A6E",
"&  c #9F906C",
"*  c #9B8B77",
"=  c #948778",
"-  c #9C8D7A",
";  c #9F9072",
":  c #AC8E63",
">  c #A08F6E",
",  c #AC9263",
"<  c #A4936E",
"1  c #AD926C",
"2  c #B39061",
"3  c #B4986E",
"4  c #BC9B6E",
"5  c #A29372",
"6  c #A99675",
"7  c #AB9A76",
"8  c #A3947B",
"9  c #A9957C",
"0  c #A6997F",
"q  c #AC9A7C",
"w  c #B59B70",
"e  c #B29E7D",
"r  c #BBA07A",
"t  c #C09C6A",
"y  c #CBA771",
"u  c #C6A77B",
"i  c #EAD94D",
"p  c #EEDD55",
"a  c #F1E15B",
"s  c #F9EB67",
"d  c #FFF16D",
"f  c #8D8984",
"g  c #938D87",
"h  c #979285",
"j  c #9A9384",
"k  c #9C968F",
"l  c #9F998D",
"z  c #9B9795",
"x  c #9D9C9B",
"c  c #A19680",
"v  c #A49984",
"b  c #AB9D83",
"n  c #A19688",
"m  c #A49C8B",
"M  c #AA9F89",
"N  c #B39F87",
"B  c #A19B93",
"V  c #AB9F91",
"C  c #A09E9A",
"Z  c #ACA084",
"A  c #A7A18F",
"S  c #AEA38B",
"D  c #B2A184",
"F  c #B8A387",
"G  c #B2A48B",
"H  c #B4A98F",
"J  c #BAAB8D",
"K  c #ACA392",
"L  c #A5A19C",
"P  c #ACA59B",
"I  c #AEA89E",
"U  c #B4A592",
"Y  c #B4AA92",
"T  c #BBAD94",
"R  c #B0A79B",
"E  c #B3AB9D",
"W  c #B7B09F",
"Q  c #BAB19C",
"!  c #9B9FA3",
"~  c #A4A4A3",
"^  c #ADA7A1",
"/  c #ADABA5",
"(  c #A4A6AA",
")  c #ACABA9",
"_  c #B3ADA3",
"`  c #B8AFA5",
"'  c #B0ADA9",
"]  c #B7B1A4",
"[  c #BBB3A5",
"{  c #B3B0AD",
"}  c #BCB5AC",
"|  c #B1B0B0",
" . c #BEBBB4",
".. c #B7B8BB",
"X. c #B9BABC",
"o. c #C3AB84",
"O. c #C0AD8A",
"+. c #C8B08A",
"@. c #D1B186",
"#. c #C3B49D",
"$. c #C9B69A",
"%. c #D6BC99",
"&. c #C1B6A4",
"*. c #CABBA4",
"=. c #C1B7A9",
"-. c #C3BBAC",
";. c #C6BDB3",
":. c #C0BEBB",
">. c #EBE097",
",. c #EEE49A",
"<. c #D8C5AE",
"1. c #C6C0B0",
"2. c #CEC3B2",
"3. c #C6C2BA",
"4. c #CDC8BD",
"5. c #D2C6B4",
"6. c #F1E7A0",
"7. c #F4ECA8",
"8. c #F8F0AB",
"9. c #FFF7B4",
"0. c #B8BDC5",
"q. c #C5C5C4",
"w. c #C8C8C5",
"e. c #C4C6C9",
"r. c #DAD6CF",
"t. c #D2D6DC",
"y. c #E6DDCD",
"u. c #E3DFDC",
"i. c #DDDFE1",
"p. c #E7E4E0",
/* pixels */
"                    O O O + + + + + + + + + + + + + + + + + + + + + + + + + + + + + + + + + + + + + + + X X X X                 ",
"              X O O O + + + + + + + + + + + + + + + + + + + + + + + + + + + + + + + + + + + + + + + + + + + X X X X             ",
"          X O O O + + + + + + + + + + + + + + + + + + * * * * * * * * * * * + + + + + + + + + + + + + + + + + + X X X X         ",
"      X O O O O + + + + + + + + + + + + + + + * * * * * * * * * * * * * * * * * * * + + + + + + + + + + + + + + + X X X X       ",
"  X X O O O O + + + + + + + + + + + + + + * * * * * * * * * * * * * * * * * * * * * * * + + + + + + + + + + + + + + O X X X     ",
"X X O O O O + + + + + + + + + + + + * * * * * * * * * * * * * * * * * * * * * * * * * * * * * + + + + + + + + + + + + O X X X   ",
"X O O O O + + + + + + + + + + + + * * * * * * * * * * * * * * * * * * * * * * * * * * * * * * * + + + + + + + + + + + + O X X X ",
"O O O O + + + + + + + + + + + * * * * * * * * * * * * * * * * * * * * * * * * * * * * * * * * * * * + + + + + + + + + + + O X X ",
"O O O + + + + + + + + + + + * * * * * * * * * * * * * * * * * * * * * * * * * * * * * * * * * * * * * + + + + + + + + + + + O X ",
"O O + + + + + + + + + + + * * * * * * * * * * * * * * * * * * * * * * * * * * * * * * * * * * * * * * * + + + + + + + + + + + O ",
"O + + + + + + + + + + + * * * * * * * * * * * * * * * % % % % % % % % % % * * * * * * * * * * * * * * * * + + + + + + + + + + + ",
"+ + + + + + + + + + + * * * * * * * * * * * * * % % % % % % % % % % % % % % % % * * * * * * * * * * * * * * + + + + + + + + + + ",
"+ + + + + + + + + + * * * * * * * * * * * = % % % % % % % % % % % % % % % % % % % % * * * * * * * * * * * * * + + + + + + + + + ",
"+ + + + + + + + + * * * * * * * * * * * % % % % % % % % % % % % % % % % % % % % % % % % * * * * * * * * * * * * + + + + + + + + ",
"+ + + + + + + + * * * * * * * * * * * % % % % % % % % % % % % % % % % % % * % % % % % % % * * * * * * * * * * * * + + + + + + + ",
"+ + + + + + + + * * * * * * * * * * % % % % % % % % % % % $ $ $ $ $ $ $ % % % % % % % % % % * * * * * * * * * * * + + + + + + + ",
"+ + + + + + + * * * * * * * * * * * % % % % % % % % $ $ $ $ $ $ $ $ $ $ $ $ $ * % % % % % % % * * * * * * * * * * * + + + + + + ",
"+ + + + + + * * * * * * * * * * % % % % % % % % $ $ $ $ $ $ $ $ $ $ $ $ $ $ $ $ $ % % % % % % % * * * * * * * * * * * + + + + + ",
"+ + + + + + * * * * * * * * * % % % % % % % % $ $ $ $ $ $ $ $ $ $ $ $ $ $ $ $ $ $ $ % % % % % % % * * * * * * * * * * + + + + + ",
"+ + + + + + * * * * * * * * % % % % % % % % $ $ $ $ $ $ $ $ e H 8 T o.< $ $ $ $ $ $ $ % % % % % % % * * * * * * * * * + + + + + ",
"+ + + + + * * * * * * * * * % % % % % % % $ $ $ $ $ $ $ $ & P +.Q $.#.A $ $ $ $ $ $ $ $ % % % % % % * * * * * * * * * * + + + + ",
"+ + + + + * * * * * * * * % % % % % % % $ $ $ $ $ $ $ Z $ @ H J ' &.$.S @ 5 & $ $ $ $ $ $ % % % % % % * * * * * * * * * + + + + ",
"+ + + + * * * * * * * * * % % % % % % $ $ $ $ $ $ $ $ ] $ @ J q  .2.&.Q @ I b $ $ $ $ $ $ $ % % % % % * * * * * * * * * * + + + ",
"+ + + + * * * * * * * * % % % % % % % $ $ $ $ $ $ & & ,.@ < H r 7.6.S Z @ 6.T @ $ $ $ $ $ $ % % % % % % * * * * * * * * * + + + ",
"+ + + + * * * * * * * * % % % % % % $ $ $ $ > v $ M Y i $ [ e 7 a a 6 & q a 1.0 $ G 5 $ $ $ $ % % % % % * * * * * * * * * + + + ",
"+ + + + * * * * * * * * % % % % % % $ $ $ $ < u.5 6 4.J $ ;.q T y.5.0 Y Y o.J w.% [ 8 $ $ $ $ % % % % % * * * * * * * * * + + + ",
"+ + + * * * * * * * * % % % % % % % $ $ $ $ % 9.q < 7.1 S Q 6 T p.r.Z T -., #.8.< >.N $ $ $ $ % % % % % % * * * * * * * * * + + ",
"+ + + * * * * * * * * % % % % % % $ $ $ $ $ $ d S > a 8 / Q 1 M i.t.b J t.* W s < p q $ $ $ $ $ % % % % % * * * * * * * * * + + ",
"+ + + * * * * * * * * % % % % % % $ $ $ $ $ $ y D : r X.P # 7 ) *.;.M : T T N w 5 w 6 $ $ $ $ $ % % % % % * * * * * * * * * + + ",
"+ + + * * * * * * * * % % % % % % $ $ $ $ $ B o S P u *.E O.-.=.@.%.*.t 4 <.$.: #.e * $ $ $ $ $ % % % % % * * * * * * * * * + + ",
"+ + + * * * * * * * * % % % % % % $ $ $ $ $ x = g k 3 = 8 9 B U 2 F } ` v 9 1 b P V f $ $ $ $ $ % % % % % * * * * * * * * * + + ",
"+ + + * * * * * * * * % % % % % % $ $ $ $ $ ! ~ U n _ ) } R P :.=.} =.;...| P P M } ( $ $ $ $ $ % % % % % * * * * * * * * * + + ",
"+ + + * * * * * * * * % % % % % % $ $ $ $ $ I ....L ) X.[ [ ../ } ..w.q.q.e.( ( / | 3.$ $ $ $ $ % % * % % * * * * * * * * * + + ",
"+ + + * * * * * * * * % % % % % % $ $ $ $ $ $ ) P { x j m x x L ) X.e.} V h j ..5 m K $ $ $ $ $ % % % % % * * * * * * * * * + + ",
"+ + + * * * * * * * * % % % % % % % $ $ $ $ $ % P ) P l @ l z I M h `  .^ m V C P $ % $ $ $ $ % % % % % % * * * * * * * * * + + ",
"+ + O * * * * * * * * % % % % % % % $ $ $ $ $ $ 0 ) P ~ K 0 K v R c h K q ( ) C m $ $ $ $ $ $ % % % % % % * * * * * * * * * + + ",
"+ + + * * * * * * * * * % % % % % % $ $ $ $ $ $ 5 / % M c % $ - 0.~ % % % m v m ; $ $ $ $ $ $ % % % % % * * * * * * * * * * + + ",
"+ + + + * * * * * * * * % % % % % % % $ $ $ $ $ ; & $ $ $ $ $ * I q $ $ $ $ $ $ $ $ $ $ $ $ % % % % % % * * * * * * * * * + + + ",
"+ + + + * * * * * * * * % % % % % % % $ $ $ $ $ $ $ $ $ $ $ $ $ $ $ $ $ $ $ $ $ $ $ $ $ $ $ % % % % % % * * * * * * * * * + + + ",
"+ + + + * * * * * * * * * % % % % % % % $ $ $ $ $ $ $ $ $ $ $ $ $ $ $ $ $ $ $ $ $ $ $ $ $ % % % % % % * * * * * * * * * * + + + ",
"+ + + + * * * * * * * * * % % % % % % % % $ $ $ $ $ $ $ $ $ $ $ $ $ $ $ $ $ $ $ $ $ $ $ % % % % % % % * * * * * * * * * * + + + ",
"+ + + + + * * * * * * * * * % % % % % % % % $ $ $ $ $ $ $ $ $ $ $ $ $ $ $ $ $ $ $ $ $ % % % % % % % * * * * * * * * * * + + + + ",
"+ + + + + * * * * * * * * * % % % % % % % % % $ $ $ $ $ $ $ $ $ $ $ $ $ $ $ $ $ $ $ % % % % % % % % * * * * * * * * * * + + + + ",
"+ + + + + + * * * * * * * * * % % % % % % % % % $ $ $ $ $ $ $ $ $ $ $ $ $ $ $ $ $ % % % % % % % % * * * * * * * * * * + + + + + ",
"+ + + + + + * * * * * * * * * * % % % % % % % % % % $ $ $ $ $ $ $ $ $ $ $ $ $ % % % % % % % % % * * * * * * * * * * * + + + + + ",
"+ + + + + + * * * * * * * * * * * % % % % % % % % % % % % $ $ $ $ $ $ $ % % % % % % % % % % % * * * * * * * * * * * * + + + + + ",
"+ + + + + + + * * * * * * * * * * * % % % % % % % % % % % % % % % % % % % % % % % % % % % % * * * * * * * * * * * * + + + + + + ",
"+ + + + + + + + * * * * * * * * * * * % * % % % % % % % % % % % % % % % % % % % % % % % % * * * * * * * * * * * * + + + + + + + ",
"O + + + + + + + * * * * * * * * * * * * % % % % % % % % % % % % % % % % % % % % % % % % * * * * * * * * * * * * * + + + + + + + ",
"O O + + + + + + + * * * * * * * * * * * * * % % % % % % % % % % % % % % % % % % % % * * * * * * * * * * * * * * + + + + + + + O ",
"O O O + + + + + + + * * * * * * * * * * * * * * % % % % % % % % % % % % % % % % * * * * * * * * * * * * * * * + + + + + + + O O ",
"O O O O + + + + + + + * * * * * * * * * * * * * * * * % % % % % % % % % % * * * * * * * * * * * * * * * * * + + + + + + + O O O ",
"O O O O O + + + + + + + * * * * * * * * * * * * * * * * * * * * * * * * * * * * * * * * * * * * * * * * * + + + + + + + O O O X ",
"O O O O O O + + + + + + + * * * * * * * * * * * * * * * * * * * * * * * * * * * * * * * * * * * * * * * + + + + + + + O O O X X ",
"X O O O O O O + + + + + + + * * * * * * * * * * * * * * * * * * * * * * * * * * * * * * * * * * * * * + + + + + + + O O O X X X ",
"X X O O O O O O + + + + + + + * * * * * * * * * * * * * * * * * * * * * * * * * * * * * * * * * * * + + + + + + + O O O X X X . ",
"X X X O O O O O O + + + + + + + + * * * * * * * * * * * * * * * * * * * * * * * * * * * * * * * + + + + + + + + O O O X X X . . ",
"X X X X O O O O O O O + + + + + + + * * * * * * * * * * * * * * * * * * * * * * * * * * * * * + + + + + + + O O O O X X X . . . ",
". X X X X X O O O O O O O + + + + + + + + * * * * * * * * * * * * * * * * * * * * * * * + + + + + + + + O O O O O X X X . . . . ",
". . . X X X X X O O O O O O O + + + + + + + + * * * * * * * * * * * * * * * * * * * + + + + + + + + O O O O O O X X X . . . . . ",
". . . . . X X X X X O O O O O O O O + + + + + + + + + * * * * * * * * * * * + + + + + + + + + O O O O O O O O X X X . . . . . . ",
". . . . . . . X X X X X X O O O O O O O O O + + + + + + + + + + + + + + + + + + + + + O O O O O O O O O O X X X . . . . . . . . ",
"  . . . . . . . . . X X X X X X X O O O O O O O O O O O O O O O O O O O O O X O O O O O O O O O O O O X X X . . . . . . . . .   ",
"      . . . . . . . . . . . X X X X X X X X X X O O O O O O O O O O O O O O O O O O O O O O O O O X X X . . . . . . . . .       "
};
