/* XPM */
static char *b6b96634f96a42f9b62eb5565ed794358KdIAIWIgRUqc35c[] = {
/* columns rows colors chars-per-pixel */
"64 64 2 1 ",
"  c black",
". c white",
/* pixels */
"                                                                ",
" ....................  ..................  .................... ",
" ....................  ..................  .................... ",
" ....................  ..................  .................... ",
" ....................  ..................  .................... ",
" ....................  ..................  .................... ",
" ....................  ..................  .................... ",
" ....................  ..................  .................... ",
" ....................  ..................  .................... ",
" ....................  ..................  .................... ",
"                                                                ",
"                                                                ",
" .........  ...................  ...................  ......... ",
" .........  ...................  ...................  ......... ",
" .........  ...................  ...................  ......... ",
" .........  ...................  ...................  ......... ",
" .........  ...................  ...................  ......... ",
" .........  ...................  ...................  ......... ",
" .........  ...................  ...................  ......... ",
" .........  ...................  ...................  ......... ",
" .........  ...................  ...................  ......... ",
"                                                                ",
"                                                                ",
" ....................  ..................  .................... ",
" ....................  ..................  .................... ",
" ....................  ..................  .................... ",
" ....................  ..................  .................... ",
" ....................  ..................  .................... ",
" ....................  ..................  .................... ",
" ....................  ..................  .................... ",
" ....................  ..................  .................... ",
"                                                                ",
"                                                                ",
" .........  ...................  ...................  ......... ",
" .........  ...................  ...................  ......... ",
" .........  ...................  ...................  ......... ",
" .........  ...................  ...................  ......... ",
" .........  ...................  ...................  ......... ",
" .........  ...................  ...................  ......... ",
" .........  ...................  ...................  ......... ",
" .........  ...................  ...................  ......... ",
"                                                                ",
"                                                                ",
" ....................  ..................  .................... ",
" ....................  ..................  .................... ",
" ....................  ..................  .................... ",
" ....................  ..................  .................... ",
" ....................  ..................  .................... ",
" ....................  ..................  .................... ",
" ....................  ..................  .................... ",
" ....................  ..................  .................... ",
" ....................  ..................  .................... ",
"                                                                ",
"                                                                ",
" .........  ...................  ...................  ......... ",
" .........  ...................  ...................  ......... ",
" .........  ...................  ...................  ......... ",
" .........  ...................  ...................  ......... ",
" .........  ...................  ...................  ......... ",
" .........  ...................  ...................  ......... ",
" .........  ...................  ...................  ......... ",
" .........  ...................  ...................  ......... ",
" .........  ...................  ...................  ......... ",
"                                                                "
};
