/* XPM */
static char *_c042dad879a4577cccc894bbf17b2c6v36fi9cM00VDZNSH[] = {
/* columns rows colors chars-per-pixel */
"64 64 135 2 ",
"   c #504945",
".  c #736357",
"X  c #73665C",
"o  c #6C6561",
"O  c #7A6C62",
"+  c #7F7166",
"@  c #9E7E52",
"#  c #837568",
"$  c #87796B",
"%  c #8A7D6D",
"&  c #91825E",
"*  c #AF8E59",
"=  c #8D806F",
"-  c #918363",
";  c #968867",
":  c #918369",
">  c #96896B",
",  c #9A8C6C",
"<  c #8F8270",
"1  c #918471",
"2  c #968A73",
"3  c #9A8C72",
"4  c #948778",
"5  c #978F7D",
"6  c #9B8D7A",
"7  c #9D9174",
"8  c #9E937D",
"9  c #A78E61",
"0  c #AC8E63",
"q  c #A1916C",
"w  c #AD926C",
"e  c #B39061",
"r  c #B2986E",
"t  c #BC9B6E",
"y  c #A39473",
"u  c #A89777",
"i  c #A3947B",
"p  c #A9957C",
"a  c #A4997D",
"s  c #AC9A7D",
"d  c #B59C7C",
"f  c #BBA07A",
"g  c #C09C6A",
"h  c #CBA771",
"j  c #C5A77B",
"k  c #E1CE41",
"l  c #E5D346",
"z  c #E3D249",
"x  c #E7D852",
"c  c #EADA53",
"v  c #8D8984",
"b  c #938D87",
"n  c #969184",
"m  c #9D9584",
"M  c #9C978E",
"N  c #9F998D",
"B  c #9B9795",
"V  c #9F9B94",
"C  c #9D9C9A",
"Z  c #A19781",
"A  c #A49A85",
"S  c #AD9D84",
"D  c #A19688",
"F  c #A39C8C",
"G  c #A99E89",
"H  c #A19993",
"J  c #AB9F91",
"K  c #ABA38D",
"L  c #B8A387",
"P  c #B4A68B",
"I  c #BBAB8C",
"U  c #A7A191",
"Y  c #A9A291",
"T  c #AFA894",
"R  c #A6A29B",
"E  c #ABA59B",
"W  c #B3A691",
"Q  c #B5AB93",
"!  c #B9AB95",
"~  c #B0A79C",
"^  c #B6AD9C",
"/  c #BCAF9C",
"(  c #9B9FA3",
")  c #A3A3A3",
"_  c #ACA7A0",
"`  c #A7A8A3",
"'  c #ACAAA5",
"]  c #A4A6AA",
"[  c #ABAAA9",
"{  c #B4AEA1",
"}  c #B8AFA5",
"|  c #B2AFAF",
" . c #BBB2A5",
".. c #BCB5AC",
"X. c #BFBAAC",
"o. c gray69",
"O. c #BBB9B4",
"+. c #B4B7BB",
"@. c #B7B8BB",
"#. c #B9BABC",
"$. c #C3AA85",
"%. c #C7AF8A",
"&. c #D1B186",
"*. c #C0B197",
"=. c #C3B49E",
"-. c #CAB699",
";. c #D5BC98",
":. c #C4B9A5",
">. c #CCBBA5",
",. c #C0B7A8",
"<. c #C2BBAC",
"1. c #C6BDB3",
"2. c #DFD386",
"3. c #E2D78B",
"4. c #E6DB91",
"5. c #EADF96",
"6. c #D8C5AE",
"7. c #CCC1B3",
"8. c #C5C0B9",
"9. c #CBC6BC",
"0. c #CFCBBC",
"q. c #D1C6B3",
"w. c #B8BDC5",
"e. c #C5C5C5",
"r. c #C8C8C3",
"t. c #C4C6C9",
"y. c #DAD6CF",
"u. c #CFD3D7",
"i. c #D5D6D7",
"p. c #DCDAD7",
"a. c #E4DCCC",
"s. c #E3DFDC",
"d. c #E5E5DF",
"f. c #E8EBE6",
"g. c white",
/* pixels */
". . . . . . . . . . . . . . . . . . . . . . . . . . X X X o X X X X X X X X . . X . . . . . . . . . . . . . . . . . . . . . . . ",
". . . . . . . . . . . . . . . . . . . . . . X X X X X X X X X X X X X o X X . O X X . . . . . . . . . . . . . . . . . . . . . . ",
". . . . . . . . . . . . . . . . . . . . X X X X X X X O X X X . X X X . o X X X X X X X . . . . . . . . . . . . . . . . . . . . ",
". . . . . . . . . . . . . . . . . X X X X X o X X o . . X X X . X X O . X X X X X X X X X X X . . . . . . . . . . . . . . . . . ",
". . . . . . . . . . . . . . . . X X X X X X X X X X . O O X O O O X X O O O X X X X X X X X X X . . . . . . . . . . . . . . . . ",
". . . . . . . . . . . . . . X X X X X X X X X . O O O X O O X O O O O O O X X O X X X X X X X X X X . . . . . . . . . . . . . . ",
". . . . . . . . . . . . . X X X X X X . X O O X O O O O X X O O X O O X O X O O O O X O X X X X X X X X . . . . . . . . . . . . ",
". . . . . . . . . . . X X X X X X X X X O O O X O X X O O O O X O X O X O O O X X O O O X O X X X X X X X . . . . . . . . . . . ",
". . . . . . . . . . X X X X X X . O X X O O O O o O O o + O O + # # O O O O X O X O O X O X O O X X X X X X . . . . . . . . . . ",
". . . . . . . . . X X X X X X X O O O O O X O O # O + + O + O O O O O O O # # O O O O O O X X O X X X X X X X X . . . . . . . . ",
". . . . . . . . X X X X X X X O O X O O O O O O O O + O + O O + O # # O O O # O # O O X O O O O O O X X X X X X . . . . . . . . ",
". . . . . . . X X X X X X X X O O X O O O O O O O # O + O + O + O O O O O # X O O O O # O O X X O X O X X X X X X . . . . . . . ",
". . . . . . . X X X X X X O X O O O O O O O O O O # # # % 1 1 < % % 4 % $ # # # O O O # O O O O O O X O X X X X X . . . . . . . ",
". . . . . . X X X X X X X O X O O + O O O O # # $ % 4 % 1 1 1 1 4 4 % > 1 1 % $ # O O # O O # O X O X O O X X X X X . . . . . . ",
". . . . . X X X X X X X O O O O O O O # # O % 1 1 1 1 1 1 1 1 1 % 1 1 1 1 1 1 1 % % $ # # O O O O X O O O X X X X X X . . . . . ",
". . . . . X X X X X O O X X O O # O O O % % 1 1 1 1 1 1 1 1 1 1 4 1 1 1 1 1 1 1 % % % % O O # O # # O X O X O X X X X . . . . . ",
". . . . X X X X . O O O O X O # O O # $ % 1 1 1 1 1 1 1 1 1 1 1 1 1 1 1 1 1 1 1 1 1 1 1 % O O + O O # X O O X X X X X X . . . . ",
". . . X X X X X . O O X O O O O # O % 4 1 1 1 1 1 1 1 1 1 : : : 1 : : : 1 1 1 1 1 1 1 1 1 % + O O O # O X O O O X X X X X . . . ",
". . . X X X X X X O O O O O O O O % % % 1 1 1 1 1 1 : : : : : - : : : : : : 1 1 1 1 1 1 1 1 $ O O O O O O O X O O X X X X . . . ",
". . . X X X X X O O X X # O O # $ % 4 4 1 1 1 1 1 : : : : : : : : : : : : : : : 1 1 1 1 1 1 1 % O O # O O O O O O X X X X . . . ",
". . X X X X X X X O O O # O # $ % 2 % 2 1 1 1 > : - : : : : : - : : : : : : - : : 1 1 1 1 1 1 1 $ # O O # O O X O o X X X X . . ",
". X X X X X . # O O X # O O # % 6 % 2 2 1 1 > % : : : : : : - - - - - : : : : : - : 1 1 1 1 1 1 $ # O O O O O O O O X X X X . . ",
". X X X X X X X O X O O O O 1 4 % 2 2 % > ; % ; - : = ; ; s I 8 ^ $., @ - - - : : : : : 1 1 1 1 % % # # O O O O X O X X X X X . ",
". X X X X X X O O X # O O # % 1 6 % % 2 % % ; % : - - & ; R %./ -./ V - & & - : : : : : 1 1 1 1 % 4 # O # O # o O O O X X X X . ",
". X X X X X O O O O # O # $ : 1 % 2 % 6 : - : : : - Z - & W P '  .-.U & 7 > & & = - - : : 1 1 1 % 4 # O O O O O X O X X X X X . ",
". X X X X . O X X # O O # % 1 1 2 % 2 % : : : : - - { - & Q s O.q.=.{ & E A & & - : : : : 1 1 1 4 % % # # O # O X O O . X X X . ",
"X X X X . O X O O O O # $ % 1 1 % 3 % > : : : - > > :.& 3.P s p.9.4.4.& 9.Q 2.& - - : : : : 1 1 % % 4 # O O # O O O O O X X X X ",
"X X X X . X # O O O O O # 1 1 1 2 % 2 % : 3 D - A T K ; c s u r.9.l k a 0.8.z & G > - : : : 1 1 % b 4 # O O O O O X X O X X X X ",
"X X X X X # X X O O O O % % 1 1 % 6 % 9 % 3 s.> 7 0.I - O.s I a.q.y K K f I r., / y - : 9 % % 6 % 6 % % O O O O # X X O X X X X ",
"X X X X . X # X O # O # 4 4 1 1 2 % ; % % > g.i 3.p.w 4.{ y ! d.y.K Q X.9 *.f., 5.A 2.: % % q % 6 % % 3 # O # O O O O O X X X X ",
"X X X X X # X X O # O O % 4 1 1 % 6 % ; ; ; g.G k 7.i x ^ q G p.i.s W u.3 { f., c Z k - % ; % 3 6 % 3 % O O O O O O O X X X X X ",
"X X X X X X X # O O O O 4 % 1 1 3 % ; % ; % h d - f #.E * q ` 7.7.F 9 ! ! P r q r y @ - ; % % 2 % 2 % 6 O # O O # X O O X X X X ",
"X X X X X X X O # O O # 1 1 1 1 1 1 : - - B @ W E j >.{ $.,.,.&.;.:.g t 6.-.0 =.d 6 & - : : 1 1 1 1 1 < O + O O + O X O X X X X ",
"X X X X . O O O O O O O 1 1 1 1 1 1 : : : ( 6 b B r 4 i S H ! e L ..,.Z p w S J J v & - : : : 1 1 1 1 1 + O O + O O O O X X X X ",
"X X X X X O O X O O O O 1 1 1 1 1 1 : : - ( ` W D { [ ..E E #.<.}  .1.@.| _ J G ..] - : : : : 1 1 1 1 1 + O O + O O o O X X X X ",
"X X X X . O X O + + # O % 1 1 1 1 1 1 : : E +.#.H ` #...} @.'  .#.0.e.e.t.] ] _ | 8.- : : : 1 1 1 1 1 % O + O O O O O O X X X X ",
"X X X X . O O O O O + O # 1 1 1 1 1 1 : - : [ R o.H b M C C ) ` #.t.X.R b b @.3 F Y - : : : 1 1 1 1 1 # O + O + O O O O X X X X ",
"X X X X X X O X O O O + # 1 1 1 1 1 1 : : : 2 E [ _ m - m B E G n } O.' D J H E - - : : : 1 1 1 1 1 1 # + O O + O X O X X X X X ",
". X X X X . o O O O + + # % 1 1 1 1 1 1 : : - m [ E ) U i Y m ~ 8 b U 8 ] ' C F - : : : : 1 1 1 1 1 < + O O + O O X O X X X X . ",
". X X X X . O O O + O O O % 1 % 1 1 1 1 : : : 6 ' > N 8 - - 5 w.) - ; & N m A 3 : : : : : 1 1 1 1 1 $ O O + O + O O o X X X X . ",
". X X X X . . o O O O # O O 1 4 1 1 1 1 1 : : 6 3 % ; @ & & > E a & & & & & - : : - : : 1 1 1 1 1 1 O + + O O O X O X X X X X . ",
". O X X O . X O X O O O O # % 4 1 1 1 1 1 1 : : % ; % ; - - - @ & & & - - - - : : : 1 1 1 1 1 1 1 % + O O + O X O X X X X X X . ",
". . . X X X X O X O O O O + + % 1 1 1 1 1 1 1 : ; - ; % : : - - - - - - : : : : : : 1 1 1 1 1 1 % # + O + O O O O O X X X X . . ",
". . . o X X X X O O O O + O O $ 1 1 1 1 1 1 1 1 % ; % ; : : : : : : : : : : : : 1 1 1 1 1 1 1 1 $ + O + O + O O X X X X X X . . ",
". . . . X X X . O O X O O + O + % 1 1 1 1 1 1 1 1 1 % ; % ; 9 % : : : : : : 1 1 1 1 1 1 1 1 1 % O O + O O O O X O X X X X . . . ",
". . . O X X X X . O O O + O + O O % 1 1 1 1 1 1 1 1 3 % > % % 2 : : : : : 1 1 1 1 1 1 1 1 1 % + O + + O O O O O X X X X X . . . ",
". . . X X X X X . O O O O + O + O O % 1 1 1 1 1 1 1 1 1 1 1 2 % < 1 1 1 1 1 1 1 1 1 1 1 1 % O O + O O + O O O O X X X X X . . . ",
". . . . X X X X X . O O o O O # O O O % 1 1 1 1 1 1 1 1 1 1 % 6 1 1 1 1 1 1 1 1 1 1 1 1 % O O O O + O O X O O X X X X X . . . . ",
". . . . . X o X X X X O O O O O O O # O $ % % b % 6 % 2 2 % 6 % 1 1 1 1 1 1 4 4 1 1 % $ O + O + + O + o O O X X X X X . . . . . ",
". . . . . X X X X X X . X O X # O O O O # # % % 2 % 3 % % 3 % 2 1 1 1 1 1 4 % % % % # + + O + O O + O O o X X X X X X . . . . . ",
". . . . . . X X X X X X . O O O O # O O O O # O $ % % 6 6 % % % : 4 1 1 1 1 % $ # + O O O + O O O O O O X X . O X X . . . . . . ",
". . . . . . . X X X X X X . O X X # O # O O O O # # # # % % b % 1 % 1 % # $ + O + O + O + O O O O O o . X X X X X . . . . . . . ",
". . . . . . . X X X X X X X . O O X # O O O O O # O O O O O O O # O # O + O O + O O + O O O O O O O X X X X X X X . . . . . . . ",
". . . . . . . . X X X X X X X X O X X O O # O O O O # O O # O # O O O O O + + O O + + O O O O O O . X X X X X X . . . . . . . . ",
". . . . . . . . . X X X X X X . X O O X O O O # # O O O O # O O O + O # O O O + # O O O X O O O . X X X X X X . . . . . . . . . ",
". . . . . . . . . . X X X X X X X X . O X O O O O O # O O O O O + O O O + O + O O O O o O O . X o X X X X X . . . . . . . . . . ",
". . . . . . . . . . . X X X X X X X X X X O O o O X O O O O O O O + O # O X O O O X O O . X X X X X X X X . . . . . . . . . . . ",
". . . . . . . . . . . . X X X X X X X . . . X X O O O o O O O O O O X O O O O X O X . X X X X X X X X . . . . . . . . . . . . . ",
". . . . . . . . . . . . . . X X X X X X X X X X . X X O O O o O O o O O O O . X o X X X X X X o X X . . . . . . . . . . . . . . ",
". . . . . . . . . . . . . . . . X X X X X X X X X X X . . . X X . . X X . X X X X X X X X X X X . . . . . . . . . . . . . . . . ",
". . . . . . . . . . . . . . . . . X X X X X X X X X X X X X X X X X X X . X X X X O . X X X X . . . . . . . . . . . . . . . . . ",
"o o o o o o o o o o o o o o o o o o o o o o o o o o o o o o o o o o o o o o o o o o o o o o o o o o o o o o o o o o o o o o o o ",
"                                                                                                                                ",
"                                                                                                                                "
};
