/* XPM */
static char *wall_light1643121708[] = {
/* columns rows colors chars-per-pixel */
"64 64 135 2 ",
"   c #736357",
".  c #73665C",
"X  c #7A6C62",
"o  c #7F7166",
"O  c #9E7E52",
"+  c #837568",
"@  c #87796B",
"#  c #8A7D6D",
"$  c #DFCD3F",
"%  c #91825E",
"&  c #AF8E59",
"*  c #8D806F",
"=  c #918363",
"-  c #968867",
";  c #918369",
":  c #96896B",
">  c #9A8C6C",
",  c #8F8270",
"<  c #918471",
"1  c #968A73",
"2  c #9A8C72",
"3  c #948778",
"4  c #9B8D7A",
"5  c #9D9174",
"6  c #9E937D",
"7  c #A78E61",
"8  c #AC8E63",
"9  c #A1916C",
"0  c #AD926C",
"q  c #B39061",
"w  c #B2986E",
"e  c #BC9B6E",
"r  c #A39473",
"t  c #A89777",
"y  c #A3947B",
"u  c #A9957C",
"i  c #A4997D",
"p  c #AC9A7D",
"a  c #B59C7C",
"s  c #BBA07A",
"d  c #C09C6A",
"f  c #CBA771",
"g  c #C5A77B",
"h  c #E1CE41",
"j  c #E5D346",
"k  c #EADA53",
"l  c #8D8984",
"z  c #938D87",
"x  c #969184",
"c  c #9D9584",
"v  c #9C978E",
"b  c #9F998D",
"n  c #9B9795",
"m  c #9F9B94",
"M  c #9D9C9A",
"N  c #A19781",
"B  c #A49A85",
"V  c #AD9D84",
"C  c #A19688",
"Z  c #A39C8C",
"A  c #A99E89",
"S  c #A19993",
"D  c #AB9F91",
"F  c #ABA38D",
"G  c #B8A387",
"H  c #BEA981",
"J  c #B4A68B",
"K  c #BBAB8C",
"L  c #A7A191",
"P  c #A9A291",
"I  c #A6A29B",
"U  c #ABA59B",
"Y  c #B3A691",
"T  c #B5AB93",
"R  c #B9AB95",
"E  c #B0A79C",
"W  c #B6AD9C",
"Q  c #BCAF9C",
"!  c #9B9FA3",
"~  c #A3A3A3",
"^  c #ACA7A0",
"/  c #A7A8A3",
"(  c #ACAAA5",
")  c #A4A6AA",
"_  c #ABAAA9",
"`  c #B4AEA1",
"'  c #B8AFA5",
"]  c #B2AFAF",
"[  c #BBB2A5",
"{  c #B5B0A9",
"}  c #BCB5AC",
"|  c #BFBAAC",
" . c #BBB9B4",
".. c #B4B7BB",
"X. c #B7B8BB",
"o. c #B9BABC",
"O. c #C3AA85",
"+. c #C7AF8A",
"@. c #D1B186",
"#. c #C3B49E",
"$. c #CAB699",
"%. c #D5BC98",
"&. c #C0B6A4",
"*. c #C4B9A5",
"=. c #CCBBA5",
"-. c #C0B7A8",
";. c #C2BBAC",
":. c #C6BDB3",
">. c #C0BDBB",
",. c #DFD386",
"<. c #E2D78B",
"1. c #E6DB91",
"2. c #EADF96",
"3. c #D8C5AE",
"4. c #CCC1B3",
"5. c #C5C0B9",
"6. c #CBC6BC",
"7. c #CFCBBC",
"8. c #D1C6B3",
"9. c #B8BDC5",
"0. c #C5C5C5",
"q. c #C8C8C3",
"w. c #C4C6C9",
"e. c #DAD6CF",
"r. c #CFD3D7",
"t. c #D5D6D7",
"y. c #DCDAD7",
"u. c #D2D6DC",
"i. c #E4DCCC",
"p. c #E3DFDC",
"a. c #E5E5DF",
"s. c #DDDFE1",
"d. c #E7E4E0",
"f. c #E8EBE6",
"g. c white",
/* pixels */
"                                                    . . . . . . . . . . . . .   .                                               ",
"                                            . . . . . . . . . . . . . . . . . . . .                                             ",
"                                    . . . . . . . . . . . . . . . . . . . . . . . . . .                                         ",
"                                  . . . . . . . . . . . . . . . . . . . . . . . . . . . . . .                                   ",
"                                . . . . . . .   . .   X X . . X X X X . . . . . . . . . . . . .                                 ",
"                            . . . . . . . . .   X . X . X X X X X . X X X X X X X . . . . . . . . .                             ",
"                          . . . . . . .   X . X X X X X . . X X . X . X X X . X X . X . . . . . . . .                           ",
"                      . . . . . . .   X . X X X . X . X X X X . . X X X . X . X X . X X X . .   . . . . .                       ",
"                    . . . . . .   X X X . X X X X X X X o o X o X X X X o X X X X X X . X X X X . . . . . .                     ",
"                  . . . . . . . X . . X . X X X X X X o X X o X X X X o X X X X X X X X . X . X X . . . . . . .                 ",
"                . . . . . . . X X X X X X X X X X X X X o X X o X o o X X o X o X X X X X X X X X . . . . . . .                 ",
"              . . . . . . . . X . X X X X X X X o X o X o X o X X X o X o X o X X X X X X . X X X X . . . . . . .               ",
"              . . . . . . X . X X X X X X o X o X o + + , , < , 3 # , # @ + o o X o X o X X o X X X . X . . . . .               ",
"            . . . . . . . X . X X X X X o X o X @ # , 3 < < < < 3 3 < < < < # @ o X o X X o X o . X . X X . . . . .             ",
"          . . . . . . . X X X X X o o o X o , , < < , < < < < < , < < < < < < < # , o o o o X X X X X X X . . . . . .           ",
"          . . . . . X X . . X X X o X X @ , < < < < < < < < < < , < < < < < < < < < , @ X X o X X X X . X X . . . . .           ",
"        . . . .   X X . X X X o X o X # # < < < < < < < < < < < < < < < < < < < < < < < # X X o X X o X X X X X   . . .         ",
"      . . . . .   X X X . X X o X X # < 3 < < < < < < < < < ; ; < ; ; ; < < < < < < < < , # o X X X X X . X . X . . . . .       ",
"      . . . . . X . X X X X o X o # 3 < < < < < < < * ; ; ; ; ; ; ; ; ; ; ; ; < < < < < < < # X o X X o X X . X . . . . .       ",
"      . . . . . X . X X X o X o @ # < < < < < < ; ; ; ; ; ; = ; ; ; ; ; ; ; ; ; < < < < < < < # X o o X X X X X X . . . .       ",
"    . . . . . . . X X X X X + # < < < < < < < ; ; ; ; ; ; ; ; ; ; ; ; ; ; = ; ; ; < < < < < < < @ o X o X o X . . X . . . . .   ",
"    . . . .   + X . . X X X + # < < < < < < < ; ; = = ; ; ; = = = = = ; ; ; ; ; ; ; < < < < < < # o X o X X X X X X . . . .     ",
"  . . . . .   X X X + X X + # < < < < < < ; ; ; ; ; ; = = p J 6 R O.> % = ; ; ; ; ; ; ; < < < < # # o X o X X X X X . . . . .   ",
"  . . . . . X . X X X X X X < < < < < < ; ; ; ; ; = ; % - U +.Q $.&.Z % % % % ; ; ; ; ; ; < < < 3 3 X o X o o X X . . . . . .   ",
"  . . . . . X X X X X + + + < < < < < < ; ; ; ; ; = N = % T J ` &.#.L % 5 : % % * ; ; ; ; ; < < 3 3 @ o X o X o X . X . . . .   ",
"  . . . .   X . . + X X + # < < < < < ; ; ; = ; = % ` = % T p  .4.#.` % U B % % = = ; ; ; < < < # # # o X X o X X X X . . . .   ",
". . . .   X . X X X X + + < < < < < < ; ; ; * = : : *.% <.J p t.6.1.1.% 6.T ,.% % = ; ; ; ; < < 3 < # @ o X X o . X . . . . . . ",
". . . .   . + X X X X X + < < < < < < ; ; 1 B = N T F - k p t q.6.j h t 7.;.j = F : = ; ; ; < < < < l o X o X o X X X X . . . . ",
". . . . . X X . X X X o # # < < < < ; ; ; 2 p.: 6 6.K -  .t K i.8.t F F H K q.> [ 5 = ; ; ; < < < < < # X o X X X . . X . . . . ",
". . . . . X X . X + X o < 3 < < 3 < ; ; # : g.y <.y.0 1.` r R a.e.F T | 8 Q d.> 2.i ,.; ; ; ; < < < < < o X X o X X X X . . . . ",
". . . .   X X X X X o X < 3 < < < < ; ; - - g.A h 4.y k W 9 A s.u.p J r.3 W f.> k i $ ; ; ; < < < < < < o X X o X X . X . . . . ",
". . . . . . . X X o X o # < < < < < # - # - f a % s o.U & r / =.4.Z 7 T T G s 9 w 5 O ; ; ; ; < < < < < X o X X X X X . . . . . ",
". . . .   X X X X o + X < < < < < < ; ; ; m O Y E g =.` O.-.} @.%.#.d e 3.$.& #.a 4 % ; ; ; ; < < < < < X o X X o X . X . . . . ",
". . . .   X . . o X X X # < < < < < ; ; ; M 4 z v w 3 y V S T q G | &.B u 0 B D P z % ; ; ; ; < < < < , X o o X X X X X . . . . ",
". . . . . X X X X o X X 3 < < < < < ; ; ; ! ~ Y C ` _ } E U >.;.{ } :.X.] ^ ^ V } ) = ; ; ; ; < < < < < o X X o X X X . . . . . ",
". . . .   X . X o X + X # < < < < < ; ; ; U ..X.S ) X.} ' ..( [ X.6.0.0.0.~ ) ^ _ 5.= ; ; ; ; < < < < # X X o X X X X X . . . . ",
". . . .   X X X X o X o + < < < < < < ; ; - _ I ] S z v M M ~ / X.w.| I z x X.1 Z P = ; ; ; < < < < < + X o o X X X X X . . . . ",
". . . .     X . X X X X + < < < < < < ; ; ; 1 U _ ^ c % c n U A c `  .( C D S U % = ; ; ; < < < < < < + o X X o X X . . . . . . ",
"  . . . . X X X X o o X + # < < < < < < ; ; ; N _ U ~ L 6 L N E c z L 6 ) _ S S = ; ; ; ; < < < < < , o X o X X . X . . . . . . ",
"  . . .     . X X X X o o @ < < < < < < ; ; ; 4 / - b c * O 4 9.I = - = b c B 2 ; ; ; ; < < < < < < @ o o X o X . X X . . . .   ",
"  . . . . . . . X X X o X o < < < < < < < ; ; 1 9 # = % % % 9 E N % % % % % = ; ; ; ; ; < < < < 3 3 X X X o X X X X . . . . .   ",
"  . . . . . . X . X X X o X # 3 < < < < < < ; ; # - - # % % % % % % % % = = ; ; ; ; ; ; < < < < # # o o o X X . . X . . . . .   ",
"    . . . . . X . X X X X X o # < < < < < < < ; - # # - - - # % = = = ; ; ; ; ; ; < < < < < < < # o o X X o X X X . . . . .     ",
"    . . . . .   X X X X X o o + < < < < < < < < # - - # # - - # ; ; ; ; ; ; ; ; ; < < < < < < , @ o X X o X X X X . . . . .     ",
"      . . . . . X X . X X o X o # < < < < < < < < < : - = # # - = ; ; ; ; ; ; < < < < < < < < # o X o X X X X . X . . . .       ",
"      . . . . .   X X X o X o X X # < < < < < < < < # < : - - # ; ; ; ; < < < < < < < < < < # X X o o X X X X X . . . . .       ",
"      . . . . . . X X X X o X o X X # < < < < < < < < 3 # 3 < 3 < < < < < < < < < < < < < # X o o X X o X X X . . . . . .       ",
"        . . . . .   . X X X o X X + X # < < < < < < < # : < < < < < < < < < < < < < < < # X o X X o X X X . X . . . . .         ",
"          . . . . . . X . . X X o X o o @ # 3 # l 3 # 1 < < < < < < < < < < 3 # 3 l # @ o X X o o X o X X X . . . . .           ",
"          . . . . . . . X X X X X o X X X + # # # 3 < < < < < < < < < < < < < 3 # # o o X o X X X o X X . . . . . . .           ",
"            . . . . . .   X X X X X o X o o X o # # < < 3 < 3 # < < < < < < # # o o o X X o X X X X . X . . . . . .             ",
"              . . . . . .   X X X o X X X X o X + + + + # 3 # # < < < # + + o X o X X X o X X X X . X . . . . . . .             ",
"              . . . . . . .   . X . X X o X X o X + X + X X X X o X o X X X o X X X o X X X X X X . . . . . . . .               ",
"                . . . . . . . . X . X X X X o X X X X X X X + X X o o X o X X o X o o X X X X X X . . . . . . .                 ",
"                . . . . . . . . . . X X X X X X X X X + + X X X o X X o X o o X X X X X X X X . . . . . . . .                   ",
"                    . . . . . . . . . . X X . X X + X X X X + X X o X X X o X X X X X X . X . . . . . . . . .                   ",
"                      . . . . . . . . . . . . X X . . X X X X X X o X X X X X . X . X X . . . . . . . . .                       ",
"                          . . . . . . . . . . . X X X X X X X X X X . X X X X X . . . . . . . . . . .                           ",
"                            . . . . . . . . . . . . . X X . . X X X X X . X     . . . . . . . . . .                             ",
"                                . . . . . . . . . . . . . . . .   .   . . . . . . . . . . . . .   .                             ",
"                                  . . . . . . . . . . . . . . . . . . . . . . . . . . . . . .                                   ",
"                                        . . . . . . . . . . . . . . . . . . . . . . . .                                         ",
"                                            . . . . . . . . . . . . . . . . . . . .                                             ",
"                                                    . . . . . . . . . . . .                                                     "
};
