/* XPM */
static char *result[] = {
/* columns rows colors chars-per-pixel */
"64 64 193 2 ",
"   c #311316",
".  c #34131C",
"X  c #351D1C",
"o  c #381B1E",
"O  c #37211E",
"+  c #39221E",
"@  c #3E291F",
"#  c #381A20",
"$  c #3A1D21",
"%  c #3D2522",
"&  c #3E2A23",
"*  c #412625",
"=  c #412A25",
"-  c #412629",
";  c #452D29",
":  c #433226",
">  c #453229",
",  c #4A362F",
"<  c #57382F",
"1  c #4C3831",
"2  c #573B33",
"3  c #5B3E35",
"4  c #5A3F38",
"5  c #235A14",
"6  c #2B5E17",
"7  c #295F19",
"8  c #286516",
"9  c #2D641B",
"0  c #2E6A1C",
"q  c #31651D",
"w  c #346A1E",
"e  c #34721F",
"r  c #396E21",
"t  c #3A6D28",
"y  c #3B7223",
"u  c #3D7F22",
"i  c #3F732A",
"p  c #5D4037",
"a  c #5E4139",
"s  c #61433A",
"d  c #40732A",
"f  c #5E5C5C",
"g  c #654A41",
"h  c #765346",
"j  c #785447",
"k  c #7A5649",
"l  c #7D594B",
"z  c #7F5D50",
"x  c #5F6161",
"c  c #626363",
"v  c #666A6A",
"b  c #686C6C",
"n  c #736F6F",
"m  c #757474",
"M  c #777778",
"N  c #787D7E",
"B  c #815B4D",
"V  c #805E51",
"C  c #826052",
"Z  c #85675D",
"A  c #876A5E",
"S  c #896A5F",
"D  c #8C6763",
"F  c #8C6D62",
"G  c #966F6B",
"H  c #8F7065",
"J  c #917266",
"K  c #947569",
"L  c #97796D",
"P  c #9A7A6E",
"I  c #3E8022",
"U  c #3E8D22",
"Y  c #448526",
"T  c #468926",
"R  c #498B27",
"E  c #478728",
"W  c #4F852B",
"Q  c #478928",
"!  c #4B8D29",
"~  c #52852D",
"^  c #558B2F",
"/  c #459325",
"(  c #499627",
")  c #4C9A27",
"_  c #4B9529",
"`  c #4D9A29",
"'  c #54912F",
"]  c #519D2A",
"[  c #4E8C32",
"{  c #578C30",
"}  c #598E31",
"|  c #5D8F39",
" . c #549232",
".. c #599531",
"X. c #549D34",
"o. c #599C31",
"O. c #5F923A",
"+. c #639535",
"@. c #659C37",
"#. c #65953A",
"$. c #679D38",
"%. c #689E38",
"&. c #4EA028",
"*. c #56A42C",
"=. c #58A62D",
"-. c #5CAB2E",
";. c #56A035",
":. c #5CA635",
">. c #5EAD31",
",. c #5BAC36",
"<. c #5EB234",
"1. c #65A436",
"2. c #68A437",
"3. c #60AE31",
"4. c #68AD36",
"5. c #6AA23A",
"6. c #61AB39",
"7. c #6DAA3B",
"8. c #76A53E",
"9. c #75AC3D",
"0. c #78AD3F",
"q. c #61B334",
"w. c #68B735",
"e. c #62B837",
"r. c #6AB936",
"t. c #65B539",
"y. c #69B63B",
"u. c #64B939",
"i. c #6ABA3B",
"p. c #7AB13E",
"a. c #75C23E",
"s. c #78C43F",
"d. c #6E9E41",
"f. c #6EA242",
"g. c #68AE42",
"h. c #70A542",
"j. c #73A944",
"k. c #7BAE41",
"l. c #77A94C",
"z. c #69B740",
"x. c #6CBA43",
"c. c #7CB342",
"v. c #71BD44",
"b. c #7EBB43",
"n. c #7AC641",
"m. c #79C444",
"M. c #7DCA43",
"N. c #80B744",
"B. c #82BA45",
"V. c #85B94A",
"C. c #86BC4A",
"Z. c #92BB5F",
"A. c #84C145",
"S. c #89C146",
"D. c #81CD45",
"F. c #87C548",
"G. c #8CC34A",
"H. c #84CC4C",
"J. c #92CC4D",
"K. c #84D147",
"L. c #87D14C",
"P. c #92D14E",
"I. c #8FC452",
"U. c #92C657",
"Y. c #97D955",
"T. c #9ADB56",
"R. c #9DDD59",
"E. c #9FE05A",
"W. c #A4E35D",
"Q. c #95C460",
"!. c #9BC666",
"~. c #97C861",
"^. c #9BCC65",
"/. c #9ECE6A",
"(. c #9FD367",
"). c #A3D46A",
"_. c #A9DD6E",
"`. c #A4C779",
"'. c #A6CC7A",
"]. c #A8D575",
"[. c #A5E461",
"{. c #AAE665",
"}. c #AEEA64",
"|. c #AEEC6B",
" X c #B0ED65",
".X c #ACCE81",
"XX c #ABD280",
"oX c #B1DA83",
"OX c #B4D987",
"+X c #B4E185",
"@X c #BAE58C",
"#X c #C1EC90",
"$X c #C1F290",
/* pixels */
"t.y.t.g.t.t.4.t.x.v.x.x.v.m.m.i.^ ! {  .:.6.:.g.l.h.f.h.f.f.j.d.1 - > , g g g g s g g g K L L K z z z z V V V z g g g g V V V V ",
">.3.>.>.>.3.>.>.y.y.i.i.i.i.i.w.R Y Q Q *.:.*.=.5.%.%.%.5.@.4.@.= $ % * 3 a s 4 p p p p F J H F k h k k j k k k a 3 3 a j k k j ",
"-.q.>.>.3.3.>.<.i.i.i.i.r.a.a.r.T Y Y T *.=.*.:.j.5.5.5.5.5.7.@.& # # % 3 s s 4 p a p s H K K J k j k k k j k j s 4 a s k l l k ",
"-.q.<.>.-.-.-.>.t.t.i.t.r.r.r.w.R T T R *.=.*.,.f.$.$.%.%.%.5.@.: % & = 3 s 3 3 p p 2 a A H H A j h j k k k k j 3 3 3 4 j j k j ",
"t.y.i.t.` ) ` ` ! ! ! R *.=.=.=.-.-.-.-.>.>.3.6.i w w r { } } { ^ ~ ^ ~ = % * = & = % * p s s s a a 3 s j k l j = + = * 3 s 3 s ",
"i.i.i.t.` _ ` _ Y Y Y T *.*.&.*.q.q.q.q.>.3.3.t.t 9 9 9 W ^ W ^ ......} = $ + % % % + % 3 3 < 3 3 p 3 4 j k l h * O + % 3 a < a ",
"t.i.i.t.` ` ` ` Y Y Y Y *.=.*.=.3.q.3.q.>.>.>.4.t q 9 w ^ ^ ^ ^ ^ } ..^ * % & % + % O @ p p p p 4 3 3 a k k B j * O + & 2 p < p ",
"t.i.i.t.` _ ` _ R R R R *.*.*.*.-.<.>.>.>.>.>.t.d w w r { } { ^ ^ ^ ' ~ = $ % & = * % = p a p 3 a a 3 a j k k j * & & * a s p a ",
"q.-.q.-.` ) _ ] a.n.n.s.3.-.>.>.*.*.*.*.<.<.>.y.O.^ ^ ^ $.5.5.@.w q e w & % % * h k j h s 3 3 s h j k h a a a a p p 2 p A H F A ",
"3.-.3.-.` _ _ ] D.K.K.M.3.-.3.>.;.*.*.*.>.>.>.y.O.^ ^ } 5.5.5.$.w 9 w q % % o * k V l l p 3 3 p j k B k 3 3 3 3 a p p s H K K J ",
"3.-.>.-._ ( ( _ s.D.D.n.>.-.-.-.*.*.*.*.<.<.>.t.O.^ ~ ^ %.5.5.%.e 0 e w & % O * h B l k s 3 3 s k B B j a 3 a 3 p p 3 a S J J F ",
">.-.<.>.` ` _ ] n.D.M.s.3.-.3.>.*.*.*.,.-.<.-.t.O.^ ^ ^ $.5.5.$.w 9 w q & % & * h l k j p 3 3 p h j k j a 3 a 3 p p 3 p F J H F ",
">.>.-.<.s.n.s.s.n.M.D.n.n.s.n.s.<.<.<.<.=.=.=.6.f.1.%.%.^ ^ ..~ = % & & 3 p p 3 p p p p p p p p s 3 s s 3 a 3 a 3 a 2 a F J J F ",
">.q.-.q.D.K.D.D.D.M.n.M.D.D.D.D.m.<.<.u.*.*.*.:.f.5.5.%.^ ^ ' ~ * $ $ * p s s p p p p 3 p p 3 p 3 3 3 3 a a a 3 a a 2 s S J J F ",
"3.q.-.q.n.D.D.D.D.D.D.D.n.n.n.s.i.<.e.t.*.*.*.:.f.%.5.%.^ W ^ ~ o .   o p s s a 3 3 3 p s s p s 3 < < 3 3 3 3 3 a 3 2 s H K J J ",
"-.-.-.<.s.D.n.n.n.s.s.n.M.D.D.n.e.<.<.<.=.*.=.,.f.%.5.%.} ^ ..^ > = : > 3 p 3 p p a a a p 3 3 p s s s s a a a a a a 3 s A J F A ",
"=.*.=.*.) ) ] ] *.) ( *.R.W.W.T.=.*.*.=.q.e.q.i.O.^ ^ } k.c.p.c.'..XoX`.> o + ; f c c f * @ % = Z J S S j j j j s 3 3 a a s s a ",
"*.*.*.*.( ( ( ( ( ( U ` W.W.{.E.=.) *.*.q.e.e.x.| ^ W ^ c.B.p.C.oX@X$XoX;   + % c v v x & O O * F L K J k j k k a 3 a a 3 2 3 2 ",
"=.*.=.*.) _ ) _ _ _ / *.W. X XW.=.&.*.*.e.u.u.x.O.^ ~ ^ c.c.p.c.XXOX@X'.* . o % c b b c & O O & S K J F k j k j 3 3 3 3 3 a a 3 ",
"*.*.:.*.) ) ) ) ) ) / ] W.W.W.T.=.&.*.=.<.e.<.x.O.^ ^ ^ c.c.p.c.XXoX+X'.> O & = f c c f * + + = S J J F k j k j s 3 a a a a s 3 ",
"=.*.*.=.>.-.-.>.-.-.-.-.-.-.=.=.t.i.r.t.&.) ) ;.h.$.@.5.C.G.S.G.^./.).!.@.+.%.+.: % & ; p p 2 p F J H H k h j k k j k h a 3 3 a ",
"*.*.*.=.>.q.<.q.-.q.q.3.] &.) *.i.i.i.y.) _ ) X.h.5.$.5.G.J.G.G.^.^.^.~.9.2.9.1.@ . o % p s p a S J H F k h j j k k k k a 3 3 a ",
"=.*.=.=.-.>.<.-.-.>.3.-.*.*.*.*.t.i.z.t.) _ _ X.f.$.@.%.S.G.G.G.^./.).^.7.2.y.2.= $ % = p p 3 a H K K J B k B k k k k k a 3 2 a ",
"*.*.*.=.>.3.3.q.3.3.3.-.=.*.*.-.t.i.i.t.] ` ` ;.h.%.@.5.S.J.G.G.^.^.(.~.%.+.5.+.= $ % % p a 3 a S H H S j h h h k j k k a 3 3 a ",
"T T Y ! t.e.e.t.<.<.u.e.t.t.t.t.i.i.t.i.t.<.<.x.V.c.j.c.~.(.^.~.G.F.P.C.: % = = % % % * p a p p a p s a = % * = h B k j a 3 3 a ",
"R Y Y R e.u.e.e.u.u.<.e.i.i.i.i.i.t.i.t.e.e.t.x.V.c.c.V.!.)./.^.G.G.J.C.@ . $ + & % % * p a p p 3 3 p 2 % O O % h k k j a 3 3 a ",
"U d u Y <.u.e.t.<.a.z.<.t.t.t.t.i.i.i.i.e.e.t.x.V.c.9.c.).].].).G.G.P.C.= . $ % % & & * a a a a 3 3 p 2 @ X X % j B B k a 3 2 a ",
"_ R R _ <.e.t.e.<.z.<.<.i.i.i.t.t.t.t.t.t.e.<.x.V.c.c.c.U.!.~.U.G.C.J.C.: + = = & % % * p p p p s p s a * * % = h k j h a 3 3 a ",
"T.E.W.T.r.t.i.t.<.,.-.3.s.M.M.s.` ) ` &.<.>.3.t.U.F.J.C.d q w y p.B.N.p.^ ~ { d & $ & % & & % : A J F F j h h h a 3 a a a a a 3 ",
"W. X XW.y.t.i.t.<.<.3.3.M.D.K.M._ ( ( ` -.<.3.t.U.G.J.F.q 5 5 w 9.N.N.p...{ o.+.& % % & % % X * F K J J B k B k a 3 3 3 a 3 a 3 ",
"W. X{.E.i.t.i.r.<.<.-.3.s.M.M.a._ ( ( _ -.3.>.t.U.G.J.C.w 9 6 w b.F.S.b...} o.} & $ % % % % + = F K J F k k B k s a s a 3 a a 3 ",
"R.W.W.R.i.t.y.t.-.=.-.3.M.M.K.s.` ( ) ` >.q.>.t.I.F.J.C.e q q w 8.c.p.8.^ ~ ^ ~ = % * * % & + * A J H F j h j j 3 2 3 3 a a a a ",
"i.a.i.i.3.-.3.-.R R I ' R.W.W.R.t.t.t.t.t.i.t.v.h.5.5.2.^ ~ ' ~ : * = = & & & & p p p p & % + = F K H F a 3 s 3 * & % = p p 3 p ",
"<.t.t.q.-.3.3.-.T Y I ' W.}.{.W.i.t.u.x.i.i.z.v.f.$.$.$.} } ..^ % . $ # % % $ % a a a a & % + = F J H F p 2 a 3 % + + % p s 3 s ",
"t.i.i.y.3.-.q.-.R Y e _ W. X}.W.i.e.i.t.i.i.z.x.h.5.5.5.^ ~ ' ~ % # # % % & % * p p p p & % O = D P K H a 3 p p * + + & a s p s ",
"t.i.i.t.3.3.q.-.R T Y _ R.W.W.T.i.t.i.t.i.t.t.v.f.$.$.$.{ ^ ..~ : % * = & % % * p a p p & % O * A J H A a 3 a p * & & * 3 3 3 p ",
"q.>.>.>.e.e.e.e.*.*.*.*._ ! ! ' y.i.i.i.i.i.t.v.d w w e @.5.$.%.0.k.N.0.= $ % & p p a p * + % * p s a a p p p p p p p 3 * & + = ",
"q.-.-.>.<.u.u.<.=.*.=.*.I u u Y t.i.i.t.i.i.i.v.t q 6 w 5.5.$.5.N.A.D.p.: # % * p p a p = % % % 2 p 2 3 p p p p p a s p & + O * ",
"q.>.q.q.e.t.e.e.*.*.=.*.Y Y I T t.i.t.i.i.i.i.v.t 9 7 w 5.7.5.7.B.A.H.N.: # % & p p p p % O O @ p a p p p 3 3 p p 3 p 3 * % + = ",
">.-.>.-.q.e.e.q.*.*.=.*.! Q Q _ t.i.i.i.t.t.i.x.d w w r +.%.@.@.0.0.c.8.& $ % * p s a p * & = = p p p p p s p p p a s p = % + = ",
"=.=.=.=.*.=.*.=.<.u.<.<.Y.E.E.Y.e.e.u.t.` _ ` ;.f.@.2.@.: % = : = : = : % % % * h l h h h h j h s p 3 p j j j j h j l h * O & & ",
"*.=.*.*.*.*.*.*.<.z.<.a.[.|. XW.e.<.u.<.` ( ( ;.j.5.7.%.% # $ $ $ $ # o & & % & h B k l l l B l p 3 3 p j l k l k k l k = % % % ",
"=.=.=.=.*.*.*.*.<.<.,.t.W. X XE.e.<.<.<.( ( ( X.f.5.7.@.$ . X X $ % $ $ + + X % l B l l k k l j 3 < 2 3 j l j k k k B h % O % % ",
"*.*.*.*.*.*.*.=.e.e.<.i.E.E.W.E.t.<.u.e.` ` ` ;.f.5.5.#.: * ; = & & : = = * % = h k h h j j k h s a a a j l j j k j l h * % & * ",
"R E T R q.i.q.i.T.W.W.Y.*._ ) ;.s.M.n.M.m.n.n.M.O.{ W } U.^.!.Q.%.+.$.#.A D F A ; + % = p s 3 a n M M n k j k j a 3 p p p p 2 p ",
"R Y Y T t.x.t.i.W.}. XE._ U / ( M.K.M.M.M.K.M.L.| ^ W } )._._.).7.1.4.5.K G P J & X O & 3 p 3 a M N M M j h l j p 3 p p a s p s ",
"Y Y Y Y t.i.e.i.W. X}.W.) / ( ) M.K.M.H.M.M.M.L.O.{ W } !.).).^.8.1.2.%.K K P F % X O + 3 p < a M N N M k h j h 3 3 3 3 p p 2 p ",
"! R R R y.i.t.i.R.W.W.T.` ( _ ] a.M.M.m.M.M.m.H.O.} W } ~./.^.~.$.+.1.@.A F J Z ; % & * p s 3 s n m m m l j k k s 4 s p p p 3 a ",
"a.n.n.n.M.s.M.s.q.3.3.3.q.e.e.q.] ) ) ` <.q.>.y.| { ~ } c.N.B.c.e 9 w w = * % > Z F F F j h k h a a p a A J J F j h j h p p 3 p ",
"M.K.D.D.M.M.K.M.=.*.-.-.e.e.u.t.( / ( _ -.-.>.4.| { ~ } p.c.N.9.w 9 0 q + X X % F P K J k j l k 3 < 2 p H K J F l j l l s 3 3 p ",
"n.D.M.M.M.M.M.M.q.>.q.q.<.a.a.<./ / / ( -.3.-.t.| ~ W } 0.c.N.k.q 5 8 6 & % + = F L K F k j l j a 3 2 a S J J F l j l j a p 3 s ",
"n.M.M.n.M.M.M.a.-.-.-.-.<.<.e.<.] ] ] ] 3.q.3.t.#.^ [ } c.N.B.k.y w y t & % O ; A J F F k h k j a 3 3 a D J H F j h j j p 3 3 p ",
"i.y.i.t.-.*.=.*.R R Q T / Q T _ W.W.W.Y.-.-.6.t.f.%.@.%.C.G.S.G.'.'.oX'.; X % * j l k k j k k j a 3 2 a F J J F s 3 a p = % & = ",
"t.t.i.t.*.*.*.*.T Y Q E Y Y u ! W. X XW.q.:.>.y.f.5.%.5.F.J.S.J.OX@X#XOX> X O % h k j j k k k j a 3 3 a F J J A 3 2 a 3 % + + % ",
"i.t.i.i.*.*.=.*.T Y Y Q Q Q u ! W.W.}.W.3.=.>.6.f.5.@.5.G.J.G.I.@XOX$XoX=   o % j B k k l l B l a 3 3 a F K K J s 3 s 3 @ O + % ",
"r.t.i.t.*.*.=.*.! Q ! ! Q ! I ' E.W.W.T.3.-.>.t.f.5.@.5.C.F.S.F.'.'.oX`.: # % ; h l j j h h h h a 3 3 a A H H D a 3 a 3 * = * = ",
"*.=.*.=.r.r.r.r.t.t.i.t.*.*.] =.M.M.M.M.t.t.i.x.f.$.5.$.} { ..^ > = = > f c x f s 3 s p = * = * 3 s 3 s s s s s 3 3 3 a h j h h ",
"*.=.*.*.r.r.a.i.i.i.i.i.=.=.*.=.n.M.M.n.t.i.i.x.f.$.5.$.~ W ^ ~ o .   o c v v c 3 3 p 3 @ + X @ 3 s p 3 < 2 2 3 p a 3 a k B l l ",
"&.*.) *.r.a.r.r.i.t.i.t.=.=.*.=.M.M.M.M.i.i.i.m.h.2.5.$.^ ^  .~ + . . $ c v v c p 2 4 3 % + % = 2 3 2 3 p p 3 a 3 3 3 3 k l k k ",
"=.=.=.-.r.r.r.r.t.i.i.e.*.*.&.=.M.M.M.M.t.t.t.x.f.%.5.%.^ ^ ..~ : * = : f c x f a a s p * % % * p s s s p p s 4 a s 3 s j k j k ",
"T.W.W.T.-.*.&.=.n.M.D.n._ Y Y ! m.K.M.m.=.*.-.6.h.2.%.%.%.@.@.5.Q.!.(.Z.: $ % ; h k k h 4 3 2 a A J F A a 3 3 4 j j j j a 3 a a ",
"W.}.}.W.=.` *.*.M.D.D.m.R Y Y ! n.D.D.n.*.*.*.:.h.%.$.%.5.5.@.5./._.|./.:   X % k B l k s a 3 s J K K J a 3 3 a k B k k 4 3 3 3 ",
"W.[.[.E.=.*.] :.n.D.D.n.R Y Y ! m.M.M.n.=.*.=.=.%.$.%.%.5.%.@.5.~./.).!.; X + = h l k h a 3 3 s A J J S s 3 3 s j k k k a 3 4 a ",
"[.{.{.[.6.:.:.6.H.L.L.M. .[ [ ..H.L.L.H.:.,.:.g.l.h.h.h.f.f.d.j./.)._.!.1 ; ; , z C C z g g s g K P P K g s g g B V V V g g g g "
};
