/* XPM */
static char *result[] = {
/* columns rows colors chars-per-pixel */
"64 64 195 2 ",
"   c #311316",
".  c #34121B",
"X  c #351D1C",
"o  c #381B1E",
"O  c #36211E",
"+  c #39221E",
"@  c #3E291F",
"#  c #381620",
"$  c #3A1D21",
"%  c #3D2522",
"&  c #3E2A23",
"*  c #412525",
"=  c #412A25",
"-  c #412629",
";  c #452D29",
":  c #433226",
">  c #453229",
",  c #4A362F",
"<  c #57382F",
"1  c #4C3831",
"2  c #573B33",
"3  c #5A3E35",
"4  c #5A3F38",
"5  c #245A14",
"6  c #2A5E17",
"7  c #295F19",
"8  c #276615",
"9  c #2D631B",
"0  c #2E6A1C",
"q  c #31651D",
"w  c #346A1E",
"e  c #34721F",
"r  c #356B20",
"t  c #396E21",
"y  c #3A6D28",
"u  c #3B7223",
"i  c #3D7E22",
"p  c #3F732A",
"a  c #5D4037",
"s  c #5E4139",
"d  c #61433A",
"f  c #40732A",
"g  c #5E5C5C",
"h  c #654A41",
"j  c #765346",
"k  c #785447",
"l  c #775549",
"z  c #7A5649",
"x  c #7D594B",
"c  c #7F5D50",
"v  c #5F6161",
"b  c #626363",
"n  c #666A6A",
"m  c #686C6C",
"M  c #736F6F",
"N  c #757575",
"B  c #787D7F",
"V  c #815B4D",
"C  c #805E51",
"Z  c #826052",
"A  c #876A5E",
"S  c #896A5F",
"D  c #8C6663",
"F  c #8C6D62",
"G  c #8F7065",
"H  c #917266",
"J  c #947469",
"K  c #97796D",
"L  c #99796D",
"P  c #3E8422",
"I  c #448526",
"U  c #458926",
"Y  c #498B27",
"T  c #478728",
"R  c #4F852B",
"E  c #478928",
"W  c #4B8D29",
"Q  c #52852D",
"!  c #558B2F",
"~  c #459325",
"^  c #499626",
"/  c #4D9B27",
"(  c #479528",
")  c #4B9529",
"_  c #4D9A29",
"`  c #509E27",
"'  c #54912E",
"]  c #519D2A",
"[  c #4E8C32",
"{  c #578B30",
"}  c #588E30",
"|  c #5D8F39",
" . c #549332",
".. c #599531",
"X. c #539C33",
"o. c #599C31",
"O. c #5F923A",
"+. c #639535",
"@. c #659B37",
"#. c #65963A",
"$. c #679D38",
"%. c #689F38",
"&. c #56A42C",
"*. c #58A62D",
"=. c #57A82D",
"-. c #5CAB2E",
";. c #57A034",
":. c #5CA736",
">. c #56AF32",
",. c #5EAD31",
"<. c #5EB234",
"1. c #60AF2F",
"2. c #66A436",
"3. c #69A436",
"4. c #60AF31",
"5. c #68AC36",
"6. c #6AA23A",
"7. c #61AB39",
"8. c #6DAA3B",
"9. c #76A53E",
"0. c #75AD3D",
"q. c #78AF3E",
"w. c #61B334",
"e. c #65B737",
"r. c #69B936",
"t. c #65B539",
"y. c #6AB43C",
"u. c #64B939",
"i. c #6ABA3B",
"p. c #7AB13E",
"a. c #76C23E",
"s. c #78C53F",
"d. c #6E9E41",
"f. c #6EA242",
"g. c #68AE42",
"h. c #70A542",
"j. c #73A944",
"k. c #79AD41",
"l. c #77A94C",
"z. c #69B740",
"x. c #6DBB43",
"c. c #7CB342",
"v. c #71BD44",
"b. c #7EBB43",
"n. c #7AC641",
"m. c #7AC646",
"M. c #7DCA43",
"N. c #80B744",
"B. c #82BA45",
"V. c #85B94A",
"C. c #86BC4A",
"Z. c #92BB5F",
"A. c #84C246",
"S. c #89C246",
"D. c #81CD45",
"F. c #8BC34B",
"G. c #84CC4D",
"H. c #92CC4E",
"J. c #84D146",
"K. c #87D14C",
"L. c #91CB50",
"P. c #93C558",
"I. c #96D855",
"U. c #9BDB56",
"Y. c #9DDE59",
"T. c #A0DE5B",
"R. c #9FE05A",
"E. c #A4E35D",
"W. c #A8E65E",
"Q. c #96C361",
"!. c #9BC765",
"~. c #97C961",
"^. c #9BCC64",
"/. c #9CC66A",
"(. c #9ECE69",
"). c #9FD167",
"_. c #A0CF68",
"`. c #A3D36B",
"'. c #A5DC6A",
"]. c #A5C679",
"[. c #A6CC7A",
"{. c #A8D575",
"}. c #A6E461",
"|. c #ACE665",
" X c #AEEA64",
".X c #B1EE65",
"XX c #ABE770",
"oX c #ABCE81",
"OX c #ABD280",
"+X c #B1DA84",
"@X c #B5D989",
"#X c #B5E285",
"$X c #BAE58C",
"%X c #C1EB91",
"&X c #C1F290",
/* pixels */
"c k z j d 4 3 d F G S G S S H S s 2 3 3 d d d a d d d s a 3 3 a a d d a ; = = = * * * = a d a a d a d a = * + = j x z k a 3 s h ",
"Z z x z 3 2 < a F J G G J G J G d 3 d d 2 2 3 3 2 2 2 3 s s d s 3 3 a 3 + o + + * * + * 3 a 3 3 3 3 3 2 % % + & j V x k s 3 3 h ",
"Z z x k d d 3 d G J J J J H J G d 2 3 s 3 3 3 3 3 a 3 3 a a 3 s a d d a = + % % * $ # # 3 d a a 3 a a 3 % + O = k V x k s 3 3 h ",
"C k z j 3 3 2 4 S G S S S S G S s 3 s 3 d a d 3 a s s a a a s s a 3 a 3 = + = * - - - - 3 a a a a a d a = % + = j z k k d 3 s h ",
"h s s a = % % = d d d d d a d a s a 3 s j z z j k k k j s 3 s 3 = % % = 3 a 3 a k k k k s 3 4 s j z z j a 3 3 a s s 3 d j z k c ",
"h 3 a 3 % % % % 2 3 < 3 3 3 < 3 3 s 3 d k x z z z x x k s 3 s 3 % + % & a d a s z V V z s 3 3 s k x x z d a d a 3 3 3 3 k x x C ",
"d s s 3 % + O % 3 d a a a a d 3 3 3 3 a k z k z V V V z 3 2 s 3 % + + % a s 3 s k z z k 3 3 4 4 j k z j 3 2 3 3 a a 3 d z x z C ",
"h s s s = % & = 3 a a a a a 3 d s s 3 s z z z z j j j j d a s s = * % = 3 d 3 s k z z k d 3 4 4 k x x k s a d a a a 3 a k k k C ",
"C k k j j j j j d 3 a a d a 3 d k k k k z z x j = % % ; j x z j a 3 3 3 a a 3 a k k z k j j j j S G G S S S G S d 3 a a d d 3 h ",
"C z z x x x V x a 3 a a 3 a 3 a k x z z z k x j % O X % k V x k d a d s a a 3 d k x z z V l k V G J G G J H J G d 2 a 3 3 3 3 h ",
"C k k z k x x x a 3 3 3 a 3 3 d j k j k j j x j & O + % j z k j 3 2 3 3 a a 3 a k x x z l k j l G J J H H H K G a 2 3 d 3 3 2 d ",
"C z k k k j k k d 3 d 3 a d 3 3 z x z k z z x k = % % = k x x k d a d a a a 3 d j z j k l l l l S S S G S S F S d 2 d 3 d d d h ",
"C k x k d a a d k k k k d 3 3 d S H F F F F H F a 3 2 a F H F F S F F S a 3 a a s d 3 s M N N N d d d a d s d d 3 s 3 s S F S H ",
"C k z k 3 2 3 3 z x x z 3 3 2 d F H G H F H H F d 3 3 d F H G G H H K G a 3 a a 3 3 3 s N B B N a < 3 2 3 3 2 2 s 4 3 s G K H L ",
"c j k k a 3 3 a k x x z s 3 2 d H K J H H H K F s 3 3 s H K J J H H L H d 3 d a 3 3 < a N l.B N d < 3 3 3 3 3 3 d d 3 d F J H L ",
"C z x k d 3 3 d k k k k s 3 2 d A G S D F F F S s 2 3 s A F S D D S G A a 3 3 3 s d 3 d M N B M d 3 3 d a a d a 3 3 2 s F G F H ",
"J F G F s 2 a a s a d s a a s a ; = = ; a d d d a a s a = & = = = = = = & % % = j x z j d s s d j k k k k k x j * % % = s d s h ",
"K F J F s 3 a a a 3 3 3 a a s a + X + + 2 3 3 3 a a s a % X + + % + + O % % % % j V x z 3 < 2 3 z V z z z x V j % O % % 3 3 3 d ",
"K G J G d 3 s s 3 3 3 3 a 3 d 3 + + + + a d a a s s d a & % % % % % % % % % O % j x x j d 3 4 d j k k j k z x j = $ O % 3 s s h ",
"J F G D s 2 3 a s a d s a a d 3 = = % = a a 3 a a 3 s 3 & % % & & % = * & % % = j x z k s 3 3 s k x z z k k x j = % % = 3 s s h ",
"h s d a = % % = j x z j s 3 3 s g v b g = + = * * = % = % % % * 3 s 3 3 3 3 3 a k x x j = % + = S J G F z k x k 3 3 3 a j z j c ",
"d 3 3 3 % + O = k V x k a 3 3 s b n n b & + % + % % % % & & % * a d s s s d s d k z x j & O X & S J H F z j z j d 4 s d z x z Z ",
"h s s 3 % % % % k V V x d 3 3 s b n n b % X $ % % & & & $ % o % s d s s d s 4 d x V V x + X X % G L K H x k V x 3 3 3 3 x x x Z ",
"h s d 3 & % % = j z k j a 3 3 a g v b g = @ = = = % % % = & & = 3 a a a 3 3 3 3 j j k j ; & + ; S F F S k j k j s a a s j z j c ",
"h 3 s a = + % % = = & = a s s a = & % ; +.%.%.#.= $ $ = Q ! } Q & % = = * & * = & & % ; A G G A > % = = = = % ; g b b g ; % = , ",
"h s s 3 = % = % % + + % a s s a % o o @ 6.y.y.6.= $ % = { o.o.! & $ % % % % % % % % . & G L L G %   % + + % X % b n n g & X % ; ",
"h s d s % $ $ $ % % $ * a d d a o .   o +.3.3.+.% . . $ Q ' ! Q & $ & % % # # $ % & + = D K J D * o % % o .   X b n m b $   X % ",
"h a s 3 = & = & & & % = 3 s a 3 > : = > $.8.8.$.: * = : { ....Q & % % % & : : & % & + = A H H A & % % & > : & > g b b g > & > 1 ",
", & % & Q { ! Q q q w q & * X > ].+XoX[.!.~.^.~.C.V.C.C.c.p.B.k.: # $ = 9.c.b.9.= % $ & #.8.6.+.r q 6 t ].+X+X].> X $ > Z.).Q./.",
"; % $ & { o... .w w e w & $ . ; +X&X$X#X_.(.`._.H.H.H.H.N.N.A.k.& $ $ = c.G.J.c.= $ $ & %.5.3.2.e 0 8 u +X%X%X+X=   . = (.XX'.{.",
"; $ # % Q ..} ! w 9 0 q % $ . = [.$X@X@X(.^.(.^.S.S.S.S.B.N.S.c.= # # % q.A.B.q.: $ + = +.3.%.+.9 7 5 r oX$X$XoX= . . * /.'.`.`.",
"1 & % > Q ..} Q w w e w & = o : [.#XOX{.^.^.^.^.F.F.H.F.p.0.b.0.: % % : q.B.B.k.= $ o = $.8.8.%.u w 9 u {.@X#X[.> X % : Q.).^.(.",
"d.@.@.@.! ! ! ! @.$.$.@.Q Q Q Q c.V.c.c.F.F.F.F.^./.`.P.f q w e Q Q R ! $.6.8.@.& $ o : Q.).^.~.c.0.q.c.F.F.L.F.{ Q Q Q 6.6.3.j.",
"j.8.8.6.! ! ! ! 6.6.8.6..... . .0.p.p.p.F.F.S.F.^.`.`.!.q 5 9 q } ..! ..$.$.6.@.= $ # : /.'.`.^.V.c.c.B.S.A.F.C...! ' ' @.%.$.%.",
"h.%.3.$.} ! ! } %.6.3.%.{ Q Q { c.B.c.B.F.F.S.L._.`.`.^.q 5 6 q R { Q ! 6.8.8.%.% . . = ^.'.`.`.N.c.c.B.F.L.L.S.! R ! ! %.3.%.h.",
"h.%.$.%.! ! ! ! $.6.$.$.{ { { } c.c.0.c.F.F.C.F.^.^.`.P.u q w e { ..{ } @.2.6.+.: % % : Q.).(.~.c.q.p.c.F.F.F.B.} ! ! ! %.%.%.h.",
"f.%.6.$.t w 0 r { } { { $.%.3.$.! ! ! } 6.6.6.6.c.N.c.c.C.C.F.C.%.@.3.@.t w q t @.$.@.#.} } }  .} { { } $.6.6.6.%.%.$.$.%.%.%.h.",
"h.%.3.%.w 9 9 q Q } R { %.6.6.%.! Q R ! @.$.@.@.q.p.c.c.H.H.H.H.6.%.6.$.q 7 9 w 6.8.8.8.Q R R R ! Q R ! @.$.@.%.%.%.3.3.%.%.%.h.",
"%.%.6.@.r 9 0 r R } { { $.3.3.%.! ! ! ! $.6.$.$.c.c.c.c.S.F.F.A.6.@.6.%.w q 9 w @.6.6.$.} { } { { ! ! ! $.6.$.6.%.%.%.%.%.%.%.%.",
"l.h.j.f.p y y p O.O.O.O.h.h.h.f.O.| O.O.f.f.f.l.c.V.V.V.P.L.P.P.h.f.j.f.f y y f f.j.f.f.O.| O.O.O.O.| O.f.j.f.f.h.h.h.h.f.h.h.l.",
"g.:.:.7.7.y.t.5.i.t.5.z.:.:.:.7.z.x.i.x.;.;.X.;.z.x.x.x.t.t.y.t.v.v.x.v.x.x.v.x.;.X.X.;.M.K.G.G.y.7.y.7.5.t.7.t.v.v.x.x.7.:.7.g.",
"&.*.&.&.4.4.,.,.,.,.,.,.=.;.&.&.<.u.u.u._ ^ ^ _ u.u.u.<.,.,.-.-.t.i.i.y.i.i.z.i._ ) ( _ M.M.M.m.,.,.4.4.,.,.4.<.t.z.i.t.=.&.&.*.",
"7.*.*.*.-.,.,.,.<.,.w.1.&.&.&.&.u.u.u.<._ ( _ _ <.u.u.w.<.<.,.w.t.i.t.i.i.t.i.t._ ) ( _ s.M.M.M.w.,.w.1.,.>.=.-.t.i.y.t.&.&.&.:.",
":.&.&.&.-.4.,.,.,.,.1.<.*.&.&.&.<.u.u.<._ ) _ _ <.u.u.w.,.,.-.<.i.i.z.t.i.i.i.t._ ^ _ _ n.J.M.M.,.-.-.-.1.4.1.1.t.i.i.i.=.&.*.7.",
"..Y Y Y ,.w.,.-.=.&.&.&.<.<.u.<.&.&.&.&.e.i.e.e.t.t.i.t._ _ _ _ t.i.i.t.i.i.i.t.<.<.<.<.m.M.M.M.] ) ^ ] I.E.R.U.M.n.n.M.n.n.n.G.",
"[ I I I ,.w.w.,.&.&.&.&.u.u.u.u.&.&.&.&.t.i.i.i.i.t.i.i._ ) ^ ^ t.i.t.i.t.t.t.i.i.u.<.a.m.M.M.M._ ( ~ ] E. X XE.M.M.M.M.M.D.D.G.",
"[ I I I =.w.w.-.&.&.&.&.<.<.w.<.&./ ] &.i.i.i.i.i.i.i.t._ ^ ^ ^ <.i.t.t.i.i.i.i.<.<.>.<.M.M.J.M._ ~ ~ _ E..X XW.M.M.D.D.D.D.M.K.",
" .T Y Y -.w.w.,.&.&.&.=.u.u.u.u.&.&.&.*.t.i.t.t.t.i.i.i._ ^ _ _ t.i.i.t.t.i.i.t.u.u.<.u.n.M.M.n._ ( ^ ] U.E.E.R.M.n.n.n.n.n.n.G.",
"i.r.r.r.&.&.&.&.,.-.-.4.a.D.s.M.U.Y.E.U.=.&.&.&.e.y.t.i.a.n.a.n.U.T.}.U.' I I ) I.W.E.U.&.^ _ ] w.<.u.<.) ! W W *.*.=.*.W T W ..",
"m.i.a.i.*.] &.&.-.w.-.4.n.D.n.D.E..X XE.*./ &.&.e.i.t.i.D.D.M.D.E. X.XE.W i i Y R..X XE._ U ~ ^ t.u.i.u.I i P I ] *.&.` Y I I W ",
"n.r.r.r.*.&.*.*.-.-.=.4.n.D.n.D.W.W. XE.-./ &.*.t.i.i.i.M.D.M.D.}. X.XE.) i I E R. X XE._ P Y ^ <.u.u.<.Y U U W &.*.*.&.T I T [ ",
"v.i.r.r.&.&.&.&.,.w.-.4.n.M.n.M.U.E.E.U.-.] &.&.t.i.t.i.s.M.s.n.U.E.W.U.W I I W U.}.E.R.&._ _ ] u.u.u.u.Y I T T &.*.*.&.Y Y Y  .",
"v.i.i.i.Y U I Y a.M.n.n.n.M.D.s.&./ &.] -.1.-.,.t.t.u.u.<.,.w.1.) W W ' &.&.] &.i.u.u.i.I.T.T.I.w.=.1.-.Y T T Y t.i.t.e.n.n.n.m.",
"x.i.i.t.Y I I T n.J.M.D.M.M.D.n.^ U ~ ~ -.w.1.1.<.<.<.<.,.,.4.-.I i i I &.=.&.=.<.<.>.<.E..X.XW.1.=.1.-.Y T U W t.i.t.i.M.D.D.G.",
"v.t.i.i.Y I I Y n.J.D.D.M.M.D.n.] ^ _ _ -.1.-.w.u.u.u.u.,.,.<.-.Y I I I ] =.&.&.<.a.<.u.E. X.XT.1.*.1.-.T I I T t.i.t.i.M.D.D.K.",
"v.t.i.t.W I I Y a.D.s.s.M.n.D.n._ ^ ) _ -.4.,.-.u.u.t.<.,.,.1.-.W U U Y &.=.&.>.<.<.<.u.U.E.E.T.e.-.w.-.Y Y U Y t.i.t.i.n.M.m.G.",
"t.4.w.1._ ) _ ) ] ] _ _ n.D.D.n._ ^ _ _ -.<.,.4.u.<.u.<.t.i.t.e.-.-.-.-.4.w.u.<.*.] *.*.i.i.i.i.s.M.M.s.*.] &.&.i.i.r.r.=.&.&.4.",
"7.-.-.-._ _ _ _ ^ ^ ^ ) n.M.D.n.` ^ _ _ -.<.-.w.t.u.u.t.y.i.i.i.4.4.w.4.e.u.u.u.*.&.&.&.w.i.t.w.M.D.D.M.-.&.*.=.r.r.a.r.&.&.&.:.",
"y.4.-.-._ ) ) _ _ _ ( ) n.J.D.M._ ^ ) _ 1.<.<.w.<.a.i.u.t.t.t.w.,.-.,.,.u.u.u.<.*.&.&.&.i.i.i.i.n.M.D.n.&.&.&.&.i.r.a.r.&.` &.;.",
"7.,.<.,._ _ _ _ _ _ ) _ n.M.M.n._ ^ ) _ -.1.-.-.<.>.<.<.i.i.i.i.4.,.4.1.<.<.u.u.&.*.&.&.w.i.t.i.n.M.D.s.*.] &.&.r.a.r.r.*.*.=.7.",
"y.,.-.,.t.t.t.t.-.-.-.-.,.,.w.<.&.&.&.&.&.;.&.&.( Y I ) U.E.E.U.i.w.i.t.<.,.<.-.&.&.*.&.W U U W n.D.M.n.i.t.t.t.=.&.&.-.I.E.U.}.",
"t.7.,.<.i.i.i.i.w.-.4.w.,.,.,.-.&.&.*.*.=.&.=.&.E I i W E..X XE.i.t.i.i.,.,.w.,.*.&.*.&.I I I T n.D.M.M.i.i.i.i.&.&._ *.E..X}.|.",
"i.w.w.w.t.i.i.i.-.-.-.-.4.,.<.,.&.&.&.&.&.&.&.&.E T i Y T..X X}.i.i.i.i.,.-.-.-.*.*.=.&.U I I E M.J.D.M.e.t.i.t.*.*.&.=.E. X}.|.",
"7.-.-.-.t.i.i.t.4.4.4.4.,.<.,.,.&.*.*.&.*.&.=.&.Y E I W U.E.E.Y.i.w.t.e.w.-.<.w.&.&.*.&.Y T I Y n.M.M.n.i.t.i.e.&.&.] *.U.}.T.}."
};
